<svg width="19" height="25" viewBox="0 0 19 25" fill="none" xmlns="http://www.w3.org/2000/svg">
<path d="M19 8.46469C19 8.24709 18.8337 8.07067 18.6286 8.07067C17.1555 8.07067 15.9571 6.79922 15.9571 5.23645V0.394014C15.9571 0.176413 15.7909 0 15.5857 0H12.5428C12.3377 0 12.1714 0.176413 12.1714 0.394014V2.00816C12.1714 3.57098 10.973 4.84238 9.49998 4.84238C8.02691 4.84238 6.82852 3.57093 6.82852 2.00816V0.394014C6.82852 0.176413 6.66228 0 6.45713 0H3.41428C3.20913 0 3.0429 0.176413 3.0429 0.394014V5.2364C3.0429 6.79922 1.84446 8.07062 0.371387 8.07062C0.166233 8.07062 0 8.24704 0 8.46464V11.3418C0 12.0289 0.253731 12.6847 0.69479 13.1724C0.253731 13.6602 0 14.316 0 15.003V17.3939C0 18.081 0.253731 18.7368 0.694741 19.2245C0.253731 19.7122 0 20.368 0 21.055V24.606C0 24.8236 0.166233 25 0.371387 25H18.6286C18.8338 25 19 24.8236 19 24.606V21.055C19 20.368 18.7463 19.7122 18.3053 19.2245C18.7463 18.7367 19 18.081 19 17.3939V15.003C19 14.316 18.7463 13.6602 18.3053 13.1724C18.7463 12.6847 19 12.0289 19 11.3418V8.46469H19ZM11.4559 14.1986C11.4559 14.271 11.4004 14.33 11.3322 14.33H7.6678C7.59952 14.33 7.54401 14.271 7.54401 14.1986V12.1463C7.54401 12.0739 7.59952 12.0149 7.6678 12.0149H11.3322C11.4004 12.0149 11.4559 12.0739 11.4559 12.1463V14.1986ZM0.742774 8.83737C2.45135 8.64042 3.78562 7.10061 3.78562 5.2364V0.788029H6.08569V2.00816C6.08569 3.87232 7.42006 5.41155 9.12854 5.60861V11.2269H7.66775C7.18995 11.2269 6.80118 11.6393 6.80118 12.1463V12.7784H1.38577C0.981253 12.4281 0.742724 11.8997 0.742724 11.3418L0.742774 8.83737ZM0.742724 15.0031C0.742724 14.4452 0.981253 13.9169 1.38577 13.5665H6.80123V14.1987C6.80123 14.7056 7.19 15.1181 7.6678 15.1181H9.12859V17.279H7.6678C7.19 17.279 6.80123 17.6915 6.80123 18.1984V18.8305H1.38577C0.981253 18.4802 0.742724 17.9518 0.742724 17.394V15.0031ZM11.4559 20.2507C11.4559 20.3231 11.4004 20.382 11.3322 20.382H7.6678C7.59952 20.382 7.54401 20.3231 7.54401 20.2507V18.1984C7.54401 18.126 7.59952 18.067 7.6678 18.067H11.3322C11.4004 18.067 11.4559 18.126 11.4559 18.1984V20.2507ZM0.742724 21.055C0.742724 20.4973 0.981253 19.9689 1.38577 19.6185H6.80123V20.2507C6.80123 20.7576 7.19 21.17 7.6678 21.17H9.12859V24.2119H0.742724V21.055ZM18.2572 11.3419C18.2572 11.9399 17.9831 12.5044 17.5242 12.8517C17.4264 12.9256 17.3684 13.0451 17.3684 13.1725C17.3684 13.2998 17.4264 13.4193 17.5241 13.4933C17.9831 13.8406 18.2572 14.405 18.2572 15.0031V17.394C18.2572 17.9921 17.9831 18.5564 17.5241 18.9038C17.4264 18.9777 17.3684 19.0972 17.3684 19.2246C17.3684 19.3519 17.4264 19.4714 17.5242 19.5454C17.9831 19.8926 18.2572 20.457 18.2572 21.0551V24.212H9.87136V21.1701H11.3322C11.81 21.1701 12.1987 20.7577 12.1987 20.2508V19.6186H15.5857C15.7909 19.6186 15.9571 19.4422 15.9571 19.2246C15.9571 19.007 15.7909 18.8306 15.5857 18.8306H12.1987V18.1984C12.1987 17.6915 11.81 17.2791 11.3322 17.2791H9.87136V15.1181H11.3322C11.81 15.1181 12.1987 14.7057 12.1987 14.1988V13.5665H15.5857C15.7909 13.5665 15.9571 13.3901 15.9571 13.1725C15.9571 12.9549 15.7909 12.7785 15.5857 12.7785H12.1987V12.1464C12.1987 11.6394 11.81 11.227 11.3322 11.227H9.87136V5.60861C11.5799 5.41155 12.9142 3.87232 12.9142 2.00816V0.788029H15.2143V5.2364C15.2143 7.10061 16.5486 8.64042 18.2572 8.83737V11.3419Z" fill="black"/>
</svg>
