<svg width="26" height="26" viewBox="0 0 26 26" fill="none" xmlns="http://www.w3.org/2000/svg">
<g clip-path="url(#clip0)">
<path d="M23.8333 12.5669H21.2333C20.0374 12.5684 19.0681 13.5377 19.0667 14.7336V15.3324L17.554 14.5759L18.5294 11.6486L25.642 10.392C25.7704 10.3693 25.8817 10.29 25.9452 10.1762C26.0086 10.0623 26.0175 9.92586 25.9693 9.80483L24.236 5.47151C24.1697 5.30731 24.0104 5.20004 23.8333 5.20025H16.7523L16.3801 4.33359H19.0667C19.2399 4.33359 19.3967 4.23033 19.4649 4.07101L20.6523 1.30026H23.4C23.6393 1.30026 23.8333 1.10623 23.8333 0.866926C23.8333 0.62762 23.6393 0.433594 23.4 0.433594H20.3667C20.1934 0.433594 20.0368 0.536849 19.9684 0.696175L18.7812 3.46692H16.0333C16.0255 3.46692 16.0191 3.47094 16.0113 3.47136L15.5649 2.4312C15.4972 2.27124 15.3404 2.16735 15.1667 2.16692H10.8333C10.66 2.16692 10.5035 2.27018 10.4351 2.4295L9.98889 3.46946C9.98106 3.46946 9.9745 3.46523 9.96667 3.46523H7.21899L6.03156 0.694482C5.96279 0.535791 5.80622 0.433382 5.63335 0.433594H2.60002C2.36072 0.433594 2.16669 0.62762 2.16669 0.866926C2.16669 1.10623 2.36072 1.30026 2.60002 1.30026H5.34792L6.53514 4.07101C6.60348 4.23033 6.76006 4.33359 6.93335 4.33359H9.62009L9.24876 5.20025H2.16669C1.98938 5.20025 1.82984 5.30816 1.76425 5.47278L0.0309189 9.8061C-0.0175348 9.92734 -0.00864809 10.0636 0.0548283 10.1774C0.118305 10.2915 0.2296 10.3706 0.358034 10.3933L7.47078 11.6501L8.4462 14.5772L6.93335 15.3324V14.7336C6.86119 13.5681 5.93211 12.6391 4.76668 12.5669H2.16669C1.00126 12.6391 0.0721785 13.5681 2.70129e-05 14.7336V23.4002C0.0721785 24.5656 1.00126 25.4947 2.16669 25.5669H4.76668C5.93211 25.4947 6.86119 24.5656 6.93335 23.4002V19.3183L9.53334 17.8331L9.99016 19.2038C10.049 19.3805 10.214 19.4998 10.4 19.5002H15.6C15.7866 19.5002 15.9523 19.3809 16.0113 19.2038L16.4667 17.8331L19.0667 19.3183V23.4002C19.0681 24.5963 20.0374 25.5654 21.2333 25.5669H23.8333C25.0294 25.5654 25.9985 24.5963 26 23.4002V14.7336C25.9985 13.5377 25.0294 12.5684 23.8333 12.5669ZM11.119 3.03359H14.8812L15.8093 5.20025H10.1907L11.119 3.03359ZM4.76668 24.7002H2.16669C1.48305 24.6236 0.943287 24.0839 0.866692 23.4002V22.1002H2.16669C2.406 22.1002 2.60002 21.9062 2.60002 21.6669C2.60002 21.4276 2.406 21.2336 2.16669 21.2336H0.866692V18.6336H2.16669C2.406 18.6336 2.60002 18.4395 2.60002 18.2002C2.60002 17.9609 2.406 17.7669 2.16669 17.7669H0.866692V15.1669H2.16669C2.406 15.1669 2.60002 14.9729 2.60002 14.7336C2.60002 14.4943 2.406 14.3002 2.16669 14.3002H0.974602C1.19127 13.8212 1.64428 13.492 2.16669 13.4336H4.76668C5.45033 13.5102 5.99009 14.0499 6.06668 14.7336V16.0336H4.76668C4.52738 16.0336 4.33335 16.2276 4.33335 16.4669C4.33335 16.7062 4.52738 16.9002 4.76668 16.9002H6.06668V19.5002H4.76668C4.52738 19.5002 4.33335 19.6942 4.33335 19.9336C4.33335 20.1729 4.52738 20.3669 4.76668 20.3669H6.06668V22.9669H4.76668C4.52738 22.9669 4.33335 23.1609 4.33335 23.4002C4.33335 23.6395 4.52738 23.8335 4.76668 23.8335H5.95877C5.74211 24.3126 5.28909 24.6418 4.76668 24.7002ZM6.93335 18.3202V16.3014L8.72296 15.4066L9.25256 16.9952L6.93335 18.3202ZM15.2877 18.6336H10.7125L8.21134 11.13C8.16098 10.9791 8.03191 10.8681 7.87534 10.8406L1.03363 9.63281L2.46016 6.06692H23.5401L24.9666 9.63281L18.1247 10.8406C17.9681 10.8681 17.8392 10.9791 17.7889 11.13L15.2877 18.6336ZM16.7474 16.9952L17.277 15.4066L19.0667 16.3014V18.3202L16.7474 16.9952ZM23.8333 24.7002H21.2333C20.6845 24.6979 20.1961 24.3511 20.0131 23.8335H21.2333C21.4726 23.8335 21.6666 23.6395 21.6666 23.4002C21.6666 23.1609 21.4726 22.9669 21.2333 22.9669H19.9333V20.3669H21.2333C21.4726 20.3669 21.6666 20.1729 21.6666 19.9336C21.6666 19.6942 21.4726 19.5002 21.2333 19.5002H19.9333V16.9002H21.2333C21.4726 16.9002 21.6666 16.7062 21.6666 16.4669C21.6666 16.2276 21.4726 16.0336 21.2333 16.0336H19.9333V14.7336C19.9333 14.0156 20.5154 13.4336 21.2333 13.4336H23.8333C24.3824 13.4359 24.8707 13.7827 25.0535 14.3002H23.8333C23.594 14.3002 23.4 14.4943 23.4 14.7336C23.4 14.9729 23.594 15.1669 23.8333 15.1669H25.1333V17.7669H23.8333C23.594 17.7669 23.4 17.9609 23.4 18.2002C23.4 18.4395 23.594 18.6336 23.8333 18.6336H25.1333V21.2336H23.8333C23.594 21.2336 23.4 21.4276 23.4 21.6669C23.4 21.9062 23.594 22.1002 23.8333 22.1002H25.1333V23.4002C25.1333 24.1181 24.5512 24.7002 23.8333 24.7002Z" fill="black"/>
<path d="M8.23463 6.93359H3.46796C3.28134 6.93359 3.11567 7.05293 3.05684 7.23003L2.62351 8.53003C2.58373 8.65 2.59854 8.78139 2.66371 8.88973C2.72909 8.99806 2.83849 9.07233 2.96311 9.09328L8.16311 9.95994C8.18681 9.96417 8.21072 9.9665 8.23463 9.96692C8.47393 9.96692 8.66796 9.7729 8.66796 9.53359V7.36693C8.66796 7.12762 8.47393 6.93359 8.23463 6.93359ZM7.80129 9.02176L3.60613 8.32288L3.77963 7.80026H7.80129V9.02176Z" fill="black"/>
<path d="M23.0369 9.09412C23.1615 9.07339 23.2709 8.99891 23.3363 8.89057C23.4017 8.78245 23.4163 8.65106 23.3767 8.53087L22.9434 7.23088C22.8845 7.05356 22.7189 6.93381 22.532 6.93359H17.7654C17.5261 6.93359 17.332 7.12762 17.332 7.36693V9.53359C17.332 9.7729 17.5261 9.96692 17.7654 9.96692C17.7893 9.96692 17.8132 9.96481 17.8369 9.96079L23.0369 9.09412ZM18.1987 7.80026H22.2197L22.393 8.32288L18.1987 9.02176V7.80026Z" fill="black"/>
<path d="M16.0352 10.8335H9.96849C9.72918 10.8335 9.53516 11.0275 9.53516 11.2668C9.53516 11.5061 9.72918 11.7002 9.96849 11.7002H16.0352C16.2745 11.7002 16.4685 11.5061 16.4685 11.2668C16.4685 11.0275 16.2745 10.8335 16.0352 10.8335Z" fill="black"/>
<path d="M15.1651 13H10.8318C10.5925 13 10.3984 13.194 10.3984 13.4333C10.3984 13.6726 10.5925 13.8667 10.8318 13.8667H15.1651C15.4044 13.8667 15.5984 13.6726 15.5984 13.4333C15.5984 13.194 15.4044 13 15.1651 13Z" fill="black"/>
<path d="M14.732 15.1665H11.2654C11.0261 15.1665 10.832 15.3605 10.832 15.5998C10.832 15.8391 11.0261 16.0332 11.2654 16.0332H14.732C14.9713 16.0332 15.1654 15.8391 15.1654 15.5998C15.1654 15.3605 14.9713 15.1665 14.732 15.1665Z" fill="black"/>
</g>
<defs>
<clipPath id="clip0">
<rect width="26" height="26" fill="white"/>
</clipPath>
</defs>
</svg>
