<svg width="34" height="33" viewBox="0 0 34 33" fill="none" xmlns="http://www.w3.org/2000/svg">
<path d="M32.6067 16.1059H27.7824C27.5667 10.1847 22.8163 5.43437 16.8951 5.21872V0.394331C16.8951 0.176525 16.7186 0 16.5008 0C16.283 0 16.1065 0.176525 16.1065 0.394331V5.21872C10.1853 5.43437 5.43491 10.1847 5.21926 16.1059H0.39487C0.177064 16.1056 0.000308474 16.2819 4.03148e-07 16.4997C-0.000307668 16.7175 0.175986 16.8943 0.393792 16.8946C0.394177 16.8946 0.394485 16.8946 0.39487 16.8946H5.21926C5.43491 22.8158 10.1853 27.5662 16.1065 27.7818V32.6062C16.1068 32.824 16.2835 33.0003 16.5013 33C16.7187 32.9997 16.8948 32.8236 16.8951 32.6062V27.7818C22.8163 27.5662 27.5667 22.8158 27.7824 16.8946H32.6067C32.8246 16.8946 33.0011 16.7181 33.0011 16.5003C33.0011 16.2825 32.8246 16.1059 32.6067 16.1059ZM16.1065 6.02586V9.72271C12.6652 9.91772 9.91826 12.6646 9.72325 16.1059H6.0264C6.24968 10.634 10.6345 6.24914 16.1065 6.02586ZM16.1065 26.9747C10.6345 26.7515 6.2496 22.3666 6.0264 16.8946H9.72325C9.91826 20.3359 12.6652 23.0828 16.1065 23.2778V26.9747ZM16.507 19.1866C16.2892 19.1866 16.1126 19.3632 16.1126 19.581V22.483C13.1164 22.2829 10.7305 19.897 10.5304 16.9008H13.4201C13.6379 16.9008 13.8144 16.7242 13.8144 16.5064C13.8144 16.2886 13.6379 16.1121 13.4201 16.1121H10.5304C10.7305 13.1159 13.1164 10.7299 16.1126 10.5299V13.4196C16.1129 13.6374 16.2897 13.8137 16.5075 13.8134C16.7249 13.813 16.901 13.6369 16.9013 13.4196V10.5299C19.8975 10.7299 22.2834 13.1159 22.4835 16.1121H19.5815C19.3637 16.1118 19.187 16.2881 19.1866 16.5059C19.1863 16.7237 19.3626 16.9005 19.5804 16.9008C19.5808 16.9008 19.5811 16.9008 19.5815 16.9008V16.8946H22.4835C22.2834 19.8908 19.8975 22.2768 16.9013 22.4768V19.581C16.9013 19.3632 16.7248 19.1866 16.507 19.1866ZM16.8951 26.9747V23.2778C20.3364 23.0828 23.0834 20.3359 23.2784 16.8946H26.9752C26.752 22.3666 22.3671 26.7515 16.8951 26.9747ZM23.2784 16.1059C23.0834 12.6646 20.3364 9.91772 16.8951 9.72271V6.02586C22.3671 6.24906 26.752 10.634 26.9752 16.1059H23.2784Z" fill="black"/>
</svg>
