<svg width="32" height="32" viewBox="0 0 32 32" fill="none" xmlns="http://www.w3.org/2000/svg">
<g clip-path="url(#clip0)">
<path d="M10.2745 12.3599C9.56786 12.3599 8.99292 12.9348 8.99292 13.6414C8.99292 14.3481 9.56786 14.923 10.2745 14.923C10.9811 14.923 11.5561 14.3481 11.5561 13.6414C11.5561 12.9348 10.9811 12.3599 10.2745 12.3599ZM10.2745 13.9372C10.1114 13.9372 9.97873 13.8045 9.97873 13.6414C9.97873 13.4784 10.1114 13.3457 10.2745 13.3457C10.4375 13.3457 10.5702 13.4784 10.5702 13.6414C10.5702 13.8045 10.4375 13.9372 10.2745 13.9372Z" fill="black"/>
<path d="M31.6847 0.0380575C31.4309 -0.0603177 31.1453 0.0658701 31.0471 0.319808C30.9072 0.681246 29.8077 3.6275 28.6402 6.92513C28.3979 6.86995 28.1463 6.83976 27.8875 6.83976C26.0213 6.83976 24.5029 8.35807 24.5029 10.2244C24.5029 11.5955 25.3229 12.7779 26.4977 13.3093C26.4493 13.4703 26.4037 13.6245 26.3624 13.7683C25.0724 18.246 23.5735 18.8868 23.1448 18.9766C22.7755 19.0544 22.4485 18.9255 22.1737 18.5948C21.6363 17.948 21.3635 16.51 22.0342 14.881C23.102 12.2878 24.7574 7.62514 23.8467 5.53401C23.6265 5.02851 23.2754 4.68225 22.803 4.50513C21.4132 3.98388 19.8505 5.06988 18.1588 7.73282C17.3155 9.06008 16.656 10.435 16.3374 11.1375C14.3012 10.2564 11.5137 10.2273 8.75013 11.0798C5.48156 12.0878 2.81187 14.1839 1.42555 16.8305C-0.221013 19.9738 -0.456014 23.4781 0.796801 26.2045C1.84649 28.489 3.86593 30.0797 6.48313 30.6836C7.12938 30.8328 7.78094 30.894 8.41613 30.894C10.6873 30.8939 12.7437 30.1102 13.553 29.7581C14.7216 31.0837 16.4543 31.8487 18.5914 31.9769C18.8172 31.9905 19.0366 31.9964 19.2479 31.9964C20.6265 31.9964 21.6487 31.7454 21.6979 31.7331C22.0745 31.6389 22.1966 31.1449 21.9058 30.8865C19.8947 29.0989 17.5486 27.5244 16.8136 27.0435V23.6313C16.8136 23.2954 16.4685 23.053 16.1522 23.168C13.703 24.0587 12.9675 26.1227 12.756 27.0581L9.22719 26.862L15.0861 15.7112C15.2128 15.4702 15.1201 15.1722 14.8791 15.0455C14.6381 14.9188 14.3401 15.0116 14.2135 15.2526L12.502 18.5098C12.4868 18.5123 12.4716 18.5152 12.4563 18.5192C12.0694 18.6188 11.6685 18.6693 11.2648 18.6693C8.63751 18.6693 6.50006 16.5318 6.50006 13.9045C6.50006 13.7633 6.50538 13.6217 6.51869 13.4811C6.53131 13.3471 6.56744 13.2132 6.557 13.0778C7.32675 12.65 8.15944 12.2935 9.04057 12.0217C11.529 11.2541 14.1038 11.264 15.9088 12.0259L15.0346 13.6898C14.908 13.9308 15.0006 14.2288 15.2416 14.3554C15.4826 14.482 15.7805 14.3893 15.9072 14.1483C15.9072 14.1483 17.8586 10.0431 18.9907 8.26132C20.3582 6.10894 21.5891 5.10307 22.4567 5.42813C22.6757 5.51019 22.8302 5.66894 22.9428 5.92757C23.4937 7.19276 22.8132 10.3995 21.1225 14.5056C20.4035 16.252 20.5212 18.1485 21.4154 19.2247C21.8889 19.7946 22.6109 20.0957 23.3469 19.9414C24.8999 19.6163 26.3072 17.5208 27.3097 14.0411C27.3512 13.8969 27.3972 13.7416 27.446 13.5792C27.5907 13.5982 27.7379 13.609 27.8875 13.609C29.7538 13.609 31.2722 12.0906 31.2722 10.2243C31.2722 8.96583 30.5812 7.86632 29.5592 7.2832C30.7271 3.98375 31.827 1.03587 31.9664 0.675559C32.0647 0.421746 31.9386 0.136308 31.6847 0.0380575ZM11.2648 19.6553C11.4843 19.6553 11.7031 19.6422 11.9201 19.6175L7.99782 27.0825C7.91975 27.2309 7.92263 27.4089 8.00538 27.5549C8.08813 27.7007 8.23932 27.7945 8.40682 27.8039L13.1387 28.0667C13.4015 28.0809 13.631 27.8838 13.6568 27.6209C13.6661 27.5251 13.8904 25.4702 15.8278 24.3949V27.3117C15.8278 27.4802 15.9139 27.637 16.056 27.7275C16.0814 27.7437 18.3348 29.1834 20.4546 30.9407C18.8773 31.1161 15.8211 31.1117 14.0825 28.8514C13.9386 28.6643 13.6823 28.6056 13.4714 28.7111C13.4361 28.7287 9.91257 30.4636 6.70488 29.7232C4.35843 29.1817 2.62518 27.8227 1.69255 25.793C0.566363 23.3422 0.792989 20.1628 2.29874 17.2881C3.02162 15.908 4.13406 14.6904 5.51762 13.726C5.51581 13.7856 5.51425 13.8451 5.51425 13.9047C5.51425 17.0756 8.09388 19.6553 11.2648 19.6553ZM27.8875 12.6231C26.7107 12.6231 25.7299 11.7711 25.5276 10.6518L29.2305 12.2109C28.847 12.4711 28.3847 12.6231 27.8875 12.6231ZM30.2688 10.5089C30.2287 10.8473 30.1179 11.1643 29.9514 11.4448L25.5714 9.60064C25.6594 9.27458 25.8143 8.97589 26.0207 8.72026L30.2688 10.5089ZM30.1333 9.3822L26.9209 8.0297C27.2169 7.89882 27.5437 7.82564 27.8875 7.82564C28.914 7.82551 29.7915 8.47376 30.1333 9.3822Z" fill="black"/>
<path d="M5.51115 19.5674C5.29477 19.4023 4.98552 19.4438 4.82033 19.6602C4.54552 20.0203 4.02896 20.0896 3.66889 19.8149C3.30883 19.5401 3.23939 19.0235 3.51421 18.6634C3.67933 18.4469 3.63777 18.1377 3.42133 17.9725C3.20496 17.8073 2.89564 17.8488 2.73045 18.0653C2.12589 18.8576 2.27858 19.9939 3.07077 20.5985C3.39752 20.848 3.78271 20.9684 4.16508 20.9684C4.70977 20.9684 5.24871 20.7236 5.6039 20.2582C5.76909 20.0419 5.72759 19.7326 5.51115 19.5674Z" fill="black"/>
<path d="M9.19141 21.9333C8.97504 21.7681 8.66572 21.8097 8.50054 22.0261C8.22566 22.3861 7.70922 22.4555 7.3491 22.1808C6.98904 21.906 6.9196 21.3895 7.19441 21.0293C7.3596 20.8129 7.31797 20.5036 7.10154 20.3384C6.88516 20.1732 6.57585 20.2148 6.41066 20.4313C5.80616 21.2235 5.95878 22.3599 6.75104 22.9645C7.07779 23.2138 7.46297 23.3343 7.84535 23.3343C8.3901 23.3343 8.92897 23.0896 9.28416 22.6241C9.44935 22.4078 9.40779 22.0985 9.19141 21.9333Z" fill="black"/>
<path d="M6.04344 23.5194C5.82706 23.3542 5.51775 23.3958 5.35256 23.6123C5.2195 23.7867 5.02637 23.8988 4.80893 23.9282C4.59137 23.957 4.37556 23.9001 4.20112 23.767C3.84106 23.4922 3.77162 22.9757 4.04649 22.6155C4.21162 22.3991 4.17006 22.0898 3.95362 21.9247C3.73724 21.7594 3.42787 21.801 3.26274 22.0175C2.65818 22.8097 2.81087 23.946 3.60306 24.5506C3.92981 24.8 4.315 24.9205 4.69743 24.9205C5.24212 24.9205 5.78106 24.6757 6.13625 24.2103C6.3015 23.9938 6.25988 23.6845 6.04344 23.5194Z" fill="black"/>
<path d="M17.0662 0.366208C15.7109 -0.0947303 14.2335 0.633271 13.7729 1.98871C13.3701 3.17384 14.2271 6.32216 14.4031 6.94116C14.4473 7.09685 14.5653 7.22097 14.7186 7.27303C14.8704 7.32485 15.0423 7.29766 15.171 7.2021C15.6878 6.81841 18.2858 4.84459 18.6886 3.6594C19.1493 2.30421 18.4215 0.826771 17.0662 0.366208ZM17.7553 3.34221L17.7552 3.34228C17.5573 3.92465 16.2347 5.11334 15.1636 5.96416C14.8215 4.58809 14.517 2.86265 14.7062 2.30596C14.9088 1.70977 15.4584 1.27833 16.0851 1.22058C16.3088 1.19996 16.5361 1.22727 16.7488 1.29958C17.5895 1.58527 18.0409 2.50165 17.7553 3.34221Z" fill="black"/>
<path d="M25.9979 22.7098C24.8072 22.3239 21.6713 23.2253 21.0548 23.4099C20.7303 23.5071 20.5985 23.912 20.8046 24.1815C21.1955 24.6927 23.2058 27.2627 24.3965 27.6488C24.3965 27.6488 24.3965 27.6488 24.3966 27.6488C24.6617 27.7347 24.9306 27.7756 25.1953 27.7756C26.2903 27.7756 27.311 27.0764 27.6667 25.9799C28.1081 24.6183 27.3594 23.1514 25.9979 22.7098ZM26.7289 25.6759C26.455 26.5205 25.5454 26.9848 24.7007 26.711H24.7007C24.1156 26.5213 22.9084 25.2157 22.0425 24.1566C23.4136 23.7952 25.1345 23.466 25.6939 23.6477C26.5384 23.9215 27.0027 24.8314 26.7289 25.6759Z" fill="black"/>
<path d="M7.02968 9.35824C6.92918 8.72255 6.38424 5.50549 5.52074 4.5993C4.53336 3.56305 2.88686 3.52342 1.85054 4.51067C0.81423 5.49805 0.77448 7.14449 1.76198 8.18087C2.62542 9.08712 5.81237 9.78674 6.44243 9.91781C6.77437 9.98668 7.08249 9.69305 7.02968 9.35824ZM2.47561 7.5008C1.86317 6.85799 1.8878 5.8368 2.53055 5.22436C2.84173 4.9278 3.24161 4.78067 3.64099 4.78067C4.06642 4.78067 4.49118 4.94774 4.80705 5.2793C5.23143 5.72461 5.67168 7.44761 5.92918 8.79112C4.59974 8.46924 2.89998 7.94618 2.47561 7.5008Z" fill="black"/>
</g>
<defs>
<clipPath id="clip0">
<rect width="32" height="32" fill="white"/>
</clipPath>
</defs>
</svg>
