<svg width="14" height="14" viewBox="0 0 14 14" fill="none" xmlns="http://www.w3.org/2000/svg">
<g clip-path="url(#clip0)">
<path d="M6.95163 7.54359C6.96612 7.54359 6.98062 7.54359 6.99801 7.54359C7.00381 7.54359 7.00961 7.54359 7.01541 7.54359C7.02411 7.54359 7.0357 7.54359 7.0444 7.54359C7.89385 7.5291 8.58095 7.23048 9.0883 6.65935C10.2045 5.40112 10.0189 3.24415 9.99864 3.03831C9.92616 1.49306 9.19557 0.753779 8.59255 0.40878C8.14318 0.150756 7.61843 0.0115966 7.0328 0H7.01251C7.00961 0 7.00381 0 7.00091 0H6.98352C6.66171 0 6.0297 0.0521847 5.42377 0.397184C4.81495 0.742183 4.07277 1.48147 4.00029 3.03831C3.97999 3.24415 3.79445 5.40112 4.91062 6.65935C5.41508 7.23048 6.10218 7.5291 6.95163 7.54359ZM4.77436 3.11079C4.77436 3.10209 4.77726 3.09339 4.77726 3.0876C4.87293 1.0089 6.3486 0.78567 6.98062 0.78567H6.99222C6.99801 0.78567 7.00671 0.78567 7.01541 0.78567C7.79818 0.803065 9.12889 1.12197 9.21877 3.0876C9.21877 3.09629 9.21877 3.10499 9.22167 3.11079C9.22457 3.13108 9.42751 5.10251 8.50557 6.1404C8.14028 6.55208 7.65322 6.75502 7.01251 6.76082C7.00671 6.76082 7.00381 6.76082 6.99801 6.76082C6.99222 6.76082 6.98932 6.76082 6.98352 6.76082C6.3457 6.75502 5.85575 6.55208 5.49335 6.1404C4.57432 5.1083 4.77146 3.12818 4.77436 3.11079Z" fill="white"/>
<path d="M12.9545 11.1214C12.9545 11.1185 12.9545 11.1156 12.9545 11.1127C12.9545 11.0895 12.9516 11.0663 12.9516 11.0402C12.9342 10.4662 12.8965 9.12386 11.6383 8.69479C11.6296 8.69189 11.618 8.68899 11.6093 8.68609C10.3018 8.35269 9.21457 7.59891 9.20298 7.59021C9.02613 7.46555 8.7826 7.50904 8.65794 7.68588C8.53327 7.86273 8.57676 8.10626 8.75361 8.23092C8.80289 8.26571 9.95676 9.06878 11.4005 9.43987C12.076 9.6805 12.1514 10.4024 12.1717 11.0634C12.1717 11.0895 12.1717 11.1127 12.1746 11.1359C12.1775 11.3968 12.1601 11.7998 12.1137 12.0317C11.6441 12.2984 9.8031 13.2204 7.00252 13.2204C4.21354 13.2204 2.36098 12.2955 1.88842 12.0288C1.84203 11.7969 1.82174 11.3939 1.82754 11.133C1.82754 11.1098 1.83043 11.0866 1.83043 11.0605C1.85073 10.3995 1.92611 9.6776 2.60161 9.43697C4.04539 9.06588 5.19925 8.25992 5.24853 8.22803C5.42538 8.10336 5.46887 7.85983 5.34421 7.68298C5.21954 7.50614 4.97601 7.46265 4.79917 7.58731C4.78757 7.59601 3.70619 8.34979 2.39287 8.68319C2.38127 8.68609 2.37258 8.68899 2.36388 8.69189C1.10565 9.12386 1.06796 10.4662 1.05056 11.0373C1.05056 11.0634 1.05056 11.0866 1.04766 11.1098C1.04766 11.1127 1.04766 11.1156 1.04766 11.1185C1.04476 11.2692 1.04187 12.0433 1.19552 12.4318C1.22451 12.5072 1.2767 12.571 1.34628 12.6144C1.43325 12.6724 3.51774 14.0002 7.00542 14.0002C10.4931 14.0002 12.5776 12.6695 12.6646 12.6144C12.7312 12.571 12.7863 12.5072 12.8153 12.4318C12.9603 12.0462 12.9574 11.2721 12.9545 11.1214Z" fill="white"/>
</g>
<defs>
<clipPath id="clip0">
<rect width="14" height="14" fill="white"/>
</clipPath>
</defs>
</svg>
