<svg width="30" height="25" viewBox="0 0 30 25" fill="none" xmlns="http://www.w3.org/2000/svg">
<mask id="path-1-inside-1" fill="white">
<path d="M17.7891 4.76049C17.5709 4.76049 17.3781 4.60846 17.3409 4.39316C17.3 4.15325 17.4672 3.92828 17.7145 3.88786L27.5463 2.30164C27.7945 2.26386 28.0281 2.42292 28.07 2.66283C28.1109 2.90186 27.9436 3.1277 27.6963 3.16813L17.8645 4.75434C17.84 4.75873 17.8145 4.76049 17.7891 4.76049Z"/>
</mask>
<path d="M17.7891 4.76049C17.5709 4.76049 17.3781 4.60846 17.3409 4.39316C17.3 4.15325 17.4672 3.92828 17.7145 3.88786L27.5463 2.30164C27.7945 2.26386 28.0281 2.42292 28.07 2.66283C28.1109 2.90186 27.9436 3.1277 27.6963 3.16813L17.8645 4.75434C17.84 4.75873 17.8145 4.76049 17.7891 4.76049Z" fill="white"/>
<path d="M17.3409 4.39316L16.3551 4.56125L16.3555 4.56374L17.3409 4.39316ZM17.7145 3.88786L17.5552 2.90062L17.5532 2.90096L17.7145 3.88786ZM27.5463 2.30164L27.3958 1.313L27.3871 1.31441L27.5463 2.30164ZM28.07 2.66283L29.0556 2.49413L29.0551 2.49111L28.07 2.66283ZM27.6963 3.16813L27.8556 4.15537L27.8577 4.15503L27.6963 3.16813ZM17.8645 4.75434L17.7052 3.76711L17.6968 3.76847L17.6883 3.76999L17.8645 4.75434ZM17.7891 3.76049C18.0245 3.76049 18.275 3.92684 18.3262 4.22258L16.3555 4.56374C16.4813 5.29008 17.1173 5.76049 17.7891 5.76049V3.76049ZM18.3266 4.22507C18.3846 4.56474 18.1431 4.83106 17.8758 4.87476L17.5532 2.90096C16.7913 3.0255 16.2154 3.74176 16.3551 4.56125L18.3266 4.22507ZM17.8738 4.87509L27.7056 3.28888L27.3871 1.31441L17.5552 2.90062L17.8738 4.87509ZM27.6969 3.29025C27.4476 3.3282 27.1433 3.16976 27.0848 2.83455L29.0551 2.49111C28.913 1.67607 28.1414 1.19952 27.3958 1.31304L27.6969 3.29025ZM27.0843 2.83152C27.0261 2.49127 27.267 2.22505 27.535 2.18123L27.8577 4.15503C28.6202 4.03036 29.1957 3.31244 29.0556 2.49413L27.0843 2.83152ZM27.5371 2.18089L17.7052 3.76711L18.0238 5.74158L27.8556 4.15536L27.5371 2.18089ZM17.6883 3.76999C17.7348 3.76167 17.7701 3.76049 17.7891 3.76049V5.76049C17.8589 5.76049 17.9452 5.7558 18.0407 5.73869L17.6883 3.76999Z" fill="#353535" fill-opacity="0.5" mask="url(#path-1-inside-1)"/>
<mask id="path-3-inside-2" fill="white">
<path d="M2.37719 7.24659C2.15901 7.24659 1.96628 7.09456 1.92901 6.87925C1.8881 6.64022 2.05537 6.41437 2.30264 6.37395L12.2108 4.77543C12.4617 4.73237 12.6926 4.89759 12.7345 5.13662C12.7754 5.37565 12.6081 5.60149 12.3608 5.64192L2.45264 7.24043C2.42719 7.24483 2.40264 7.24659 2.37719 7.24659Z"/>
</mask>
<path d="M2.37719 7.24659C2.15901 7.24659 1.96628 7.09456 1.92901 6.87925C1.8881 6.64022 2.05537 6.41437 2.30264 6.37395L12.2108 4.77543C12.4617 4.73237 12.6926 4.89759 12.7345 5.13662C12.7754 5.37565 12.6081 5.60149 12.3608 5.64192L2.45264 7.24043C2.42719 7.24483 2.40264 7.24659 2.37719 7.24659Z" fill="white"/>
<path d="M1.92901 6.87925L0.943338 7.04795L0.943664 7.04983L1.92901 6.87925ZM2.30264 6.37395L2.14337 5.38671L2.14131 5.38705L2.30264 6.37395ZM12.2108 4.77543L12.3701 5.76272L12.38 5.76103L12.2108 4.77543ZM12.7345 5.13662L13.7201 4.96792L13.7195 4.96428L12.7345 5.13662ZM12.3608 5.64192L12.5201 6.62916L12.5222 6.62882L12.3608 5.64192ZM2.45264 7.24043L2.29336 6.25314L2.28254 6.25501L2.45264 7.24043ZM2.37719 6.24659C2.61259 6.24659 2.86316 6.41294 2.91435 6.70867L0.943664 7.04983C1.06941 7.77617 1.70543 8.24659 2.37719 8.24659V6.24659ZM2.91468 6.71056C2.97291 7.05081 2.73201 7.31703 2.46398 7.36085L2.14131 5.38705C1.37874 5.51172 0.80329 6.22964 0.94334 7.04795L2.91468 6.71056ZM2.46192 7.36118L12.3701 5.76267L12.0516 3.7882L2.14337 5.38671L2.46192 7.36118ZM12.38 5.76103C12.0965 5.80967 11.8041 5.62136 11.7494 5.30895L13.7195 4.96428C13.5812 4.17381 12.827 3.65507 12.0417 3.78984L12.38 5.76103ZM11.7488 5.30531C11.6906 4.96506 11.9315 4.69884 12.1995 4.65502L12.5222 6.62882C13.2847 6.50415 13.8602 5.78623 13.7201 4.96792L11.7488 5.30531ZM12.2016 4.65468L2.29337 6.2532L2.61192 8.22767L12.5201 6.62915L12.2016 4.65468ZM2.28254 6.25501C2.32157 6.24827 2.35472 6.24659 2.37719 6.24659V8.24659C2.45057 8.24659 2.53281 8.24138 2.62275 8.22586L2.28254 6.25501Z" fill="#353535" fill-opacity="0.5" mask="url(#path-3-inside-2)"/>
<mask id="path-5-inside-3" fill="white">
<path d="M24.3962 18.4802C21.3071 18.4802 18.7935 16.0494 18.7935 13.0633C18.7935 12.8208 18.9971 12.6239 19.248 12.6239H29.5453C29.7962 12.6239 29.9998 12.8208 29.9998 13.0633C29.9998 16.0503 27.4862 18.4802 24.3962 18.4802ZM19.7244 13.5027C19.9535 15.7999 21.9616 17.6014 24.3962 17.6014C26.8316 17.6014 28.8389 15.7999 29.0689 13.5027H19.7244Z"/>
</mask>
<path d="M24.3962 18.4802C21.3071 18.4802 18.7935 16.0494 18.7935 13.0633C18.7935 12.8208 18.9971 12.6239 19.248 12.6239H29.5453C29.7962 12.6239 29.9998 12.8208 29.9998 13.0633C29.9998 16.0503 27.4862 18.4802 24.3962 18.4802ZM19.7244 13.5027C19.9535 15.7999 21.9616 17.6014 24.3962 17.6014C26.8316 17.6014 28.8389 15.7999 29.0689 13.5027H19.7244Z" fill="white"/>
<path d="M19.7244 13.5027V12.5027H18.6197L18.7293 13.602L19.7244 13.5027ZM29.0689 13.5027L30.0639 13.6023L30.174 12.5027H29.0689V13.5027ZM24.3962 17.4802C21.8274 17.4802 19.7935 15.4657 19.7935 13.0633H17.7935C17.7935 16.6332 20.7868 19.4802 24.3962 19.4802V17.4802ZM19.7935 13.0633C19.7935 13.4047 19.5172 13.6239 19.248 13.6239V11.6239C18.477 11.6239 17.7935 12.2368 17.7935 13.0633H19.7935ZM19.248 13.6239H29.5453V11.6239H19.248V13.6239ZM29.5453 13.6239C29.2761 13.6239 28.9998 13.4047 28.9998 13.0633H30.9998C30.9998 12.2368 30.3162 11.6239 29.5453 11.6239V13.6239ZM28.9998 13.0633C28.9998 15.4664 26.9661 17.4802 24.3962 17.4802V19.4802C28.0062 19.4802 30.9998 16.6343 30.9998 13.0633H28.9998ZM18.7293 13.602C19.0115 16.4321 21.4699 18.6014 24.3962 18.6014V16.6014C22.4534 16.6014 20.8954 15.1676 20.7194 13.4035L18.7293 13.602ZM24.3962 18.6014C27.3236 18.6014 29.7806 16.432 30.0639 13.6023L28.0739 13.4031C27.8972 15.1677 26.3397 16.6014 24.3962 16.6014V18.6014ZM29.0689 12.5027H19.7244V14.5027H29.0689V12.5027Z" fill="#353535" fill-opacity="0.5" mask="url(#path-5-inside-3)"/>
<mask id="path-7-inside-4" fill="white">
<path d="M19.2481 13.5027C19.1771 13.5027 19.1053 13.486 19.0381 13.4526C18.8153 13.3401 18.7299 13.0747 18.8453 12.8594L23.9935 3.32372C24.1508 3.03372 24.6426 3.03372 24.7999 3.32372L29.949 12.8594C30.0644 13.0747 29.979 13.3401 29.7562 13.4526C29.5344 13.5642 29.259 13.4807 29.1426 13.2663L24.3971 4.47756L19.6517 13.2663C19.5699 13.4166 19.4117 13.5027 19.2481 13.5027Z"/>
</mask>
<path d="M19.2481 13.5027C19.1771 13.5027 19.1053 13.486 19.0381 13.4526C18.8153 13.3401 18.7299 13.0747 18.8453 12.8594L23.9935 3.32372C24.1508 3.03372 24.6426 3.03372 24.7999 3.32372L29.949 12.8594C30.0644 13.0747 29.979 13.3401 29.7562 13.4526C29.5344 13.5642 29.259 13.4807 29.1426 13.2663L24.3971 4.47756L19.6517 13.2663C19.5699 13.4166 19.4117 13.5027 19.2481 13.5027Z" fill="white"/>
<path d="M19.0381 13.4526L18.5872 14.3453L18.5934 14.3483L19.0381 13.4526ZM18.8453 12.8594L17.9654 12.3844L17.964 12.3869L18.8453 12.8594ZM23.9935 3.32372L23.1145 2.84699L23.1136 2.84865L23.9935 3.32372ZM24.7999 3.32372L25.6798 2.84858L25.6789 2.84699L24.7999 3.32372ZM29.949 12.8594L30.8303 12.3869L30.8289 12.3843L29.949 12.8594ZM29.7562 13.4526L30.2057 14.3459L30.207 14.3452L29.7562 13.4526ZM29.1426 13.2663L28.2627 13.7414L28.2637 13.7433L29.1426 13.2663ZM24.3971 4.47756L25.2771 4.00245L24.3971 2.3728L23.5172 4.00245L24.3971 4.47756ZM19.6517 13.2663L20.53 13.7445L20.5316 13.7414L19.6517 13.2663ZM19.2481 12.5027C19.3346 12.5027 19.4146 12.5231 19.4827 12.5569L18.5934 14.3483C18.796 14.4489 19.0197 14.5027 19.2481 14.5027V12.5027ZM19.4889 12.56C19.7542 12.694 19.8838 13.0389 19.7266 13.332L17.964 12.3869C17.576 13.1106 17.8764 13.9863 18.5873 14.3452L19.4889 12.56ZM19.7253 13.3345L24.8735 3.79879L23.1136 2.84865L17.9654 12.3844L19.7253 13.3345ZM24.8726 3.80044C24.7322 4.05928 24.4983 4.10622 24.3967 4.10622C24.2951 4.10622 24.0612 4.05928 23.9208 3.80044L25.6789 2.84699C25.3813 2.29815 24.8228 2.10622 24.3967 2.10622C23.9706 2.10622 23.4121 2.29815 23.1145 2.84699L24.8726 3.80044ZM23.92 3.79885L29.0691 13.3346L30.8289 12.3843L25.6798 2.84858L23.92 3.79885ZM29.0677 13.332C28.9105 13.0389 29.0401 12.694 29.3054 12.56L30.207 14.3452C30.9179 13.9863 31.2183 13.1106 30.8303 12.3869L29.0677 13.332ZM29.3068 12.5593C29.5523 12.4358 29.8722 12.5142 30.0215 12.7894L28.2637 13.7433C28.6457 14.4473 29.5165 14.6927 30.2057 14.3459L29.3068 12.5593ZM30.0225 12.7912L25.2771 4.00245L23.5172 4.95268L28.2627 13.7414L30.0225 12.7912ZM23.5172 4.00245L18.7718 12.7912L20.5316 13.7414L25.2771 4.95268L23.5172 4.00245ZM18.7734 12.7881C18.8777 12.5966 19.069 12.5027 19.2481 12.5027V14.5027C19.7544 14.5027 20.262 14.2366 20.53 13.7445L18.7734 12.7881Z" fill="#353535" fill-opacity="0.5" mask="url(#path-7-inside-4)"/>
<mask id="path-9-inside-5" fill="white">
<path d="M5.60364 21.3231C2.51364 21.3231 0 18.8923 0 15.9062C0 15.6637 0.203636 15.4668 0.454545 15.4668H10.7518C11.0027 15.4668 11.2064 15.6637 11.2064 15.9062C11.2064 18.8923 8.69273 21.3231 5.60364 21.3231ZM0.930909 16.3456C1.16 18.6428 3.16818 20.4443 5.60364 20.4443C8.03818 20.4443 10.0464 18.6428 10.2755 16.3456H0.930909Z"/>
</mask>
<path d="M5.60364 21.3231C2.51364 21.3231 0 18.8923 0 15.9062C0 15.6637 0.203636 15.4668 0.454545 15.4668H10.7518C11.0027 15.4668 11.2064 15.6637 11.2064 15.9062C11.2064 18.8923 8.69273 21.3231 5.60364 21.3231ZM0.930909 16.3456C1.16 18.6428 3.16818 20.4443 5.60364 20.4443C8.03818 20.4443 10.0464 18.6428 10.2755 16.3456H0.930909Z" fill="white"/>
<path d="M10.2755 16.3456L11.2705 16.4448L11.3801 15.3456H10.2755V16.3456ZM5.60364 20.3231C3.0338 20.3231 1 18.3085 1 15.9062H-1C-1 19.4762 1.99347 22.3231 5.60364 22.3231V20.3231ZM1 15.9062C1 16.2476 0.723696 16.4668 0.454545 16.4668V14.4668C-0.316423 14.4668 -1 15.0797 -1 15.9062H1ZM0.454545 16.4668H10.7518V14.4668H0.454545V16.4668ZM10.7518 16.4668C10.4827 16.4668 10.2064 16.2476 10.2064 15.9062H12.2064C12.2064 15.0797 11.5228 14.4668 10.7518 14.4668V16.4668ZM10.2064 15.9062C10.2064 18.3086 8.17245 20.3231 5.60364 20.3231V22.3231C9.213 22.3231 12.2064 19.4761 12.2064 15.9062H10.2064ZM-0.0641548 16.4448C0.218105 19.2751 2.67655 21.4443 5.60364 21.4443V19.4443C3.65981 19.4443 2.1019 18.0104 1.92597 16.2464L-0.0641548 16.4448ZM5.60364 21.4443C8.52993 21.4443 10.9883 19.275 11.2705 16.4448L9.28039 16.2464C9.10446 18.0105 7.54643 19.4443 5.60364 19.4443V21.4443ZM10.2755 15.3456H0.930909V17.3456H10.2755V15.3456Z" fill="#353535" fill-opacity="0.5" mask="url(#path-9-inside-5)"/>
<mask id="path-11-inside-6" fill="white">
<path d="M10.7518 16.3456C10.5882 16.3456 10.43 16.2595 10.3482 16.1092L5.60271 7.32044L0.857259 16.1092C0.740895 16.3245 0.46635 16.4062 0.243622 16.2955C0.0208952 16.183 -0.0645593 15.9176 0.0508952 15.7023L5.19999 6.1666C5.35726 5.8766 5.84908 5.8766 6.00635 6.1666L11.1545 15.7023C11.27 15.9176 11.1845 16.183 10.9618 16.2955C10.8945 16.3289 10.8227 16.3456 10.7518 16.3456Z"/>
</mask>
<path d="M10.7518 16.3456C10.5882 16.3456 10.43 16.2595 10.3482 16.1092L5.60271 7.32044L0.857259 16.1092C0.740895 16.3245 0.46635 16.4062 0.243622 16.2955C0.0208952 16.183 -0.0645593 15.9176 0.0508952 15.7023L5.19999 6.1666C5.35726 5.8766 5.84908 5.8766 6.00635 6.1666L11.1545 15.7023C11.27 15.9176 11.1845 16.183 10.9618 16.2955C10.8945 16.3289 10.8227 16.3456 10.7518 16.3456Z" fill="white"/>
<path d="M10.3482 16.1092L9.46824 16.5843L9.46991 16.5874L10.3482 16.1092ZM5.60271 7.32044L6.48264 6.84533L5.60271 5.21568L4.72279 6.84533L5.60271 7.32044ZM0.857259 16.1092L1.73699 16.5847L1.73718 16.5843L0.857259 16.1092ZM0.243622 16.2955L-0.207191 17.1881L-0.201543 17.191L0.243622 16.2955ZM0.0508952 15.7023L-0.829022 15.2272L-0.830391 15.2297L0.0508952 15.7023ZM5.19999 6.1666L4.32093 5.68987L4.32007 5.69146L5.19999 6.1666ZM6.00635 6.1666L6.8863 5.69153L6.8854 5.68987L6.00635 6.1666ZM11.1545 15.7023L12.0358 15.2297L12.0345 15.2273L11.1545 15.7023ZM10.9618 16.2955L11.4064 17.1912L11.4126 17.1881L10.9618 16.2955ZM10.7518 15.3456C10.9309 15.3456 11.1222 15.4395 11.2264 15.631L9.46991 16.5874C9.73781 17.0794 10.2455 17.3456 10.7518 17.3456V15.3456ZM11.2281 15.6341L6.48264 6.84533L4.72279 7.79556L9.46824 16.5843L11.2281 15.6341ZM4.72279 6.84533L-0.0226665 15.6341L1.73718 16.5843L6.48264 7.79556L4.72279 6.84533ZM-0.0224757 15.6337C0.129593 15.3524 0.452093 15.2824 0.688788 15.4001L-0.201543 17.191C0.480606 17.5301 1.3522 17.2966 1.73699 16.5847L-0.0224757 15.6337ZM0.694427 15.4029C0.959791 15.5369 1.08935 15.8818 0.932181 16.1749L-0.830391 15.2297C-1.21847 15.9534 -0.918001 16.8291 -0.207182 17.1881L0.694427 15.4029ZM0.930808 16.1775L6.0799 6.64173L4.32007 5.69146L-0.829018 15.2272L0.930808 16.1775ZM6.07904 6.64332C5.93866 6.90216 5.70476 6.9491 5.60317 6.9491C5.50158 6.9491 5.26767 6.90216 5.1273 6.64332L6.8854 5.68987C6.58776 5.14103 6.0293 4.9491 5.60317 4.9491C5.17703 4.9491 4.61858 5.14103 4.32093 5.68987L6.07904 6.64332ZM5.1264 6.64167L10.2746 16.1774L12.0345 15.2273L6.8863 5.69153L5.1264 6.64167ZM10.2732 16.1749C10.1161 15.8818 10.2456 15.5369 10.511 15.4029L11.4126 17.1881C12.1234 16.8291 12.4239 15.9534 12.0358 15.2297L10.2732 16.1749ZM10.5172 15.3998C10.5852 15.366 10.6653 15.3456 10.7518 15.3456V17.3456C10.9801 17.3456 11.2038 17.2918 11.4064 17.1912L10.5172 15.3998Z" fill="#353535" fill-opacity="0.5" mask="url(#path-11-inside-6)"/>
<mask id="path-13-inside-7" fill="white">
<path d="M14.9999 7.8906C13.2199 7.8906 11.7717 6.49069 11.7717 4.77003C11.7717 3.05024 13.2199 1.65033 14.9999 1.65033C16.7799 1.65033 18.2281 3.05024 18.2281 4.77003C18.2281 6.49157 16.7799 7.8906 14.9999 7.8906ZM14.9999 2.53C13.7208 2.53 12.6808 3.53533 12.6808 4.77091C12.6808 6.00648 13.7208 7.01269 14.9999 7.01269C16.279 7.01269 17.319 6.00648 17.319 4.77091C17.319 3.53533 16.279 2.53 14.9999 2.53Z"/>
</mask>
<path d="M14.9999 7.8906C13.2199 7.8906 11.7717 6.49069 11.7717 4.77003C11.7717 3.05024 13.2199 1.65033 14.9999 1.65033C16.7799 1.65033 18.2281 3.05024 18.2281 4.77003C18.2281 6.49157 16.7799 7.8906 14.9999 7.8906ZM14.9999 2.53C13.7208 2.53 12.6808 3.53533 12.6808 4.77091C12.6808 6.00648 13.7208 7.01269 14.9999 7.01269C16.279 7.01269 17.319 6.00648 17.319 4.77091C17.319 3.53533 16.279 2.53 14.9999 2.53Z" fill="white"/>
<path d="M18.2281 4.77003H19.2281H18.2281ZM14.9999 6.8906C13.74 6.8906 12.7717 5.90672 12.7717 4.77003H10.7717C10.7717 7.07466 12.6999 8.8906 14.9999 8.8906V6.8906ZM12.7717 4.77003C12.7717 3.63439 13.7398 2.65033 14.9999 2.65033V0.65033C12.7 0.65033 10.7717 2.46609 10.7717 4.77003H12.7717ZM14.9999 2.65033C16.26 2.65033 17.2281 3.63439 17.2281 4.77003H19.2281C19.2281 2.46609 17.2998 0.65033 14.9999 0.65033V2.65033ZM17.2281 4.77003C17.2281 5.90742 16.26 6.8906 14.9999 6.8906V8.8906C17.2998 8.8906 19.2281 7.07572 19.2281 4.77003H17.2281ZM14.9999 1.53C13.201 1.53 11.6808 2.95111 11.6808 4.77091H13.6808C13.6808 4.11955 14.2406 3.53 14.9999 3.53V1.53ZM11.6808 4.77091C11.6808 6.5902 13.2005 8.01269 14.9999 8.01269V6.01269C14.2411 6.01269 13.6808 5.42276 13.6808 4.77091H11.6808ZM14.9999 8.01269C16.7993 8.01269 18.319 6.5902 18.319 4.77091H16.319C16.319 5.42276 15.7587 6.01269 14.9999 6.01269V8.01269ZM18.319 4.77091C18.319 2.95111 16.7988 1.53 14.9999 1.53V3.53C15.7592 3.53 16.319 4.11955 16.319 4.77091H18.319Z" fill="#353535" fill-opacity="0.5" mask="url(#path-13-inside-7)"/>
<mask id="path-15-inside-8" fill="white">
<path d="M14.9997 24.4153C14.7488 24.4153 14.5452 24.2184 14.5452 23.9759V7.45117C14.5452 7.20863 14.7488 7.01178 14.9997 7.01178C15.2506 7.01178 15.4543 7.20863 15.4543 7.45117V23.9759C15.4543 24.2184 15.2506 24.4153 14.9997 24.4153Z"/>
</mask>
<path d="M14.9997 24.4153C14.7488 24.4153 14.5452 24.2184 14.5452 23.9759V7.45117C14.5452 7.20863 14.7488 7.01178 14.9997 7.01178C15.2506 7.01178 15.4543 7.20863 15.4543 7.45117V23.9759C15.4543 24.2184 15.2506 24.4153 14.9997 24.4153Z" fill="white"/>
<path d="M14.9997 23.4153C15.2689 23.4153 15.5452 23.6345 15.5452 23.9759H13.5452C13.5452 24.8024 14.2287 25.4153 14.9997 25.4153V23.4153ZM15.5452 23.9759V7.45117H13.5452V23.9759H15.5452ZM15.5452 7.45117C15.5452 7.7926 15.2689 8.01178 14.9997 8.01178V6.01178C14.2287 6.01178 13.5452 6.62466 13.5452 7.45117H15.5452ZM14.9997 8.01178C14.7306 8.01178 14.4543 7.7926 14.4543 7.45117H16.4543C16.4543 6.62466 15.7707 6.01178 14.9997 6.01178V8.01178ZM14.4543 7.45117V23.9759H16.4543V7.45117H14.4543ZM14.4543 23.9759C14.4543 23.6345 14.7306 23.4153 14.9997 23.4153V25.4153C15.7707 25.4153 16.4543 24.8024 16.4543 23.9759H14.4543Z" fill="#353535" fill-opacity="0.5" mask="url(#path-15-inside-8)"/>
<mask id="path-17-inside-9" fill="white">
<path d="M14.9997 2.53006C14.7488 2.53006 14.5452 2.33322 14.5452 2.09067V1.02382C14.5452 0.781275 14.7488 0.584427 14.9997 0.584427C15.2506 0.584427 15.4543 0.781275 15.4543 1.02382V2.09067C15.4543 2.33322 15.2506 2.53006 14.9997 2.53006Z"/>
</mask>
<path d="M14.9997 2.53006C14.7488 2.53006 14.5452 2.33322 14.5452 2.09067V1.02382C14.5452 0.781275 14.7488 0.584427 14.9997 0.584427C15.2506 0.584427 15.4543 0.781275 15.4543 1.02382V2.09067C15.4543 2.33322 15.2506 2.53006 14.9997 2.53006Z" fill="white"/>
<path d="M14.9997 1.53006C15.2689 1.53006 15.5452 1.74925 15.5452 2.09067H13.5452C13.5452 2.91718 14.2287 3.53006 14.9997 3.53006V1.53006ZM15.5452 2.09067V1.02382H13.5452V2.09067H15.5452ZM15.5452 1.02382C15.5452 1.36524 15.2689 1.58443 14.9997 1.58443V-0.415573C14.2287 -0.415573 13.5452 0.197307 13.5452 1.02382H15.5452ZM14.9997 1.58443C14.7306 1.58443 14.4543 1.36524 14.4543 1.02382H16.4543C16.4543 0.197307 15.7707 -0.415573 14.9997 -0.415573V1.58443ZM14.4543 1.02382V2.09067H16.4543V1.02382H14.4543ZM14.4543 2.09067C14.4543 1.74925 14.7306 1.53006 14.9997 1.53006V3.53006C15.7707 3.53006 16.4543 2.91718 16.4543 2.09067H14.4543Z" fill="#353535" fill-opacity="0.5" mask="url(#path-17-inside-9)"/>
<mask id="path-19-inside-10" fill="white">
<path d="M20.9963 24.4154H9.00362C8.75271 24.4154 8.54907 24.2186 8.54907 23.976C8.54907 23.7335 8.75271 23.5367 9.00362 23.5367H20.9963C21.2473 23.5367 21.4509 23.7335 21.4509 23.976C21.4509 24.2186 21.2482 24.4154 20.9963 24.4154Z"/>
</mask>
<path d="M20.9963 24.4154H9.00362C8.75271 24.4154 8.54907 24.2186 8.54907 23.976C8.54907 23.7335 8.75271 23.5367 9.00362 23.5367H20.9963C21.2473 23.5367 21.4509 23.7335 21.4509 23.976C21.4509 24.2186 21.2482 24.4154 20.9963 24.4154Z" fill="white"/>
<path d="M20.9963 23.4154H9.00362V25.4154H20.9963V23.4154ZM9.00362 23.4154C9.27276 23.4154 9.54907 23.6346 9.54907 23.976H7.54907C7.54907 24.8026 8.23266 25.4154 9.00362 25.4154V23.4154ZM9.54907 23.976C9.54907 24.3175 9.27276 24.5367 9.00362 24.5367V22.5367C8.23266 22.5367 7.54907 23.1495 7.54907 23.976H9.54907ZM9.00362 24.5367H20.9963V22.5367H9.00362V24.5367ZM20.9963 24.5367C20.7272 24.5367 20.4509 24.3175 20.4509 23.976H22.4509C22.4509 23.1495 21.7673 22.5367 20.9963 22.5367V24.5367ZM20.4509 23.976C20.4509 23.6359 20.7268 23.4154 20.9963 23.4154V25.4154C21.7695 25.4154 22.4509 24.8013 22.4509 23.976H20.4509Z" fill="#353535" fill-opacity="0.5" mask="url(#path-19-inside-10)"/>
</svg>
