<svg width="30" height="29" viewBox="0 0 30 29" fill="none" xmlns="http://www.w3.org/2000/svg">
<g clip-path="url(#clip0)">
<path d="M25.3134 0H4.10719C1.94676 0 0.195312 1.74956 0.195312 3.90781V25.0921C0.195312 27.2503 1.94669 28.9999 4.10719 28.9999H14.566L14.5838 18.6369H11.8887C11.5384 18.6369 11.2542 18.354 11.2528 18.0041L11.2399 14.6637C11.2386 14.3119 11.5237 14.026 11.8758 14.026H14.566V10.7983C14.566 7.05257 16.8561 5.013 20.201 5.013H22.9457C23.2969 5.013 23.5817 5.29741 23.5817 5.64828V8.46494C23.5817 8.81568 23.2971 9.10001 22.9461 9.10022L21.2617 9.101C19.4426 9.101 19.0904 9.9645 19.0904 11.2317V14.026H23.0875C23.4683 14.026 23.7638 14.3583 23.7189 14.7361L23.3226 18.0765C23.2847 18.3962 23.0133 18.637 22.6911 18.637H19.1082L19.0904 29H25.3135C27.4739 29 29.2253 27.2504 29.2253 25.0923V3.90781C29.2252 1.74956 27.4739 0 25.3134 0Z" fill="white"/>
</g>
<defs>
<clipPath id="clip0">
<rect width="29.0302" height="29" fill="white" transform="translate(0.195312)"/>
</clipPath>
</defs>
</svg>
