<svg width="52" height="52" viewBox="0 0 52 52" fill="none" xmlns="http://www.w3.org/2000/svg">
<path d="M49.0527 4.69174C47.2478 2.94172 44.8261 1.96216 42.3044 1.96216C39.7828 1.96216 37.3611 2.94172 35.5562 4.69174C35.2886 4.95468 35.0362 5.23252 34.8003 5.52389C31.3931 3.74801 27.6032 2.82042 23.7559 2.82075C10.6568 2.82075 0 13.4114 0 26.4292C0 39.447 10.6568 50.0376 23.7559 50.0376C36.855 50.0376 47.5117 39.447 47.5117 26.4292C47.512 24.5112 47.278 22.6004 46.8148 20.7385L49.1972 18.2668C50.1592 17.2913 50.9096 16.13 51.4019 14.8547C51.8692 13.6283 52.0664 12.3165 51.9803 11.0078C51.8152 8.61733 50.7735 6.37007 49.0527 4.69174ZM23.7559 4.55958C24.6026 4.56053 25.4486 4.60992 26.2897 4.70751C23.612 6.55283 21.2803 8.85012 19.4005 11.4952C18.634 11.2689 17.8118 11.3176 17.0777 11.6328C16.3437 11.9479 15.7444 12.5094 15.3847 13.2191C14.6213 13.157 13.853 13.1247 13.092 13.1247C10.5398 13.1226 7.99974 13.4728 5.54453 14.1652C7.55966 11.2076 10.2732 8.78563 13.4479 7.11113C16.6226 5.43664 20.1617 4.56059 23.7559 4.55958ZM20.1039 14.7526C20.1039 14.9705 20.0608 15.1863 19.9769 15.3876C19.8931 15.5889 19.7701 15.7718 19.6151 15.9259C19.4601 16.0799 19.276 16.2021 19.0734 16.2855C18.8709 16.3688 18.6538 16.4117 18.4345 16.4116C18.2153 16.4118 17.9981 16.369 17.7955 16.2857C17.5929 16.2024 17.4088 16.0802 17.2537 15.9262C17.0987 15.7721 16.9758 15.5891 16.892 15.3877C16.8081 15.1864 16.7651 14.9706 16.7653 14.7526C16.7691 14.3152 16.9467 13.8969 17.2593 13.5889C17.572 13.2808 17.9944 13.108 18.4346 13.108C18.8748 13.108 19.2972 13.2808 19.6099 13.5889C19.9225 13.8969 20.1001 14.3152 20.1039 14.7526ZM23.7559 48.2988C11.6216 48.2988 1.7497 38.4881 1.7497 26.4292C1.74578 22.9268 2.59362 19.4754 4.22101 16.3688L4.23689 16.412C7.07443 15.3841 10.0718 14.8602 13.092 14.8642C13.7325 14.8642 14.3786 14.889 15.022 14.9366C15.0451 15.402 15.1651 15.8576 15.3745 16.2745C15.5839 16.6914 15.8781 17.0605 16.2385 17.3585C14.3802 22.1442 13.9033 27.3505 14.8617 32.3909C14.1679 32.7699 13.6283 33.3768 13.3351 34.1076C13.0419 34.8384 13.0135 35.6478 13.2545 36.3971C13.4956 37.1465 13.9913 37.7894 14.6567 38.2156C15.3221 38.6419 16.1159 38.8251 16.9022 38.7338C18.612 42.4226 21.1252 45.6876 24.26 48.2931C24.0923 48.2962 23.9245 48.2988 23.7559 48.2988ZM16.0902 33.7571C16.427 33.6665 16.784 33.683 17.1109 33.8043C17.4378 33.9257 17.7183 34.1458 17.9128 34.4337C18.1073 34.7217 18.2062 35.063 18.1954 35.4096C18.1847 35.7563 18.0649 36.0909 17.8529 36.3664C17.6409 36.6418 17.3473 36.8444 17.0135 36.9455C16.6797 37.0466 16.3224 37.0413 15.9918 36.9301C15.6612 36.819 15.374 36.6077 15.1705 36.326C14.967 36.0442 14.8575 35.7062 14.8573 35.3594C14.8583 34.9951 14.9795 34.6412 15.2021 34.3518C15.4248 34.0625 15.7367 33.8536 16.0902 33.7571ZM38.8702 42.3099C35.5605 45.4306 31.3545 47.4488 26.8371 48.0839C23.2584 45.5157 20.4008 42.0798 18.5364 38.1035C19.118 37.6839 19.5516 37.0926 19.7754 36.4139C19.9993 35.7352 20.0021 35.0036 19.7833 34.3232C19.5646 33.6429 19.1354 33.0484 18.557 32.6245C17.9786 32.2005 17.2804 31.9687 16.5617 31.9619C16.2736 30.4137 16.1287 28.8426 16.1289 27.2682C16.1236 24.1331 16.6996 21.024 17.8279 18.0963C18.5583 18.2282 19.3121 18.1199 19.975 17.7876C20.6378 17.4554 21.1736 16.9175 21.5011 16.2554C25.252 17.5423 28.6552 19.6685 31.448 22.47C34.2407 25.2714 36.3485 28.6731 37.6084 32.4125C36.9842 32.7645 36.4873 33.3029 36.1881 33.9513C35.889 34.5997 35.8029 35.3253 35.9419 36.0251C36.081 36.7249 36.4382 37.3634 36.9628 37.8501C37.4875 38.3369 38.1531 38.6471 38.8651 38.7369C38.9073 39.3401 38.9301 39.947 38.9301 40.5503C38.9301 41.1339 38.9098 41.7238 38.8702 42.3099ZM39.5344 37.0093C39.4555 37.0211 39.3759 37.0268 39.2962 37.0265C38.8882 37.0267 38.4944 36.8783 38.189 36.6096C37.8836 36.3408 37.6879 35.9703 37.6386 35.5679C37.5894 35.1654 37.6902 34.7591 37.9219 34.4254C38.1536 34.0918 38.5002 33.854 38.8962 33.757C39.027 33.7246 39.1614 33.7084 39.2962 33.7087C39.7183 33.7085 40.1247 33.8673 40.4338 34.1531C40.7428 34.4389 40.9314 34.8304 40.9616 35.2488C40.9918 35.6672 40.8613 36.0814 40.5965 36.4081C40.3317 36.7347 39.9522 36.9496 39.5344 37.0093ZM40.6778 40.3948C40.6743 39.7656 40.65 39.1331 40.6028 38.505C41.3333 38.2049 41.9364 37.6624 42.3096 36.9699C42.6828 36.2774 42.8029 35.4778 42.6495 34.7072C42.4961 33.9367 42.0786 33.2427 41.4682 32.7437C40.8578 32.2446 40.0922 31.9712 39.3018 31.9701C37.9559 27.9158 35.6775 24.2292 32.6474 21.2029C29.6174 18.1766 25.9191 15.8939 21.8463 14.5362C21.7929 13.7358 21.4574 12.9797 20.8987 12.4007C23.0083 9.4614 25.7119 6.99198 28.8367 5.15042C30.5657 5.5567 32.2385 6.17028 33.8185 6.97769C33.1324 8.21947 32.7263 9.59473 32.6286 11.0081C32.5426 12.3167 32.7399 13.6285 33.2071 14.855C33.6993 16.1303 34.4496 17.2916 35.4117 18.2671L41.6731 24.7618C41.7548 24.8465 41.8528 24.9139 41.9614 24.96C42.07 25.006 42.1868 25.0298 42.3049 25.0298C42.4229 25.0298 42.5398 25.006 42.6483 24.96C42.7569 24.9139 42.855 24.8465 42.9366 24.7618L45.3581 22.2499C45.6264 23.627 45.7616 25.0265 45.762 26.4292C45.7668 31.5326 43.9672 36.4759 40.6778 40.3948ZM49.7622 14.2489C49.3528 15.3018 48.7305 16.2602 47.9338 17.0647L42.3045 22.9041L36.6751 17.0643C35.8785 16.2598 35.2563 15.3014 34.8469 14.2485C34.4667 13.2534 34.3055 12.1888 34.3741 11.1266C34.5103 9.1603 35.3673 7.31195 36.783 5.93165C38.2606 4.50145 40.2418 3.70111 42.3044 3.70111C44.3671 3.70111 46.3483 4.50145 47.8259 5.93165C49.2416 7.31195 50.0986 9.1603 50.2348 11.1266C50.3035 12.1888 50.1424 13.2538 49.7622 14.2489Z" fill="#F9C300"/>
<path d="M42.2119 5.88678C41.2406 5.88184 40.2897 6.16534 39.4797 6.70137C38.6697 7.2374 38.037 8.00182 37.6619 8.89776C37.2867 9.79371 37.186 10.7808 37.3725 11.7341C37.5589 12.6873 38.0242 13.5638 38.7092 14.2523C39.3943 14.9409 40.2684 15.4106 41.2206 15.6019C42.1729 15.7933 43.1606 15.6976 44.0584 15.327C44.9563 14.9565 45.7239 14.3277 46.2641 13.5205C46.8042 12.7132 47.0926 11.7638 47.0926 10.7924C47.0944 9.49514 46.5816 8.25008 45.6666 7.33041C44.7516 6.41074 43.5092 5.89157 42.2119 5.88678V5.88678ZM42.2119 13.8776C41.6006 13.8826 41.0016 13.7059 40.491 13.3699C39.9803 13.0339 39.5809 12.5538 39.3436 11.9905C39.1062 11.4272 39.0415 10.806 39.1577 10.2059C39.2739 9.60574 39.5658 9.05365 39.9963 8.61965C40.4268 8.18565 40.9765 7.88931 41.5757 7.76823C42.1748 7.64715 42.7965 7.70678 43.3617 7.93957C43.9269 8.17235 44.4103 8.56779 44.7504 9.07572C45.0905 9.58364 45.2721 10.1812 45.2721 10.7924C45.2744 11.6071 44.9536 12.3894 44.3799 12.9678C43.8062 13.5462 43.0265 13.8734 42.2119 13.8776V13.8776Z" fill="#F9C300"/>
</svg>
