<svg width="21" height="12" viewBox="0 0 21 12" fill="none" xmlns="http://www.w3.org/2000/svg">
<path d="M12.073 6.05974C12.073 6.88867 11.4283 7.54586 10.651 7.54586C9.8736 7.54586 9.22891 6.88867 9.22891 6.05974C9.22891 5.23082 9.8736 4.57363 10.651 4.57363C11.4283 4.57363 12.073 5.23082 12.073 6.05974Z" stroke="#6C6C6C" stroke-width="0.45"/>
<path d="M15.4239 6.25556C15.4239 9.04202 13.2517 11.2861 10.5901 11.2861C7.92844 11.2861 5.75625 9.04202 5.75625 6.25556C5.75625 3.46909 7.92844 1.225 10.5901 1.225C13.2517 1.225 15.4239 3.46909 15.4239 6.25556Z" stroke="#6C6C6C" stroke-width="0.45"/>
<path d="M19.8242 6.2432C16.687 10.1136 8.5301 15.5321 1.00069 6.24319" stroke="#6C6C6C" stroke-width="0.45" stroke-linecap="round"/>
<path d="M1.00391 6.24313C4.14116 2.37276 12.298 -3.04576 19.8274 6.24313" stroke="#6C6C6C" stroke-width="0.45" stroke-linecap="round"/>
</svg>
