<svg width="30" height="29" viewBox="0 0 30 29" fill="none" xmlns="http://www.w3.org/2000/svg">
<g clip-path="url(#clip0)">
<path d="M17.7891 6.76054C17.5709 6.76054 17.3781 6.60851 17.3409 6.39321C17.3 6.1533 17.4672 5.92833 17.7145 5.8879L27.5463 4.30169C27.7945 4.2639 28.0281 4.42296 28.07 4.66287C28.1109 4.9019 27.9436 5.12775 27.6963 5.16817L17.8645 6.75439C17.84 6.75878 17.8145 6.76054 17.7891 6.76054Z" fill="white"/>
<path d="M2.37719 9.24666C2.15901 9.24666 1.96628 9.09463 1.92901 8.87933C1.8881 8.6403 2.05537 8.41445 2.30264 8.37403L12.2108 6.77551C12.4617 6.73245 12.6926 6.89766 12.7345 7.13669C12.7754 7.37572 12.6081 7.60157 12.3608 7.642L2.45264 9.24051C2.42719 9.2449 2.40264 9.24666 2.37719 9.24666Z" fill="white"/>
<path d="M24.3963 20.4801C21.3072 20.4801 18.7936 18.0494 18.7936 15.0633C18.7936 14.8207 18.9972 14.6239 19.2481 14.6239H29.5454C29.7963 14.6239 29.9999 14.8207 29.9999 15.0633C29.9999 18.0503 27.4863 20.4801 24.3963 20.4801ZM19.7245 15.5027C19.9536 17.7998 21.9618 19.6014 24.3963 19.6014C26.8318 19.6014 28.839 17.7998 29.069 15.5027H19.7245Z" fill="white"/>
<path d="M19.2482 15.5027C19.1773 15.5027 19.1055 15.486 19.0382 15.4526C18.8155 15.3401 18.73 15.0747 18.8455 14.8594L23.9936 5.3237C24.1509 5.0337 24.6427 5.0337 24.8 5.3237L29.9491 14.8594C30.0645 15.0747 29.9791 15.3401 29.7564 15.4526C29.5345 15.5642 29.2591 15.4807 29.1427 15.2663L24.3973 6.47755L19.6518 15.2663C19.57 15.4166 19.4118 15.5027 19.2482 15.5027Z" fill="white"/>
<path d="M5.60364 23.323C2.51364 23.323 0 20.8923 0 17.9062C0 17.6636 0.203636 17.4668 0.454545 17.4668H10.7518C11.0027 17.4668 11.2064 17.6636 11.2064 17.9062C11.2064 20.8923 8.69273 23.323 5.60364 23.323ZM0.930909 18.3456C1.16 20.6427 3.16818 22.4443 5.60364 22.4443C8.03818 22.4443 10.0464 20.6427 10.2755 18.3456H0.930909Z" fill="white"/>
<path d="M10.7518 18.3456C10.5882 18.3456 10.43 18.2595 10.3482 18.1092L5.60271 9.32044L0.857259 18.1092C0.740895 18.3245 0.46635 18.4062 0.243622 18.2955C0.0208952 18.183 -0.0645593 17.9176 0.0508952 17.7023L5.19999 8.1666C5.35726 7.8766 5.84908 7.8766 6.00635 8.1666L11.1545 17.7023C11.27 17.9176 11.1845 18.183 10.9618 18.2955C10.8945 18.3289 10.8227 18.3456 10.7518 18.3456Z" fill="white"/>
<path d="M15 9.89066C13.22 9.89066 11.7719 8.49075 11.7719 6.77009C11.7719 5.0503 13.22 3.65039 15 3.65039C16.78 3.65039 18.2282 5.0503 18.2282 6.77009C18.2282 8.49163 16.78 9.89066 15 9.89066ZM15 4.53006C13.7209 4.53006 12.6809 5.53539 12.6809 6.77097C12.6809 8.00654 13.7209 9.01275 15 9.01275C16.2791 9.01275 17.3191 8.00654 17.3191 6.77097C17.3191 5.53539 16.2791 4.53006 15 4.53006Z" fill="white"/>
<path d="M15.0001 26.4154C14.7492 26.4154 14.5455 26.2185 14.5455 25.976V9.45123C14.5455 9.20869 14.7492 9.01184 15.0001 9.01184C15.251 9.01184 15.4546 9.20869 15.4546 9.45123V25.976C15.4546 26.2185 15.251 26.4154 15.0001 26.4154Z" fill="white"/>
<path d="M15.0001 4.53011C14.7492 4.53011 14.5455 4.33326 14.5455 4.09072V3.02387C14.5455 2.78132 14.7492 2.58447 15.0001 2.58447C15.251 2.58447 15.4546 2.78132 15.4546 3.02387V4.09072C15.4546 4.33326 15.251 4.53011 15.0001 4.53011Z" fill="white"/>
<path d="M20.9965 26.4155H9.00374C8.75283 26.4155 8.54919 26.2187 8.54919 25.9761C8.54919 25.7336 8.75283 25.5367 9.00374 25.5367H20.9965C21.2474 25.5367 21.451 25.7336 21.451 25.9761C21.451 26.2187 21.2483 26.4155 20.9965 26.4155Z" fill="white"/>
</g>
<defs>
<clipPath id="clip0">
<rect width="30" height="29" fill="white"/>
</clipPath>
</defs>
</svg>
