<svg width="221" height="68" viewBox="0 0 221 68" fill="none" xmlns="http://www.w3.org/2000/svg">
<path d="M77.793 23V11.9258H77.8984L85.8086 23H88.7383V6.08984H85.3516V17.1055H85.2578L77.3594 6.08984H74.4062V23H77.793ZM98.1592 23.2227C102.073 23.2227 104.522 20.7266 104.522 16.543C104.522 12.4062 102.05 9.875 98.1592 9.875C94.2803 9.875 91.7959 12.418 91.7959 16.543C91.7959 20.7148 94.2452 23.2227 98.1592 23.2227ZM98.1592 20.5859C96.3545 20.5859 95.2647 19.1094 95.2647 16.543C95.2647 14.0117 96.3545 12.5 98.1592 12.5C99.9522 12.5 101.042 14 101.042 16.543C101.042 19.1094 99.9639 20.5859 98.1592 20.5859ZM107.322 23H110.744V15.7812C110.744 13.9766 111.764 12.8984 113.498 12.8984C113.92 12.8984 114.447 12.9805 114.729 13.1094V10.0742C114.482 9.99219 114.107 9.94531 113.768 9.94531C112.244 9.94531 111.131 10.8125 110.697 12.4062H110.627V10.0977H107.322V23ZM121.571 23.1523C123.47 23.1523 124.958 22.2148 125.591 20.7969H125.65V23H129.025V5.28125H125.603V12.3008H125.532C124.888 10.8711 123.446 9.94531 121.583 9.94531C118.372 9.94531 116.286 12.4883 116.286 16.5312C116.286 20.5977 118.36 23.1523 121.571 23.1523ZM122.708 12.7109C124.478 12.7109 125.626 14.2227 125.626 16.5547C125.626 18.8867 124.478 20.3867 122.708 20.3867C120.927 20.3867 119.79 18.9102 119.79 16.543C119.79 14.1992 120.927 12.7109 122.708 12.7109ZM136.16 23V17.832L137.742 15.9336L142.758 23H146.988L140.297 13.5898L146.555 6.08984H142.617L136.266 13.8008H136.16V6.08984H132.621V23H136.16ZM149.261 23H152.683V10.0977H149.261V23ZM150.972 8.69141C151.991 8.69141 152.823 7.91797 152.823 6.89844C152.823 5.87891 151.991 5.11719 150.972 5.11719C149.964 5.11719 149.132 5.87891 149.132 6.89844C149.132 7.91797 149.964 8.69141 150.972 8.69141ZM156.936 7.22656V10.0977H155.19V12.6875H156.936V19.5195C156.936 22.0391 158.108 23.0469 161.096 23.0469C161.787 23.0469 162.397 22.9766 162.748 22.9062V20.375C162.537 20.4102 162.198 20.4336 161.893 20.4336C160.85 20.4336 160.358 19.9531 160.358 18.957V12.6875H162.748V10.0977H160.358V7.22656H156.936Z" fill="#202020"/>
<path d="M83.7461 38.1357H82.3174L78.9131 46.3662H78.8584L75.4541 38.1357H74.0254V48H75.1738V40.3984H75.2217L78.3662 47.9316H79.4053L82.5498 40.3984H82.5977V48H83.7461V38.1357ZM88.0527 47.0361C87.123 47.0361 86.5283 46.5918 86.5283 45.9082C86.5283 45.1973 87.1025 44.7939 88.21 44.7256L90.1377 44.6025V45.1973C90.1377 46.2568 89.2559 47.0361 88.0527 47.0361ZM87.7998 48.0684C88.832 48.0684 89.7549 47.542 90.1719 46.7217H90.1992V48H91.3271V42.9414C91.3271 41.4922 90.2061 40.5625 88.4629 40.5625C86.918 40.5625 85.708 41.5127 85.6738 42.7568H86.8154C86.959 42.0596 87.5947 41.6221 88.4492 41.6221C89.5361 41.6221 90.1377 42.1279 90.1377 43.0439V43.6592L88.0732 43.7822C86.2822 43.8916 85.3115 44.6367 85.3115 45.9014C85.3115 47.207 86.3027 48.0684 87.7998 48.0684ZM96.543 40.5625C95.5244 40.5625 94.5879 41.0615 94.1572 41.8271H94.1299V40.6309H93.002V50.4609H94.1914V46.8037H94.2188C94.6836 47.6104 95.5244 48.0684 96.5703 48.0684C98.4297 48.0684 99.7012 46.5645 99.7012 44.3154C99.7012 42.0664 98.4229 40.5625 96.543 40.5625ZM96.3242 47.0088C95.0527 47.0088 94.1846 45.9219 94.1846 44.3154C94.1846 42.7158 95.0527 41.6221 96.3242 41.6221C97.623 41.6221 98.4844 42.6885 98.4844 44.3154C98.4844 45.9492 97.623 47.0088 96.3242 47.0088ZM103.522 44.124L106.988 40.6309H105.512L102.326 43.9053H102.271V40.6309H101.096V48H102.271V44.4385H102.326L105.546 48H107.084L103.522 44.124ZM110.939 41.6084C112.102 41.6084 112.895 42.4424 112.922 43.6934H108.868C108.95 42.4492 109.784 41.6084 110.939 41.6084ZM112.895 45.8945C112.683 46.585 111.965 47.0225 111.042 47.0225C109.729 47.0225 108.868 46.1133 108.868 44.7119V44.6436H114.159V44.1787C114.159 41.9502 112.929 40.5625 110.96 40.5625C108.95 40.5625 107.638 42.0596 107.638 44.3428C107.638 46.626 108.943 48.0684 111.015 48.0684C112.587 48.0684 113.865 47.1592 114.07 45.8945H112.895ZM120.77 40.6309H114.809V41.6152H117.201V48H118.377V41.6152H120.77V40.6309ZM126.013 44.6641V43.5566H121.528V44.6641H126.013ZM132.5 48H133.676V40.6309H127.646V48H128.822V41.6152H132.5V48ZM137.354 44.7666L137.586 41.6152H140.163V48H141.339V40.6309H136.52L136.232 44.7393C136.137 46.1064 135.856 46.9609 135.125 46.9609C134.954 46.9609 134.817 46.9268 134.756 46.9062V47.9863C134.838 48.0205 134.975 48.0615 135.187 48.0615C136.718 48.0615 137.203 46.79 137.354 44.7666ZM146.035 41.6084C147.197 41.6084 147.99 42.4424 148.018 43.6934H143.964C144.046 42.4492 144.88 41.6084 146.035 41.6084ZM147.99 45.8945C147.778 46.585 147.061 47.0225 146.138 47.0225C144.825 47.0225 143.964 46.1133 143.964 44.7119V44.6436H149.255V44.1787C149.255 41.9502 148.024 40.5625 146.056 40.5625C144.046 40.5625 142.733 42.0596 142.733 44.3428C142.733 46.626 144.039 48.0684 146.11 48.0684C147.683 48.0684 148.961 47.1592 149.166 45.8945H147.99ZM151.818 48L155.612 42.4697H155.667V48H156.843V40.6309H155.667L151.873 46.1611H151.818V40.6309H150.643V48H151.818ZM151.565 37.4043C151.565 38.6621 152.461 39.5234 153.767 39.5234C155.072 39.5234 155.968 38.6621 155.968 37.4043H155.093C155.093 38.1973 154.58 38.8193 153.767 38.8193C152.953 38.8193 152.44 38.1973 152.44 37.4043H151.565ZM164.67 42.8867C164.458 41.6494 163.357 40.5625 161.601 40.5625C159.584 40.5625 158.237 42.0527 158.237 44.3154C158.237 46.6328 159.591 48.0684 161.614 48.0684C163.248 48.0684 164.438 47.1318 164.684 45.7646H163.501C163.262 46.5713 162.599 47.0088 161.621 47.0088C160.336 47.0088 159.447 45.9902 159.447 44.3154C159.447 42.6885 160.322 41.6221 161.607 41.6221C162.646 41.6221 163.289 42.1689 163.487 42.8867H164.67ZM174.678 40.6309H168.717V41.6152H171.109V48H172.285V41.6152H174.678V40.6309ZM178.725 48.0684C180.796 48.0684 182.122 46.5986 182.122 44.3154C182.122 42.0254 180.796 40.5625 178.725 40.5625C176.653 40.5625 175.327 42.0254 175.327 44.3154C175.327 46.5986 176.653 48.0684 178.725 48.0684ZM178.725 47.0088C177.357 47.0088 176.537 46.0039 176.537 44.3154C176.537 42.627 177.351 41.6221 178.725 41.6221C180.099 41.6221 180.912 42.6201 180.912 44.3154C180.912 46.0039 180.099 47.0088 178.725 47.0088ZM186.518 41.6152C187.29 41.6152 187.714 41.9775 187.714 42.6406C187.714 43.3516 187.263 43.6934 186.326 43.6934H184.686V41.6152H186.518ZM186.429 44.6777C187.516 44.6777 188.035 45.0605 188.035 45.8604C188.035 46.6123 187.55 47.0156 186.654 47.0156H184.686V44.6777H186.429ZM183.51 48H186.682C188.24 48 189.204 47.1865 189.204 45.8809C189.204 44.9648 188.596 44.2881 187.673 44.1582V44.1035C188.35 43.96 188.876 43.2695 188.876 42.5176C188.876 41.3486 188.035 40.6309 186.668 40.6309H183.51V48ZM193.039 47.0361C192.109 47.0361 191.515 46.5918 191.515 45.9082C191.515 45.1973 192.089 44.7939 193.196 44.7256L195.124 44.6025V45.1973C195.124 46.2568 194.242 47.0361 193.039 47.0361ZM192.786 48.0684C193.818 48.0684 194.741 47.542 195.158 46.7217H195.186V48H196.313V42.9414C196.313 41.4922 195.192 40.5625 193.449 40.5625C191.904 40.5625 190.694 41.5127 190.66 42.7568H191.802C191.945 42.0596 192.581 41.6221 193.436 41.6221C194.522 41.6221 195.124 42.1279 195.124 43.0439V43.6592L193.06 43.7822C191.269 43.8916 190.298 44.6367 190.298 45.9014C190.298 47.207 191.289 48.0684 192.786 48.0684ZM201.529 40.5625C200.511 40.5625 199.574 41.0615 199.144 41.8271H199.116V40.6309H197.988V50.4609H199.178V46.8037H199.205C199.67 47.6104 200.511 48.0684 201.557 48.0684C203.416 48.0684 204.688 46.5645 204.688 44.3154C204.688 42.0664 203.409 40.5625 201.529 40.5625ZM201.311 47.0088C200.039 47.0088 199.171 45.9219 199.171 44.3154C199.171 42.7158 200.039 41.6221 201.311 41.6221C202.609 41.6221 203.471 42.6885 203.471 44.3154C203.471 45.9492 202.609 47.0088 201.311 47.0088ZM209.117 48.0684C211.188 48.0684 212.515 46.5986 212.515 44.3154C212.515 42.0254 211.188 40.5625 209.117 40.5625C207.046 40.5625 205.72 42.0254 205.72 44.3154C205.72 46.5986 207.046 48.0684 209.117 48.0684ZM209.117 47.0088C207.75 47.0088 206.93 46.0039 206.93 44.3154C206.93 42.627 207.743 41.6221 209.117 41.6221C210.491 41.6221 211.305 42.6201 211.305 44.3154C211.305 46.0039 210.491 47.0088 209.117 47.0088ZM216.91 41.6152C217.683 41.6152 218.106 41.9775 218.106 42.6406C218.106 43.3516 217.655 43.6934 216.719 43.6934H215.078V41.6152H216.91ZM216.821 44.6777C217.908 44.6777 218.428 45.0605 218.428 45.8604C218.428 46.6123 217.942 47.0156 217.047 47.0156H215.078V44.6777H216.821ZM213.902 48H217.074C218.633 48 219.597 47.1865 219.597 45.8809C219.597 44.9648 218.988 44.2881 218.065 44.1582V44.1035C218.742 43.96 219.269 43.2695 219.269 42.5176C219.269 41.3486 218.428 40.6309 217.061 40.6309H213.902V48ZM78.7627 64.0156H75.126V63.9609C75.4814 63.4961 75.666 62.6826 75.7344 61.7666L75.9668 58.6152H78.7627V64.0156ZM74.2441 66.9482V65H80.0068V66.9482H81.1143V64.0156H79.9385V57.6309H74.9141L74.627 61.7393C74.5586 62.7305 74.292 63.6602 73.752 64.0156H73.1367V66.9482H74.2441ZM84.1562 61.7666L84.3887 58.6152H86.9658V65H88.1416V57.6309H83.3223L83.0352 61.7393C82.9395 63.1064 82.6592 63.9609 81.9277 63.9609C81.7568 63.9609 81.6201 63.9268 81.5586 63.9062V64.9863C81.6406 65.0205 81.7773 65.0615 81.9893 65.0615C83.5205 65.0615 84.0059 63.79 84.1562 61.7666ZM92.5234 61.377C91.5596 61.377 90.9307 60.8232 90.9307 60.0439C90.9307 59.1484 91.5527 58.6152 92.5234 58.6152H93.9453V61.377H92.5234ZM93.9453 65H95.1211V57.6309H92.5234C90.835 57.6309 89.7549 58.5537 89.7549 60.0713C89.7549 61.083 90.3838 61.8486 91.4229 62.1426L89.3652 65H90.7324L92.6123 62.3613H93.9453V65ZM102.627 64.0361C101.697 64.0361 101.103 63.5918 101.103 62.9082C101.103 62.1973 101.677 61.7939 102.784 61.7256L104.712 61.6025V62.1973C104.712 63.2568 103.83 64.0361 102.627 64.0361ZM102.374 65.0684C103.406 65.0684 104.329 64.542 104.746 63.7217H104.773V65H105.901V59.9414C105.901 58.4922 104.78 57.5625 103.037 57.5625C101.492 57.5625 100.282 58.5127 100.248 59.7568H101.39C101.533 59.0596 102.169 58.6221 103.023 58.6221C104.11 58.6221 104.712 59.1279 104.712 60.0439V60.6592L102.647 60.7822C100.856 60.8916 99.8857 61.6367 99.8857 62.9014C99.8857 64.207 100.877 65.0684 102.374 65.0684ZM110.003 61.124L113.469 57.6309H111.992L108.807 60.9053H108.752V57.6309H107.576V65H108.752V61.4385H108.807L112.026 65H113.564L110.003 61.124ZM119.977 57.6309H114.016V58.6152H116.408V65H117.584V58.6152H119.977V57.6309ZM122.301 65L126.095 59.4697H126.149V65H127.325V57.6309H126.149L122.355 63.1611H122.301V57.6309H121.125V65H122.301ZM132.09 58.6152C132.862 58.6152 133.286 58.9775 133.286 59.6406C133.286 60.3516 132.835 60.6934 131.898 60.6934H130.258V58.6152H132.09ZM132.001 61.6777C133.088 61.6777 133.607 62.0605 133.607 62.8604C133.607 63.6123 133.122 64.0156 132.227 64.0156H130.258V61.6777H132.001ZM129.082 65H132.254C133.812 65 134.776 64.1865 134.776 62.8809C134.776 61.9648 134.168 61.2881 133.245 61.1582V61.1035C133.922 60.96 134.448 60.2695 134.448 59.5176C134.448 58.3486 133.607 57.6309 132.24 57.6309H129.082V65ZM141.127 65H142.303V57.6309H141.127V60.6797H137.381V57.6309H136.205V65H137.381V61.6641H141.127V65ZM147.088 65.0684C149.159 65.0684 150.485 63.5986 150.485 61.3154C150.485 59.0254 149.159 57.5625 147.088 57.5625C145.017 57.5625 143.69 59.0254 143.69 61.3154C143.69 63.5986 145.017 65.0684 147.088 65.0684ZM147.088 64.0088C145.721 64.0088 144.9 63.0039 144.9 61.3154C144.9 59.627 145.714 58.6221 147.088 58.6221C148.462 58.6221 149.275 59.6201 149.275 61.3154C149.275 63.0039 148.462 64.0088 147.088 64.0088ZM156.59 58.6152V57.6309H151.873V65H153.049V58.6152H156.59ZM160.705 65.0684C162.776 65.0684 164.103 63.5986 164.103 61.3154C164.103 59.0254 162.776 57.5625 160.705 57.5625C158.634 57.5625 157.308 59.0254 157.308 61.3154C157.308 63.5986 158.634 65.0684 160.705 65.0684ZM160.705 64.0088C159.338 64.0088 158.518 63.0039 158.518 61.3154C158.518 59.627 159.331 58.6221 160.705 58.6221C162.079 58.6221 162.893 59.6201 162.893 61.3154C162.893 63.0039 162.079 64.0088 160.705 64.0088ZM171.875 65.0684C173.946 65.0684 175.272 63.5986 175.272 61.3154C175.272 59.0254 173.946 57.5625 171.875 57.5625C169.804 57.5625 168.478 59.0254 168.478 61.3154C168.478 63.5986 169.804 65.0684 171.875 65.0684ZM171.875 64.0088C170.508 64.0088 169.688 63.0039 169.688 61.3154C169.688 59.627 170.501 58.6221 171.875 58.6221C173.249 58.6221 174.062 59.6201 174.062 61.3154C174.062 63.0039 173.249 64.0088 171.875 64.0088ZM181.883 57.6309H175.922V58.6152H178.314V65H179.49V58.6152H181.883V57.6309ZM187.646 64.0156H184.009V63.9609C184.364 63.4961 184.549 62.6826 184.617 61.7666L184.85 58.6152H187.646V64.0156ZM183.127 66.9482V65H188.89V66.9482H189.997V64.0156H188.821V57.6309H183.797L183.51 61.7393C183.441 62.7305 183.175 63.6602 182.635 64.0156H182.02V66.9482H183.127ZM197.373 65H198.549V57.6309H197.373V65ZM193.675 60.9805C194.639 60.9805 195.268 61.5752 195.268 62.498C195.268 63.4141 194.646 64.0156 193.675 64.0156H192.287V60.9805H193.675ZM191.111 65H193.675C195.363 65 196.443 64.0293 196.443 62.498C196.443 60.9668 195.363 59.9961 193.675 59.9961H192.287V57.6309H191.111V65ZM202.883 62.1768L204.667 65H205.993L203.532 61.2676L206.027 57.6309H204.701L202.924 60.4131H202.896L201.099 57.6309H199.772L202.254 61.3154L199.731 65H201.058L202.855 62.1768H202.883ZM209.623 64.0361C208.693 64.0361 208.099 63.5918 208.099 62.9082C208.099 62.1973 208.673 61.7939 209.78 61.7256L211.708 61.6025V62.1973C211.708 63.2568 210.826 64.0361 209.623 64.0361ZM209.37 65.0684C210.402 65.0684 211.325 64.542 211.742 63.7217H211.77V65H212.897V59.9414C212.897 58.4922 211.776 57.5625 210.033 57.5625C208.488 57.5625 207.278 58.5127 207.244 59.7568H208.386C208.529 59.0596 209.165 58.6221 210.02 58.6221C211.106 58.6221 211.708 59.1279 211.708 60.0439V60.6592L209.644 60.7822C207.853 60.8916 206.882 61.6367 206.882 62.9014C206.882 64.207 207.873 65.0684 209.37 65.0684Z" fill="#202020"/>
<rect x="2.5" y="6.5" width="52" height="52" rx="26" stroke="black" stroke-opacity="0.1" stroke-width="5"/>
</svg>
