<svg width="207" height="66" viewBox="0 0 207 66" fill="none" xmlns="http://www.w3.org/2000/svg">
<path d="M74.793 23V11.9258H74.8984L82.8086 23H85.7383V6.08984H82.3516V17.1055H82.2578L74.3594 6.08984H71.4062V23H74.793ZM95.1592 23.2227C99.0733 23.2227 101.522 20.7266 101.522 16.543C101.522 12.4062 99.0498 9.875 95.1592 9.875C91.2803 9.875 88.7959 12.418 88.7959 16.543C88.7959 20.7148 91.2452 23.2227 95.1592 23.2227ZM95.1592 20.5859C93.3545 20.5859 92.2647 19.1094 92.2647 16.543C92.2647 14.0117 93.3545 12.5 95.1592 12.5C96.9522 12.5 98.042 14 98.042 16.543C98.042 19.1094 96.9639 20.5859 95.1592 20.5859ZM104.322 23H107.744V15.7812C107.744 13.9766 108.764 12.8984 110.498 12.8984C110.92 12.8984 111.447 12.9805 111.729 13.1094V10.0742C111.482 9.99219 111.107 9.94531 110.768 9.94531C109.244 9.94531 108.131 10.8125 107.697 12.4062H107.627V10.0977H104.322V23ZM118.571 23.1523C120.47 23.1523 121.958 22.2148 122.591 20.7969H122.65V23H126.025V5.28125H122.603V12.3008H122.532C121.888 10.8711 120.446 9.94531 118.583 9.94531C115.372 9.94531 113.286 12.4883 113.286 16.5312C113.286 20.5977 115.36 23.1523 118.571 23.1523ZM119.708 12.7109C121.478 12.7109 122.626 14.2227 122.626 16.5547C122.626 18.8867 121.478 20.3867 119.708 20.3867C117.927 20.3867 116.79 18.9102 116.79 16.543C116.79 14.1992 117.927 12.7109 119.708 12.7109ZM133.16 23V17.832L134.742 15.9336L139.758 23H143.988L137.297 13.5898L143.555 6.08984H139.617L133.266 13.8008H133.16V6.08984H129.621V23H133.16ZM146.261 23H149.683V10.0977H146.261V23ZM147.972 8.69141C148.991 8.69141 149.823 7.91797 149.823 6.89844C149.823 5.87891 148.991 5.11719 147.972 5.11719C146.964 5.11719 146.132 5.87891 146.132 6.89844C146.132 7.91797 146.964 8.69141 147.972 8.69141ZM153.936 7.22656V10.0977H152.19V12.6875H153.936V19.5195C153.936 22.0391 155.108 23.0469 158.096 23.0469C158.787 23.0469 159.397 22.9766 159.748 22.9062V20.375C159.537 20.4102 159.198 20.4336 158.893 20.4336C157.85 20.4336 157.358 19.9531 157.358 18.957V12.6875H159.748V10.0977H157.358V7.22656H153.936Z" fill="white"/>
<path d="M79.9785 37.8403H78.6519L75.4907 45.4829H75.4399L72.2788 37.8403H70.9521V47H72.0186V39.9414H72.063L74.9829 46.9365H75.9478L78.8677 39.9414H78.9121V47H79.9785V37.8403ZM83.9775 46.105C83.1143 46.105 82.562 45.6924 82.562 45.0576C82.562 44.3975 83.0952 44.0229 84.1235 43.9595L85.9136 43.8452V44.3975C85.9136 45.3813 85.0947 46.105 83.9775 46.105ZM83.7427 47.0635C84.7012 47.0635 85.5581 46.5747 85.9453 45.813H85.9707V47H87.0181V42.3027C87.0181 40.957 85.9771 40.0938 84.3584 40.0938C82.9238 40.0938 81.8003 40.9761 81.7686 42.1313H82.8286C82.9619 41.4839 83.5522 41.0776 84.3457 41.0776C85.355 41.0776 85.9136 41.5474 85.9136 42.3979V42.9692L83.9966 43.0835C82.3335 43.1851 81.4321 43.877 81.4321 45.0513C81.4321 46.2637 82.3525 47.0635 83.7427 47.0635ZM91.8613 40.0938C90.9155 40.0938 90.0459 40.5571 89.646 41.2681H89.6206V40.1572H88.5732V49.2852H89.6777V45.8892H89.7031C90.1348 46.6382 90.9155 47.0635 91.8867 47.0635C93.6133 47.0635 94.7939 45.667 94.7939 43.5786C94.7939 41.4902 93.6069 40.0938 91.8613 40.0938ZM91.6582 46.0796C90.4775 46.0796 89.6714 45.0703 89.6714 43.5786C89.6714 42.0933 90.4775 41.0776 91.6582 41.0776C92.8643 41.0776 93.6641 42.0679 93.6641 43.5786C93.6641 45.0957 92.8643 46.0796 91.6582 46.0796ZM98.3423 43.4009L101.561 40.1572H100.189L97.2314 43.1978H97.1807V40.1572H96.0889V47H97.1807V43.6929H97.2314L100.221 47H101.649L98.3423 43.4009ZM105.229 41.0649C106.309 41.0649 107.045 41.8394 107.07 43.001H103.306C103.382 41.8457 104.157 41.0649 105.229 41.0649ZM107.045 45.0449C106.848 45.686 106.182 46.0923 105.325 46.0923C104.106 46.0923 103.306 45.248 103.306 43.9468V43.8833H108.219V43.4517C108.219 41.3823 107.077 40.0938 105.249 40.0938C103.382 40.0938 102.164 41.4839 102.164 43.604C102.164 45.7241 103.376 47.0635 105.299 47.0635C106.759 47.0635 107.946 46.2192 108.137 45.0449H107.045ZM114.357 40.1572H108.822V41.0713H111.044V47H112.136V41.0713H114.357V40.1572ZM119.226 43.9023V42.874H115.062V43.9023H119.226ZM125.25 47H126.342V40.1572H120.743V47H121.835V41.0713H125.25V47ZM129.757 43.9976L129.973 41.0713H132.366V47H133.458V40.1572H128.982L128.716 43.9722C128.627 45.2417 128.367 46.0352 127.688 46.0352C127.529 46.0352 127.402 46.0034 127.345 45.9844V46.9873C127.421 47.019 127.548 47.0571 127.745 47.0571C129.167 47.0571 129.617 45.8765 129.757 43.9976ZM137.818 41.0649C138.897 41.0649 139.634 41.8394 139.659 43.001H135.895C135.971 41.8457 136.746 41.0649 137.818 41.0649ZM139.634 45.0449C139.437 45.686 138.771 46.0923 137.914 46.0923C136.695 46.0923 135.895 45.248 135.895 43.9468V43.8833H140.808V43.4517C140.808 41.3823 139.666 40.0938 137.837 40.0938C135.971 40.0938 134.752 41.4839 134.752 43.604C134.752 45.7241 135.965 47.0635 137.888 47.0635C139.348 47.0635 140.535 46.2192 140.726 45.0449H139.634ZM143.188 47L146.711 41.8647H146.762V47H147.854V40.1572H146.762L143.239 45.2925H143.188V40.1572H142.097V47H143.188ZM142.954 37.1611C142.954 38.3291 143.785 39.1289 144.998 39.1289C146.21 39.1289 147.042 38.3291 147.042 37.1611H146.229C146.229 37.8975 145.753 38.4751 144.998 38.4751C144.242 38.4751 143.766 37.8975 143.766 37.1611H142.954ZM155.122 42.252C154.925 41.103 153.903 40.0938 152.272 40.0938C150.399 40.0938 149.149 41.4775 149.149 43.5786C149.149 45.7305 150.406 47.0635 152.285 47.0635C153.802 47.0635 154.906 46.1938 155.135 44.9243H154.037C153.814 45.6733 153.199 46.0796 152.291 46.0796C151.098 46.0796 150.272 45.1338 150.272 43.5786C150.272 42.0679 151.085 41.0776 152.278 41.0776C153.243 41.0776 153.84 41.5854 154.024 42.252H155.122ZM164.415 40.1572H158.88V41.0713H161.102V47H162.193V41.0713H164.415V40.1572ZM168.173 47.0635C170.096 47.0635 171.328 45.6987 171.328 43.5786C171.328 41.4521 170.096 40.0938 168.173 40.0938C166.25 40.0938 165.018 41.4521 165.018 43.5786C165.018 45.6987 166.25 47.0635 168.173 47.0635ZM168.173 46.0796C166.903 46.0796 166.142 45.1465 166.142 43.5786C166.142 42.0107 166.897 41.0776 168.173 41.0776C169.449 41.0776 170.204 42.0044 170.204 43.5786C170.204 45.1465 169.449 46.0796 168.173 46.0796ZM175.409 41.0713C176.126 41.0713 176.52 41.4077 176.52 42.0234C176.52 42.6836 176.101 43.001 175.231 43.001H173.708V41.0713H175.409ZM175.327 43.915C176.336 43.915 176.818 44.2705 176.818 45.0132C176.818 45.7114 176.368 46.0859 175.536 46.0859H173.708V43.915H175.327ZM172.616 47H175.562C177.009 47 177.904 46.2446 177.904 45.0322C177.904 44.1816 177.339 43.5532 176.482 43.4326V43.3818C177.11 43.2485 177.599 42.6074 177.599 41.9092C177.599 40.8237 176.818 40.1572 175.549 40.1572H172.616V47ZM181.465 46.105C180.602 46.105 180.049 45.6924 180.049 45.0576C180.049 44.3975 180.583 44.0229 181.611 43.9595L183.401 43.8452V44.3975C183.401 45.3813 182.582 46.105 181.465 46.105ZM181.23 47.0635C182.188 47.0635 183.045 46.5747 183.433 45.813H183.458V47H184.505V42.3027C184.505 40.957 183.464 40.0938 181.846 40.0938C180.411 40.0938 179.288 40.9761 179.256 42.1313H180.316C180.449 41.4839 181.04 41.0776 181.833 41.0776C182.842 41.0776 183.401 41.5474 183.401 42.3979V42.9692L181.484 43.0835C179.821 43.1851 178.919 43.877 178.919 45.0513C178.919 46.2637 179.84 47.0635 181.23 47.0635ZM189.349 40.0938C188.403 40.0938 187.533 40.5571 187.133 41.2681H187.108V40.1572H186.061V49.2852H187.165V45.8892H187.19C187.622 46.6382 188.403 47.0635 189.374 47.0635C191.101 47.0635 192.281 45.667 192.281 43.5786C192.281 41.4902 191.094 40.0938 189.349 40.0938ZM189.146 46.0796C187.965 46.0796 187.159 45.0703 187.159 43.5786C187.159 42.0933 187.965 41.0776 189.146 41.0776C190.352 41.0776 191.151 42.0679 191.151 43.5786C191.151 45.0957 190.352 46.0796 189.146 46.0796ZM196.395 47.0635C198.318 47.0635 199.549 45.6987 199.549 43.5786C199.549 41.4521 198.318 40.0938 196.395 40.0938C194.471 40.0938 193.24 41.4521 193.24 43.5786C193.24 45.6987 194.471 47.0635 196.395 47.0635ZM196.395 46.0796C195.125 46.0796 194.363 45.1465 194.363 43.5786C194.363 42.0107 195.119 41.0776 196.395 41.0776C197.67 41.0776 198.426 42.0044 198.426 43.5786C198.426 45.1465 197.67 46.0796 196.395 46.0796ZM203.631 41.0713C204.348 41.0713 204.742 41.4077 204.742 42.0234C204.742 42.6836 204.323 43.001 203.453 43.001H201.93V41.0713H203.631ZM203.548 43.915C204.558 43.915 205.04 44.2705 205.04 45.0132C205.04 45.7114 204.589 46.0859 203.758 46.0859H201.93V43.915H203.548ZM200.838 47H203.783C205.23 47 206.125 46.2446 206.125 45.0322C206.125 44.1816 205.561 43.5532 204.704 43.4326V43.3818C205.332 43.2485 205.821 42.6074 205.821 41.9092C205.821 40.8237 205.04 40.1572 203.771 40.1572H200.838V47ZM75.3511 62.0859H71.9741V62.0352C72.3042 61.6035 72.4756 60.8481 72.5391 59.9976L72.7549 57.0713H75.3511V62.0859ZM71.1553 64.8091V63H76.5063V64.8091H77.5347V62.0859H76.4429V56.1572H71.7773L71.5107 59.9722C71.4473 60.8926 71.1997 61.7559 70.6982 62.0859H70.127V64.8091H71.1553ZM80.3594 59.9976L80.5752 57.0713H82.9683V63H84.0601V56.1572H79.585L79.3184 59.9722C79.2295 61.2417 78.9692 62.0352 78.29 62.0352C78.1313 62.0352 78.0044 62.0034 77.9473 61.9844V62.9873C78.0234 63.019 78.1504 63.0571 78.3472 63.0571C79.769 63.0571 80.2197 61.8765 80.3594 59.9976ZM88.1289 59.6357C87.2339 59.6357 86.6499 59.1216 86.6499 58.3979C86.6499 57.5664 87.2275 57.0713 88.1289 57.0713H89.4492V59.6357H88.1289ZM89.4492 63H90.541V56.1572H88.1289C86.561 56.1572 85.5581 57.0142 85.5581 58.4233C85.5581 59.3628 86.1421 60.0737 87.1069 60.3467L85.1963 63H86.4658L88.2114 60.5498H89.4492V63ZM97.5107 62.105C96.6475 62.105 96.0952 61.6924 96.0952 61.0576C96.0952 60.3975 96.6284 60.0229 97.6567 59.9595L99.4468 59.8452V60.3975C99.4468 61.3813 98.6279 62.105 97.5107 62.105ZM97.2759 63.0635C98.2344 63.0635 99.0913 62.5747 99.4785 61.813H99.5039V63H100.551V58.3027C100.551 56.957 99.5103 56.0938 97.8916 56.0938C96.457 56.0938 95.3335 56.9761 95.3018 58.1313H96.3618C96.4951 57.4839 97.0854 57.0776 97.8789 57.0776C98.8882 57.0776 99.4468 57.5474 99.4468 58.3979V58.9692L97.5298 59.0835C95.8667 59.1851 94.9653 59.877 94.9653 61.0513C94.9653 62.2637 95.8857 63.0635 97.2759 63.0635ZM104.36 59.4009L107.578 56.1572H106.207L103.249 59.1978H103.198V56.1572H102.106V63H103.198V59.6929H103.249L106.239 63H107.667L104.36 59.4009ZM113.621 56.1572H108.086V57.0713H110.308V63H111.399V57.0713H113.621V56.1572ZM115.779 63L119.302 57.8647H119.353V63H120.445V56.1572H119.353L115.83 61.2925H115.779V56.1572H114.688V63H115.779ZM124.869 57.0713C125.586 57.0713 125.98 57.4077 125.98 58.0234C125.98 58.6836 125.561 59.001 124.691 59.001H123.168V57.0713H124.869ZM124.787 59.915C125.796 59.915 126.278 60.2705 126.278 61.0132C126.278 61.7114 125.828 62.0859 124.996 62.0859H123.168V59.915H124.787ZM122.076 63H125.021C126.469 63 127.364 62.2446 127.364 61.0322C127.364 60.1816 126.799 59.5532 125.942 59.4326V59.3818C126.57 59.2485 127.059 58.6074 127.059 57.9092C127.059 56.8237 126.278 56.1572 125.009 56.1572H122.076V63ZM133.261 63H134.353V56.1572H133.261V58.9883H129.782V56.1572H128.69V63H129.782V59.9023H133.261V63ZM138.796 63.0635C140.719 63.0635 141.951 61.6987 141.951 59.5786C141.951 57.4521 140.719 56.0938 138.796 56.0938C136.873 56.0938 135.641 57.4521 135.641 59.5786C135.641 61.6987 136.873 63.0635 138.796 63.0635ZM138.796 62.0796C137.526 62.0796 136.765 61.1465 136.765 59.5786C136.765 58.0107 137.52 57.0776 138.796 57.0776C140.072 57.0776 140.827 58.0044 140.827 59.5786C140.827 61.1465 140.072 62.0796 138.796 62.0796ZM147.619 57.0713V56.1572H143.239V63H144.331V57.0713H147.619ZM151.44 63.0635C153.364 63.0635 154.595 61.6987 154.595 59.5786C154.595 57.4521 153.364 56.0938 151.44 56.0938C149.517 56.0938 148.286 57.4521 148.286 59.5786C148.286 61.6987 149.517 63.0635 151.44 63.0635ZM151.44 62.0796C150.171 62.0796 149.409 61.1465 149.409 59.5786C149.409 58.0107 150.165 57.0776 151.44 57.0776C152.716 57.0776 153.472 58.0044 153.472 59.5786C153.472 61.1465 152.716 62.0796 151.44 62.0796ZM161.812 63.0635C163.736 63.0635 164.967 61.6987 164.967 59.5786C164.967 57.4521 163.736 56.0938 161.812 56.0938C159.889 56.0938 158.658 57.4521 158.658 59.5786C158.658 61.6987 159.889 63.0635 161.812 63.0635ZM161.812 62.0796C160.543 62.0796 159.781 61.1465 159.781 59.5786C159.781 58.0107 160.537 57.0776 161.812 57.0776C163.088 57.0776 163.844 58.0044 163.844 59.5786C163.844 61.1465 163.088 62.0796 161.812 62.0796ZM171.105 56.1572H165.57V57.0713H167.792V63H168.884V57.0713H171.105V56.1572ZM176.457 62.0859H173.08V62.0352C173.41 61.6035 173.581 60.8481 173.645 59.9976L173.86 57.0713H176.457V62.0859ZM172.261 64.8091V63H177.612V64.8091H178.64V62.0859H177.548V56.1572H172.883L172.616 59.9722C172.553 60.8926 172.305 61.7559 171.804 62.0859H171.232V64.8091H172.261ZM185.489 63H186.581V56.1572H185.489V63ZM182.055 59.2676C182.95 59.2676 183.534 59.8198 183.534 60.6768C183.534 61.5273 182.957 62.0859 182.055 62.0859H180.767V59.2676H182.055ZM179.675 63H182.055C183.623 63 184.626 62.0986 184.626 60.6768C184.626 59.2549 183.623 58.3535 182.055 58.3535H180.767V56.1572H179.675V63ZM190.605 60.3784L192.262 63H193.494L191.208 59.5342L193.525 56.1572H192.294L190.644 58.7407H190.618L188.949 56.1572H187.717L190.021 59.5786L187.679 63H188.911L190.58 60.3784H190.605ZM196.864 62.105C196.001 62.105 195.449 61.6924 195.449 61.0576C195.449 60.3975 195.982 60.0229 197.01 59.9595L198.8 59.8452V60.3975C198.8 61.3813 197.981 62.105 196.864 62.105ZM196.629 63.0635C197.588 63.0635 198.445 62.5747 198.832 61.813H198.857V63H199.905V58.3027C199.905 56.957 198.864 56.0938 197.245 56.0938C195.811 56.0938 194.687 56.9761 194.655 58.1313H195.715C195.849 57.4839 196.439 57.0776 197.232 57.0776C198.242 57.0776 198.8 57.5474 198.8 58.3979V58.9692L196.883 59.0835C195.22 59.1851 194.319 59.877 194.319 61.0513C194.319 62.2637 195.239 63.0635 196.629 63.0635Z" fill="white"/>
<rect x="2.5" y="6.5" width="52" height="52" rx="26" stroke="white" stroke-opacity="0.1" stroke-width="5"/>
</svg>
