<svg width="52" height="52" viewBox="0 0 52 52" fill="none" xmlns="http://www.w3.org/2000/svg">
<g clip-path="url(#clip0)">
<path d="M23.8929 35.2084C23.2066 35.2136 22.3679 34.9446 21.8422 34.457L14.2782 27.4397C12.7679 25.9293 13.6224 24.0377 14.1302 23.4903C15.178 22.3608 16.9498 22.2941 18.0793 23.3423L23.28 28.1669L32.5983 14.7079C33.4759 13.4411 35.2203 13.1241 36.4867 14.0009C37.7538 14.8781 38.0708 16.6221 37.194 17.8892C37.194 17.8892 26.0527 33.9813 26.0404 33.9992C25.5112 34.7633 24.7784 35.2017 23.8929 35.2084ZM15.247 24.5265C14.7575 25.0157 14.8078 25.8532 15.3141 26.3229L22.8781 33.3402C23.1479 33.5902 23.5156 33.7124 23.8806 33.6719C24.2472 33.6318 24.5781 33.435 24.7879 33.1319L35.9412 17.022C36.3403 16.446 36.1959 15.6525 35.6198 15.2538C35.0434 14.8547 34.2499 14.9987 33.8508 15.5751L24.0326 29.757C23.9068 29.9383 23.7085 30.0565 23.4887 30.0807C23.2693 30.1041 23.0503 30.0319 22.888 29.8816C22.888 29.8816 17.0506 24.4662 17.0434 24.4591C16.8101 24.2429 15.9258 23.8473 15.247 24.5265Z" fill="#F9C300"/>
<path d="M26.0762 52C25.8731 52 25.6692 51.9548 25.4855 51.8687C16.7507 47.7772 10.0988 41.1634 5.71455 32.2108C2.09163 24.8126 1.0887 17.8135 0.825665 15.1475C0.710614 13.9783 1.35807 12.8873 2.43797 12.4331C6.75398 10.6172 9.67549 6.58847 10.0627 1.91937C10.1531 0.825195 11.0446 0 12.1356 0H40.0169C41.0916 0 42.0017 0.834717 42.0882 1.90073C42.4687 6.573 45.3862 10.6065 49.7022 12.4279C50.7893 12.8869 51.4419 13.9799 51.3268 15.1483C51.0634 17.8143 50.0605 24.8138 46.4375 32.2116C42.0533 41.1638 35.4013 47.7772 26.6666 51.8687C26.4829 51.9548 26.279 52 26.0762 52ZM12.1356 1.52344C11.844 1.52344 11.6056 1.74799 11.581 2.04553C11.1466 7.28235 7.86958 11.8007 3.0287 13.8375C2.56849 14.0311 2.29237 14.4973 2.34196 14.9983C2.59666 17.5818 3.56904 24.3655 7.08287 31.5407C11.3009 40.1545 17.691 46.5208 26.0762 50.4631C34.4607 46.5212 40.8512 40.1549 45.0692 31.5419C48.5834 24.3667 49.5558 17.5826 49.8105 14.9991C49.8601 14.4984 49.5784 14.0295 49.1103 13.8315C44.269 11.7888 40.9964 7.2645 40.5699 2.02411C40.5469 1.74322 40.3041 1.52344 40.0169 1.52344H12.1356Z" fill="#F9C300"/>
<path d="M41.9367 31.5494C41.5661 31.3503 41.4118 30.9008 41.6018 30.5259C42.5048 28.7461 43.2792 26.9029 43.933 25.0181C44.496 23.3943 44.9704 21.7399 45.3577 20.0657C45.6409 18.8414 45.8782 17.606 46.0599 16.3622C46.0626 16.3432 46.0654 16.3242 46.0682 16.3047C41.7601 13.9343 38.6351 9.85431 37.4715 5.08008H14.681C14.2311 6.92606 13.4912 8.67444 12.4808 10.2792C12.2566 10.6351 11.7865 10.7418 11.4302 10.518C11.0744 10.2939 10.9672 9.82336 11.1914 9.4675C12.1348 7.96985 12.8196 6.33414 13.2278 4.60678C13.3738 3.98828 13.9205 3.55664 14.5572 3.55664H37.5949C38.2316 3.55664 38.7783 3.98868 38.9247 4.60678C39.9733 9.04895 42.8781 12.8445 46.8938 15.0201C47.3913 15.2891 47.6718 15.8489 47.5916 16.4118C47.3949 17.802 47.1338 19.1834 46.8156 20.5505C46.4153 22.2695 45.9226 23.9675 45.3382 25.6334C44.6757 27.5214 43.8636 29.4289 42.9606 31.215C42.9606 31.215 42.9697 31.1967 42.9606 31.215C42.8261 31.4796 42.3707 31.7827 41.9367 31.5494Z" fill="#F9C300"/>
<path d="M26.0761 48.035C25.8583 48.035 25.6409 47.983 25.4425 47.8795C18.2217 44.103 12.6591 38.3048 8.90846 30.6464C6.19841 25.112 5.04829 19.851 4.56032 16.4118C4.48057 15.8488 4.76106 15.289 5.25816 15.02C6.66456 14.2583 7.94362 13.2959 9.0608 12.16C9.35557 11.8597 9.83799 11.8557 10.1379 12.1509C10.4378 12.4457 10.4418 12.9281 10.147 13.228C8.95012 14.4448 7.58378 15.4795 6.08415 16.3047C6.48286 19.0635 7.55165 24.4114 10.2768 29.9763C13.8688 37.3118 19.1841 42.8676 26.0761 46.4913C31.7747 43.4948 36.416 39.1582 39.8715 33.6008C40.0937 33.2434 40.5634 33.1339 40.9209 33.356C41.2779 33.5782 41.3874 34.0479 41.1653 34.4054C37.5495 40.2202 32.686 44.7537 26.7097 47.8795C26.5113 47.983 26.2935 48.035 26.0761 48.035Z" fill="#F9C300"/>
</g>
<defs>
<clipPath id="clip0">
<rect width="52" height="52" fill="white"/>
</clipPath>
</defs>
</svg>
