<svg width="25" height="24" viewBox="0 0 25 24" fill="none" xmlns="http://www.w3.org/2000/svg">
<path d="M20.8868 20.9364C20.7327 20.6415 20.4899 20.2935 20.1636 19.9658C20.1585 19.9607 20.1539 19.9556 20.1493 19.9505C20.1262 19.9275 20.1022 19.9049 20.0782 19.8822C19.6845 19.5006 19.1533 19.129 18.4698 18.956C18.119 18.8664 17.7572 18.8438 17.3875 18.872C17.3672 18.8733 17.3483 18.8724 17.328 18.8743C17.1941 18.2937 17.0104 17.6743 16.7935 17.0346C17.6003 16.1074 18.383 15.1225 19.1095 14.1127C22.9637 8.75479 25.7458 2.11523 23.3121 0.365118C22.2188 -0.421327 20.4276 0.0678937 18.1324 1.78247C16.1686 3.24875 14.0451 5.47101 12.0933 8.08003C12.0919 8.07819 12.0905 8.07634 12.0896 8.07449C11.9562 7.88527 11.821 7.69742 11.6849 7.51097C10.3058 5.61824 8.85845 3.97843 7.46971 2.74384L7.31833 2.60953L7.30033 2.61138C5.22991 0.814186 3.27672 -0.0917952 2.01444 0.707111C0.876313 1.42802 0.662625 3.27275 1.39599 6.04192C1.41907 6.12869 1.44953 6.22053 1.47445 6.30822L1.4703 6.31561L1.52707 6.50991C1.55938 6.62022 1.59768 6.73421 1.6323 6.8459C1.66183 6.94144 1.69091 7.03605 1.72229 7.13297C1.81414 7.41358 1.91198 7.69789 2.0186 7.98726C2.04306 8.05326 2.06936 8.12065 2.09475 8.18711C2.19213 8.44464 2.29551 8.70494 2.40443 8.96847C2.45659 9.09493 2.51197 9.22278 2.56689 9.35016C2.65089 9.54585 2.73812 9.74292 2.82812 9.94138C2.89042 10.078 2.95181 10.2146 3.01642 10.3521C3.12303 10.5787 3.23472 10.8067 3.34826 11.0361C3.43134 11.2041 3.51626 11.3717 3.60349 11.5406C3.72856 11.7829 3.85594 12.0252 3.98794 12.2693C4.06501 12.4115 4.14486 12.5536 4.2247 12.6958C4.28424 12.8029 4.34147 12.909 4.40239 13.0161L4.82931 13.7638L4.83531 13.7518C5.02038 14.061 5.2073 14.3702 5.40252 14.6785C5.94113 15.5286 6.51065 16.3525 7.09357 17.1398C6.28081 19.6016 6.22543 21.618 7.41156 22.471C7.76232 22.7234 8.174 22.8406 8.63461 22.8406C9.42798 22.8406 10.3667 22.4843 11.377 21.8784C13.0016 23.2712 14.4273 24 15.5234 24C15.9235 23.9995 16.2812 23.9035 16.5881 23.7088C17.2287 23.3026 17.5763 22.5365 17.622 21.4288C17.6326 21.4251 17.6436 21.4191 17.6543 21.4154C17.6778 21.4071 17.7013 21.4011 17.7249 21.3937C17.7978 21.3707 17.8698 21.3508 17.9413 21.3337C17.9898 21.3222 18.0387 21.3116 18.0867 21.3028C18.1223 21.2964 18.1569 21.2913 18.1919 21.2857C19.3292 21.1187 20.2739 21.6245 20.2956 21.6365C20.3173 21.6485 20.3408 21.6531 20.3639 21.6614C20.4788 21.7039 20.6044 21.7034 20.7142 21.6527C20.7207 21.6499 20.7257 21.6439 20.7322 21.6407C20.7691 21.6217 20.8047 21.6 20.836 21.571C20.9828 21.4334 21.0243 21.2165 20.938 21.0351C20.9343 21.0268 20.9168 20.9908 20.8868 20.9364ZM2.14275 5.19917C1.71814 3.27644 1.84552 1.90709 2.50874 1.48709C2.67212 1.38325 2.87289 1.33248 3.10688 1.33248C3.8181 1.33248 4.83761 1.81109 6.03574 2.74014L3.46733 3.00045L2.14275 5.19917ZM4.78361 11.7986C4.64469 11.542 4.50901 11.2863 4.37839 11.032C4.31516 10.9087 4.25516 10.7869 4.19378 10.6641C4.09363 10.4629 3.99625 10.2626 3.90163 10.0632C3.84902 9.95291 3.79502 9.84169 3.74471 9.73184C3.61779 9.45631 3.4978 9.18355 3.38241 8.91309C3.33626 8.80463 3.29195 8.69756 3.24765 8.59002C3.15211 8.35787 3.06027 8.12757 2.97396 7.90003C2.9495 7.83588 2.92273 7.77035 2.89919 7.70665C2.79489 7.42604 2.70074 7.15051 2.6112 6.87867C2.58489 6.79883 2.55951 6.71991 2.53459 6.64098C2.51289 6.57175 2.49536 6.50576 2.47459 6.43699L4.01978 3.87227L7.00634 3.56951C8.27554 4.72149 9.59597 6.22099 10.8624 7.94757L6.66665 8.05003L4.78361 11.7986ZM6.18251 14.1842C5.8839 13.7125 5.60237 13.2404 5.32914 12.7687L7.24264 8.95924L11.509 8.85494C11.5109 8.85771 11.5127 8.86048 11.5145 8.86325C11.4929 8.89324 11.473 8.92371 11.4518 8.95417C11.2755 9.20293 11.101 9.45354 10.9298 9.70692C10.8675 9.79922 10.807 9.89107 10.7456 9.98338C10.6432 10.1375 10.5421 10.2917 10.4424 10.4467C10.2786 10.7006 10.1193 10.954 9.96381 11.2073C9.93889 11.248 9.91351 11.2886 9.88858 11.3292C9.37813 12.1659 8.91568 12.9962 8.50677 13.8081C8.45831 13.9036 8.41123 13.9987 8.36415 14.0942C8.30323 14.2184 8.24093 14.343 8.18277 14.4662C8.06601 14.7108 7.95616 14.9536 7.85001 15.1945C7.83801 15.2222 7.82555 15.2499 7.81355 15.2776C7.69263 15.5545 7.57817 15.8282 7.47202 16.0982C7.02941 15.4793 6.59742 14.8387 6.18251 14.1842ZM11.8939 20.4162C11.779 20.4998 11.6664 20.5791 11.5547 20.6562C11.449 20.7287 11.3433 20.8011 11.239 20.8685C9.74089 21.8377 8.55384 22.1557 7.95155 21.7224C7.21033 21.1888 7.26479 19.4604 8.10201 17.0706C8.1837 16.8375 8.27 16.6017 8.36462 16.3612C8.39738 16.2782 8.43431 16.1919 8.46892 16.1074C8.56076 15.8822 8.65538 15.656 8.75784 15.4257C8.80076 15.3293 8.8483 15.2296 8.89307 15.1317C8.99645 14.9065 9.10214 14.6804 9.21521 14.451C9.26598 14.3481 9.32136 14.2424 9.37398 14.1381C9.49075 13.9082 9.6089 13.6775 9.73443 13.4448C9.79259 13.3368 9.85535 13.2265 9.91627 13.1172C10.0446 12.8855 10.1738 12.6533 10.3104 12.4198C10.3824 12.2961 10.4604 12.1701 10.5356 12.045C10.6681 11.8244 10.8001 11.6038 10.939 11.3823C11.0443 11.2147 11.1569 11.0449 11.2672 10.8755C11.3849 10.6946 11.4998 10.5132 11.6216 10.3323C11.8598 9.9783 12.1067 9.622 12.3651 9.26247C14.3899 6.44714 16.6343 4.05366 18.6849 2.5223C20.0778 1.48202 21.2856 0.926337 22.0988 0.926337C22.3697 0.926337 22.5972 0.988182 22.7731 1.11418C24.1909 2.13416 22.7269 7.50174 18.3599 13.5736C17.5523 14.6965 16.7358 15.716 15.9328 16.6285C15.9318 16.6294 15.9309 16.6298 15.93 16.6308C15.8395 16.7332 15.7495 16.8302 15.6591 16.9303C15.5123 17.0932 15.3655 17.2552 15.2197 17.4103C15.1117 17.5257 15.0037 17.6378 14.8957 17.7495C14.7545 17.8958 14.6137 18.0394 14.4739 18.1783C14.3802 18.2715 14.2865 18.3652 14.1933 18.4557C14.0013 18.6417 13.8116 18.8203 13.6237 18.992C13.5836 19.0284 13.543 19.0681 13.5028 19.1041C13.2707 19.3132 13.0427 19.5098 12.8184 19.6967C12.7524 19.7516 12.6878 19.8019 12.6222 19.855C12.4681 19.9801 12.3158 20.1005 12.1662 20.2145C12.0744 20.2842 11.9839 20.3507 11.8939 20.4162ZM16.0948 22.9293C15.3762 23.3829 13.9048 22.782 12.1828 21.3554C12.7219 20.9761 13.2753 20.5335 13.8347 20.041C13.9893 19.9058 14.1448 19.7664 14.3008 19.6229C14.3354 19.591 14.3696 19.5596 14.4042 19.5273C14.9599 19.0109 15.5229 18.4464 16.0874 17.8335C16.2217 18.2646 16.3278 18.6749 16.4197 19.0732C15.8654 19.2587 15.2954 19.5578 14.7106 19.9847C14.5173 20.1259 14.4642 20.3922 14.5883 20.5967L15.576 22.2231C15.6503 22.3459 15.7772 22.4266 15.9194 22.4428C15.9365 22.4446 15.9535 22.4456 15.9701 22.4456C16.0952 22.4456 16.2148 22.3953 16.3029 22.3039C16.4086 22.194 16.5161 22.0962 16.6237 22.0062C16.5424 22.393 16.3864 22.7442 16.0948 22.9293ZM19.0965 20.3479C19.0384 20.3424 18.9798 20.3373 18.9198 20.3336C18.8861 20.3318 18.8529 20.3304 18.8192 20.3295C18.2593 20.3096 17.6238 20.3932 16.9717 20.6955C16.956 20.7028 16.9435 20.7144 16.9292 20.7231C16.6407 20.8607 16.3532 21.0365 16.0735 21.2636L15.6042 20.4905C16.1285 20.1532 16.6283 19.9395 17.1014 19.8421C17.2015 19.8213 17.2998 19.8056 17.3949 19.7964C17.412 19.7946 17.4286 19.7941 17.4452 19.7927C17.5412 19.7849 17.6349 19.7816 17.7249 19.7839C17.7346 19.7844 17.7443 19.7849 17.754 19.7853C17.8504 19.7895 17.9446 19.7978 18.0346 19.8121C18.0378 19.8125 18.041 19.8135 18.0443 19.8139C18.1393 19.8292 18.2307 19.8499 18.3189 19.8753C18.3193 19.8753 18.3198 19.8758 18.3202 19.8758C18.4089 19.9012 18.4938 19.9316 18.5759 19.9653C18.5833 19.9685 18.5907 19.9722 18.5981 19.9755C18.6705 20.0064 18.7402 20.0396 18.8076 20.0761C18.8579 20.1038 18.9055 20.1333 18.953 20.1633C18.9747 20.1767 18.9973 20.1892 19.0181 20.203C19.091 20.2524 19.1607 20.3041 19.2267 20.3576C19.1842 20.353 19.1395 20.3516 19.0965 20.3479Z" fill="black"/>
</svg>
