<svg width="29" height="29" viewBox="0 0 29 29" fill="none" xmlns="http://www.w3.org/2000/svg">
<g clip-path="url(#clip0)">
<path d="M14.5057 29C21.064 28.9705 26.4014 23.7154 26.5324 17.1586C26.6636 10.6017 21.5407 5.13707 14.9891 4.84537V0.483333C14.9891 0.216414 14.7726 0 14.5057 0C14.2388 0 14.0224 0.216414 14.0224 0.483333V4.84537C7.47072 5.13707 2.34781 10.6017 2.47903 17.1586C2.61025 23.7154 7.94768 28.9705 14.5057 29ZM14.5057 10.6333C14.7726 10.6333 14.9891 10.4169 14.9891 10.15V9.80095C15.3681 10.0197 15.5529 10.4658 15.4396 10.8885C15.3263 11.3109 14.9433 11.605 14.5057 11.605C14.0684 11.605 13.6854 11.3109 13.5721 10.8885C13.4588 10.4658 13.6436 10.0197 14.0224 9.80095V10.15C14.0224 10.4169 14.2388 10.6333 14.5057 10.6333ZM14.0224 5.81204V8.76868C13.0798 9.012 12.4652 9.91848 12.588 10.8842C12.7104 11.8499 13.5322 12.574 14.5057 12.574C15.4795 12.574 16.301 11.8499 16.4237 10.8842C16.5464 9.91848 15.9319 9.012 14.9891 8.76868V5.81204C21.0288 6.07494 25.7512 11.116 25.6198 17.16C25.4883 23.204 20.5512 28.035 14.5057 28.035C8.46051 28.035 3.52334 23.204 3.39189 17.16C3.26043 11.116 7.98284 6.07494 14.0224 5.81204Z" fill="black"/>
<path d="M11.3185 24.0701C11.5318 24.2303 11.8348 24.1871 11.9951 23.9735L17.7951 16.2402C17.9551 16.0266 17.9119 15.7236 17.6983 15.5636C17.4847 15.4033 17.1819 15.4465 17.0217 15.6601L11.2217 23.3934C11.0615 23.607 11.1049 23.9101 11.3185 24.0701Z" fill="black"/>
<path d="M12.0896 19.3335C13.1575 19.3335 14.0229 18.4678 14.0229 17.4001C14.0229 16.3325 13.1575 15.4668 12.0896 15.4668C11.0219 15.4668 10.1562 16.3325 10.1562 17.4001C10.1562 18.4678 11.0219 19.3335 12.0896 19.3335ZM12.0896 16.4335C12.6237 16.4335 13.0563 16.8663 13.0563 17.4001C13.0563 17.934 12.6237 18.3668 12.0896 18.3668C11.5557 18.3668 11.1229 17.934 11.1229 17.4001C11.1229 16.8663 11.5557 16.4335 12.0896 16.4335Z" fill="black"/>
<path d="M14.9883 22.2331C14.9883 23.3008 15.8539 24.1665 16.9216 24.1665C17.9895 24.1665 18.8549 23.3008 18.8549 22.2331C18.8549 21.1655 17.9895 20.2998 16.9216 20.2998C15.8539 20.2998 14.9883 21.1655 14.9883 22.2331ZM17.8883 22.2331C17.8883 22.767 17.4557 23.1998 16.9216 23.1998C16.3878 23.1998 15.9549 22.767 15.9549 22.2331C15.9549 21.6993 16.3878 21.2665 16.9216 21.2665C17.4557 21.2665 17.8883 21.6993 17.8883 22.2331Z" fill="black"/>
</g>
<defs>
<clipPath id="clip0">
<rect width="29" height="29" fill="white"/>
</clipPath>
</defs>
</svg>
