<svg width="35" height="20" viewBox="0 0 35 20" fill="none" xmlns="http://www.w3.org/2000/svg">
<path d="M34.9212 12.2953C34.8208 12.1356 34.6416 12.0441 34.4531 12.0566L24.0403 12.7509V8.14917H24.6238C24.9068 8.14917 25.1365 7.91953 25.1365 7.63648C25.1365 7.35343 24.9068 7.12379 24.6238 7.12379H17.4647V3.13304C18.1011 2.91862 18.5606 2.31647 18.5606 1.60858C18.5606 0.721778 17.8391 0 16.952 0C16.065 0 15.3435 0.721778 15.3435 1.60858C15.3435 2.31647 15.803 2.91835 16.4393 3.13304V7.12379H12.5682C11.6812 7.12379 10.9596 7.84556 10.9596 8.73236V13.623L9.75295 13.7034C9.50808 12.1509 8.16092 10.9596 6.54033 10.9596C4.77313 10.9596 3.33145 12.3768 3.28979 14.1344L2.08603 14.2145C1.53087 14.2516 1.09588 14.7165 1.09588 15.2727V18.6314H0.512695C0.229644 18.6314 0 18.8608 0 19.1441C0 19.4271 0.229644 19.6568 0.512695 19.6568H32.2955C32.5785 19.6568 32.8082 19.4271 32.8082 19.1441C32.8082 18.8608 32.5785 18.6314 32.2955 18.6314H31.6533L34.9337 12.8203C35.0264 12.6563 35.0216 12.4547 34.9212 12.2953ZM16.952 1.02539C17.2735 1.02539 17.5352 1.28708 17.5352 1.60885C17.5352 1.93035 17.2735 2.19204 16.952 2.19204C16.6305 2.19204 16.3688 1.93035 16.3688 1.60885C16.3688 1.28708 16.6303 1.02539 16.952 1.02539ZM23.0149 10.4117H20.7524V8.14917H23.0149V10.4117ZM19.7273 8.14917V10.4117H17.4647V8.14917H19.7273ZM16.4393 10.4117H15.3082C15.2887 10.4117 15.273 10.396 15.273 10.3765V8.14917H16.4393V10.4117ZM11.985 8.73236C11.985 8.41086 12.2467 8.14917 12.5682 8.14917H14.2473V10.3765C14.2473 10.9613 14.7231 11.4371 15.3079 11.4371H23.0149V12.8192L11.985 13.5546V8.73236ZM8.76761 14.2123C8.76761 14.6409 8.64558 15.0414 8.43489 15.3816L7.55877 14.5055C7.58574 14.4123 7.60097 14.3141 7.60097 14.2123C7.60097 13.6273 7.12539 13.1517 6.54033 13.1517C6.43859 13.1517 6.34032 13.1669 6.24713 13.1939L5.37101 12.3178C5.7112 12.1071 6.11175 11.985 6.54033 11.985C7.76866 11.985 8.76761 12.9843 8.76761 14.2123ZM4.64603 13.043L5.52188 13.9189C5.49518 14.0121 5.47969 14.1103 5.47969 14.2123C5.47969 14.7971 5.95554 15.273 6.5406 15.273C6.64233 15.273 6.7406 15.2577 6.83379 15.2308L7.70991 16.1066C7.36972 16.3173 6.96918 16.4393 6.5406 16.4393C5.31253 16.4393 4.31331 15.4404 4.31331 14.2123C4.31331 13.7835 4.43534 13.3829 4.64603 13.043ZM2.15439 15.2377L3.42704 15.1528C3.57444 15.6396 3.83319 16.0781 4.17339 16.4393H2.12127V15.273C2.12127 15.2543 2.13569 15.239 2.15439 15.2377ZM31.7134 16.4393H30.1035C29.8204 16.4393 29.5908 16.669 29.5908 16.952C29.5908 17.2351 29.8204 17.4647 30.1035 17.4647H31.1345L30.476 18.6314H2.12127V17.4647H27.9117C28.1947 17.4647 28.4244 17.2351 28.4244 16.952C28.4244 16.669 28.1947 16.4393 27.9117 16.4393H8.90754C9.34359 15.9763 9.6456 15.3864 9.75108 14.7312L33.574 13.1429L31.7134 16.4393Z" fill="black"/>
</svg>
