<svg width="32" height="32" viewBox="0 0 32 32" fill="none" xmlns="http://www.w3.org/2000/svg">
<path d="M9.68377 4.48674C9.68377 5.0223 9.24962 5.45644 8.71407 5.45644C8.17851 5.45644 7.74437 5.0223 7.74437 4.48674C7.74437 3.95119 8.17851 3.51704 8.71407 3.51704C9.24962 3.51704 9.68377 3.95119 9.68377 4.48674ZM27.8722 5.01963C27.807 5.13117 27.7003 5.2122 27.5753 5.24498L22.3839 6.60682C22.3425 6.61766 22.301 6.62286 22.2601 6.62286C22.0441 6.62286 21.8467 6.47808 21.7894 6.25935L21.6977 5.90987L19.6747 6.44133L20.4663 10.3288C20.4728 10.3607 20.4761 10.3932 20.4761 10.4259V12.0949C20.4761 13.909 19.0002 15.3848 17.1862 15.3848H10.392V26.3902C10.392 27.8414 9.21132 29.022 7.76015 29.022H7.38788C7.11896 29.022 6.90095 28.8041 6.90095 28.5351V27.8309H6.22347V31.513C6.22347 31.782 6.00546 31.9999 5.73654 31.9999C5.46763 31.9999 5.24962 31.782 5.24962 31.513V27.8309H4.54552C4.27661 27.8309 4.05859 27.613 4.05859 27.344C4.05859 27.075 4.27661 26.8571 4.54552 26.8571H5.24962V23.1751C5.24962 22.9062 5.46763 22.6882 5.73654 22.6882C6.00546 22.6882 6.22347 22.9062 6.22347 23.1751V26.8571H6.90101V15.3489C5.31707 15.1129 4.09807 13.7436 4.09807 12.095V6.10658C4.09807 2.73939 6.83745 0 10.2045 0H16.5389C17.6205 0 18.544 0.771487 18.7368 1.83526L19.4801 5.48559L21.4505 4.96789L21.3587 4.61808C21.3259 4.49317 21.3441 4.36033 21.4093 4.2488C21.4745 4.13726 21.5812 4.05623 21.7062 4.02345L26.8975 2.66161C27.1577 2.5935 27.4238 2.749 27.4921 3.00908L27.9226 4.65035C27.9555 4.77533 27.9373 4.90816 27.8722 5.01963ZM18.7315 6.68921L17.2818 7.07005C17.2819 7.07888 17.2824 7.08765 17.2824 7.09654C17.2824 8.20914 16.3773 9.1143 15.2646 9.1143C14.1519 9.1143 13.2468 8.20914 13.2468 7.09654C13.2468 5.98388 14.1519 5.07871 15.2646 5.07871C16.0265 5.07871 16.691 5.50325 17.0343 6.12814L18.5368 5.7334L17.7816 2.02393C17.7808 2.0201 17.7801 2.01627 17.7794 2.01237C17.6719 1.41066 17.1502 0.973854 16.5389 0.973854H10.2046C7.37444 0.973854 5.07192 3.27637 5.07192 6.10658V9.93902H17.3349C17.6038 9.93902 17.8218 10.157 17.8218 10.426C17.8218 10.6949 17.6038 10.9129 17.3349 10.9129H5.07192V12.095C5.07192 13.3721 6.11089 14.411 7.38794 14.411H8.42529C8.6942 14.411 8.91222 14.629 8.91222 14.898C8.91222 15.1669 8.6942 15.3849 8.42529 15.3849H7.87487V28.0443C8.73575 27.9852 9.41817 27.2659 9.41817 26.3902V14.898C9.41817 14.629 9.63618 14.411 9.90509 14.411H17.1863C18.4633 14.411 19.5023 13.3721 19.5023 12.095V10.475L18.7315 6.68921ZM15.1409 6.62565L16.0322 6.39147C15.8413 6.18378 15.5683 6.05263 15.2646 6.05263C14.689 6.05263 14.2206 6.52099 14.2206 7.0966C14.2206 7.67222 14.6889 8.14051 15.2646 8.14051C15.7587 8.14051 16.1729 7.79505 16.2805 7.33319L15.3883 7.56756C15.3468 7.57847 15.3052 7.58366 15.2642 7.58366C15.0483 7.58366 14.851 7.43895 14.7936 7.22028C14.7253 6.9602 14.8808 6.69395 15.1409 6.62565ZM26.8572 4.42656L26.6738 3.72726L22.4244 4.842L22.516 5.19142C22.516 5.19142 22.516 5.19142 22.516 5.19149V5.19155L22.6078 5.54136L26.8572 4.42656Z" fill="black"/>
</svg>
