<svg width="32" height="32" viewBox="0 0 32 32" fill="none" xmlns="http://www.w3.org/2000/svg">
<g clip-path="url(#clip0)">
<path d="M31.0925 5.1764L29.8651 4.08996C29.6713 3.9184 29.3749 3.93627 29.2032 4.13033C29.0316 4.32427 29.0496 4.62058 29.2436 4.79227L30.4709 5.87871C31.0963 6.43227 31.2454 7.35802 30.8281 8.07565L26.3079 15.6575H23.3741V14.1367C23.3741 13.437 22.8048 12.8678 22.1051 12.8678H19.7941L19.7308 11.9496C19.6816 11.2361 19.0828 10.6771 18.3676 10.6771H14.6881C13.9729 10.6771 13.374 11.2361 13.3249 11.9497L13.2616 12.8678H11.0311C8.78081 12.8678 6.95006 14.6985 6.95006 16.9488V19.4991C6.95006 20.0723 7.4165 20.5387 7.98975 20.5387H8.56806V21.6021H6.74394C6.03625 20.8076 5.00637 20.3058 3.86112 20.3058C1.73206 20.3058 0 22.0378 0 24.1668C0 26.2958 1.73206 28.0278 3.861 28.0278C5.00625 28.0278 6.03606 27.5261 6.74375 26.7316H23.0832C23.7909 27.5261 24.8207 28.0278 25.9659 28.0278C28.095 28.0278 29.827 26.2958 29.827 24.1668C29.827 22.0378 28.0949 20.3058 25.9659 20.3058C25.4246 20.3058 24.9092 20.4182 24.4411 20.6203L31.6362 8.55146C32.28 7.44458 32.0514 6.02521 31.0925 5.1764ZM14.2604 12.0141C14.2758 11.7903 14.4637 11.615 14.6881 11.615H18.3675C18.5919 11.615 18.7797 11.7903 18.7951 12.0141L18.854 12.8677H14.2016L14.2604 12.0141ZM7.98962 19.6009V19.6008C7.93344 19.6008 7.88781 19.5551 7.88781 19.499V16.9487C7.88781 15.2362 9.26475 13.8401 10.9696 13.8071L22.1051 13.8055C22.2877 13.8055 22.4363 13.9541 22.4363 14.1366V17.7388C22.4363 17.9214 22.2877 18.07 22.1051 18.07H12.2936C11.7204 18.07 11.2539 18.5364 11.2539 19.1096V19.4991C11.2539 19.5552 11.2083 19.6009 11.1521 19.6009H9.03687H7.98962ZM20.0271 19.0078V21.6021H9.50581V20.5386H11.1522C11.7254 20.5386 12.1918 20.0723 12.1918 19.499V19.1096C12.1918 19.0534 12.2375 19.0078 12.2936 19.0078H20.0271ZM6.78075 24.3071C6.78019 24.3187 6.77931 24.3301 6.77863 24.3416C6.77644 24.3784 6.77381 24.415 6.77025 24.4515C6.76931 24.4613 6.76825 24.4711 6.76719 24.4809C6.76269 24.5228 6.7575 24.5645 6.75125 24.6058C6.75081 24.6087 6.75044 24.6116 6.75 24.6145C6.74644 24.6375 6.74181 24.6601 6.73775 24.6829C6.72762 24.7399 6.71581 24.7966 6.70225 24.8528C6.70206 24.8536 6.70187 24.8545 6.70169 24.8552C6.6605 25.0253 6.60363 25.1913 6.53263 25.3513C6.52931 25.3587 6.52594 25.3661 6.52262 25.3735C6.50269 25.4175 6.4815 25.4608 6.45937 25.5038C6.45456 25.5131 6.44988 25.5226 6.44494 25.532C6.42031 25.5785 6.3945 25.6244 6.36737 25.6696C6.36544 25.6728 6.36369 25.6761 6.36175 25.6794C6.3345 25.7245 6.30556 25.7686 6.27588 25.8122C6.263 25.831 6.24956 25.8493 6.23631 25.8678C6.21869 25.8923 6.20081 25.9167 6.18244 25.9407C5.64775 26.6387 4.80631 27.09 3.86112 27.09C2.24931 27.09 0.937937 25.7786 0.937937 24.1668C0.937937 22.555 2.24931 21.2436 3.86112 21.2436C4.81313 21.2436 5.66 21.7012 6.19413 22.4078C6.199 22.4142 6.20394 22.4206 6.20875 22.4271C6.23394 22.4611 6.25856 22.4955 6.28231 22.5305C6.28325 22.532 6.28425 22.5333 6.28525 22.5347C6.52087 22.8836 6.68325 23.2858 6.75012 23.7191C6.75056 23.722 6.751 23.725 6.75144 23.728C6.75769 23.7693 6.76288 23.8109 6.76731 23.8528C6.76837 23.8626 6.76944 23.8724 6.77037 23.8822C6.77387 23.9186 6.77656 23.9552 6.77875 23.992C6.77944 24.0035 6.78038 24.015 6.78088 24.0265C6.78306 24.073 6.78444 24.1197 6.78444 24.1668C6.78425 24.2139 6.78294 24.2606 6.78075 24.3071ZM7.36406 25.7939C7.44925 25.6115 7.51906 25.4231 7.57419 25.2299H8.71131C8.97031 25.2299 9.18025 25.02 9.18025 24.761C9.18025 24.502 8.97031 24.292 8.71131 24.292H7.71887C7.72019 24.2503 7.72206 24.2088 7.72206 24.1668C7.72206 24.0984 7.72013 24.0304 7.71663 23.9628C7.71475 23.9261 7.71119 23.8897 7.70825 23.8532C7.70587 23.8237 7.70413 23.794 7.70106 23.7647C7.69606 23.7161 7.68937 23.668 7.68262 23.6199C7.68037 23.6039 7.67856 23.5877 7.67606 23.5718C7.66756 23.5165 7.65744 23.4618 7.64656 23.4071C7.645 23.3995 7.64369 23.3916 7.64213 23.384C7.63 23.3247 7.61625 23.266 7.60131 23.2075C7.60075 23.2053 7.60019 23.203 7.59963 23.2006C7.54125 22.9736 7.46337 22.7525 7.364 22.5398H22.4629C22.3635 22.7526 22.2856 22.974 22.2272 23.2012C22.2268 23.203 22.2263 23.2048 22.2259 23.2065C22.2109 23.2654 22.197 23.3246 22.1847 23.3842C22.1833 23.3916 22.182 23.399 22.1805 23.4064C22.1696 23.4613 22.1594 23.5163 22.1509 23.5719C22.1484 23.5876 22.1467 23.6036 22.1444 23.6194C22.1376 23.6677 22.1309 23.716 22.1259 23.7648C22.1229 23.794 22.1212 23.8236 22.1188 23.8531C22.1159 23.8897 22.1123 23.9261 22.1104 23.9629C22.1069 24.0305 22.105 24.0985 22.105 24.167C22.1049 24.2088 22.1068 24.2504 22.1081 24.292H12.0428C11.7838 24.292 11.5739 24.502 11.5739 24.761C11.5739 25.02 11.7838 25.2299 12.0428 25.2299H22.2528C22.3079 25.423 22.3778 25.6115 22.4629 25.7939H7.36406ZM25.966 21.2436C27.5779 21.2436 28.8892 22.555 28.8892 24.1668C28.8892 25.7786 27.5779 27.09 25.966 27.09C25.0205 27.09 24.1788 26.6384 23.6441 25.94C23.6262 25.9166 23.6089 25.8929 23.5917 25.869C23.5781 25.85 23.5642 25.831 23.5509 25.8116C23.5214 25.7683 23.4927 25.7245 23.4656 25.6797C23.4631 25.6756 23.4609 25.6715 23.4585 25.6674C23.432 25.6231 23.4066 25.5781 23.3825 25.5325C23.3772 25.5226 23.3722 25.5125 23.3671 25.5025C23.3454 25.4603 23.3246 25.4176 23.3049 25.3745C23.3013 25.3664 23.2976 25.3584 23.294 25.3503C23.2234 25.191 23.1667 25.0257 23.1257 24.8564C23.1252 24.8543 23.1248 24.8522 23.1243 24.8501C23.1111 24.7954 23.0996 24.7403 23.0897 24.6848C23.0854 24.6613 23.0807 24.6379 23.0771 24.6141C23.0767 24.6115 23.0763 24.6089 23.0759 24.6063C23.0696 24.5647 23.0644 24.5228 23.0599 24.4806C23.0589 24.471 23.0579 24.4613 23.0569 24.4516C23.0534 24.4151 23.0508 24.3785 23.0486 24.3416C23.0479 24.3301 23.047 24.3186 23.0464 24.3071C23.0443 24.2606 23.0429 24.2139 23.0429 24.1668C23.0429 24.1198 23.0442 24.073 23.0464 24.0265C23.047 24.015 23.0479 24.0036 23.0486 23.9921C23.0508 23.9553 23.0534 23.9186 23.0569 23.8821C23.0579 23.8724 23.0589 23.8627 23.0599 23.853C23.0644 23.8109 23.0697 23.769 23.0759 23.7275C23.0763 23.7248 23.0767 23.7221 23.0771 23.7195C23.1511 23.2401 23.3419 22.799 23.6195 22.4258C23.6235 22.4205 23.6276 22.4151 23.6317 22.4097C24.1656 21.702 25.0132 21.2436 25.966 21.2436ZM22.7639 21.6021H20.965V19.0078H22.1052C22.8049 19.0078 23.3741 18.4385 23.3741 17.7388V16.5953H25.7489L22.7639 21.6021Z" fill="black"/>
<path d="M3.86297 22.5889C2.99297 22.5889 2.28516 23.2967 2.28516 24.1667C2.28516 25.0368 2.99297 25.7446 3.86297 25.7446C4.73303 25.7446 5.44084 25.0368 5.44084 24.1667C5.44084 23.2967 4.73303 22.5889 3.86297 22.5889ZM3.86297 24.8068C3.51009 24.8068 3.22297 24.5197 3.22297 24.1667C3.22297 23.8138 3.51003 23.5267 3.86297 23.5267C4.21591 23.5267 4.50303 23.8138 4.50303 24.1667C4.50303 24.5197 4.21591 24.8068 3.86297 24.8068Z" fill="black"/>
<path d="M25.9646 22.5889C25.0945 22.5889 24.3867 23.2967 24.3867 24.1667C24.3867 25.0367 25.0945 25.7446 25.9646 25.7446C26.8347 25.7446 27.5425 25.0368 27.5425 24.1667C27.5425 23.2967 26.8347 22.5889 25.9646 22.5889ZM25.9646 24.8068C25.6117 24.8068 25.3245 24.5197 25.3245 24.1667C25.3245 23.8138 25.6117 23.5267 25.9646 23.5267C26.3175 23.5267 26.6047 23.8138 26.6047 24.1667C26.6047 24.5197 26.3175 24.8068 25.9646 24.8068Z" fill="black"/>
<path d="M14.383 14.4292C14.124 14.4292 13.9141 14.6391 13.9141 14.8981V16.9368C13.9141 17.1959 14.124 17.4058 14.383 17.4058C14.642 17.4058 14.8519 17.1958 14.8519 16.9368V14.8981C14.8519 14.6391 14.642 14.4292 14.383 14.4292Z" fill="black"/>
<path d="M16.4221 14.4292C16.1631 14.4292 15.9531 14.6391 15.9531 14.8981V16.9368C15.9531 17.1959 16.1631 17.4058 16.4221 17.4058C16.6811 17.4058 16.891 17.1958 16.891 16.9368V14.8981C16.891 14.6391 16.6811 14.4292 16.4221 14.4292Z" fill="black"/>
<path d="M18.4611 14.4292C18.2021 14.4292 17.9922 14.6391 17.9922 14.8981V16.9368C17.9922 17.1959 18.2021 17.4058 18.4611 17.4058C18.7201 17.4058 18.9301 17.1958 18.9301 16.9368V14.8981C18.9301 14.6391 18.7201 14.4292 18.4611 14.4292Z" fill="black"/>
<path d="M20.4963 14.4292C20.2373 14.4292 20.0273 14.6391 20.0273 14.8981V16.9368C20.0273 17.1959 20.2373 17.4058 20.4963 17.4058C20.7553 17.4058 20.9652 17.1958 20.9652 16.9368V14.8981C20.9652 14.6391 20.7553 14.4292 20.4963 14.4292Z" fill="black"/>
</g>
<defs>
<clipPath id="clip0">
<rect width="32" height="32" fill="white"/>
</clipPath>
</defs>
</svg>
