<svg width="25" height="26" viewBox="0 0 25 26" fill="none" xmlns="http://www.w3.org/2000/svg">
<path d="M24.0037 3.49569L23.9129 3.47802C23.9178 3.40883 23.9212 3.33931 23.9212 3.26924C23.9212 3.13761 23.9118 3.00752 23.8944 2.87935L23.9692 2.86481C24.1923 2.82141 24.3379 2.60533 24.2945 2.38229C24.2511 2.15925 24.0351 2.01357 23.812 2.05697L23.6657 2.08545C23.5773 1.89138 23.4668 1.70724 23.3355 1.53594L23.44 1.43147C23.6007 1.27076 23.6007 1.01019 23.44 0.849532C23.2792 0.688821 23.0187 0.688821 22.858 0.849532L22.7469 0.960586C22.5911 0.846898 22.4252 0.750274 22.2514 0.671153L22.2799 0.524928C22.3234 0.301832 22.1777 0.0858134 21.9547 0.0423574C21.7313 -0.0010987 21.5155 0.144633 21.4721 0.367674L21.4575 0.442406C21.3294 0.425067 21.1992 0.41563 21.0676 0.41563C20.9975 0.41563 20.9279 0.418977 20.8588 0.423915L20.8411 0.332997C20.7977 0.109956 20.5817 -0.0358306 20.3585 0.0076803C20.1354 0.0511364 19.9897 0.267155 20.0331 0.490251L20.0545 0.600098C19.8674 0.670824 19.6882 0.761303 19.5194 0.870601L19.4823 0.814745C19.3566 0.625393 19.1012 0.573816 18.9118 0.699575C18.7226 0.82528 18.671 1.08069 18.7967 1.26999L18.8896 1.40991L18.49 1.80952L18.4047 1.72425C18.2439 1.56354 17.9834 1.56354 17.8227 1.72425C17.662 1.88496 17.662 2.14553 17.8227 2.30619L17.908 2.39145L17.5244 2.77499L17.4392 2.68972C17.2785 2.52906 17.0179 2.52901 16.8572 2.68972C16.6965 2.85043 16.6965 3.111 16.8572 3.27171L16.9424 3.35698L16.5589 3.74051L16.4736 3.65525C16.3129 3.49454 16.0524 3.49454 15.8917 3.65525C15.7309 3.81596 15.7309 4.07653 15.8917 4.23718L15.9769 4.32245L15.5934 4.70598L15.5081 4.62066C15.3474 4.45995 15.0868 4.46001 14.9261 4.62066C14.7654 4.78137 14.7654 5.04194 14.9262 5.20265L15.0114 5.28792L14.6279 5.67145L14.5427 5.58619C14.3819 5.42548 14.1214 5.42548 13.9607 5.58619C13.7999 5.7469 13.7999 6.00747 13.9607 6.16813L14.046 6.25345L13.6624 6.63698L13.5772 6.55171C13.4165 6.39106 13.1559 6.391 12.9952 6.55171C12.8345 6.71242 12.8345 6.973 12.9952 7.13371L13.0805 7.21903L12.697 7.60256L12.6117 7.51724C12.4509 7.35653 12.1904 7.35658 12.0297 7.51724C11.869 7.67795 11.869 7.93852 12.0297 8.09923L12.1149 8.1845L11.7314 8.56803L11.6461 8.48277C11.4854 8.32205 11.2248 8.32211 11.0641 8.48277C10.9034 8.64348 10.9034 8.90405 11.0641 9.06476L11.1495 9.15008L10.7659 9.53361L9.51969 8.28743C9.06889 7.83663 8.4695 7.58835 7.83198 7.58835C7.19446 7.58835 6.59508 7.83663 6.14427 8.28743L5.86143 8.57028L3.51546 6.22431C3.35475 6.0636 3.09417 6.0636 2.93352 6.22431C2.77281 6.38502 2.77281 6.64559 2.93352 6.80625L5.27949 9.15222L1.59313 12.8386C0.712046 13.7197 0.665737 15.1236 1.45316 16.0604L0.734214 22.0465C0.687026 22.4392 0.862387 22.9463 1.14211 23.2261L3.4748 25.5587C3.76895 25.8529 4.15534 26 4.54172 26C4.92811 26 5.31449 25.8529 5.6087 25.5587L14.5121 16.6554C15.3434 15.824 15.4314 14.5273 14.7774 13.5966L15.1865 13.1875L15.2719 13.2728C15.3522 13.3531 15.4575 13.3934 15.5629 13.3934C15.6682 13.3934 15.7735 13.3532 15.8539 13.2729C16.0146 13.1122 16.0146 12.8516 15.8539 12.6909L15.7686 12.6055L16.1522 12.222L16.2375 12.3073C16.3179 12.3877 16.4232 12.4278 16.5285 12.4278C16.6338 12.4278 16.7392 12.3877 16.8195 12.3073C16.9803 12.1466 16.9803 11.886 16.8195 11.7253L16.7342 11.64L17.1177 11.2565L17.203 11.3418C17.2834 11.4221 17.3887 11.4624 17.494 11.4624C17.5993 11.4624 17.7047 11.4222 17.785 11.3419C17.9458 11.1812 17.9458 10.9206 17.7851 10.7599L17.6997 10.6746L18.0833 10.291L18.1686 10.3763C18.249 10.4567 18.3543 10.4969 18.4596 10.4969C18.5649 10.4969 18.6703 10.4567 18.7506 10.3763C18.9114 10.2156 18.9114 9.95506 18.7506 9.7944L18.6653 9.70908L19.0489 9.32555L19.1342 9.41087C19.2146 9.4912 19.3199 9.53142 19.4252 9.53142C19.5305 9.53142 19.6358 9.49125 19.7162 9.41092C19.8769 9.25021 19.8769 8.98964 19.7162 8.82893L19.6309 8.74361L20.0145 8.36002L20.0999 8.4454C20.1803 8.52573 20.2855 8.56589 20.3908 8.56589C20.4961 8.56589 20.6015 8.52573 20.6819 8.44534C20.8426 8.28463 20.8426 8.02406 20.6818 7.86341L20.5965 7.77809L20.98 7.39455L21.0653 7.47987C21.1457 7.5602 21.251 7.60042 21.3564 7.60042C21.4617 7.60042 21.567 7.56026 21.6473 7.47993C21.8081 7.31922 21.8081 7.05865 21.6474 6.89794L21.5621 6.81261L21.9456 6.42908L22.0309 6.5144C22.1113 6.59473 22.2167 6.63495 22.3219 6.63495C22.4272 6.63495 22.5326 6.59479 22.613 6.5144C22.7737 6.35369 22.7737 6.09312 22.613 5.93246L22.5276 5.84714L22.9273 5.44753L23.0672 5.54048C23.1372 5.58696 23.2163 5.60923 23.2945 5.60923C23.4278 5.60923 23.5585 5.5446 23.6377 5.42531C23.7634 5.23596 23.7119 4.9806 23.5225 4.85484L23.4666 4.8177C23.5759 4.64886 23.6663 4.46961 23.7371 4.28251L23.847 4.30391C23.8735 4.30906 23.9 4.31159 23.926 4.31159C24.119 4.31159 24.2912 4.17513 24.3295 3.97859C24.3725 3.75511 24.2268 3.53909 24.0037 3.49569ZM14.2211 12.989L11.3477 10.1157L19.6308 1.83251C20.0138 1.44952 20.524 1.23855 21.0675 1.23855C21.611 1.23855 22.1212 1.44947 22.5043 1.83251C22.8873 2.21549 23.0982 2.72571 23.0982 3.26919C23.0982 3.81266 22.8872 4.32289 22.5042 4.70587L14.2211 12.989ZM8.27313 21.7303L3.65504 17.1121C3.54366 17.0006 3.37839 16.9627 3.22959 17.0141C3.08073 17.0656 2.97429 17.1976 2.95552 17.354L2.40502 21.9386C2.38999 22.064 2.43333 22.1894 2.52261 22.2786L4.25075 24.0068C4.33108 24.0871 4.43643 24.1273 4.54172 24.1273C4.64701 24.1273 4.75236 24.0872 4.83269 24.0068L7.1092 21.7303L7.69119 22.3123L5.02676 24.9768C4.75933 25.2442 4.32417 25.2442 4.05679 24.9768L1.7241 22.6441C1.62122 22.5412 1.53409 22.2892 1.55143 22.1446L2.21112 16.6501C2.31284 16.6475 2.41375 16.6077 2.49133 16.53C2.65199 16.3693 2.65188 16.1087 2.49111 15.9481L2.17496 15.6322C1.56526 15.0225 1.56526 14.0304 2.17496 13.4207L5.86132 9.73432L11.4736 15.3466C11.5539 15.427 11.6593 15.4672 11.7646 15.4672C11.8699 15.4672 11.9752 15.427 12.0556 15.3466C12.2163 15.1859 12.2163 14.9253 12.0556 14.7647L6.4432 9.15227L6.72605 8.86942C7.02141 8.57407 7.4141 8.41138 7.83182 8.41138C8.24948 8.41138 8.64223 8.57407 8.93753 8.86942L13.9295 13.8614C14.5397 14.472 14.5396 15.4638 13.93 16.0734L8.27313 21.7303ZM6.52726 21.1483L4.54172 23.1339L3.24605 21.8382L3.67172 18.2927L6.52726 21.1483Z" fill="black"/>
<path d="M7.2845 18.6459C7.12379 18.4852 6.86322 18.4852 6.70256 18.6459C6.54185 18.8067 6.54185 19.0672 6.70256 19.2279L7.86688 20.3922C7.94721 20.4726 8.05256 20.5127 8.15785 20.5127C8.26314 20.5127 8.36849 20.4726 8.44882 20.3922C8.60953 20.2315 8.60953 19.9709 8.44882 19.8103L7.2845 18.6459Z" fill="black"/>
<path d="M8.33138 17.5981C8.17067 17.4374 7.9101 17.4374 7.74944 17.5981C7.58873 17.7588 7.58873 18.0194 7.74944 18.18L8.91375 19.3443C8.99408 19.4247 9.09943 19.4649 9.20472 19.4649C9.31002 19.4649 9.41537 19.4247 9.49569 19.3443C9.6564 19.1836 9.6564 18.923 9.49569 18.7624L8.33138 17.5981Z" fill="black"/>
<path d="M9.37825 16.5507C9.21754 16.39 8.95697 16.39 8.79631 16.5507C8.6356 16.7114 8.6356 16.972 8.79631 17.1326L9.96063 18.297C10.041 18.3773 10.1463 18.4175 10.2516 18.4175C10.3569 18.4175 10.4622 18.3773 10.5426 18.297C10.7033 18.1363 10.7033 17.8757 10.5426 17.715L9.37825 16.5507Z" fill="black"/>
</svg>
