<svg width="30" height="29" viewBox="0 0 30 29" fill="none" xmlns="http://www.w3.org/2000/svg">
<g clip-path="url(#clip0)">
<path d="M25.118 0H3.91188C1.75145 0 0 1.74956 0 3.90781V25.0921C0 27.2503 1.75138 28.9999 3.91188 28.9999H14.3707L14.3885 18.6369H11.6934C11.3431 18.6369 11.0589 18.354 11.0575 18.0041L11.0446 14.6637C11.0432 14.3119 11.3284 14.026 11.6805 14.026H14.3707V10.7983C14.3707 7.05257 16.6608 5.013 20.0057 5.013H22.7504C23.1016 5.013 23.3863 5.29741 23.3863 5.64828V8.46494C23.3863 8.81568 23.1018 9.10001 22.7508 9.10022L21.0663 9.101C19.2473 9.101 18.895 9.9645 18.895 11.2317V14.026H22.8921C23.273 14.026 23.5685 14.3583 23.5236 14.7361L23.1273 18.0765C23.0894 18.3962 22.818 18.637 22.4958 18.637H18.9129L18.895 29H25.1182C27.2786 29 29.03 27.2504 29.03 25.0923V3.90781C29.0299 1.74956 27.2785 0 25.118 0Z" fill="#3B5999"/>
</g>
<defs>
<clipPath id="clip0">
<rect width="29.0302" height="29" fill="white"/>
</clipPath>
</defs>
</svg>
