<svg width="30" height="29" viewBox="0 0 30 29" fill="none" xmlns="http://www.w3.org/2000/svg">
<rect x="0.0273438" y="0.000976562" width="29.0302" height="29" rx="3" fill="#4C75A3"/>
<path d="M22.1528 13.8909C24.1209 10.9687 23.6844 10.914 24.1683 10.001H20.3968C20.3968 10.001 20.1288 11.0216 20.0469 11.2043C19.3225 12.82 17.6977 15.2444 16.715 15.4922C15.7474 15.7363 15.8759 13.2286 15.9355 12.1423C15.9917 11.1354 15.9821 10.783 15.9551 10.6091C15.9156 10.3549 15.7212 10.1695 15.4878 10.1372C15.0068 10.0704 14.134 9.97583 13.1565 10.0255L12.2821 10.0573C12.6268 10.9032 12.8597 10.6439 12.9867 11.6225C13.1301 12.7682 13.0736 15.5559 12.0448 15.5559C10.3955 15.5559 8.54416 10.1234 8.48525 10.001H5.14844L5.45375 10.8389C7.91438 17.5945 10.9919 20.7234 15.2025 20.9836L15.7505 21.001L15.7897 20.4174C15.8489 19.5162 16.2611 18.2188 16.9923 18.2188C18.0727 18.2188 18.3848 18.5639 19.0973 19.5294C19.7824 20.4551 20.2544 21.001 21.3599 21.001H24.1683L23.7678 20.1177C23.1424 18.7407 21.8879 17.5601 21.398 16.8753C21.2206 16.6175 21.0459 16.21 21.2267 15.7169C21.3745 15.2876 21.8148 14.3921 22.1528 13.8909Z" fill="white"/>
</svg>
