<svg width="17" height="6" viewBox="0 0 17 6" fill="none" xmlns="http://www.w3.org/2000/svg">
<path d="M16 3.375C16.2071 3.375 16.375 3.20711 16.375 3C16.375 2.79289 16.2071 2.625 16 2.625L16 3.375ZM0.734834 2.73484C0.588387 2.88128 0.588387 3.11872 0.734834 3.26517L3.12132 5.65165C3.26777 5.7981 3.5052 5.7981 3.65165 5.65165C3.7981 5.5052 3.7981 5.26777 3.65165 5.12132L1.53033 3L3.65165 0.878681C3.7981 0.732234 3.7981 0.494797 3.65165 0.348351C3.5052 0.201904 3.26777 0.201904 3.12132 0.348351L0.734834 2.73484ZM16 2.625L0.999999 2.625L0.999999 3.375L16 3.375L16 2.625Z" fill="#9EACBB"/>
</svg>
