<svg width="1920" height="280" viewBox="0 0 1920 280" fill="none" xmlns="http://www.w3.org/2000/svg">
<mask id="mask0" mask-type="alpha" maskUnits="userSpaceOnUse" x="-305" y="0" width="2530" height="281">
<rect x="-305" y="0.000640869" width="2530" height="280" rx="20" fill="#54C1FF"/>
<rect x="-305" y="0.000640869" width="2530" height="280" rx="20" fill="url(#paint0_linear)"/>
</mask>
<g mask="url(#mask0)">
<g clip-path="url(#clip0)">
<path d="M221.149 208.053C216.075 200.798 213.961 192.03 213.286 183.288C212.61 174.546 213.56 165.27 218.439 157.871C229.664 140.853 251.349 140.458 268.663 134.196C278.173 130.779 278.837 120.92 279.659 112.196C280.48 103.472 280.906 94.4486 282.666 85.7265C284.363 77.4119 287.622 67.7957 294.435 62.245C301.398 56.5294 311.15 58.0414 318.764 61.4227C322.441 63.1736 325.979 65.2031 329.347 67.4937C351.959 86.3451 365.94 114.512 368.363 143.823C369.729 160.263 367.369 177.419 360.54 192.503C352.692 209.819 337.333 222.288 319.652 228.683C303.071 234.666 284.853 235.095 267.558 232.427C250.263 229.759 231.561 222.943 221.149 208.053Z" fill="url(#paint1_linear)"/>
<path d="M299.277 153.886C299.724 143.877 304.999 132.872 315.86 125.514C318.37 123.869 321.029 122.464 323.803 121.317C326.623 120.253 329.267 118.769 331.646 116.916C336.567 112.643 335.102 107.273 333.996 102.965C328.562 81.91 310.037 63.7334 315.355 39.7076C317.472 30.1367 324.367 20.042 335.109 13.8734C346.362 7.38702 358.789 8.1498 369.204 11.0372C374.675 12.5321 379.806 14.5146 384.944 16.4643C390.629 18.6409 396.241 20.8113 401.69 23.3043C406.944 25.6281 412.009 28.3569 416.84 31.4659C421.145 34.4028 425.14 37.77 428.764 41.5154C431.648 44.3697 434.973 47.4121 439.79 48.2998C445.745 49.3982 451.331 46.5787 456.963 43.8837C459.734 42.5627 462.669 41.2737 465.688 41.1267C468.021 41.0217 470.34 41.5472 472.4 42.648C476.824 45.0018 479.097 48.923 480.635 53.0581C482.32 57.5995 483.48 62.3406 486.213 66.4169C486.159 66.6148 486.16 66.8235 486.215 67.021C486.271 67.2184 486.378 67.3971 486.527 67.538C494.687 76.0222 501.909 85.36 508.07 95.3902C511.076 100.306 513.81 105.384 516.258 110.6C518.177 114.681 520.286 118.898 520.377 123.599C520.459 128.096 517.922 132.679 512.143 135.047C505.853 137.587 498.97 137.124 493.005 136.446C480.075 134.99 468.127 131.539 455.803 128.891C449.658 127.464 443.425 126.446 437.146 125.843C430.526 125.207 423.873 126.673 418.134 130.032C407.738 136.074 399.407 145.087 392.063 153.365C384.72 161.643 377.883 170.227 369.717 178.096C361.805 185.721 351.708 193.482 340.267 196.739C333.416 198.685 327.607 197.848 322.642 194.972C317.792 192.044 313.487 188.296 309.919 183.896C303.099 175.409 298.797 164.972 299.277 153.886Z" fill="url(#paint2_linear)"/>
<path d="M266.786 145.692C272.264 140.074 272.251 131.179 266.757 125.823C261.264 120.468 252.371 120.681 246.894 126.299C241.417 131.917 241.43 140.812 246.923 146.168C252.416 151.523 261.309 151.31 266.786 145.692Z" fill="url(#paint3_linear)"/>
<path d="M272.75 83.5637C268.325 77.2969 259.542 75.8855 253.132 80.4114C246.723 84.9372 245.115 93.6864 249.54 99.9532C253.965 106.22 262.748 107.631 269.158 103.106C275.567 98.5797 277.175 89.8306 272.75 83.5637Z" fill="url(#paint4_linear)"/>
<path d="M280.444 69.7967C278.726 67.684 275.621 67.364 273.508 69.082C271.395 70.8 271.076 73.9054 272.794 76.0181C274.512 78.1309 277.617 78.4508 279.73 76.7328C281.842 75.0148 282.162 71.9094 280.444 69.7967Z" fill="url(#paint5_linear)"/>
</g>
<g clip-path="url(#clip1)">
<path d="M560.926 41.3415C569.635 42.9293 577.305 47.6741 583.935 53.4125C590.565 59.1509 596.415 66.4121 598.151 75.1032C602.144 95.0947 587.008 110.629 579.107 127.259C574.752 136.378 581.214 143.852 586.767 150.631C592.32 157.409 598.364 164.122 603.249 171.56C607.891 178.663 612.339 187.791 611.401 196.528C610.473 205.489 602.478 211.274 594.687 214.226C590.842 215.569 586.9 216.615 582.895 217.356C553.562 219.863 523.812 209.677 501.471 190.549C488.936 179.824 478.546 165.97 472.789 150.445C466.187 132.617 468.332 112.951 476.401 95.9675C483.978 80.0523 496.624 66.932 510.794 56.6624C524.963 46.3927 543.051 38.0823 560.926 41.3415Z" fill="url(#paint6_linear)"/>
<path opacity="0.57" d="M501.08 158.013C495.453 152.98 491.99 146.118 489.715 139.024C487.44 131.93 486.428 124.019 489.037 116.934C495.036 100.629 512.919 96.0512 526.086 87.4993C533.31 82.8566 531.945 74.4998 530.924 67.0714C529.902 59.6431 528.5 52.1034 528.259 44.5265C528.027 37.2931 528.872 28.6856 533.44 22.7522C538.083 16.6703 546.486 16.011 553.496 17.3481C556.894 18.0668 560.231 19.0447 563.478 20.273C585.912 31.5083 603.006 52.1405 610.732 75.9854C615.04 89.3657 616.405 104.074 613.703 117.909C610.574 133.806 600.258 147.149 586.84 155.905C574.231 164.122 559.226 168.069 544.332 169.192C529.438 170.316 512.622 168.347 501.08 158.013Z" fill="url(#paint7_linear)"/>
<path d="M555.28 138.138C562.003 145.566 565.995 157.099 563.451 169.968C562.824 172.903 561.923 175.773 560.758 178.539C559.502 181.279 558.666 184.194 558.279 187.184C557.787 193.683 562.606 196.469 566.423 198.753C585.096 209.896 611.048 209.784 624.169 230.602C629.396 238.894 631.597 250.919 628.301 262.86C624.865 275.386 615.496 283.585 606.062 288.859C601.122 291.644 596.08 293.845 591.057 296.073C585.486 298.525 579.97 300.93 574.343 302.991C568.974 305.035 563.454 306.659 557.834 307.847C552.708 308.788 547.5 309.205 542.29 309.092C538.232 309.092 533.729 309.268 529.68 312.026C524.675 315.433 522.688 321.367 520.581 327.245C519.541 330.132 518.361 333.113 516.319 335.341C514.734 337.057 512.716 338.315 510.478 338.981C505.677 340.421 501.304 339.232 497.302 337.375C492.91 335.332 488.75 332.779 483.94 331.804C483.84 331.625 483.692 331.477 483.514 331.376C483.336 331.274 483.133 331.223 482.928 331.228C471.161 330.937 459.459 329.381 448.024 326.585C442.43 325.206 436.915 323.52 431.506 321.534C427.272 319.983 422.805 318.47 419.435 315.192C416.213 312.054 414.792 307.012 417.234 301.264C419.917 295.033 425.136 290.521 429.853 286.807C440.067 278.747 450.986 272.795 461.609 266.007C466.98 262.699 472.126 259.039 477.013 255.051C482.166 250.846 485.864 245.124 487.58 238.699C490.719 227.092 490.301 214.826 489.697 203.777C489.094 192.727 487.915 181.817 488.184 170.479C488.444 159.494 490.162 146.876 496.002 136.513C499.503 130.31 504.22 126.819 509.772 125.371C515.279 124.04 520.975 123.675 526.607 124.293C537.424 125.528 547.824 129.92 555.28 138.138Z" fill="url(#paint8_linear)"/>
<path d="M606.107 115.416C606.166 123.262 612.432 129.576 620.104 129.518C627.775 129.461 633.947 123.054 633.888 115.208C633.829 107.362 627.562 101.048 619.891 101.106C612.219 101.163 606.048 107.57 606.107 115.416Z" fill="url(#paint9_linear)"/>
<path d="M380.107 110.416C380.166 118.262 386.432 124.576 394.104 124.518C401.775 124.461 407.947 118.054 407.888 110.208C407.829 102.362 401.562 96.0481 393.891 96.1057C386.219 96.1633 380.048 102.57 380.107 110.416Z" fill="url(#paint10_linear)"/>
<path d="M597.678 181.406C605.231 182.747 612.467 177.572 613.839 169.847C615.211 162.122 610.199 154.772 602.646 153.43C595.092 152.089 587.857 157.264 586.485 164.989C585.113 172.714 590.124 180.064 597.678 181.406Z" fill="url(#paint11_linear)"/>
<path d="M492.678 72.4059C500.231 73.7473 507.467 68.5722 508.839 60.8469C510.211 53.1217 505.199 45.7717 497.646 44.4303C490.092 43.0889 482.857 48.264 481.485 55.9892C480.113 63.7145 485.124 71.0645 492.678 72.4059Z" fill="url(#paint12_linear)"/>
<path d="M633.903 189.336C636.61 189.629 639.042 187.672 639.336 184.965C639.629 182.258 637.672 179.825 634.964 179.532C632.257 179.239 629.825 181.196 629.532 183.903C629.239 186.611 631.196 189.043 633.903 189.336Z" fill="url(#paint13_linear)"/>
</g>
<path opacity="0.57" d="M379.388 204.667C379.847 212.159 377.482 219.43 374.109 226.035C370.735 232.639 365.89 238.937 359.052 242.119C343.319 249.447 327.388 240.174 312.014 237.009C303.613 235.237 298.705 242.098 294.206 248.062C289.706 254.025 285.399 260.334 280.241 265.857C275.318 271.131 268.662 276.623 261.242 277.621C253.664 278.672 247.227 273.261 243.185 267.413C241.276 264.529 239.592 261.504 238.147 258.365C230.106 234.736 232.469 208.2 243.751 185.946C250.101 173.477 259.476 162.129 271.129 154.242C284.535 145.196 301.254 142.982 316.95 146.178C331.692 149.19 345.134 156.895 356.51 166.518C367.886 176.14 378.454 189.292 379.388 204.667Z" fill="url(#paint14_linear)"/>
<path opacity="0.57" d="M333.502 184.727C331.494 191.962 326.887 198.079 321.542 203.239C316.198 208.4 309.561 212.797 302.055 213.603C284.783 215.465 272.734 201.559 259.222 193.611C251.852 189.228 244.973 194.136 238.772 198.328C232.572 202.519 226.44 207.1 219.76 210.662C213.383 214.065 205.297 217.116 197.951 215.668C190.44 214.221 186.115 207.027 184.197 200.192C183.331 196.849 182.724 193.445 182.382 190.01C182.477 165.065 193.363 140.723 211.291 123.306C221.363 113.557 233.932 105.843 247.527 102.136C263.158 97.8996 279.696 101.192 293.502 109.274C306.468 116.874 316.671 128.495 324.296 141.264C331.922 154.033 337.631 169.88 333.502 184.727Z" fill="url(#paint15_linear)"/>
</g>
<defs>
<linearGradient id="paint0_linear" x1="3223.82" y1="-3306.3" x2="-2390.38" y2="-2499.95" gradientUnits="userSpaceOnUse">
<stop stop-color="#9F3EFF"/>
<stop offset="1" stop-color="#933EFF" stop-opacity="0"/>
</linearGradient>
<linearGradient id="paint1_linear" x1="355.727" y1="87.0268" x2="248.644" y2="231.36" gradientUnits="userSpaceOnUse">
<stop stop-color="#7FDFFD"/>
<stop offset="0.39" stop-color="#72C4FC"/>
<stop offset="0.74" stop-color="#6AB3FB"/>
<stop offset="1" stop-color="#67ADFB"/>
</linearGradient>
<linearGradient id="paint2_linear" x1="189028" y1="48107.7" x2="141178" y2="67018.4" gradientUnits="userSpaceOnUse">
<stop stop-color="#7FDFFD"/>
<stop offset="0.39" stop-color="#72C4FC"/>
<stop offset="0.74" stop-color="#6AB3FB"/>
<stop offset="1" stop-color="#67ADFB"/>
</linearGradient>
<linearGradient id="paint3_linear" x1="4720.03" y1="-11902.2" x2="4111.32" y2="-12495.6" gradientUnits="userSpaceOnUse">
<stop stop-color="#7FDFFD"/>
<stop offset="0.39" stop-color="#72C4FC"/>
<stop offset="0.74" stop-color="#6AB3FB"/>
<stop offset="1" stop-color="#67ADFB"/>
</linearGradient>
<linearGradient id="paint4_linear" x1="-11720.5" y1="-2447.48" x2="-11241" y2="-1768.47" gradientUnits="userSpaceOnUse">
<stop stop-color="#7FDFFD"/>
<stop offset="0.39" stop-color="#72C4FC"/>
<stop offset="0.74" stop-color="#6AB3FB"/>
<stop offset="1" stop-color="#67ADFB"/>
</linearGradient>
<linearGradient id="paint5_linear" x1="4504.13" y1="1524.41" x2="4438.06" y2="1443.16" gradientUnits="userSpaceOnUse">
<stop stop-color="#7FDFFD"/>
<stop offset="0.39" stop-color="#72C4FC"/>
<stop offset="0.74" stop-color="#6AB3FB"/>
<stop offset="1" stop-color="#67ADFB"/>
</linearGradient>
<linearGradient id="paint6_linear" x1="550.404" y1="222.029" x2="524.989" y2="44.1162" gradientUnits="userSpaceOnUse">
<stop stop-color="#7FDFFD"/>
<stop offset="0.39" stop-color="#72C4FC"/>
<stop offset="0.74" stop-color="#6AB3FB"/>
<stop offset="1" stop-color="#67ADFB"/>
</linearGradient>
<linearGradient id="paint7_linear" x1="-37297.3" y1="-33136.8" x2="-47281.3" y2="-10009.9" gradientUnits="userSpaceOnUse">
<stop stop-color="#7FDFFD"/>
<stop offset="0.39" stop-color="#72C4FC"/>
<stop offset="0.74" stop-color="#6AB3FB"/>
<stop offset="1" stop-color="#67ADFB"/>
</linearGradient>
<linearGradient id="paint8_linear" x1="-167319" y1="98810.9" x2="-146611" y2="51710.8" gradientUnits="userSpaceOnUse">
<stop offset="0.038674" stop-color="#7FDFFD"/>
<stop offset="0.430939" stop-color="#72C4FC"/>
<stop offset="0.839779" stop-color="#61FFFF"/>
<stop offset="1" stop-color="#AEE9FC"/>
</linearGradient>
<linearGradient id="paint9_linear" x1="5915.68" y1="11811.2" x2="6765.78" y2="11804.8" gradientUnits="userSpaceOnUse">
<stop stop-color="#7FDFFD"/>
<stop offset="0.39" stop-color="#72C4FC"/>
<stop offset="0.74" stop-color="#6AB3FB"/>
<stop offset="1" stop-color="#67ADFB"/>
</linearGradient>
<linearGradient id="paint10_linear" x1="5689.68" y1="11806.2" x2="6539.78" y2="11799.8" gradientUnits="userSpaceOnUse">
<stop stop-color="#7FDFFD"/>
<stop offset="0.39" stop-color="#72C4FC"/>
<stop offset="0.74" stop-color="#6AB3FB"/>
<stop offset="1" stop-color="#67ADFB"/>
</linearGradient>
<linearGradient id="paint11_linear" x1="10902.5" y1="-6455.99" x2="10084.1" y2="-6601.33" gradientUnits="userSpaceOnUse">
<stop stop-color="#7FDFFD"/>
<stop offset="0.39" stop-color="#72C4FC"/>
<stop offset="0.74" stop-color="#6AB3FB"/>
<stop offset="1" stop-color="#67ADFB"/>
</linearGradient>
<linearGradient id="paint12_linear" x1="10797.5" y1="-6564.99" x2="9979.08" y2="-6710.33" gradientUnits="userSpaceOnUse">
<stop stop-color="#7FDFFD"/>
<stop offset="0.39" stop-color="#72C4FC"/>
<stop offset="0.74" stop-color="#6AB3FB"/>
<stop offset="1" stop-color="#67ADFB"/>
</linearGradient>
<linearGradient id="paint13_linear" x1="-3391.38" y1="2126.49" x2="-3287.26" y2="2137.77" gradientUnits="userSpaceOnUse">
<stop stop-color="#7FDFFD"/>
<stop offset="0.39" stop-color="#72C4FC"/>
<stop offset="0.74" stop-color="#6AB3FB"/>
<stop offset="1" stop-color="#67ADFB"/>
</linearGradient>
<linearGradient id="paint14_linear" x1="3824.81" y1="50168.8" x2="27151.4" y2="40714.7" gradientUnits="userSpaceOnUse">
<stop stop-color="#7FDFFD"/>
<stop offset="0.39" stop-color="#72C4FC"/>
<stop offset="0.74" stop-color="#6AB3FB"/>
<stop offset="1" stop-color="#67ADFB"/>
</linearGradient>
<linearGradient id="paint15_linear" x1="-12695.3" y1="48561.7" x2="12458.5" y2="47220.3" gradientUnits="userSpaceOnUse">
<stop stop-color="#7FDFFD"/>
<stop offset="0.39" stop-color="#72C4FC"/>
<stop offset="0.74" stop-color="#6AB3FB"/>
<stop offset="1" stop-color="#67ADFB"/>
</linearGradient>
<clipPath id="clip0">
<rect width="357.692" height="315.713" fill="white" transform="translate(104 134.803) rotate(-45.2974)"/>
</clipPath>
<clipPath id="clip1">
<rect width="357.692" height="315.713" fill="white" transform="translate(695.715 11.0005) rotate(90)"/>
</clipPath>
</defs>
</svg>
