<svg width="391" height="408" viewBox="0 0 391 408" fill="none" xmlns="http://www.w3.org/2000/svg">
<g opacity="0.8">
<path d="M152.953 499.173C145.107 487.782 141.838 474.016 140.793 460.29C139.747 446.564 141.216 432 148.763 420.383C166.122 393.664 199.659 393.044 226.437 383.212C241.143 377.846 242.171 362.367 243.441 348.67C244.712 334.973 245.37 320.805 248.093 307.11C250.717 294.056 255.758 278.957 266.294 270.242C277.063 261.268 292.144 263.642 303.92 268.951C309.607 271.7 315.078 274.887 320.287 278.483C355.258 308.082 376.879 352.307 380.628 398.327C382.74 424.14 379.09 451.076 368.529 474.76C356.391 501.947 332.638 521.525 305.293 531.566C279.65 540.958 251.475 541.632 224.727 537.444C197.98 533.255 169.056 522.552 152.953 499.173Z" fill="url(#paint0_linear)"/>
<path opacity="0.57" d="M345.656 435.066C346.367 446.897 342.709 458.38 337.492 468.809C332.275 479.238 324.781 489.185 314.206 494.209C289.874 505.781 265.236 491.138 241.459 486.139C228.467 483.342 220.876 494.176 213.918 503.593C206.96 513.011 200.298 522.974 192.321 531.696C184.707 540.025 174.414 548.697 162.938 550.273C151.218 551.933 141.263 543.388 135.012 534.153C132.06 529.599 129.455 524.822 127.221 519.864C114.784 482.549 118.439 440.645 135.887 405.502C145.707 385.812 160.208 367.89 178.229 355.435C198.962 341.151 224.818 337.654 249.093 342.701C271.893 347.457 292.681 359.625 310.275 374.821C327.869 390.016 344.212 410.785 345.656 435.066Z" fill="url(#paint1_linear)"/>
<path d="M273.779 414.125C274.47 398.41 282.627 381.131 299.425 369.578C303.307 366.996 307.419 364.789 311.708 362.988C316.071 361.317 320.16 358.988 323.838 356.079C331.45 349.369 329.183 340.938 327.473 334.174C319.069 301.116 290.419 272.577 298.644 234.854C301.919 219.827 312.581 203.977 329.195 194.292C346.598 184.108 365.817 185.306 381.924 189.839C390.385 192.186 398.321 195.299 406.267 198.36C415.058 201.778 423.737 205.185 432.165 209.1C440.291 212.748 448.125 217.033 455.596 221.914C462.254 226.525 468.432 231.812 474.036 237.693C478.497 242.174 483.639 246.951 491.089 248.345C500.298 250.069 508.937 245.642 517.648 241.411C521.933 239.337 526.472 237.313 531.141 237.082C534.75 236.917 538.336 237.742 541.521 239.471C548.364 243.167 551.879 249.323 554.257 255.816C556.863 262.946 558.658 270.39 562.884 276.79C562.801 277.101 562.802 277.429 562.888 277.739C562.973 278.049 563.14 278.329 563.37 278.551C575.99 291.871 587.16 306.533 596.687 322.281C601.337 329.999 605.564 337.972 609.35 346.162C612.318 352.569 615.581 359.191 615.72 366.571C615.847 373.632 611.924 380.828 602.987 384.545C593.259 388.534 582.613 387.807 573.388 386.742C553.392 384.456 534.914 379.038 515.853 374.881C506.35 372.64 496.711 371.042 487 370.095C476.761 369.096 466.473 371.397 457.596 376.672C441.519 386.159 428.635 400.309 417.277 413.307C405.92 426.304 395.347 439.782 382.717 452.137C370.481 464.109 354.865 476.294 337.172 481.407C326.576 484.463 317.593 483.15 309.913 478.634C302.412 474.037 295.755 468.152 290.237 461.243C279.689 447.917 273.035 431.53 273.779 414.125Z" fill="url(#paint2_linear)"/>
<path style="mix-blend-mode:color-dodge" d="M330.075 651.844C295.508 655.613 276.366 637.57 259.242 611.094C244.596 588.44 233.829 560.044 211.478 545.894C189.127 531.744 164.58 529.111 150.431 506.423C131.408 475.947 145.601 445.657 169.273 430.223C202.115 408.824 236.923 424.351 253.967 453.188C268.051 476.959 281.636 502.402 316.618 514.393C342.557 523.307 374.5 510.768 393.161 536.081C414.297 564.804 393.992 644.868 330.075 651.844Z" fill="url(#paint3_linear)"/>
<path style="mix-blend-mode:color-dodge" d="M205.184 466.835C199.928 431.957 216.823 411.724 242.114 393.179C263.753 377.302 291.22 365.127 304.129 341.833C317.038 318.538 318.575 293.521 340.318 278.097C369.457 257.449 399.906 270.484 416.14 293.811C438.666 326.165 424.918 362.113 397.322 380.722C374.492 396.12 350.116 410.97 339.852 447.033C332.241 473.743 346 505.577 321.874 525.58C294.604 548.372 214.906 531.37 205.184 466.835Z" fill="url(#paint4_linear)"/>
<path style="mix-blend-mode:color-dodge" d="M248.072 385.324C260.966 331.226 297.398 314.849 345.033 307.186C385.78 300.621 432.852 303.775 465.316 279.986C497.78 256.197 514.702 221.366 555.33 215.565C609.799 207.772 646.335 249.424 656.205 295.175C669.893 358.627 628.766 400.008 577.75 405.998C535.543 410.973 491.397 413.999 455.26 458.117C428.538 490.751 429.749 546.919 382.992 557.639C329.957 569.805 224.224 485.395 248.072 385.324Z" fill="url(#paint5_linear)"/>
<path d="M223.534 401.262C232.005 392.441 231.985 378.474 223.489 370.065C214.994 361.657 201.24 361.991 192.769 370.812C184.299 379.633 184.319 393.6 192.814 402.008C201.31 410.417 215.063 410.083 223.534 401.262Z" fill="url(#paint6_linear)"/>
<path d="M232.759 303.715C225.915 293.875 212.332 291.659 202.42 298.765C192.507 305.871 190.02 319.608 196.864 329.448C203.708 339.287 217.291 341.503 227.204 334.397C237.116 327.291 239.603 313.554 232.759 303.715Z" fill="url(#paint7_linear)"/>
<path d="M244.654 282.097C241.997 278.78 237.195 278.278 233.927 280.975C230.66 283.673 230.165 288.548 232.822 291.866C235.479 295.183 240.282 295.685 243.549 292.988C246.816 290.29 247.311 285.414 244.654 282.097Z" fill="url(#paint8_linear)"/>
</g>
<defs>
<linearGradient id="paint0_linear" x1="361.086" y1="309.152" x2="192.234" y2="533.326" gradientUnits="userSpaceOnUse">
<stop stop-color="#7FDFFD"/>
<stop offset="0.39" stop-color="#72C4FC"/>
<stop offset="0.74" stop-color="#6AB3FB"/>
<stop offset="1" stop-color="#67ADFB"/>
</linearGradient>
<linearGradient id="paint1_linear" x1="5674.17" y1="79337.4" x2="41959.2" y2="64935.2" gradientUnits="userSpaceOnUse">
<stop stop-color="#7FDFFD"/>
<stop offset="0.39" stop-color="#72C4FC"/>
<stop offset="0.74" stop-color="#6AB3FB"/>
<stop offset="1" stop-color="#67ADFB"/>
</linearGradient>
<linearGradient id="paint2_linear" x1="292152" y1="75705.9" x2="217851" y2="104630" gradientUnits="userSpaceOnUse">
<stop stop-color="#7FDFFD"/>
<stop offset="0.39" stop-color="#72C4FC"/>
<stop offset="0.74" stop-color="#6AB3FB"/>
<stop offset="1" stop-color="#67ADFB"/>
</linearGradient>
<linearGradient id="paint3_linear" x1="240.881" y1="596.564" x2="310.174" y2="441.068" gradientUnits="userSpaceOnUse">
<stop/>
<stop offset="0.23" stop-color="#050505"/>
<stop offset="0.48" stop-color="#131313"/>
<stop offset="0.76" stop-color="#292929"/>
<stop offset="1" stop-color="#444444"/>
</linearGradient>
<linearGradient id="paint4_linear" x1="218681" y1="-253508" x2="235952" y2="-242269" gradientUnits="userSpaceOnUse">
<stop/>
<stop offset="0.23" stop-color="#050505"/>
<stop offset="0.48" stop-color="#131313"/>
<stop offset="0.76" stop-color="#292929"/>
<stop offset="1" stop-color="#444444"/>
</linearGradient>
<linearGradient id="paint5_linear" x1="439475" y1="-207872" x2="474868" y2="-158264" gradientUnits="userSpaceOnUse">
<stop/>
<stop offset="0.23" stop-color="#050505"/>
<stop offset="0.48" stop-color="#131313"/>
<stop offset="0.76" stop-color="#292929"/>
<stop offset="1" stop-color="#444444"/>
</linearGradient>
<linearGradient id="paint6_linear" x1="7110.7" y1="-18515" x2="6155.44" y2="-19432.3" gradientUnits="userSpaceOnUse">
<stop stop-color="#7FDFFD"/>
<stop offset="0.39" stop-color="#72C4FC"/>
<stop offset="0.74" stop-color="#6AB3FB"/>
<stop offset="1" stop-color="#67ADFB"/>
</linearGradient>
<linearGradient id="paint7_linear" x1="-18315.4" y1="-3670.28" x2="-17558.8" y2="-2614.94" gradientUnits="userSpaceOnUse">
<stop stop-color="#7FDFFD"/>
<stop offset="0.39" stop-color="#72C4FC"/>
<stop offset="0.74" stop-color="#6AB3FB"/>
<stop offset="1" stop-color="#67ADFB"/>
</linearGradient>
<linearGradient id="paint8_linear" x1="6776.78" y1="2566.01" x2="6672.73" y2="2439.98" gradientUnits="userSpaceOnUse">
<stop stop-color="#7FDFFD"/>
<stop offset="0.39" stop-color="#72C4FC"/>
<stop offset="0.74" stop-color="#6AB3FB"/>
<stop offset="1" stop-color="#67ADFB"/>
</linearGradient>
</defs>
</svg>
