<svg width="102" height="60" viewBox="0 0 102 60" fill="none" xmlns="http://www.w3.org/2000/svg">
<path d="M11.7477 34.5549L41.7705 15.5312L30.864 4.75232C22.778 17.108 16.3814 30.4666 11.8407 44.4804C9.01112 53.1586 21.7775 58.0032 26.4536 50.5459C35.2611 36.3273 44.4407 21.8987 60.2093 14.4415L49.3028 3.71514L27.1842 46.8699C23.2919 54.4846 33.2818 63.3466 39.6981 56.4146C53.747 41.2339 68.7198 26.9143 84.5331 13.5356L72.0191 3.93833C63.3577 19.3648 50.246 32.1392 46.42 49.8895C44.8658 57.1104 54.0453 63.7274 59.7045 57.5568C71.7402 44.6379 84.3338 32.2968 98.588 21.833C106.731 15.8462 98.7872 2.13967 90.5376 8.23148C75.3006 19.6162 61.2113 32.4282 48.4659 46.4891L61.7503 54.1564C65.2706 37.9422 77.851 26.0605 85.7818 11.9338C90.3383 3.84643 80.0163 -3.33509 73.2546 2.38912C57.4455 15.7725 42.4771 30.0965 28.4329 45.2813L40.9469 54.826L63.0654 11.6713C66.7851 4.39784 59.3856 -2.50797 52.1589 0.892422C34.0124 9.41308 22.8402 26.2575 12.6511 42.603L27.2639 48.6685C31.4169 35.9757 37.2554 23.8835 44.6267 12.7084C48.9441 6.14398 40.3624 -2.27164 33.7201 1.92961L3.69736 21.0059C-4.91095 26.4675 3.07299 40.1085 11.7477 34.6075V34.5549Z" fill="#FFE602"/>
</svg>
