<svg width="55" height="55" viewBox="0 0 55 55" fill="none" xmlns="http://www.w3.org/2000/svg">
<g clip-path="url(#clip0)">
<path d="M52.8229 12.1356L27.8508 0.080083C27.6294 -0.0266943 27.3716 -0.0266943 27.1503 0.080083L2.17802 12.1356C1.89958 12.27 1.72266 12.552 1.72266 12.8611V42.1389C1.72266 42.448 1.89958 42.73 2.17802 42.8644L27.1502 54.9199C27.2608 54.9733 27.3807 55 27.5005 55C27.6202 55 27.74 54.9733 27.8508 54.9199L52.8229 42.8644C53.1014 42.73 53.2783 42.448 53.2783 42.1389V12.8612C53.2783 12.5519 53.1012 12.2701 52.8229 12.1356ZM27.5005 1.70033L50.6195 12.8611L43.9178 16.0965C43.8753 16.0641 43.8305 16.0343 43.7813 16.0105L20.8194 4.92567L27.5005 1.70033ZM18.9999 5.83661L42.0852 16.9812L37.3571 19.2638L14.2812 8.12372L18.9999 5.83661ZM42.6254 18.5096V26.9471L38.2089 29.0793V20.6417L42.6254 18.5096ZM51.667 41.6333L28.3061 52.9107V25.4223L33.8784 22.7322C34.2791 22.5388 34.4471 22.0572 34.2537 21.6564C34.0602 21.2558 33.5786 21.0876 33.1778 21.2812L27.5005 24.0221L25.2665 22.9435C24.8657 22.7499 24.3842 22.9181 24.1907 23.3188C23.9972 23.7194 24.1652 24.2011 24.5659 24.3946L26.6948 25.4223V52.9107L3.33398 41.6331V14.1447L21.123 22.7326C21.2359 22.7871 21.3553 22.8129 21.4727 22.8129C21.7722 22.8129 22.0599 22.6451 22.1988 22.3573C22.3922 21.9567 22.2242 21.475 21.8235 21.2815L4.38146 12.8611L12.3849 8.99739L36.5864 20.6809C36.59 20.6859 36.5939 20.6903 36.5976 20.6951V30.3629C36.5976 30.6402 36.7401 30.8979 36.975 31.0454C37.1054 31.1273 37.2542 31.1686 37.4034 31.1686C37.5228 31.1686 37.6426 31.1421 37.7536 31.0885L43.7813 28.1785C44.0598 28.0441 44.2367 27.7623 44.2367 27.453V17.7319L51.667 14.1448V41.6333Z" fill="#F9C300"/>
<path d="M9.98101 38.5085L6.31631 36.7394C5.91541 36.5457 5.43395 36.7139 5.24048 37.1146C5.04701 37.5153 5.21502 37.9969 5.6157 38.1904L9.2804 39.9595C9.3933 40.0141 9.51265 40.0399 9.63006 40.0399C9.92955 40.0399 10.2172 39.8721 10.3561 39.5843C10.5497 39.1835 10.3817 38.7021 9.98101 38.5085Z" fill="#F9C300"/>
<path d="M13.3564 36.3132L6.32406 32.9182C5.92326 32.7247 5.44169 32.8928 5.24822 33.2935C5.05487 33.6942 5.22287 34.1759 5.62356 34.3694L12.6559 37.7643C12.7688 37.8188 12.8882 37.8447 13.0056 37.8447C13.3051 37.8447 13.5928 37.6769 13.7317 37.3891C13.9251 36.9882 13.7571 36.5065 13.3564 36.3132Z" fill="#F9C300"/>
</g>
<defs>
<clipPath id="clip0">
<rect width="55" height="55" fill="white"/>
</clipPath>
</defs>
</svg>
