<svg width="16" height="14" viewBox="0 0 16 14" fill="none" xmlns="http://www.w3.org/2000/svg">
<g clip-path="url(#clip0)">
<path d="M7.75196 7.54359C7.76777 7.54359 7.78358 7.54359 7.80254 7.54359C7.80887 7.54359 7.81519 7.54359 7.82151 7.54359C7.831 7.54359 7.84364 7.54359 7.85313 7.54359C8.77941 7.5291 9.52865 7.23048 10.0819 6.65935C11.299 5.40112 11.0967 3.24415 11.0746 3.03831C10.9955 1.49306 10.1989 0.753779 9.5413 0.40878C9.05129 0.150756 8.47908 0.0115966 7.84048 0H7.81835C7.81519 0 7.80887 0 7.8057 0H7.78674C7.43582 0 6.74665 0.0521847 6.08592 0.397184C5.42203 0.742183 4.61272 1.48147 4.53368 3.03831C4.51155 3.24415 4.30923 5.40112 5.52636 6.65935C6.07643 7.23048 6.82568 7.5291 7.75196 7.54359ZM5.37777 3.11079C5.37777 3.10209 5.38093 3.09339 5.38093 3.0876C5.48526 1.0089 7.0944 0.78567 7.78358 0.78567H7.79622C7.80254 0.78567 7.81203 0.78567 7.82151 0.78567C8.67508 0.803065 10.1262 1.12197 10.2242 3.0876C10.2242 3.09629 10.2242 3.10499 10.2273 3.11079C10.2305 3.13108 10.4518 5.10251 9.44646 6.1404C9.04812 6.55208 8.51701 6.75502 7.81835 6.76082C7.81203 6.76082 7.80887 6.76082 7.80254 6.76082C7.79622 6.76082 7.79306 6.76082 7.78674 6.76082C7.09123 6.75502 6.55696 6.55208 6.16179 6.1404C5.15964 5.1083 5.37461 3.12818 5.37777 3.11079Z" fill="#A5A5A5"/>
<path d="M14.301 11.1214C14.301 11.1185 14.301 11.1156 14.301 11.1127C14.301 11.0895 14.2979 11.0663 14.2979 11.0402C14.2789 10.4662 14.2378 9.12386 12.8658 8.69479C12.8563 8.69189 12.8436 8.68899 12.8341 8.68609C11.4084 8.35269 10.2229 7.59891 10.2102 7.59021C10.0174 7.46555 9.75181 7.50904 9.61587 7.68588C9.47993 7.86273 9.52735 8.10626 9.7202 8.23092C9.77394 8.26571 11.0322 9.06878 12.6065 9.43987C13.3431 9.6805 13.4253 10.4024 13.4475 11.0634C13.4475 11.0895 13.4475 11.1127 13.4506 11.1359C13.4538 11.3968 13.4348 11.7998 13.3842 12.0317C12.8721 12.2984 10.8646 13.2204 7.81073 13.2204C4.76949 13.2204 2.74937 12.2955 2.23406 12.0288C2.18348 11.7969 2.16135 11.3939 2.16768 11.133C2.16768 11.1098 2.17084 11.0866 2.17084 11.0605C2.19297 10.3995 2.27516 9.6776 3.01176 9.43697C4.58613 9.06588 5.84435 8.25992 5.8981 8.22802C6.09094 8.10336 6.13836 7.85983 6.00242 7.68298C5.86648 7.50614 5.60093 7.46265 5.40808 7.58731C5.39544 7.59601 4.21625 8.34979 2.78414 8.68319C2.7715 8.68609 2.76201 8.68899 2.75253 8.69189C1.38049 9.12386 1.3394 10.4662 1.32043 11.0373C1.32043 11.0634 1.32043 11.0866 1.31727 11.1098C1.31727 11.1127 1.31727 11.1156 1.31727 11.1185C1.31411 11.2692 1.31094 12.0433 1.4785 12.4318C1.51011 12.5072 1.56702 12.571 1.64289 12.6144C1.73773 12.6724 4.01076 14.0002 7.81389 14.0002C11.617 14.0002 13.89 12.6695 13.9849 12.6144C14.0576 12.571 14.1177 12.5072 14.1493 12.4318C14.3074 12.0462 14.3042 11.2721 14.301 11.1214Z" fill="#A5A5A5"/>
</g>
<defs>
<clipPath id="clip0">
<rect width="15.2663" height="14" fill="white" transform="translate(0.175781)"/>
</clipPath>
</defs>
</svg>
