<svg width="12" height="13" viewBox="0 0 12 13" fill="none" xmlns="http://www.w3.org/2000/svg">
<g clip-path="url(#clip0)">
<path d="M11.9801 4.0606C11.8049 1.97198 10.4403 0.45664 8.73253 0.45664C7.59477 0.45664 6.55302 1.11993 5.96683 2.18299C5.38595 1.10618 4.38689 0.45639 3.26736 0.45639C1.5598 0.45639 0.194957 1.97173 0.0200235 4.06035C0.0061765 4.1526 -0.050596 4.63813 0.122029 5.42993C0.370813 6.57199 0.945462 7.6108 1.78343 8.43335L5.96406 12.5433L10.2165 8.4336C11.0544 7.6108 11.6291 6.57224 11.8779 5.42993C12.0505 4.63838 11.9937 4.15285 11.9801 4.0606ZM11.4285 5.31542C11.2014 6.35848 10.675 7.30879 9.90767 8.06183L5.96683 11.8708L2.0936 8.06283C1.32487 7.30829 0.798684 6.35823 0.571363 5.31517C0.407969 4.56588 0.475127 4.1426 0.475357 4.13985L0.478819 4.1146C0.628828 2.28475 1.80143 0.956419 3.26736 0.956419C4.34904 0.956419 5.30125 1.67646 5.75312 2.83528L5.96567 3.38106L6.17823 2.83528C6.62294 1.69421 7.62546 0.956669 8.73276 0.956669C10.1985 0.956669 11.3713 2.285 11.5243 4.1386C11.5248 4.1426 11.5919 4.56613 11.4285 5.31542Z" fill="#6C6C6C"/>
</g>
<defs>
<clipPath id="clip0">
<rect width="12" height="13" fill="white" transform="translate(0 -0.000244141)"/>
</clipPath>
</defs>
</svg>
