<svg width="22" height="23" viewBox="0 0 22 23" fill="none" xmlns="http://www.w3.org/2000/svg">
<path d="M21.9083 4.02513C21.8167 3.92931 21.725 3.83345 21.5417 3.83345H4.125L3.66665 1.34181C3.66665 1.15013 3.39165 0.958496 3.2083 0.958496H0.458305C0.183348 0.958451 0 1.15013 0 1.43763C0 1.72513 0.183348 1.91681 0.458348 1.91681H2.8417L5.0417 13.6085C5.3167 15.1418 6.6917 16.2918 8.15835 16.2918H18.7C18.975 16.2918 19.1583 16.1001 19.1583 15.8126C19.1583 15.5251 18.975 15.3335 18.7 15.3335H8.25C7.51665 15.3335 6.78335 14.9501 6.41665 14.2793L19.8 12.3626C19.9833 12.3626 20.1667 12.171 20.1667 11.9793L22 4.31263C22 4.31263 22 4.12095 21.9083 4.02513ZM19.3417 11.5001L5.9583 13.321L4.3083 4.69595H20.9L19.3417 11.5001Z" fill="#353535"/>
<path d="M7.79165 17.25C6.50835 17.25 5.5 18.3042 5.5 19.6458C5.5 20.9875 6.50835 22.0416 7.79165 22.0416C9.075 22.0416 10.0833 20.9875 10.0833 19.6458C10.0833 18.3042 9.075 17.25 7.79165 17.25ZM7.79165 21.0833C7.0583 21.0833 6.41665 20.4125 6.41665 19.6458C6.41665 18.8792 7.0583 18.2083 7.79165 18.2083C8.525 18.2083 9.16665 18.8792 9.16665 19.6458C9.16665 20.4125 8.525 21.0833 7.79165 21.0833Z" fill="#353535"/>
<path d="M16.9596 17.25C15.6763 17.25 14.668 18.3042 14.668 19.6458C14.668 20.9875 15.6763 22.0416 16.9596 22.0416C18.243 22.0416 19.2513 20.9875 19.2513 19.6458C19.2513 18.3042 18.2429 17.25 16.9596 17.25ZM16.9596 21.0833C16.2263 21.0833 15.5846 20.4125 15.5846 19.6458C15.5846 18.8792 16.2263 18.2083 16.9596 18.2083C17.693 18.2083 18.3346 18.8792 18.3346 19.6458C18.3346 20.4125 17.6929 21.0833 16.9596 21.0833Z" fill="#353535"/>
</svg>
