<svg width="87" height="15" viewBox="0 0 87 15" fill="none" xmlns="http://www.w3.org/2000/svg">
<path d="M7.5 0L9.36034 4.93946L14.6329 5.18237L10.5101 8.47804L11.9084 13.5676L7.5 10.665L3.09161 13.5676L4.48991 8.47804L0.367076 5.18237L5.63966 4.93946L7.5 0Z" fill="#EB3939"/>
<path d="M25.5 0L27.3603 4.93946L32.6329 5.18237L28.5101 8.47804L29.9084 13.5676L25.5 10.665L21.0916 13.5676L22.4899 8.47804L18.3671 5.18237L23.6397 4.93946L25.5 0Z" fill="#EB3939"/>
<path d="M43.5 0L45.3603 4.93946L50.6329 5.18237L46.5101 8.47804L47.9084 13.5676L43.5 10.665L39.0916 13.5676L40.4899 8.47804L36.3671 5.18237L41.6397 4.93946L43.5 0Z" fill="#EB3939"/>
<path d="M61.5 1.06395L63.0094 5.07163L63.0964 5.3027L63.3431 5.31406L67.621 5.51115L64.2759 8.18512L64.0831 8.33929L64.1485 8.57738L65.283 12.7069L61.7062 10.3518L61.5 10.216L61.2938 10.3518L57.717 12.7069L58.8515 8.57738L58.9169 8.33929L58.7241 8.18512L55.379 5.51115L59.6569 5.31406L59.9036 5.3027L59.9906 5.07163L61.5 1.06395Z" stroke="black" stroke-opacity="0.24" stroke-width="0.75"/>
<path d="M79.5 1.06395L81.0094 5.07163L81.0964 5.3027L81.3431 5.31406L85.621 5.51115L82.2759 8.18512L82.0831 8.33929L82.1485 8.57738L83.283 12.7069L79.7062 10.3518L79.5 10.216L79.2938 10.3518L75.717 12.7069L76.8515 8.57738L76.9169 8.33929L76.7241 8.18512L73.379 5.51115L77.6569 5.31406L77.9036 5.3027L77.9906 5.07163L79.5 1.06395Z" stroke="black" stroke-opacity="0.24" stroke-width="0.75"/>
</svg>
