<svg width="43" height="43" viewBox="0 0 43 43" fill="none" xmlns="http://www.w3.org/2000/svg">
<path d="M43 21.5003C43 9.62521 33.374 0 21.5003 0C9.62599 0 0 9.62512 0 21.5003C0 33.3737 9.62599 42.9995 21.5003 42.9995C33.374 42.9995 43 33.3737 43 21.5003Z" fill="#FFF73F"/>
<path d="M33.8315 14.2992C33.3254 12.9941 32.294 13.2001 31.1765 13.4215C30.5091 13.5606 27.5406 14.4296 22.8437 19.3822C20.8946 21.4376 19.6088 23.0763 18.7623 24.326C18.2451 23.6911 17.6527 23.0118 17.0305 22.3894C15.1171 20.4765 12.9833 19.1628 12.8936 19.1076C11.9982 18.5602 10.8292 18.8419 10.2803 19.7366C9.73202 20.6314 10.0128 21.8022 10.9069 22.3517C10.9252 22.3632 12.7575 23.4961 14.3405 25.0795C15.9548 26.694 17.4175 28.8774 17.4319 28.8985C17.788 29.4339 18.3859 29.7464 19.0149 29.7464C19.1229 29.7464 19.2319 29.7373 19.3404 29.7185C20.0828 29.5895 20.6791 29.0344 20.861 28.303C20.8656 28.2854 21.6198 26.2009 25.6042 22.0001C28.8134 18.6155 30.9535 17.5398 31.695 17.2414C31.7021 17.2402 31.7072 17.2397 31.7168 17.2377C31.7133 17.2386 31.7408 17.2258 31.7856 17.2057C31.9129 17.158 31.9811 17.1397 31.985 17.1387C31.9484 17.1478 31.9294 17.1501 31.9294 17.1501L31.9282 17.1435C32.2713 16.9938 32.9137 16.7174 32.9277 16.7116C33.8949 16.3142 34.2094 15.2739 33.8315 14.2992Z" fill="#797AFF"/>
</svg>
