<svg width="26.999999999999996" height="26" xmlns="http://www.w3.org/2000/svg">
 <defs>
  <clipPath id="clip0">
   <rect id="svg_1" fill="white" height="26" width="27"/>
  </clipPath>
 </defs>
 <g>
  <title>background</title>
  <rect fill="none" id="canvas_background" height="402" width="582" y="-1" x="-1"/>
 </g>
 <g>
  <title>Layer 1</title>
  <g id="svg_2" clip-path="url(#clip0)">
   <path id="svg_3" fill="#353535" d="m16.0105,6.06151c-0.1964,0 -0.3699,-0.1363 -0.4034,-0.32933c-0.0368,-0.2151 0.1137,-0.41679 0.3363,-0.45303l8.8486,-1.42213c0.2234,-0.03387 0.4336,0.10873 0.4713,0.32382c0.0368,0.21431 -0.1137,0.41679 -0.3363,0.45303l-8.8486,1.42212c-0.0221,0.00394 -0.045,0.00552 -0.0679,0.00552z"/>
   <path id="svg_4" fill="#353535" d="m2.13937,8.29049c-0.19636,0 -0.36981,-0.1363 -0.40336,-0.32933c-0.03682,-0.21431 0.11373,-0.41679 0.33627,-0.45303l8.91732,-1.43316c0.2259,-0.0386 0.4337,0.10952 0.4713,0.32382c0.0368,0.21431 -0.1137,0.41679 -0.3363,0.45303l-8.91732,1.43315c-0.02291,0.00394 -0.045,0.00552 -0.06791,0.00552z"/>
   <path id="svg_5" fill="#353535" d="m21.9565,18.3618c-2.7802,0 -5.0424,-2.1793 -5.0424,-4.8565c0,-0.2175 0.1832,-0.394 0.4091,-0.394l9.2675,0c0.2258,0 0.4091,0.1765 0.4091,0.394c0,2.678 -2.2623,4.8565 -5.0433,4.8565zm-4.2046,-4.4626c0.2062,2.0595 2.0135,3.6747 4.2046,3.6747c2.1919,0 3.9985,-1.6152 4.2055,-3.6747l-8.4101,0z"/>
   <path id="svg_6" fill="#353535" d="m17.3228,13.8991c-0.0639,0 -0.1285,-0.0149 -0.189,-0.0449c-0.2005,-0.1008 -0.2774,-0.3388 -0.1735,-0.5318l4.6334,-8.54927c0.1415,-0.26001 0.5842,-0.26001 0.7257,0l4.6342,8.54927c0.1039,0.193 0.027,0.431 -0.1735,0.5318c-0.1996,0.1001 -0.4475,0.0252 -0.5522,-0.167l-4.271,-7.87959l-4.2709,7.87959c-0.0736,0.1347 -0.216,0.2119 -0.3632,0.2119z"/>
   <path id="svg_7" fill="#353535" d="m5.04327,20.9106c-2.781,0 -5.04327,-2.1793 -5.04327,-4.8565c0,-0.2175 0.18327,-0.3939 0.40909,-0.3939l9.26755,0c0.22581,0 0.40906,0.1764 0.40906,0.3939c0,2.6772 -2.26225,4.8565 -5.04243,4.8565zm-4.20545,-4.4626c0.20618,2.0596 2.01354,3.6747 4.20545,3.6747c2.19109,0 3.99846,-1.6151 4.20464,-3.6747l-8.41009,0z"/>
   <path id="svg_8" fill="#353535" d="m9.67706,16.448c-0.14727,0 -0.28963,-0.0773 -0.36327,-0.212l-4.27091,-7.87956l-4.27091,7.87956c-0.10472,0.193 -0.35182,0.2663 -0.55227,0.167c-0.20045,-0.1008 -0.27736,-0.3387 -0.17345,-0.5318l4.63418,-8.54925c0.14154,-0.26 0.58418,-0.26 0.72572,0l4.63335,8.54925c0.1039,0.1931 0.027,0.431 -0.17344,0.5318c-0.06054,0.03 -0.12518,0.045 -0.189,0.045z"/>
   <path id="svg_9" fill="#353535" d="m13.4991,8.86768c-1.602,0 -2.9053,-1.25509 -2.9053,-2.79776c0,-1.54188 1.3033,-2.79697 2.9053,-2.79697c1.602,0 2.9054,1.25509 2.9054,2.79697c0,1.54345 -1.3034,2.79776 -2.9054,2.79776zm0,-4.80606c-1.1512,0 -2.0872,0.90133 -2.0872,2.00909c0,1.10775 0.936,2.00987 2.0872,2.00987c1.1512,0 2.0872,-0.90212 2.0872,-2.00987c0,-1.10776 -0.936,-2.00909 -2.0872,-2.00909z"/>
   <path id="svg_10" fill="#353535" d="m13.4989,23.6832c-0.2258,0 -0.4091,-0.1765 -0.4091,-0.3939l0,-14.81528c0,-0.21746 0.1833,-0.39394 0.4091,-0.39394c0.2259,0 0.4091,0.17648 0.4091,0.39394l0,14.81528c0,0.2174 -0.1832,0.3939 -0.4091,0.3939z"/>
   <path id="svg_11" fill="#353535" d="m13.4989,4.06175c-0.2258,0 -0.4091,-0.17649 -0.4091,-0.39394l0,-0.95649c0,-0.21745 0.1833,-0.39394 0.4091,-0.39394c0.2259,0 0.4091,0.17649 0.4091,0.39394l0,0.95649c0,0.21745 -0.1832,0.39394 -0.4091,0.39394z"/>
   <path id="svg_12" fill="#353535" d="m18.8979,23.6829l-10.7935,0c-0.22581,0 -0.40909,-0.1765 -0.40909,-0.3939c0,-0.2175 0.18328,-0.394 0.40909,-0.394l10.7935,0c0.2258,0 0.409,0.1765 0.409,0.394c0,0.2174 -0.1824,0.3939 -0.409,0.3939z"/>
  </g>
 </g>
</svg>