<svg width="14" height="14" viewBox="0 0 14 14" fill="none" xmlns="http://www.w3.org/2000/svg">
<path d="M11.066 8.67167C10.7793 8.37324 10.4336 8.21368 10.0672 8.21368C9.70379 8.21368 9.35512 8.37028 9.05669 8.66872L8.12297 9.59948C8.04615 9.55811 7.96932 9.5197 7.89545 9.48129C7.78908 9.4281 7.68862 9.37787 7.60293 9.32468C6.72831 8.76918 5.93347 8.04526 5.17113 7.10859C4.80178 6.64173 4.55358 6.24874 4.37334 5.84984C4.61563 5.62823 4.8402 5.39776 5.05885 5.17615C5.14158 5.09341 5.22432 5.00773 5.30705 4.92499C5.92756 4.30448 5.92756 3.50078 5.30705 2.88027L4.50039 2.07361C4.40879 1.98201 4.31424 1.88746 4.2256 1.79291C4.04831 1.60971 3.86216 1.4206 3.6701 1.24332C3.38348 0.959655 3.04072 0.80896 2.68024 0.80896C2.31975 0.80896 1.97109 0.959655 1.67561 1.24332C1.67265 1.24627 1.67265 1.24627 1.6697 1.24922L0.665068 2.26272C0.286854 2.64093 0.071154 3.10188 0.0238773 3.6367C-0.0470378 4.4995 0.207075 5.30321 0.402091 5.82916C0.880768 7.12041 1.59583 8.3171 2.66251 9.59948C3.95671 11.1448 5.51389 12.3652 7.29268 13.225C7.97228 13.5471 8.8794 13.9283 9.8929 13.9933C9.95495 13.9962 10.02 13.9992 10.079 13.9992C10.7616 13.9992 11.3348 13.7539 11.784 13.2664C11.7869 13.2605 11.7928 13.2575 11.7958 13.2516C11.9494 13.0655 12.1267 12.897 12.3129 12.7168C12.4399 12.5956 12.5699 12.4686 12.697 12.3356C12.9895 12.0313 13.1432 11.6767 13.1432 11.3133C13.1432 10.9469 12.9866 10.5952 12.6881 10.2998L11.066 8.67167ZM12.1238 11.7831C12.1208 11.7831 12.1208 11.786 12.1238 11.7831C12.0085 11.9072 11.8903 12.0195 11.7633 12.1436C11.5712 12.3268 11.3762 12.5188 11.193 12.7345C10.8946 13.0536 10.543 13.2043 10.082 13.2043C10.0377 13.2043 9.99041 13.2043 9.94608 13.2014C9.06851 13.1452 8.25299 12.8025 7.64134 12.51C5.96893 11.7003 4.50039 10.5509 3.28006 9.09421C2.27248 7.87979 1.59878 6.75697 1.15261 5.55141C0.877813 4.81566 0.77735 4.24243 0.821672 3.70171C0.85122 3.35599 0.984186 3.06938 1.22943 2.82413L2.23702 1.81655C2.3818 1.68062 2.53545 1.60676 2.68615 1.60676C2.8723 1.60676 3.023 1.71904 3.11755 1.81359C3.1205 1.81655 3.12346 1.8195 3.12641 1.82246C3.30666 1.99088 3.47803 2.16521 3.65828 2.35136C3.74988 2.44592 3.84443 2.54047 3.93898 2.63798L4.74564 3.44464C5.05885 3.75785 5.05885 4.04742 4.74564 4.36063C4.65995 4.44631 4.57722 4.532 4.49153 4.61474C4.24333 4.86885 4.00694 5.10523 3.74988 5.33571C3.74397 5.34162 3.73806 5.34457 3.7351 5.35048C3.48099 5.60459 3.52827 5.8528 3.58145 6.02122C3.58441 6.03009 3.58736 6.03895 3.59032 6.04781C3.80011 6.55604 4.09559 7.03472 4.54472 7.60499L4.54767 7.60795C5.36319 8.61258 6.22304 9.3956 7.17153 9.99542C7.29268 10.0722 7.41678 10.1343 7.53497 10.1934C7.64134 10.2466 7.7418 10.2968 7.82749 10.35C7.83931 10.3559 7.85113 10.3648 7.86295 10.3707C7.96341 10.4209 8.05797 10.4446 8.15548 10.4446C8.40072 10.4446 8.55437 10.2909 8.60461 10.2407L9.61515 9.23013C9.71561 9.12967 9.87517 9.00852 10.0613 9.00852C10.2445 9.00852 10.3952 9.12376 10.4868 9.22422C10.4898 9.22718 10.4898 9.22718 10.4927 9.23013L12.1208 10.8582C12.4252 11.1596 12.4252 11.4699 12.1238 11.7831Z" fill="#6897FF"/>
<path d="M7.56662 3.32952C8.34078 3.45954 9.04402 3.82593 9.60544 4.38734C10.1668 4.94875 10.5303 5.65199 10.6633 6.42615C10.6958 6.62117 10.8642 6.75709 11.0562 6.75709C11.0799 6.75709 11.1006 6.75413 11.1242 6.75118C11.3429 6.71572 11.4876 6.50889 11.4522 6.29023C11.2926 5.35356 10.8494 4.49962 10.1728 3.82298C9.49611 3.14633 8.64217 2.70311 7.7055 2.54355C7.48685 2.50809 7.28296 2.65288 7.24455 2.86858C7.20614 3.08428 7.34797 3.29407 7.56662 3.32952Z" fill="#6897FF"/>
<path d="M13.9845 6.17496C13.7215 4.63256 12.9947 3.22903 11.8777 2.11212C10.7608 0.995206 9.3573 0.268326 7.81489 0.00534899C7.59919 -0.0330634 7.39531 0.114676 7.3569 0.330377C7.32144 0.549032 7.46623 0.752912 7.68488 0.791325C9.06182 1.02475 10.3176 1.67776 11.3163 2.67353C12.315 3.67225 12.9651 4.92804 13.1985 6.30498C13.231 6.49999 13.3995 6.63591 13.5915 6.63591C13.6152 6.63591 13.6358 6.63296 13.6595 6.63C13.8752 6.5975 14.0229 6.39066 13.9845 6.17496Z" fill="#6897FF"/>
</svg>
