<svg width="15" height="14" viewBox="0 0 15 14" fill="none" xmlns="http://www.w3.org/2000/svg">
<g clip-path="url(#clip0)">
<path d="M7.44538 7.54261C7.46091 7.54261 7.47644 7.54261 7.49508 7.54261C7.50129 7.54261 7.5075 7.54261 7.51371 7.54261C7.52303 7.54261 7.53546 7.54261 7.54478 7.54261C8.4549 7.52812 9.19108 7.22951 9.73467 6.65837C10.9306 5.40014 10.7318 3.24317 10.71 3.03733C10.6324 1.49209 9.8496 0.752803 9.20351 0.407804C8.72204 0.149779 8.15981 0.01062 7.53235 -0.000976562H7.51061C7.5075 -0.000976562 7.50129 -0.000976562 7.49818 -0.000976562H7.47955C7.13475 -0.000976562 6.4576 0.0512082 5.80839 0.396207C5.15608 0.741206 4.36089 1.48049 4.28323 3.03733C4.26149 3.24317 4.06269 5.40014 5.25859 6.65837C5.79907 7.22951 6.53525 7.52812 7.44538 7.54261ZM5.1126 3.10981C5.1126 3.10112 5.1157 3.09242 5.1157 3.08662C5.21821 1.00793 6.79928 0.784693 7.47644 0.784693H7.48887C7.49508 0.784693 7.5044 0.784693 7.51371 0.784693C8.3524 0.802088 9.77816 1.12099 9.87445 3.08662C9.87445 3.09532 9.87445 3.10401 9.87756 3.10981C9.88066 3.13011 10.0981 5.10153 9.11032 6.13943C8.71893 6.55111 8.19709 6.75405 7.51061 6.75984C7.5044 6.75984 7.50129 6.75984 7.49508 6.75984C7.48887 6.75984 7.48576 6.75984 7.47955 6.75984C6.79618 6.75405 6.27122 6.55111 5.88294 6.13943C4.89827 5.10733 5.10949 3.12721 5.1126 3.10981Z" fill="#6897FF"/>
<path d="M13.8792 11.1204C13.8792 11.1175 13.8792 11.1146 13.8792 11.1117C13.8792 11.0885 13.8761 11.0653 13.8761 11.0392C13.8575 10.4652 13.8171 9.12289 12.469 8.69381C12.4597 8.69091 12.4473 8.68801 12.4379 8.68511C11.037 8.35171 9.8722 7.59793 9.85977 7.58924C9.67029 7.46457 9.40937 7.50806 9.2758 7.68491C9.14223 7.86176 9.18883 8.10528 9.37831 8.22995C9.43111 8.26474 10.6674 9.0678 12.2143 9.43889C12.938 9.67952 13.0188 10.4014 13.0406 11.0624C13.0406 11.0885 13.0406 11.1117 13.0437 11.1349C13.0468 11.3958 13.0281 11.7988 12.9784 12.0307C12.4752 12.2975 10.5028 13.2194 7.50214 13.2194C4.51395 13.2194 2.52906 12.2946 2.02275 12.0278C1.97305 11.7959 1.9513 11.3929 1.95752 11.132C1.95752 11.1088 1.96062 11.0856 1.96062 11.0595C1.98237 10.3985 2.06313 9.67662 2.78688 9.43599C4.33378 9.0649 5.57006 8.25894 5.62287 8.22705C5.81235 8.10238 5.85894 7.85886 5.72538 7.68201C5.59181 7.50516 5.33088 7.46167 5.1414 7.58634C5.12898 7.59503 3.97035 8.34881 2.56323 8.68222C2.55081 8.68511 2.54149 8.68801 2.53217 8.69091C1.18406 9.12289 1.14368 10.4652 1.12505 11.0363C1.12505 11.0624 1.12505 11.0856 1.12194 11.1088C1.12194 11.1117 1.12194 11.1146 1.12194 11.1175C1.11883 11.2683 1.11573 12.0423 1.28036 12.4308C1.31142 12.5062 1.36733 12.57 1.44188 12.6135C1.53507 12.6714 3.76845 13.9993 7.50525 13.9993C11.242 13.9993 13.4754 12.6685 13.5686 12.6135C13.6401 12.57 13.6991 12.5062 13.7301 12.4308C13.8855 12.0452 13.8823 11.2712 13.8792 11.1204Z" fill="#6897FF"/>
</g>
<defs>
<clipPath id="clip0">
<rect width="15" height="14" fill="white" transform="translate(0 -0.000976562)"/>
</clipPath>
</defs>
</svg>
