<svg width="12" height="7" viewBox="0 0 12 7" fill="none" xmlns="http://www.w3.org/2000/svg">
<path fill-rule="evenodd" clip-rule="evenodd" d="M6.41599 6.67077L11.5776 1.30494C11.8648 1.00642 11.8648 0.522428 11.5776 0.223909C11.2904 -0.0746101 10.8249 -0.0746099 10.5377 0.223909L5.89605 5.04922L1.25443 0.22389C0.967275 -0.0746307 0.501703 -0.074631 0.214548 0.22389C-0.072608 0.52241 -0.0726071 1.00641 0.214548 1.30493L5.37586 6.67052C5.37594 6.6706 5.37602 6.67069 5.37611 6.67077L5.37611 6.67077C5.412 6.70809 5.45068 6.74074 5.49146 6.76872C5.45068 6.74074 5.412 6.70809 5.37611 6.67077M6.41599 6.67077C6.41599 6.67077 6.41599 6.67077 6.41599 6.67077L6.41599 6.67077Z" fill="#A3BFDF"/>
</svg>
