<svg width="102" height="102" viewBox="0 0 102 102" fill="none" xmlns="http://www.w3.org/2000/svg">
<path opacity="0.5" d="M45.25 3.89711C48.8081 1.84284 53.1919 1.84284 56.75 3.89711L88.9173 22.4689C92.4754 24.5232 94.6673 28.3196 94.6673 32.4282V69.5718C94.6673 73.6804 92.4754 77.4768 88.9173 79.5311L56.75 98.1029C53.1919 100.157 48.8081 100.157 45.25 98.1029L13.0827 79.5311C9.52459 77.4768 7.3327 73.6804 7.3327 69.5718V32.4282C7.3327 28.3197 9.52459 24.5232 13.0827 22.4689L45.25 3.89711Z" stroke="#6897FF"/>
<path d="M45 14.4641C48.7128 12.3205 53.2872 12.3205 57 14.4641L79.641 27.5359C83.3538 29.6795 85.641 33.641 85.641 37.9282V64.0718C85.641 68.359 83.3538 72.3205 79.641 74.4641L57 87.5359C53.2872 89.6795 48.7128 89.6795 45 87.5359L22.359 74.4641C18.6462 72.3205 16.359 68.359 16.359 64.0718V37.9282C16.359 33.641 18.6462 29.6795 22.359 27.5359L45 14.4641Z" fill="#6897FF"/>
<path d="M68.5352 36.1318H33.4648C32.1056 36.1318 31 37.2375 31 38.5965V62.3944C31 63.7535 32.1056 64.8591 33.4648 64.8591H45.3262L44.8464 68.6973H42.8586C42.5349 68.6973 42.2727 68.9597 42.2727 69.2832C42.2727 69.6068 42.5349 69.8692 42.8586 69.8692H59.1414C59.4651 69.8692 59.7273 69.6068 59.7273 69.2832C59.7273 68.9597 59.4651 68.6973 59.1414 68.6973H57.1537L56.6738 64.8591H68.5352C69.8943 64.8591 71 63.7535 71 62.3944V38.5965C71 37.2375 69.8944 36.1318 68.5352 36.1318ZM46.0274 68.6973L46.5073 64.8591H48.6637L48.8753 65.7052C49.1195 66.682 49.9933 67.3641 51.0001 67.3641C52.0069 67.3641 52.8806 66.682 53.1248 65.7052L53.3364 64.8591H55.4929L55.9726 68.6973H46.0274ZM49.8716 64.8591H52.1283L51.9878 65.421C51.8743 65.8751 51.4681 66.1922 50.9999 66.1922C50.5317 66.1922 50.1256 65.875 50.012 65.421L49.8716 64.8591ZM69.8281 62.3944C69.8281 63.1073 69.2481 63.6872 68.5352 63.6872H33.4648C32.7519 63.6872 32.1719 63.1073 32.1719 62.3944V38.5965C32.1719 37.8836 32.7519 37.3037 33.4648 37.3037H68.5352C69.2481 37.3037 69.8281 37.8836 69.8281 38.5965V62.3944Z" fill="white"/>
<path d="M64.1513 38.6365H34.0908C33.7671 38.6365 33.5049 38.8987 33.5049 39.2224V61.7677C33.5049 62.0914 33.7671 62.3537 34.0908 62.3537H35.3434C35.6671 62.3537 35.9293 62.0914 35.9293 61.7677C35.9294 61.4441 35.6671 61.1818 35.3435 61.1818H34.6768V39.8084H64.1513C64.475 39.8084 64.7372 39.546 64.7372 39.2224C64.7372 38.8987 64.475 38.6365 64.1513 38.6365Z" fill="white"/>
<path d="M67.9101 38.6365H66.6575C66.3338 38.6365 66.0716 38.8987 66.0716 39.2224C66.0716 39.546 66.3338 39.8084 66.6575 39.8084H67.3241V61.1818H37.8496C37.5259 61.1818 37.2637 61.4441 37.2637 61.7677C37.2637 62.0914 37.5259 62.3537 37.8496 62.3537H67.91C68.2337 62.3537 68.4959 62.0914 68.4959 61.7677V39.2224C68.496 38.8987 68.2337 38.6365 67.9101 38.6365Z" fill="white"/>
<path d="M58.9755 45.1245C58.8702 44.9898 58.7114 44.908 58.5408 44.9002L44.7631 44.2739C44.7523 44.2734 44.7418 44.2732 44.7309 44.2734C44.6493 44.0056 44.477 43.7734 44.2437 43.6178L42.5565 42.493C42.2872 42.3135 41.9234 42.3863 41.7439 42.6555C41.5645 42.9248 41.6372 43.2886 41.9064 43.468L43.5936 44.5927C43.6016 44.598 43.6075 44.6061 43.6101 44.6153L45.7593 52.1373C45.8263 52.3718 45.9366 52.5826 46.0782 52.7646L45.2919 54.3373C45.1026 54.7158 45.1225 55.1566 45.345 55.5166C45.4257 55.6472 45.528 55.7584 45.6456 55.8474C45.4917 56.1161 45.4032 56.4269 45.4032 56.7581C45.4032 57.7719 46.2279 58.5966 47.2416 58.5966C48.2553 58.5966 49.08 57.7718 49.08 56.7581C49.08 56.523 49.0352 56.2984 48.9544 56.0916H54.2964C54.2156 56.2984 54.1707 56.523 54.1707 56.7581C54.1707 57.7719 54.9955 58.5966 56.0092 58.5966C57.0229 58.5966 57.8476 57.7718 57.8476 56.7581C57.8476 56.4641 57.7779 56.1862 57.6546 55.9394C57.7729 55.8323 57.8476 55.6779 57.8476 55.5056C57.8476 55.182 57.5854 54.9197 57.2617 54.9197H46.3759C46.3675 54.9197 46.3534 54.9197 46.3416 54.9005C46.3298 54.8815 46.3361 54.8689 46.3399 54.8613L47.0643 53.4127C47.2117 53.4505 47.3653 53.471 47.5225 53.471C47.5949 53.471 47.668 53.4667 47.7416 53.4581L55.9749 52.4895C57.0382 52.3644 57.8938 51.575 58.1038 50.525L59.0886 45.6005C59.1222 45.4329 59.0808 45.2591 58.9755 45.1245ZM56.009 56.0917C56.3766 56.0917 56.6756 56.3908 56.6756 56.7583C56.6756 57.1259 56.3766 57.4248 56.009 57.4248C55.6415 57.4248 55.3425 57.1259 55.3425 56.7583C55.3425 56.3907 55.6415 56.0917 56.009 56.0917ZM47.2415 56.0917C47.609 56.0917 47.908 56.3907 47.908 56.7583C47.908 57.1259 47.609 57.4248 47.2415 57.4248C46.8739 57.4248 46.5749 57.1259 46.5749 56.7583C46.5749 56.3907 46.8739 56.0917 47.2415 56.0917ZM45.8046 48.0309L45.0703 45.461L47.4129 45.5675L47.819 48.0309H45.8046ZM47.6047 52.2943C47.278 52.3327 46.9761 52.1312 46.8859 51.8154L46.1394 49.2028H48.0122L48.5045 52.1884L47.6047 52.2943ZM51.0393 51.8902L49.6697 52.0514L49.2 49.2029H51.0393V51.8902ZM51.0393 48.0309H49.0068L48.6096 45.622L51.0393 45.7324V48.0309ZM54.0067 51.5411L52.2112 51.7523V49.2028H54.2183L54.0067 51.5411ZM54.3244 48.0309H52.2112V45.7856L54.5182 45.8905L54.3244 48.0309ZM56.9546 50.2953C56.8444 50.8459 56.3957 51.2601 55.8379 51.3257L55.196 51.4012L55.395 49.2029H57.173L56.9546 50.2953ZM57.4075 48.0309H55.5011L55.69 45.9437L57.8057 46.0399L57.4075 48.0309Z" fill="white"/>
</svg>
