<svg width="662" height="25" viewBox="0 0 662 25" fill="none" xmlns="http://www.w3.org/2000/svg">
<path d="M6.5 1.00002L6.5 0.250015L5.75 0.250015L5.75 1.00002L6.5 1.00002ZM5.96969 24.5303C6.26258 24.8232 6.73745 24.8232 7.03035 24.5303L11.8033 19.7574C12.0962 19.4645 12.0962 18.9896 11.8033 18.6967C11.5104 18.4038 11.0355 18.4038 10.7427 18.6967L6.50001 22.9394L2.25737 18.6967C1.96448 18.4038 1.4896 18.4038 1.19671 18.6967C0.903818 18.9896 0.903818 19.4645 1.19671 19.7574L5.96969 24.5303ZM661.003 0.250057L6.5 0.250015L6.5 1.75002L661.003 1.75006L661.003 0.250057ZM5.75 1.00002L5.75002 24L7.25002 24L7.25 1.00001L5.75 1.00002Z" fill="#6897FF"/>
</svg>
