<svg width="56" height="36" viewBox="0 0 56 36" fill="none" xmlns="http://www.w3.org/2000/svg">
<rect x="0.746094" width="54.5806" height="36" rx="4" fill="white"/>
<rect x="1.24609" y="0.5" width="53.5806" height="35" rx="3.5" stroke="#808080" stroke-opacity="0.4"/>
<path d="M37.746 12.8507C37.746 11.5642 37.235 10.3304 36.3253 9.42075C35.4156 8.51106 34.1818 8 32.8953 8H25.9923C24.9347 8.00163 23.9067 8.34884 23.0647 8.98876C22.2227 9.62869 21.6129 10.5262 21.3281 11.5448H29.649C32.8207 11.5448 34.2013 13.0373 34.2013 16.5448V24.4179C35.226 24.1315 36.128 23.5161 36.7686 22.6665C37.4091 21.817 37.7526 20.7804 37.746 19.7164V12.8507Z" fill="#4D63A9"/>
<path d="M17.7461 23.1121C17.7461 23.7522 17.8728 24.3861 18.1189 24.977C18.365 25.568 18.7256 26.1044 19.18 26.5553C19.6344 27.0063 20.1736 27.3628 20.7664 27.6044C21.3592 27.8459 21.994 27.9678 22.6342 27.9628H29.4998C30.5574 27.9612 31.5855 27.614 32.4275 26.9741C33.2695 26.3342 33.8793 25.4366 34.164 24.4181H25.8804C22.6715 24.4181 21.3282 22.9255 21.3282 19.4554V11.5449C20.2997 11.8301 19.3928 12.444 18.746 13.2929C18.0992 14.1419 17.748 15.1792 17.7461 16.2464V23.1121Z" fill="#D86A43"/>
<path d="M31.6653 15.6866C31.9414 15.6166 32.1833 15.4503 32.3475 15.2177C32.5117 14.9851 32.5874 14.7014 32.5609 14.4179C32.5609 13.4478 31.8146 13 30.7325 13H28.8668V15.2761H27.7848C26.3295 15.2761 26.031 16.3209 26.031 16.8806C26.031 17.4403 26.4788 18 27.337 18.4478C28.1952 18.8955 28.4564 18.8582 28.4564 19.4179C28.4564 19.9776 28.1952 20.1269 27.5609 20.1269H26.4042C26.5705 19.8574 26.6607 19.548 26.6653 19.2313C26.6653 18.8582 26.5161 17.403 24.5012 17.403H22.8594V23.0373H23.9788V20.5373L24.4265 20.9851H27.5236C28.9788 20.9851 29.6504 20.2388 29.6504 19.3806C29.6515 19.1122 29.6008 18.8462 29.5012 18.597H30.6579C32.4489 18.597 32.8594 17.7015 32.8594 16.9925C32.8523 16.6671 32.7274 16.3554 32.5078 16.1152C32.2882 15.875 31.9888 15.7227 31.6653 15.6866ZM24.5012 20.0896H23.9788V18.2239H24.5012C24.6261 18.2073 24.7532 18.2184 24.8733 18.2564C24.9935 18.2945 25.1038 18.3585 25.1964 18.444C25.289 18.5295 25.3616 18.6343 25.4092 18.751C25.4567 18.8678 25.4779 18.9935 25.4713 19.1194C25.4766 19.2482 25.4551 19.3767 25.4082 19.4968C25.3613 19.6169 25.29 19.726 25.1989 19.8171C25.1077 19.9083 24.9987 19.9795 24.8786 20.0264C24.7585 20.0733 24.63 20.0948 24.5012 20.0896ZM28.8668 16.5821V17.9627C28.5841 17.7838 28.2841 17.6338 27.9713 17.5149C27.5982 17.3657 27.2251 17.1791 27.2251 16.694C27.2251 16.209 27.3743 16.1343 28.0459 16.1343H29.3146L28.8668 16.5821ZM30.0236 13.8582H30.5086C31.4042 13.8582 31.4415 14.3806 31.4415 14.5672C31.4415 14.7537 31.2922 15.2388 30.5459 15.2388H30.0236V13.8582ZM30.6579 17.7015H30.0236V16.1343H30.6579C31.4415 16.1343 31.6653 16.5075 31.6653 16.9179C31.6653 17.3284 31.3668 17.7015 30.6579 17.7015Z" fill="#4D63A9"/>
</svg>
