<svg width="102" height="102" viewBox="0 0 102 102" fill="none" xmlns="http://www.w3.org/2000/svg">
<path opacity="0.5" d="M45.25 3.89711C48.8081 1.84284 53.1919 1.84284 56.75 3.89711L88.9173 22.4689C92.4754 24.5232 94.6673 28.3196 94.6673 32.4282V69.5718C94.6673 73.6804 92.4754 77.4768 88.9173 79.5311L56.75 98.1029C53.1919 100.157 48.8081 100.157 45.25 98.1029L13.0827 79.5311C9.52459 77.4768 7.3327 73.6804 7.3327 69.5718V32.4282C7.3327 28.3197 9.52459 24.5232 13.0827 22.4689L45.25 3.89711Z" stroke="#6897FF"/>
<path d="M45 14.4641C48.7128 12.3205 53.2872 12.3205 57 14.4641L79.641 27.5359C83.3538 29.6795 85.641 33.641 85.641 37.9282V64.0718C85.641 68.359 83.3538 72.3205 79.641 74.4641L57 87.5359C53.2872 89.6795 48.7128 89.6795 45 87.5359L22.359 74.4641C18.6462 72.3205 16.359 68.359 16.359 64.0718V37.9282C16.359 33.641 18.6462 29.6795 22.359 27.5359L45 14.4641Z" fill="#6897FF"/>
<g clip-path="url(#clip0)">
<path d="M70.5951 62.7406L69.7209 62.3548C69.6869 62.2324 69.6498 62.115 69.6103 62.0005L70.0974 61.161C70.2093 60.9675 70.2112 60.7294 70.1024 60.5341C69.8462 60.0778 69.5406 59.6509 69.1911 59.2612C69.038 59.0889 68.803 59.0141 68.5785 59.0665L67.6585 59.2766C67.5682 59.2061 67.4755 59.1378 67.3803 59.0714L67.2913 58.0958C67.2709 57.8707 67.1317 57.6736 66.9266 57.579C66.4573 57.3598 65.9648 57.1945 65.4582 57.0862C65.2326 57.0381 64.9986 57.1173 64.8487 57.2927L64.2045 58.0407H63.8954L63.2511 57.2927C63.1016 57.1167 62.8673 57.0373 62.6416 57.0862C62.1351 57.1945 61.6425 57.3597 61.1733 57.579C60.968 57.6736 60.829 57.8708 60.8085 58.0958L60.7195 59.0714C60.6243 59.1375 60.5316 59.2059 60.4413 59.2766L59.5214 59.0665C59.2969 59.0145 59.062 59.0892 58.9087 59.2612C58.5592 59.6509 58.2538 60.078 57.998 60.5348C57.8892 60.7298 57.8911 60.9677 58.003 61.161L58.4895 62C58.4499 62.1143 58.413 62.2326 58.3788 62.3548L57.5047 62.7406C57.275 62.8417 57.1268 63.0689 57.127 63.3199V64.7529C57.1268 65.0038 57.275 65.2311 57.5047 65.3321L58.3788 65.7179C58.4129 65.8403 58.4499 65.9578 58.4895 66.0722L58.0023 66.9118C57.8904 67.1053 57.8885 67.3434 57.9973 67.5387C58.2536 67.995 58.5592 68.4219 58.9086 68.8116C59.0619 68.984 59.2973 69.0587 59.5219 69.0064L60.4406 68.7955C60.5309 68.8666 60.6242 68.9353 60.7194 69.0014L60.8084 69.977C60.8288 70.2021 60.9679 70.3992 61.1731 70.4938C61.6424 70.713 62.1349 70.8783 62.6414 70.9866C62.8671 71.0345 63.1009 70.9553 63.251 70.7801L63.8952 70.0321H64.2043L64.8485 70.7801C64.9687 70.9199 65.1439 71.0003 65.3283 71.0002C65.3719 71.0003 65.4154 70.9957 65.4582 70.9866C65.9647 70.8783 66.4572 70.7131 66.9265 70.4938C67.1317 70.3992 67.2708 70.2021 67.2912 69.977L67.3802 69.0014C67.4754 68.9353 67.5682 68.8668 67.6585 68.7962L68.5784 69.0064C68.8029 69.0587 69.038 68.984 69.191 68.8116C69.5404 68.422 69.846 67.995 70.1023 67.5387C70.2111 67.3434 70.2092 67.1053 70.0973 66.9118L69.6102 66.0723C69.6498 65.9579 69.6869 65.8404 69.7208 65.718L70.595 65.3322C70.8246 65.2312 70.9729 65.0039 70.9727 64.753V63.3199C70.9729 63.069 70.8247 62.8417 70.5951 62.7406ZM68.9271 64.6843C68.7437 64.765 68.6095 64.9278 68.5655 65.1233C68.5076 65.384 68.4278 65.6395 68.3268 65.8868C68.2513 66.0693 68.265 66.2765 68.3639 66.4475L68.8146 67.224C68.7126 67.3823 68.6025 67.5365 68.4844 67.6865L67.6362 67.4924C67.4377 67.446 67.229 67.499 67.0767 67.6346C66.8795 67.8076 66.6683 67.9637 66.4449 68.1013C66.2756 68.2059 66.1652 68.3841 66.1469 68.5823L66.0647 69.4861C65.8947 69.5529 65.724 69.611 65.5541 69.6593L64.9742 68.986C64.8539 68.8463 64.6788 68.766 64.4945 68.7659H63.6055C63.4212 68.766 63.2461 68.8464 63.1258 68.986L62.5459 69.6593C62.3759 69.6111 62.2052 69.5529 62.0353 69.4861L61.953 68.5823C61.9348 68.3841 61.8245 68.2059 61.655 68.1013C61.4318 67.9639 61.2207 67.8076 61.0238 67.6346C60.8707 67.4994 60.6621 67.4462 60.463 67.4917L59.6155 67.6859C59.4974 67.5369 59.3873 67.3823 59.2853 67.224L59.736 66.4475C59.8348 66.2765 59.8486 66.0693 59.7731 65.8868C59.6721 65.6395 59.5923 65.384 59.5344 65.1233C59.4903 64.9278 59.3561 64.765 59.1728 64.6843L58.3932 64.3406V63.7322L59.1728 63.3885C59.3562 63.3078 59.4904 63.145 59.5344 62.9495C59.5923 62.6884 59.6722 62.4325 59.7731 62.1848C59.8486 62.0024 59.8349 61.7954 59.736 61.6247L59.2859 60.8481C59.3872 60.6905 59.4973 60.536 59.6154 60.3863L60.4636 60.5804C60.6621 60.6261 60.8705 60.5731 61.0231 60.4382C61.2203 60.2652 61.4316 60.1091 61.6549 59.9715C61.8242 59.8669 61.9346 59.6888 61.9529 59.4905L62.0351 58.5867C62.2051 58.5199 62.3758 58.4618 62.5457 58.4135L63.1256 59.0868C63.2459 59.2265 63.421 59.3068 63.6054 59.3069H64.4944C64.6787 59.3068 64.8538 59.2264 64.9742 59.0868L65.5541 58.4135C65.724 58.4617 65.8947 58.5199 66.0647 58.5867L66.1469 59.4905C66.1652 59.6888 66.2756 59.8669 66.4449 59.9715C66.6683 60.1091 66.8795 60.2652 67.0767 60.4382C67.2293 60.5732 67.4378 60.6262 67.6362 60.5804L68.4844 60.3863C68.6025 60.536 68.7126 60.69 68.8146 60.8488L68.3639 61.6253C68.2651 61.7963 68.2513 62.0035 68.3268 62.186C68.4278 62.4333 68.5076 62.6888 68.5655 62.9495C68.6096 63.145 68.7438 63.3078 68.9271 63.3885L69.7067 63.7322V64.3406L68.9271 64.6843Z" fill="white"/>
<path d="M64.0472 60.8713C62.299 60.8713 60.8818 62.2885 60.8818 64.0367C60.8818 65.7848 62.299 67.202 64.0472 67.202C65.7953 67.202 67.2125 65.7848 67.2125 64.0367C67.2104 62.2894 65.7945 60.8734 64.0472 60.8713ZM64.0472 65.9359C62.9982 65.9359 62.148 65.0856 62.148 64.0367C62.148 62.9878 62.9982 62.1375 64.0472 62.1375C65.0961 62.1375 65.9464 62.9878 65.9464 64.0367C65.9452 65.0851 65.0956 65.9348 64.0472 65.9359Z" fill="white"/>
<path d="M50.7538 35.5476C45.5093 35.5476 41.2578 39.7991 41.2578 45.0436C41.2635 50.2857 45.5117 54.5338 50.7538 54.5395C55.9982 54.5395 60.2497 50.288 60.2497 45.0436C60.2497 39.7991 55.9982 35.5476 50.7538 35.5476ZM42.866 47.3897C41.5694 43.0343 44.0491 38.4524 48.4045 37.1557C49.1669 36.9288 49.9583 36.8136 50.7538 36.8137C51.5483 36.8144 52.3386 36.9308 53.0997 37.1589C52.945 37.2608 52.7842 37.3594 52.6413 37.4672C52.4247 37.6303 52.336 37.9132 52.4206 38.1708L52.7111 39.0555C52.5918 39.168 52.475 39.2848 52.3625 39.4042L51.4784 39.1136C51.2211 39.0304 50.9394 39.1186 50.7755 39.3336C50.3077 39.948 49.9167 40.617 49.6113 41.3262C49.505 41.5756 49.5694 41.865 49.7714 42.0459L50.4755 42.6765C50.4274 42.8341 50.3847 42.993 50.347 43.1519L49.4295 43.3448C49.1366 43.4065 48.9269 43.6649 48.9268 43.9643V46.1231C48.9269 46.4225 49.1365 46.6808 49.4295 46.7426L50.347 46.9355C50.3847 47.0944 50.4274 47.2533 50.4749 47.4109L49.7713 48.0415C49.5693 48.2223 49.5049 48.5117 49.6113 48.7612C49.9166 49.4699 50.3071 50.1387 50.7741 50.7531C50.9372 50.9697 51.2201 51.0585 51.4777 50.9738L52.3624 50.6832C52.4749 50.8026 52.5917 50.9194 52.7111 51.0319L52.4205 51.916C52.3361 52.1732 52.4245 52.4556 52.6405 52.6189C52.7836 52.727 52.9449 52.8261 53.0999 52.9283C48.7445 54.2248 44.1626 51.7452 42.866 47.3897ZM54.5681 52.3294C54.2939 52.1894 54.0273 52.0351 53.7695 51.867L54.0433 51.0336C54.1237 50.7886 54.0477 50.5192 53.851 50.3524C53.559 50.1053 53.2879 49.8344 53.0406 49.5425C52.8735 49.3466 52.6047 49.2709 52.3599 49.3509L51.524 49.626C51.3164 49.321 51.1295 49.0026 50.9645 48.6727L51.6285 48.0774C51.8207 47.9053 51.8894 47.6339 51.8022 47.3911C51.6724 47.0327 51.573 46.6639 51.5048 46.2888C51.459 46.0353 51.2642 45.8348 51.0121 45.7819L50.1929 45.6094V44.478L51.0121 44.3055C51.2642 44.2525 51.459 44.052 51.5048 43.7986C51.5732 43.4231 51.6727 43.054 51.8022 42.695C51.8894 42.4524 51.8206 42.1812 51.6285 42.0094L50.9645 41.4147C51.1297 41.0849 51.3166 40.7664 51.524 40.4614L52.3604 40.7365C52.6055 40.8163 52.8745 40.7404 53.0417 40.5442C53.2887 40.2521 53.5596 39.981 53.8515 39.7337C54.0477 39.5668 54.1234 39.2978 54.0432 39.053L53.7693 38.2197C54.0273 38.0519 54.2938 37.8978 54.5678 37.7579C55.4334 38.2149 56.2109 38.8218 56.8643 39.5506C53.8305 40.3662 52.0323 43.4866 52.8479 46.5204C53.3746 48.4796 54.905 50.01 56.8643 50.5368C56.2111 51.2654 55.4336 51.8724 54.5681 52.3294ZM53.9642 44.4139C54.2436 42.4721 55.7691 40.9465 57.711 40.6671C59.4078 43.338 59.4078 46.7491 57.711 49.42C55.2939 49.0723 53.6164 46.831 53.9642 44.4139Z" fill="white"/>
<path d="M67.4329 43.8206L66.6737 43.4855C66.6477 43.3947 66.6205 43.3056 66.5908 43.2184L67.0143 42.4883C67.1262 42.295 67.1281 42.0571 67.0193 41.862C66.7868 41.4474 66.5094 41.0594 66.1921 40.7053C66.0387 40.5327 65.8032 40.4577 65.5782 40.5099L64.7807 40.6923C64.7133 40.6404 64.6447 40.5897 64.5748 40.5409L64.497 39.692C64.4759 39.4674 64.3373 39.271 64.1328 39.1758C63.7063 38.9762 63.2585 38.8258 62.798 38.7276C62.5798 38.6817 62.3535 38.7543 62.2027 38.9187L61.504 39.6779C58.5549 33.7339 51.3455 31.3059 45.4014 34.255C39.4574 37.204 37.0293 44.4133 39.9784 50.3575C40.1546 50.7127 40.3483 51.059 40.5588 51.3951L38.8653 53.5119C38.7577 53.6471 38.7096 53.8203 38.7323 53.9916C38.755 54.1632 38.8473 54.3179 38.9877 54.4194L40.3626 55.4192L33.1708 64.2702C32.9503 64.5423 32.9921 64.9417 33.2643 65.1623C33.265 65.1629 33.2658 65.1635 33.2665 65.1642L36.4319 67.6964C36.7037 67.9133 37.0994 67.8708 37.319 67.6012L44.6711 58.5528L45.9513 59.4839C46.2249 59.6829 46.6066 59.6317 46.8181 59.3677L48.7934 56.8983C54.0032 57.8013 59.1834 55.1559 61.5064 50.406L62.1989 51.1681C62.319 51.3001 62.4891 51.3752 62.6676 51.3751C62.7112 51.3752 62.7547 51.3706 62.7974 51.3615C63.2581 51.2634 63.7062 51.113 64.1328 50.9133C64.3373 50.8182 64.4759 50.6216 64.497 50.3971L64.5748 49.5483C64.6447 49.4988 64.7133 49.4481 64.7801 49.3968L65.5782 49.5792C65.8032 49.6318 66.0389 49.5568 66.1921 49.3838C66.5091 49.0298 66.7862 48.6421 67.0187 48.2278C67.128 48.0327 67.1264 47.7945 67.0143 47.6009L66.5908 46.8707C66.6205 46.7835 66.6477 46.6945 66.6737 46.6037L67.4329 46.2686C67.6625 46.1676 67.8107 45.9403 67.8106 45.6894V44.3997C67.8107 44.1489 67.6626 43.9216 67.4329 43.8206ZM36.7324 66.3153L34.5556 64.5737L41.3883 56.1652L43.6454 57.8072L36.7324 66.3153ZM46.2067 58.1046L44.93 57.1761L44.858 57.1237L40.268 53.7851L41.3159 52.4761C42.8706 54.4507 45.0037 55.8896 47.4168 56.5917L46.2067 58.1046ZM50.755 55.8067C44.8113 55.8067 39.9929 50.9883 39.9929 45.0446C39.9996 39.1036 44.814 34.2891 50.755 34.2825C56.6988 34.2825 61.5171 39.1008 61.5171 45.0446C61.5171 50.9883 56.6988 55.8067 50.755 55.8067ZM66.5445 45.2771L65.8812 45.5695C65.6977 45.6501 65.5635 45.813 65.5195 46.0084C65.468 46.2402 65.3973 46.4672 65.3081 46.6872C65.2326 46.8693 65.2463 47.0762 65.3452 47.2467L65.731 47.9119C65.6536 48.03 65.571 48.1456 65.483 48.2587L64.7597 48.093C64.5611 48.0464 64.3521 48.0992 64.1996 48.2346C64.0244 48.3885 63.8366 48.5275 63.6382 48.65C63.4697 48.7547 63.3598 48.9322 63.3415 49.1298L63.2704 49.9045C63.1412 49.9546 63.0116 49.9985 62.8815 50.0361L62.055 49.1263C63.0274 46.4881 63.026 43.5894 62.051 40.9522L62.8797 40.0524C63.0096 40.0901 63.1406 40.1346 63.2705 40.1847L63.3415 40.9593C63.36 41.1572 63.47 41.335 63.6389 41.4397C63.8372 41.5619 64.0248 41.7006 64.1997 41.8545C64.3524 41.9896 64.5611 42.0424 64.7598 41.9961L65.4831 41.8304C65.5709 41.9435 65.6536 42.0591 65.731 42.1772L65.3453 42.8424C65.2464 43.0129 65.2327 43.2198 65.3081 43.4019C65.3973 43.6219 65.4681 43.849 65.5196 44.0807C65.5637 44.2761 65.6979 44.439 65.8812 44.5196L66.5446 44.812V45.2771H66.5445Z" fill="white"/>
</g>
<defs>
<clipPath id="clip0">
<rect width="38" height="38" fill="white" transform="translate(33 33)"/>
</clipPath>
</defs>
</svg>
