<svg width="606" height="564" viewBox="0 0 606 564" fill="none" xmlns="http://www.w3.org/2000/svg">
<path d="M119.924 323.624C136.345 312.175 156.143 307.473 175.866 306.04C195.589 304.607 216.497 306.876 233.126 318.056C271.373 343.775 272.01 393.078 285.929 432.514C293.525 454.173 315.751 455.8 335.415 457.77C355.079 459.74 375.425 460.815 395.074 464.92C413.805 468.875 435.454 476.398 447.892 491.952C460.7 507.849 457.176 530 449.461 547.27C445.47 555.609 440.851 563.628 435.646 571.257C392.868 622.441 329.181 653.891 263.052 659.056C225.959 661.967 187.297 656.399 153.359 640.696C114.401 622.65 86.4593 587.587 72.2443 547.315C58.9473 509.551 58.1921 468.129 64.4112 428.842C70.6302 389.555 86.2224 347.119 119.924 323.624Z" fill="url(#paint0_linear)"/>
<path opacity="0.57" d="M-43.1777 505.298C-60.1766 506.253 -76.6424 500.79 -91.583 493.043C-106.524 485.296 -120.753 474.206 -127.891 458.622C-144.327 422.768 -123.108 386.661 -115.749 351.747C-111.632 332.671 -127.135 321.431 -140.61 311.132C-154.085 300.832 -168.344 290.966 -180.812 279.174C-192.717 267.919 -205.096 252.724 -207.273 235.842C-209.568 218.601 -197.219 204.033 -183.907 194.913C-177.343 190.607 -170.463 186.815 -163.325 183.569C-109.633 165.567 -49.4709 171.254 0.874103 197.167C29.0821 211.75 54.7136 233.2 72.4676 259.784C92.8277 290.369 97.6549 328.402 90.2216 364.047C83.2178 397.527 65.5822 427.993 43.6229 453.741C21.6636 479.49 -8.29164 503.357 -43.1777 505.298Z" fill="url(#paint1_linear)"/>
<path d="M30.6509 383.737C53.2173 384.871 77.9752 396.992 94.441 421.77C98.1211 427.496 101.259 433.558 103.814 439.876C106.181 446.301 109.496 452.329 113.646 457.758C123.226 468.998 135.354 465.729 145.082 463.266C192.628 451.16 233.837 409.261 287.958 421.635C309.518 426.561 332.203 442.354 345.988 466.848C360.485 492.507 358.619 520.748 351.985 544.392C348.55 556.811 344.019 568.454 339.562 580.112C334.586 593.008 329.626 605.741 323.94 618.1C318.638 630.017 312.425 641.5 305.357 652.446C298.683 662.198 291.043 671.241 282.553 679.434C276.083 685.957 269.182 693.48 267.124 704.421C264.577 717.945 270.87 730.677 276.882 743.514C279.829 749.828 282.702 756.515 282.998 763.381C283.207 768.687 281.995 773.951 279.488 778.621C274.128 788.652 265.258 793.772 255.915 797.22C245.654 800.997 234.948 803.579 225.723 809.744C225.277 809.619 224.807 809.618 224.361 809.741C223.915 809.865 223.51 810.108 223.191 810.445C203.962 828.895 182.819 845.204 160.126 859.091C149.005 865.867 137.522 872.022 125.729 877.526C116.504 881.839 106.968 886.586 96.3659 886.735C86.2228 886.87 75.9169 881.048 70.6455 867.883C64.9891 853.553 66.1145 837.91 67.7137 824.357C71.149 794.981 79.0709 767.859 85.1863 739.872C88.4764 725.92 90.8459 711.763 92.2791 697.495C93.7915 682.452 90.5637 667.311 83.0541 654.223C69.5498 630.519 49.323 611.473 30.7398 594.68C12.1565 577.888 -7.12262 562.245 -24.773 543.586C-41.8755 525.51 -59.2593 502.463 -66.4705 476.416C-70.7794 460.818 -68.8248 447.623 -62.28 436.368C-55.6202 425.377 -47.1179 415.634 -37.1519 407.575C-17.932 392.17 5.65612 382.513 30.6509 383.737Z" fill="url(#paint2_linear)"/>
<path style="mix-blend-mode:color-dodge" d="M-354.429 480.758C-359.582 429.918 -333.521 401.915 -295.362 376.943C-262.712 355.583 -221.844 339.97 -201.35 307.221C-180.857 274.471 -176.889 238.409 -144.194 217.78C-100.276 190.046 -56.8752 211.138 -34.8863 246.051C-4.39798 294.488 -26.9644 345.537 -68.5138 370.375C-102.763 390.899 -139.411 410.677 -156.899 462.01C-169.9 500.073 -152.131 547.122 -188.631 574.363C-230.047 605.216 -344.893 574.766 -354.429 480.758Z" fill="url(#paint3_linear)"/>
<path style="mix-blend-mode:color-dodge" d="M-87.7455 298.564C-37.6078 291.101 -8.67427 316.088 17.7716 353.405C40.4121 385.333 57.6922 425.799 91.0532 444.95C124.414 464.101 160.337 466.549 182.326 498.626C211.763 541.615 192.809 586.275 159.182 609.964C112.539 642.833 61.0091 622.353 34.4891 581.648C12.5447 547.974 -8.60025 512.03 -60.3223 496.671C-98.6289 485.282 -144.458 505.268 -173.006 469.653C-205.538 429.396 -180.514 312.371 -87.7455 298.564Z" fill="url(#paint4_linear)"/>
<path style="mix-blend-mode:color-dodge" d="M36.8504 394.772C114.456 414.131 137.703 467.808 148.35 537.888C157.471 597.834 152.585 667.004 186.508 714.904C220.432 762.803 270.333 787.94 278.358 847.706C289.138 927.832 229.035 981.225 163.246 995.391C72.003 1015.03 12.8773 954.268 4.65923 879.231C-2.16695 817.151 -6.17978 752.235 -69.2739 698.783C-115.947 659.257 -196.632 660.615 -211.676 591.803C-228.749 513.752 -106.707 358.962 36.8504 394.772Z" fill="url(#paint5_linear)"/>
<path d="M327.565 425.37C337.002 434.741 352.02 434.798 361.11 425.497C370.199 416.195 369.918 401.058 360.481 391.687C351.045 382.316 336.026 382.26 326.936 391.561C317.847 400.862 318.128 415.999 327.565 425.37Z" fill="url(#paint6_linear)"/>
<path d="M126.327 500.593C132.317 506.542 141.85 506.578 147.62 500.674C153.39 494.769 153.212 485.16 147.221 479.212C141.231 473.263 131.698 473.227 125.928 479.132C120.158 485.036 120.336 494.645 126.327 500.593Z" fill="url(#paint7_linear)"/>
<path d="M173.374 283.94C187.558 273.954 190.844 254.003 180.713 239.379C170.581 224.755 150.869 220.995 136.684 230.982C122.499 240.968 119.213 260.919 129.345 275.543C139.477 290.167 159.189 293.926 173.374 283.94Z" fill="url(#paint8_linear)"/>
<path d="M177.3 357.975C182.085 354.094 182.843 347.038 178.993 342.215C175.143 337.392 168.143 336.628 163.359 340.508C158.574 344.389 157.816 351.445 161.666 356.268C165.516 361.092 172.515 361.856 177.3 357.975Z" fill="url(#paint9_linear)"/>
<defs>
<linearGradient id="paint0_linear" x1="391.286" y1="631" x2="65.1708" y2="388.367" gradientUnits="userSpaceOnUse">
<stop stop-color="#7FDFFD"/>
<stop offset="0.39" stop-color="#72C4FC"/>
<stop offset="0.74" stop-color="#6AB3FB"/>
<stop offset="1" stop-color="#67ADFB"/>
</linearGradient>
<linearGradient id="paint1_linear" x1="-113415" y1="7744.95" x2="-92163.6" y2="60855.1" gradientUnits="userSpaceOnUse">
<stop stop-color="#7FDFFD"/>
<stop offset="0.39" stop-color="#72C4FC"/>
<stop offset="0.74" stop-color="#6AB3FB"/>
<stop offset="1" stop-color="#67ADFB"/>
</linearGradient>
<linearGradient id="paint2_linear" x1="-110324" y1="428869" x2="-153002" y2="320096" gradientUnits="userSpaceOnUse">
<stop stop-color="#7FDFFD"/>
<stop offset="0.39" stop-color="#72C4FC"/>
<stop offset="0.74" stop-color="#6AB3FB"/>
<stop offset="1" stop-color="#67ADFB"/>
</linearGradient>
<linearGradient id="paint3_linear" x1="-274.353" y1="350.061" x2="-49.8184" y2="449.213" gradientUnits="userSpaceOnUse">
<stop/>
<stop offset="0.23" stop-color="#050505"/>
<stop offset="0.48" stop-color="#131313"/>
<stop offset="0.76" stop-color="#292929"/>
<stop offset="1" stop-color="#444444"/>
</linearGradient>
<linearGradient id="paint4_linear" x1="363055" y1="323360" x2="346253" y2="348307" gradientUnits="userSpaceOnUse">
<stop/>
<stop offset="0.23" stop-color="#050505"/>
<stop offset="0.48" stop-color="#131313"/>
<stop offset="0.76" stop-color="#292929"/>
<stop offset="1" stop-color="#444444"/>
</linearGradient>
<linearGradient id="paint5_linear" x1="295843" y1="647608" x2="223226" y2="697676" gradientUnits="userSpaceOnUse">
<stop/>
<stop offset="0.23" stop-color="#050505"/>
<stop offset="0.48" stop-color="#131313"/>
<stop offset="0.76" stop-color="#292929"/>
<stop offset="1" stop-color="#444444"/>
</linearGradient>
<linearGradient id="paint6_linear" x1="20628.6" y1="8110.66" x2="21644" y2="7088.1" gradientUnits="userSpaceOnUse">
<stop stop-color="#7FDFFD"/>
<stop offset="0.39" stop-color="#72C4FC"/>
<stop offset="0.74" stop-color="#6AB3FB"/>
<stop offset="1" stop-color="#67ADFB"/>
</linearGradient>
<linearGradient id="paint7_linear" x1="13013.1" y1="5379.09" x2="13657.6" y2="4729.99" gradientUnits="userSpaceOnUse">
<stop stop-color="#7FDFFD"/>
<stop offset="0.39" stop-color="#72C4FC"/>
<stop offset="0.74" stop-color="#6AB3FB"/>
<stop offset="1" stop-color="#67ADFB"/>
</linearGradient>
<linearGradient id="paint8_linear" x1="6021.81" y1="-26951.4" x2="4476.82" y2="-25881" gradientUnits="userSpaceOnUse">
<stop stop-color="#7FDFFD"/>
<stop offset="0.39" stop-color="#72C4FC"/>
<stop offset="0.74" stop-color="#6AB3FB"/>
<stop offset="1" stop-color="#67ADFB"/>
</linearGradient>
<linearGradient id="paint9_linear" x1="-3152.61" y1="9942.84" x2="-2967.44" y2="9795.04" gradientUnits="userSpaceOnUse">
<stop stop-color="#7FDFFD"/>
<stop offset="0.39" stop-color="#72C4FC"/>
<stop offset="0.74" stop-color="#6AB3FB"/>
<stop offset="1" stop-color="#67ADFB"/>
</linearGradient>
</defs>
</svg>
