<svg width="529" height="737" viewBox="0 0 529 737" fill="none" xmlns="http://www.w3.org/2000/svg">
<path d="M226.31 742.312C214.867 725.818 210.1 705.885 208.576 686.011C207.052 666.136 209.195 645.048 220.199 628.228C245.513 589.539 294.418 588.641 333.466 574.406C354.912 566.636 356.41 544.223 358.263 524.39C360.115 504.558 361.076 484.043 365.046 464.215C368.872 445.312 376.223 423.451 391.587 410.832C407.29 397.838 429.282 401.275 446.454 408.962C454.747 412.943 462.726 417.557 470.321 422.764C521.317 465.621 552.846 529.656 558.313 596.291C561.393 633.667 556.07 672.669 540.669 706.962C522.97 746.327 488.333 774.675 448.457 789.214C411.064 802.814 369.978 803.79 330.973 797.725C291.969 791.66 249.791 776.162 226.31 742.312Z" fill="url(#paint0_linear)"/>
<path opacity="0.57" d="M507.325 649.488C508.361 666.619 503.027 683.246 495.42 698.347C487.812 713.448 476.884 727.849 461.463 735.125C425.981 751.879 390.053 730.677 355.381 723.44C336.436 719.39 325.366 735.076 315.219 748.712C305.072 762.349 295.359 776.774 283.726 789.404C272.623 801.463 257.614 814.02 240.878 816.302C223.788 818.705 209.272 806.332 200.156 792.961C195.851 786.367 192.053 779.45 188.795 772.272C170.659 718.242 175.989 657.566 201.432 606.682C215.753 578.171 236.897 552.222 263.177 534.187C293.411 513.505 331.114 508.441 366.513 515.749C399.761 522.636 430.074 540.255 455.731 562.257C481.387 584.259 505.219 614.332 507.325 649.488Z" fill="url(#paint1_linear)"/>
<path d="M402.509 619.165C403.517 596.412 415.412 571.392 439.906 554.665C445.567 550.925 451.564 547.73 457.819 545.122C464.18 542.703 470.143 539.33 475.507 535.118C486.607 525.402 483.301 513.195 480.807 503.401C468.552 455.535 426.774 414.212 438.768 359.591C443.543 337.833 459.091 314.884 483.318 300.86C508.696 286.114 536.721 287.848 560.21 294.412C572.547 297.811 584.12 302.318 595.708 306.75C608.527 311.698 621.183 316.633 633.473 322.3C645.322 327.583 656.746 333.787 667.641 340.855C677.349 347.532 686.359 355.186 694.531 363.701C701.035 370.19 708.534 377.107 719.398 379.125C732.826 381.622 745.424 375.212 758.127 369.086C764.375 366.082 770.994 363.152 777.804 362.818C783.066 362.579 788.294 363.774 792.94 366.276C802.918 371.628 808.043 380.542 811.512 389.943C815.312 400.267 817.929 411.045 824.092 420.313C823.97 420.762 823.972 421.237 824.097 421.686C824.222 422.135 824.465 422.541 824.801 422.861C843.203 442.149 859.491 463.378 873.385 486.181C880.165 497.357 886.329 508.9 891.85 520.759C896.178 530.036 900.936 539.624 901.139 550.311C901.325 560.534 895.604 570.953 882.571 576.336C868.385 582.112 852.862 581.059 839.409 579.517C810.25 576.207 783.305 568.362 755.509 562.342C741.652 559.098 727.596 556.783 713.435 555.413C698.505 553.966 683.502 557.298 670.557 564.936C647.113 578.672 628.324 599.161 611.763 617.981C595.201 636.801 579.784 656.316 561.366 674.205C543.524 691.539 520.752 709.182 494.951 716.587C479.499 721.011 466.4 719.11 455.201 712.571C444.263 705.914 434.554 697.394 426.508 687.39C411.127 668.095 401.424 644.368 402.509 619.165Z" fill="url(#paint2_linear)"/>
<path style="mix-blend-mode:color-dodge" d="M484.598 963.371C434.191 968.829 406.278 942.704 381.307 904.368C359.949 871.566 344.248 830.45 311.655 809.962C279.062 789.474 243.267 785.661 222.634 752.81C194.894 708.683 215.592 664.824 250.111 642.477C298.002 611.491 348.76 633.974 373.615 675.729C394.152 710.147 413.962 746.988 464.974 764.349C502.8 777.257 549.38 759.101 576.593 795.754C607.414 837.343 577.804 953.27 484.598 963.371Z" fill="url(#paint3_linear)"/>
<path style="mix-blend-mode:color-dodge" d="M302.478 695.488C294.814 644.985 319.451 615.689 356.332 588.837C387.887 565.849 427.939 548.219 446.764 514.491C465.588 480.762 467.83 444.538 499.536 422.205C542.028 392.308 586.429 411.182 610.103 444.957C642.95 491.805 622.902 543.855 582.661 570.8C549.37 593.096 513.824 614.597 498.856 666.815C487.757 705.489 507.822 751.583 472.64 780.546C432.874 813.548 316.656 788.93 302.478 695.488Z" fill="url(#paint4_linear)"/>
<path style="mix-blend-mode:color-dodge" d="M365.023 577.466C383.825 499.135 436.95 475.422 506.415 464.326C565.833 454.82 634.475 459.387 681.815 424.942C729.155 390.497 753.831 340.064 813.077 331.664C892.506 320.381 945.783 380.691 960.176 446.935C980.136 538.81 920.163 598.727 845.77 607.401C784.223 614.604 719.847 618.986 667.151 682.865C628.184 730.119 629.95 811.446 561.767 826.968C484.429 844.584 330.245 722.364 365.023 577.466Z" fill="url(#paint5_linear)"/>
<path d="M329.236 600.542C341.588 587.77 341.559 567.546 329.171 555.371C316.782 543.196 296.726 543.68 284.374 556.452C272.021 569.224 272.051 589.448 284.439 601.623C296.828 613.798 316.884 613.314 329.236 600.542Z" fill="url(#paint6_linear)"/>
<path d="M342.688 459.299C332.708 445.052 312.9 441.843 298.445 452.132C283.991 462.421 280.364 482.312 290.344 496.559C300.324 510.806 320.132 514.015 334.586 503.726C349.04 493.436 352.668 473.546 342.688 459.299Z" fill="url(#paint7_linear)"/>
<path d="M360.036 428C356.161 423.197 349.158 422.469 344.393 426.375C339.628 430.281 338.907 437.341 342.781 442.144C346.656 446.947 353.659 447.674 358.424 443.768C363.189 439.863 363.91 432.803 360.036 428Z" fill="url(#paint8_linear)"/>
<defs>
<linearGradient id="paint0_linear" x1="529.816" y1="467.171" x2="285.811" y2="793.423" gradientUnits="userSpaceOnUse">
<stop stop-color="#7FDFFD"/>
<stop offset="0.39" stop-color="#72C4FC"/>
<stop offset="0.74" stop-color="#6AB3FB"/>
<stop offset="1" stop-color="#67ADFB"/>
</linearGradient>
<linearGradient id="paint1_linear" x1="8277.54" y1="114896" x2="61087.1" y2="93785.6" gradientUnits="userSpaceOnUse">
<stop stop-color="#7FDFFD"/>
<stop offset="0.39" stop-color="#72C4FC"/>
<stop offset="0.74" stop-color="#6AB3FB"/>
<stop offset="1" stop-color="#67ADFB"/>
</linearGradient>
<linearGradient id="paint2_linear" x1="426030" y1="109638" x2="317884" y2="152036" gradientUnits="userSpaceOnUse">
<stop stop-color="#7FDFFD"/>
<stop offset="0.39" stop-color="#72C4FC"/>
<stop offset="0.74" stop-color="#6AB3FB"/>
<stop offset="1" stop-color="#67ADFB"/>
</linearGradient>
<linearGradient id="paint3_linear" x1="354.532" y1="883.33" x2="454.388" y2="657.653" gradientUnits="userSpaceOnUse">
<stop/>
<stop offset="0.23" stop-color="#050505"/>
<stop offset="0.48" stop-color="#131313"/>
<stop offset="0.76" stop-color="#292929"/>
<stop offset="1" stop-color="#444444"/>
</linearGradient>
<linearGradient id="paint4_linear" x1="318892" y1="-367046" x2="343970" y2="-350610" gradientUnits="userSpaceOnUse">
<stop/>
<stop offset="0.23" stop-color="#050505"/>
<stop offset="0.48" stop-color="#131313"/>
<stop offset="0.76" stop-color="#292929"/>
<stop offset="1" stop-color="#444444"/>
</linearGradient>
<linearGradient id="paint5_linear" x1="640860" y1="-300968" x2="691990" y2="-228795" gradientUnits="userSpaceOnUse">
<stop/>
<stop offset="0.23" stop-color="#050505"/>
<stop offset="0.48" stop-color="#131313"/>
<stop offset="0.76" stop-color="#292929"/>
<stop offset="1" stop-color="#444444"/>
</linearGradient>
<linearGradient id="paint6_linear" x1="10372.4" y1="-26789.2" x2="8988.83" y2="-28127.2" gradientUnits="userSpaceOnUse">
<stop stop-color="#7FDFFD"/>
<stop offset="0.39" stop-color="#72C4FC"/>
<stop offset="0.74" stop-color="#6AB3FB"/>
<stop offset="1" stop-color="#67ADFB"/>
</linearGradient>
<linearGradient id="paint7_linear" x1="-26704.9" y1="-5294.79" x2="-25612" y2="-3759.4" gradientUnits="userSpaceOnUse">
<stop stop-color="#7FDFFD"/>
<stop offset="0.39" stop-color="#72C4FC"/>
<stop offset="0.74" stop-color="#6AB3FB"/>
<stop offset="1" stop-color="#67ADFB"/>
</linearGradient>
<linearGradient id="paint8_linear" x1="9885.42" y1="3734.93" x2="9734.97" y2="3551.4" gradientUnits="userSpaceOnUse">
<stop stop-color="#7FDFFD"/>
<stop offset="0.39" stop-color="#72C4FC"/>
<stop offset="0.74" stop-color="#6AB3FB"/>
<stop offset="1" stop-color="#67ADFB"/>
</linearGradient>
</defs>
</svg>
