<svg width="27" height="14" viewBox="0 0 27 14" fill="none" xmlns="http://www.w3.org/2000/svg">
<path d="M13.3091 12.9881V1.53351C12.7853 0.579128 -0.833775 4.39666 2.83289 8.69212C5.76622 12.1285 10.8647 12.829 13.3091 12.9881Z" fill="white"/>
<path d="M1.26172 7.04178L2.83315 5.35156V8.69247L1.26172 7.04178Z" fill="white"/>
<path d="M15.8793 6.87136C15.8793 7.82235 15.0164 8.63198 13.9018 8.63198C12.7871 8.63198 11.9242 7.82235 11.9242 6.87136C11.9242 5.92038 12.7871 5.11074 13.9018 5.11074C15.0164 5.11074 15.8793 5.92038 15.8793 6.87136Z" stroke="#6C6C6C" stroke-width="0.45"/>
<path d="M20.3635 7.09869C20.3635 10.3213 17.4579 12.9724 13.8235 12.9724C10.1891 12.9724 7.28359 10.3213 7.28359 7.09869C7.28359 3.87612 10.1891 1.225 13.8235 1.225C17.4579 1.225 20.3635 3.87612 20.3635 7.09869Z" stroke="#6C6C6C" stroke-width="0.45"/>
<path d="M26.1719 7.08445C21.9766 11.5757 11.0688 17.8635 1.00002 7.08444" stroke="#6C6C6C" stroke-width="0.45" stroke-linecap="round"/>
<path d="M1 7.0845C5.19531 2.59322 16.1031 -3.69458 26.1719 7.0845" stroke="#6C6C6C" stroke-width="0.45" stroke-linecap="round"/>
</svg>
