<svg width="20" height="21" viewBox="0 0 20 21" fill="none" xmlns="http://www.w3.org/2000/svg">
<g clip-path="url(#clip0)">
<path d="M19.8485 6.95051C19.5617 3.79338 17.327 1.50282 14.5304 1.50282C12.6673 1.50282 10.9614 2.50544 10.0015 4.11235C9.05024 2.48465 7.41423 1.50244 5.58095 1.50244C2.78473 1.50244 0.54972 3.793 0.263258 6.95014C0.240583 7.08959 0.147615 7.82351 0.430298 9.02037C0.837694 10.7467 1.77871 12.317 3.15093 13.5603L9.99692 19.7729L16.9604 13.5607C18.3327 12.317 19.2737 10.7471 19.6811 9.02037C19.9638 7.82388 19.8708 7.08997 19.8485 6.95051ZM18.9453 8.84729C18.5734 10.424 17.7114 11.8604 16.4548 12.9987L10.0015 18.7563L3.65885 13.0002C2.40001 11.8597 1.53835 10.4236 1.16611 8.84691C0.898539 7.71429 1.00851 7.07447 1.00889 7.07031L1.01456 7.03214C1.26021 4.26616 3.18041 2.25828 5.58095 2.25828C7.35225 2.25828 8.91154 3.34668 9.65151 5.09834L9.99957 5.92333L10.3476 5.09834C11.0759 3.37352 12.7176 2.25866 14.5308 2.25866C16.931 2.25866 18.8516 4.26654 19.1021 7.06842C19.1029 7.07447 19.2128 7.71466 18.9453 8.84729Z" fill="#EB5757"/>
</g>
<defs>
<clipPath id="clip0">
<rect width="19.6506" height="19.6506" fill="white" transform="translate(0.230469 0.812256)"/>
</clipPath>
</defs>
</svg>
