<svg width="20" height="21" viewBox="0 0 20 21" fill="none" xmlns="http://www.w3.org/2000/svg">
<g clip-path="url(#clip0)">
<path d="M4.5003 20.2883C4.45207 20.2883 4.40324 20.2764 4.35917 20.2526C4.26271 20.2007 4.20256 20.0995 4.20256 19.9905V15.7484C1.59618 14.3931 0.164062 12.0201 0.164062 9.04693C0.164062 4.45226 4.38776 0.987793 9.98937 0.987793C15.591 0.987793 19.8147 4.45226 19.8147 9.04693C19.8147 13.641 15.591 17.1055 9.98937 17.1055C9.80537 17.1055 9.62494 17.0953 9.44392 17.0858L9.43201 17.0852L4.66406 20.2389C4.61463 20.2716 4.55747 20.2883 4.5003 20.2883ZM9.98937 1.58327C4.72777 1.58327 0.759536 4.79227 0.759536 9.04693C0.759536 11.0257 1.43123 13.7166 4.6319 15.2988C4.73313 15.3488 4.79744 15.4524 4.79744 15.5656V19.4367L9.18548 16.5344C9.23908 16.4987 9.30398 16.4778 9.36532 16.4856L9.47608 16.4915C9.64638 16.5011 9.81609 16.51 9.98878 16.51C15.2504 16.51 19.2186 13.3016 19.2186 9.04693C19.2186 4.79227 15.251 1.58327 9.98937 1.58327Z" fill="#6C6C6C"/>
</g>
<defs>
<clipPath id="clip0">
<rect width="19.6506" height="19.6506" fill="white" transform="translate(0.164062 0.812256)"/>
</clipPath>
</defs>
</svg>
