<svg width="14" height="15" viewBox="0 0 14 15" fill="none" xmlns="http://www.w3.org/2000/svg">
<path d="M6.75196 8.04359C6.76777 8.04359 6.78358 8.04359 6.80254 8.04359C6.80887 8.04359 6.81519 8.04359 6.82151 8.04359C6.831 8.04359 6.84364 8.04359 6.85313 8.04359C7.77941 8.0291 8.52865 7.73048 9.08189 7.15935C10.299 5.90112 10.0967 3.74415 10.0746 3.53831C9.99553 1.99306 9.19886 1.25378 8.5413 0.90878C8.05129 0.650756 7.47908 0.511597 6.84048 0.5H6.81835C6.81519 0.5 6.80887 0.5 6.8057 0.5H6.78674C6.43582 0.5 5.74665 0.552185 5.08592 0.897184C4.42203 1.24218 3.61272 1.98147 3.53368 3.53831C3.51155 3.74415 3.30923 5.90112 4.52636 7.15935C5.07643 7.73048 5.82568 8.0291 6.75196 8.04359ZM4.37777 3.61079C4.37777 3.60209 4.38093 3.59339 4.38093 3.5876C4.48526 1.5089 6.0944 1.28567 6.78358 1.28567H6.79622C6.80254 1.28567 6.81203 1.28567 6.82151 1.28567C7.67508 1.30306 9.12615 1.62197 9.22415 3.5876C9.22415 3.59629 9.22416 3.60499 9.22732 3.61079C9.23048 3.63108 9.45177 5.60251 8.44646 6.6404C8.04812 7.05208 7.51701 7.25502 6.81835 7.26082C6.81203 7.26082 6.80887 7.26082 6.80254 7.26082C6.79622 7.26082 6.79306 7.26082 6.78674 7.26082C6.09123 7.25502 5.55696 7.05208 5.16179 6.6404C4.15964 5.6083 4.37461 3.62818 4.37777 3.61079Z" fill="#A5A5A5"/>
<path d="M13.301 11.6214C13.301 11.6185 13.301 11.6156 13.301 11.6127C13.301 11.5895 13.2979 11.5663 13.2979 11.5402C13.2789 10.9662 13.2378 9.62386 11.8658 9.19479C11.8563 9.19189 11.8436 9.18899 11.8341 9.18609C10.4084 8.85269 9.22286 8.09891 9.21021 8.09021C9.01737 7.96555 8.75181 8.00904 8.61587 8.18588C8.47993 8.36273 8.52735 8.60626 8.7202 8.73092C8.77394 8.76571 10.0322 9.56878 11.6065 9.93987C12.3431 10.1805 12.4253 10.9024 12.4475 11.5634C12.4475 11.5895 12.4475 11.6127 12.4506 11.6359C12.4538 11.8968 12.4348 12.2998 12.3842 12.5317C11.8721 12.7984 9.86461 13.7204 6.81073 13.7204C3.76949 13.7204 1.74937 12.7955 1.23406 12.5288C1.18348 12.2969 1.16135 11.8939 1.16768 11.633C1.16768 11.6098 1.17084 11.5866 1.17084 11.5605C1.19297 10.8995 1.27516 10.1776 2.01176 9.93697C3.58613 9.56588 4.84435 8.75992 4.8981 8.72802C5.09094 8.60336 5.13836 8.35983 5.00242 8.18298C4.86648 8.00614 4.60093 7.96265 4.40808 8.08731C4.39544 8.09601 3.21625 8.84979 1.78414 9.18319C1.7715 9.18609 1.76201 9.18899 1.75253 9.19189C0.380494 9.62386 0.339396 10.9662 0.320428 11.5373C0.320428 11.5634 0.320428 11.5866 0.317267 11.6098C0.317267 11.6127 0.317267 11.6156 0.317267 11.6185C0.314105 11.7692 0.310944 12.5433 0.478497 12.9318C0.510111 13.0072 0.567015 13.071 0.642888 13.1144C0.737729 13.1724 3.01076 14.5002 6.81389 14.5002C10.617 14.5002 12.89 13.1695 12.9849 13.1144C13.0576 13.071 13.1177 13.0072 13.1493 12.9318C13.3074 12.5462 13.3042 11.7721 13.301 11.6214Z" fill="#A5A5A5"/>
</svg>
