<svg width="17" height="6" viewBox="0 0 17 6" fill="none" xmlns="http://www.w3.org/2000/svg">
<path d="M16 2.375C16.2066 2.36122 16.3742 2.18216 16.3742 1.97506C16.3742 1.76795 16.2066 1.61122 16 1.625L16 2.375ZM0.735422 2.75247C0.5893 2.90866 0.5893 3.1461 0.735422 3.2828L3.11662 5.51054C3.26274 5.64725 3.49966 5.63145 3.64578 5.47527C3.7919 5.31908 3.7919 5.08164 3.64578 4.94494L1.52916 2.96472L3.64578 0.702295C3.7919 0.546106 3.7919 0.30867 3.64578 0.171964C3.49966 0.0352591 3.26274 0.0510532 3.11662 0.207241L0.735422 2.75247ZM16 1.625L1 2.625L1 3.375L16 2.375L16 1.625Z" fill="#9EACBB"/>
</svg>
