<svg width="27" height="26" viewBox="0 0 27 26" fill="none" xmlns="http://www.w3.org/2000/svg">
<g clip-path="url(#clip0)">
<path d="M16.0105 6.06151C15.8141 6.06151 15.6406 5.92521 15.6071 5.73218C15.5703 5.51708 15.7208 5.31539 15.9434 5.27915L24.792 3.85702C25.0154 3.82315 25.2256 3.96575 25.2633 4.18084C25.3001 4.39515 25.1496 4.59763 24.927 4.63387L16.0784 6.05599C16.0563 6.05993 16.0334 6.06151 16.0105 6.06151Z" fill="#353535"/>
<path d="M2.13937 8.29049C1.94301 8.29049 1.76956 8.15419 1.73601 7.96116C1.69919 7.74685 1.84974 7.54437 2.07228 7.50813L10.9896 6.07497C11.2155 6.03637 11.4233 6.18449 11.4609 6.39879C11.4977 6.6131 11.3472 6.81558 11.1246 6.85182L2.20728 8.28497C2.18437 8.28891 2.16228 8.29049 2.13937 8.29049Z" fill="#353535"/>
<path d="M21.9565 18.3618C19.1763 18.3618 16.9141 16.1825 16.9141 13.5053C16.9141 13.2878 17.0973 13.1113 17.3232 13.1113H26.5907C26.8165 13.1113 26.9998 13.2878 26.9998 13.5053C26.9998 16.1833 24.7375 18.3618 21.9565 18.3618ZM17.7519 13.8992C17.9581 15.9587 19.7654 17.5739 21.9565 17.5739C24.1484 17.5739 25.955 15.9587 26.162 13.8992H17.7519Z" fill="#353535"/>
<path d="M17.3228 13.8991C17.2589 13.8991 17.1943 13.8842 17.1338 13.8542C16.9333 13.7534 16.8564 13.5154 16.9603 13.3224L21.5937 4.77313C21.7352 4.51312 22.1779 4.51312 22.3194 4.77313L26.9536 13.3224C27.0575 13.5154 26.9806 13.7534 26.7801 13.8542C26.5805 13.9543 26.3326 13.8794 26.2279 13.6872L21.9569 5.80761L17.686 13.6872C17.6124 13.8219 17.47 13.8991 17.3228 13.8991Z" fill="#353535"/>
<path d="M5.04327 20.9106C2.26227 20.9106 0 18.7313 0 16.0541C0 15.8366 0.183273 15.6602 0.409091 15.6602H9.67664C9.90245 15.6602 10.0857 15.8366 10.0857 16.0541C10.0857 18.7313 7.82345 20.9106 5.04327 20.9106ZM0.837818 16.448C1.044 18.5076 2.85136 20.1227 5.04327 20.1227C7.23436 20.1227 9.04173 18.5076 9.24791 16.448H0.837818Z" fill="#353535"/>
<path d="M9.67706 16.448C9.52979 16.448 9.38743 16.3707 9.31379 16.236L5.04288 8.35644L0.771972 16.236C0.667245 16.429 0.420154 16.5023 0.2197 16.403C0.0192451 16.3022 -0.0576639 16.0643 0.0462451 15.8712L4.68043 7.32195C4.82197 7.06195 5.26461 7.06195 5.40615 7.32195L10.0395 15.8712C10.1434 16.0643 10.0665 16.3022 9.86606 16.403C9.80552 16.433 9.74088 16.448 9.67706 16.448Z" fill="#353535"/>
<path d="M13.4991 8.86768C11.8971 8.86768 10.5938 7.61259 10.5938 6.06992C10.5938 4.52804 11.8971 3.27295 13.4991 3.27295C15.1011 3.27295 16.4045 4.52804 16.4045 6.06992C16.4045 7.61337 15.1011 8.86768 13.4991 8.86768ZM13.4991 4.06162C12.3479 4.06162 11.4119 4.96295 11.4119 6.07071C11.4119 7.17846 12.3479 8.08058 13.4991 8.08058C14.6503 8.08058 15.5863 7.17846 15.5863 6.07071C15.5863 4.96295 14.6503 4.06162 13.4991 4.06162Z" fill="#353535"/>
<path d="M13.4989 23.6832C13.2731 23.6832 13.0898 23.5067 13.0898 23.2893V8.47402C13.0898 8.25656 13.2731 8.08008 13.4989 8.08008C13.7248 8.08008 13.908 8.25656 13.908 8.47402V23.2893C13.908 23.5067 13.7248 23.6832 13.4989 23.6832Z" fill="#353535"/>
<path d="M13.4989 4.06175C13.2731 4.06175 13.0898 3.88526 13.0898 3.66781V2.71132C13.0898 2.49387 13.2731 2.31738 13.4989 2.31738C13.7248 2.31738 13.908 2.49387 13.908 2.71132V3.66781C13.908 3.88526 13.7248 4.06175 13.4989 4.06175Z" fill="#353535"/>
<path d="M18.8979 23.6829H8.1044C7.87859 23.6829 7.69531 23.5064 7.69531 23.289C7.69531 23.0715 7.87859 22.895 8.1044 22.895H18.8979C19.1237 22.895 19.3069 23.0715 19.3069 23.289C19.3069 23.5064 19.1245 23.6829 18.8979 23.6829Z" fill="#353535"/>
</g>
<defs>
<clipPath id="clip0">
<rect width="27" height="26" fill="white"/>
</clipPath>
</defs>
</svg>
