<svg width="331" height="253" viewBox="0 0 331 253" fill="none" xmlns="http://www.w3.org/2000/svg">
<g opacity="0.7">
<g clip-path="url(#clip0)">
<path d="M332.651 128.495C325.165 133.221 316.307 134.918 307.543 135.181C298.778 135.443 289.558 134.056 282.397 128.833C265.928 116.818 266.558 95.1381 261.12 77.5474C258.155 67.8873 248.339 66.7582 239.663 65.5259C230.988 64.2936 221.995 63.4422 213.365 61.2721C205.14 59.1847 195.688 55.4752 190.466 48.4079C185.085 41.1829 187.056 31.5136 190.793 24.0674C192.715 20.4769 194.909 17.0387 197.356 13.783C217.254 -7.91416 246.05 -20.5495 275.442 -21.5871C291.929 -22.1752 308.954 -19.008 323.699 -11.4746C340.625 -2.81777 352.356 13.1122 357.909 31.0759C363.102 47.9203 362.671 66.1383 359.189 83.2883C355.708 100.438 348.016 118.798 332.651 128.495Z" fill="url(#paint0_linear)"/>
<path d="M282.233 47.897C272.256 46.978 261.512 41.19 254.675 29.9937C253.151 27.4086 251.872 24.686 250.857 21.8618C249.928 18.994 248.57 16.2828 246.832 13.8197C242.795 8.70159 237.362 9.91228 233.007 10.8134C211.719 15.2477 192.688 32.8938 168.94 26.4472C159.48 23.8807 149.722 16.5176 144.067 5.49586C138.12 -6.05082 139.468 -18.4275 142.844 -28.6949C144.595 -34.0888 146.818 -39.1212 149.008 -44.1615C151.45 -49.7366 153.883 -55.2398 156.631 -60.5656C159.2 -65.704 162.165 -70.6349 165.498 -75.3138C168.635 -79.4752 172.187 -83.3068 176.1 -86.7494C179.087 -89.4956 182.283 -92.6732 183.397 -97.4433C184.775 -103.339 182.222 -109.052 179.796 -114.806C178.608 -117.635 177.459 -120.628 177.454 -123.651C177.459 -125.987 178.094 -128.278 179.291 -130.283C181.851 -134.592 185.875 -136.677 190.078 -138.018C194.694 -139.486 199.484 -140.422 203.685 -142.959C203.88 -142.896 204.089 -142.887 204.289 -142.933C204.488 -142.979 204.672 -143.078 204.82 -143.22C213.68 -150.97 223.348 -157.744 233.658 -163.424C238.71 -166.195 243.911 -168.686 249.237 -170.885C253.404 -172.609 257.716 -174.517 262.416 -174.385C266.912 -174.255 271.37 -171.505 273.462 -165.621C275.703 -159.218 274.916 -152.364 273.957 -146.437C271.892 -133.591 267.881 -121.82 264.654 -109.634C262.939 -103.563 261.628 -97.3857 260.729 -91.1419C259.781 -84.559 260.931 -77.8447 264.016 -71.9527C269.561 -61.2838 278.17 -52.5364 286.092 -44.8102C294.014 -37.084 302.266 -29.85 309.741 -21.3212C316.984 -13.0584 324.259 -2.60591 326.972 8.9756C328.593 15.9111 327.483 21.6737 324.376 26.4979C321.222 31.2044 317.275 35.3277 312.711 38.684C303.912 45.0957 293.283 48.9006 282.233 47.897Z" fill="url(#paint1_linear)"/>
<path style="mix-blend-mode:color-dodge" d="M444.939 -57.8834C446.283 -35.4441 434.219 -23.6231 416.853 -13.3592C401.993 -4.58024 383.599 1.52006 373.915 15.5308C364.231 29.5416 361.806 45.3165 346.94 53.7733C326.971 65.1435 308.133 55.0656 299.037 39.3121C286.425 17.457 297.366 -4.55767 316.233 -14.6993C331.785 -23.0812 348.387 -31.0904 357.083 -53.3243C363.546 -69.81 356.544 -90.8181 373.217 -102.11C392.136 -114.898 442.452 -99.3757 444.939 -57.8834Z" fill="url(#paint2_linear)"/>
<path style="mix-blend-mode:color-dodge" d="M313.674 93.788C291.324 96.1339 278.967 84.6134 267.941 67.7207C258.501 53.2671 251.593 35.1611 237.168 26.1231C222.742 17.0851 206.873 15.3399 197.724 0.83286C185.477 -18.6083 194.699 -37.8826 210.035 -47.6668C231.306 -61.2428 253.757 -51.2825 264.753 -32.8993C273.853 -17.6911 282.556 -1.50077 305.186 6.21309C321.946 11.9321 342.619 4.00212 354.608 20.1861C368.276 38.4845 355.027 89.4484 313.674 93.788Z" fill="url(#paint3_linear)"/>
<path d="M272.515 79.965C267.162 74.2288 258.275 73.8218 252.666 79.0561C247.058 84.2904 246.85 93.1837 252.204 98.92C257.557 104.656 266.443 105.063 272.052 99.8289C277.661 94.5946 277.868 85.7013 272.515 79.965Z" fill="url(#paint4_linear)"/>
<path d="M322.515 143.034C318.921 139.183 312.956 138.909 309.19 142.423C305.425 145.937 305.286 151.908 308.879 155.759C312.473 159.61 318.439 159.883 322.205 156.369C325.97 152.855 326.109 146.885 322.515 143.034Z" fill="url(#paint5_linear)"/>
<path d="M210.736 71.075C204.268 75.1995 202.443 83.9062 206.661 90.522C210.88 97.1377 219.543 99.1573 226.012 95.0328C232.481 90.9083 234.305 82.2016 230.087 75.5858C225.869 68.9701 217.205 66.9505 210.736 71.075Z" fill="url(#paint6_linear)"/>
<path d="M197.349 62.7387C195.157 64.3551 194.691 67.4419 196.307 69.6334C197.924 71.8248 201.011 72.291 203.202 70.6746C205.393 69.0583 205.86 65.9714 204.243 63.78C202.627 61.5885 199.54 61.1223 197.349 62.7387Z" fill="url(#paint7_linear)"/>
</g>
</g>
<defs>
<linearGradient id="paint0_linear" x1="218.113" y1="-11.6462" x2="357.23" y2="102.131" gradientUnits="userSpaceOnUse">
<stop stop-color="#7FDFFD"/>
<stop offset="0.39" stop-color="#72C4FC"/>
<stop offset="0.74" stop-color="#6AB3FB"/>
<stop offset="1" stop-color="#67ADFB"/>
</linearGradient>
<linearGradient id="paint1_linear" x1="57091.3" y1="-186207" x2="73722.3" y2="-137518" gradientUnits="userSpaceOnUse">
<stop stop-color="#7FDFFD"/>
<stop offset="0.39" stop-color="#72C4FC"/>
<stop offset="0.74" stop-color="#6AB3FB"/>
<stop offset="1" stop-color="#67ADFB"/>
</linearGradient>
<linearGradient id="paint2_linear" x1="407.048" y1="-1.93657" x2="309.694" y2="-50.2727" gradientUnits="userSpaceOnUse">
<stop/>
<stop offset="0.23" stop-color="#050505"/>
<stop offset="0.48" stop-color="#131313"/>
<stop offset="0.76" stop-color="#292929"/>
<stop offset="1" stop-color="#444444"/>
</linearGradient>
<linearGradient id="paint3_linear" x1="-154595" y1="-148651" x2="-146770" y2="-159360" gradientUnits="userSpaceOnUse">
<stop/>
<stop offset="0.23" stop-color="#050505"/>
<stop offset="0.48" stop-color="#131313"/>
<stop offset="0.76" stop-color="#292929"/>
<stop offset="1" stop-color="#444444"/>
</linearGradient>
<linearGradient id="paint4_linear" x1="-11551.7" y1="-4937.03" x2="-12173.2" y2="-4357.01" gradientUnits="userSpaceOnUse">
<stop stop-color="#7FDFFD"/>
<stop offset="0.39" stop-color="#72C4FC"/>
<stop offset="0.74" stop-color="#6AB3FB"/>
<stop offset="1" stop-color="#67ADFB"/>
</linearGradient>
<linearGradient id="paint5_linear" x1="-7615.66" y1="-3225.11" x2="-8032.92" y2="-2835.72" gradientUnits="userSpaceOnUse">
<stop stop-color="#7FDFFD"/>
<stop offset="0.39" stop-color="#72C4FC"/>
<stop offset="0.74" stop-color="#6AB3FB"/>
<stop offset="1" stop-color="#67ADFB"/>
</linearGradient>
<linearGradient id="paint6_linear" x1="-2883.62" y1="11931.5" x2="-2182.74" y2="11484.6" gradientUnits="userSpaceOnUse">
<stop stop-color="#7FDFFD"/>
<stop offset="0.39" stop-color="#72C4FC"/>
<stop offset="0.74" stop-color="#6AB3FB"/>
<stop offset="1" stop-color="#67ADFB"/>
</linearGradient>
<linearGradient id="paint7_linear" x1="1849.72" y1="-4087.58" x2="1765.44" y2="-4025.41" gradientUnits="userSpaceOnUse">
<stop stop-color="#7FDFFD"/>
<stop offset="0.39" stop-color="#72C4FC"/>
<stop offset="0.74" stop-color="#6AB3FB"/>
<stop offset="1" stop-color="#67ADFB"/>
</linearGradient>
<clipPath id="clip0">
<rect width="357.692" height="315.713" fill="white" transform="translate(253.953 242.055) rotate(-132.592)"/>
</clipPath>
</defs>
</svg>
