<svg width="132" height="254" viewBox="0 0 132 254" fill="none" xmlns="http://www.w3.org/2000/svg">
<g clip-path="url(#clip0)">
<path d="M-3.07621 30.7744C5.6335 32.3622 13.3032 37.107 19.933 42.8454C26.5628 48.5838 32.4126 55.845 34.149 64.5361C38.1417 84.5276 23.0065 100.062 15.1046 116.692C10.7498 125.811 17.2124 133.285 22.7651 140.064C28.3177 146.842 34.3625 153.555 39.2467 160.993C43.8894 168.096 48.3371 177.224 47.3992 185.961C46.4707 194.922 38.476 200.707 30.6855 203.659C26.8402 205.002 22.8979 206.048 18.8931 206.789C-10.4395 209.296 -40.19 199.11 -62.5307 179.982C-75.066 169.257 -85.4563 155.403 -91.2133 139.878C-97.8152 122.05 -95.6703 102.383 -87.6012 85.4004C-80.0244 69.4852 -67.3776 56.365 -53.2081 46.0953C-39.0386 35.8256 -20.9506 27.5152 -3.07621 30.7744Z" fill="url(#paint0_linear)"/>
<path opacity="0.57" d="M-62.9196 147.446C-68.5466 142.413 -72.0101 135.551 -74.285 128.457C-76.5599 121.363 -77.572 113.452 -74.9628 106.367C-68.9644 90.0618 -51.0807 85.4841 -37.914 76.9323C-30.69 72.2896 -32.0549 63.9327 -33.0763 56.5044C-34.0977 49.0761 -35.4998 41.5363 -35.7413 33.9594C-35.9734 26.7261 -35.1284 18.1185 -30.56 12.1852C-25.9173 6.10322 -17.514 5.44395 -10.5035 6.78105C-7.10647 7.4998 -3.76945 8.47763 -0.521717 9.70595C21.9118 20.9413 39.0062 41.5735 46.7317 65.4184C51.0401 78.7987 52.4051 93.5067 49.703 107.342C46.5739 123.239 36.2578 136.582 22.8404 145.338C10.2308 153.555 -4.77444 157.502 -19.6682 158.625C-34.562 159.749 -51.3779 157.78 -62.9196 147.446Z" fill="url(#paint1_linear)"/>
<path opacity="0.57" d="M29.6967 216.883C35.9014 212.583 43.3812 210.813 50.81 210.252C58.2388 209.692 66.1681 210.55 72.4505 214.737C86.9105 224.368 87.1976 242.826 92.4481 257.622C95.2809 265.729 103.726 266.348 111.188 267.084C118.65 267.821 126.309 268.213 133.734 269.743C140.822 271.201 148.996 274.028 153.703 279.852C158.536 285.784 157.22 294.109 154.287 300.616C152.797 303.752 151.069 306.77 149.118 309.642C132.968 328.842 108.922 340.662 83.9334 342.622C69.9177 343.696 55.2961 341.598 42.4705 335.749C27.7397 329.004 17.1658 315.864 11.775 300.776C6.71981 286.6 6.37638 271.088 8.75216 256.342C11.128 241.596 16.9584 225.701 29.6967 216.883Z" fill="url(#paint2_linear)"/>
<path d="M19.2782 182.569C26.0008 189.997 29.9935 201.53 27.4493 214.399C26.8222 217.334 25.9207 220.204 24.7565 222.97C23.5002 225.71 22.6644 228.625 22.2773 231.615C21.7852 238.114 26.6043 240.9 30.4206 243.184C49.0936 254.327 75.0463 254.215 88.1666 275.033C93.3943 283.325 95.5949 295.35 92.2986 307.291C88.863 319.817 79.494 328.016 70.06 333.29C65.1202 336.075 60.0782 338.276 55.0548 340.505C49.4836 342.956 43.968 345.361 38.3411 347.422C32.9721 349.466 27.4523 351.09 21.8316 352.278C16.706 353.219 11.4979 353.636 6.28786 353.523C2.23014 353.523 -2.27327 353.699 -6.32171 356.457C-11.3265 359.865 -13.3136 365.798 -15.4214 371.676C-16.4614 374.563 -17.6406 377.544 -19.6834 379.773C-21.2679 381.488 -23.2855 382.746 -25.5239 383.412C-30.3245 384.852 -34.6979 383.663 -38.6999 381.806C-43.0919 379.763 -47.2518 377.21 -52.0616 376.235C-52.1624 376.056 -52.3098 375.908 -52.488 375.807C-52.6663 375.706 -52.8687 375.654 -53.0737 375.659C-64.8412 375.368 -76.5433 373.812 -87.9776 371.016C-93.5723 369.637 -99.0869 367.951 -104.496 365.965C-108.73 364.414 -113.197 362.901 -116.567 359.623C-119.789 356.485 -121.21 351.443 -118.768 345.695C-116.084 339.465 -110.866 334.952 -106.149 331.238C-95.9352 323.178 -85.0155 317.226 -74.393 310.438C-69.0218 307.13 -63.8757 303.47 -58.9885 299.482C-53.8355 295.277 -50.1381 289.556 -48.4217 283.13C-45.2833 271.523 -45.7011 259.257 -46.3047 248.208C-46.9082 237.158 -48.0875 226.248 -47.8182 214.91C-47.5582 203.926 -45.8404 191.307 -39.9999 180.944C-36.4993 174.741 -31.7823 171.25 -26.2296 169.802C-20.7228 168.471 -15.0267 168.107 -9.39516 168.725C1.42233 169.96 11.822 174.352 19.2782 182.569Z" fill="url(#paint3_linear)"/>
<path style="mix-blend-mode:color-dodge" d="M-152.877 42.2234C-138.679 24.7947 -121.798 24.2561 -102.067 28.4531C-85.186 32.0466 -67.5159 40.0042 -50.9043 36.2436C-34.2927 32.483 -21.8317 22.5105 -5.1644 26.3454C17.232 31.4895 24.2796 51.6574 20.3148 69.4111C14.8085 94.0359 -8.14501 102.838 -28.8979 97.5365C-46.0202 93.1817 -63.6625 87.8426 -85.1117 98.3258C-101.027 106.088 -110.089 126.293 -130.007 123.322C-152.589 119.933 -179.126 74.453 -152.877 42.2234Z" fill="url(#paint4_linear)"/>
<path style="mix-blend-mode:color-dodge" d="M-12.5936 69.1695C5.44794 82.5684 6.7479 99.4121 3.43301 119.311C0.600958 136.34 -6.56738 154.345 -2.06396 170.761C2.43946 187.178 12.9413 199.202 9.8585 216.074C5.71721 238.675 -14.1164 246.623 -32.028 243.447C-56.8757 239.046 -66.6625 216.52 -62.3169 195.544C-58.7235 178.189 -54.1736 160.38 -65.6133 139.386C-74.0815 123.833 -94.6673 115.68 -92.5409 95.6515C-90.2196 72.9301 -45.9746 44.3775 -12.5936 69.1695Z" fill="url(#paint5_linear)"/>
<path style="mix-blend-mode:color-dodge" d="M4.21387 125.578C22.5247 155.932 13.1186 179.917 -5.34081 205.052C-21.126 226.557 -44.1724 246.539 -48.4344 272.074C-52.6964 297.609 -44.8688 321.073 -60.9418 342.179C-82.484 370.481 -117.936 368.243 -142.969 352.022C-177.687 329.523 -177.325 292.084 -156.563 266.169C-139.394 244.72 -120.461 223.27 -123.618 186.862C-125.958 159.934 -151.679 135.059 -134.993 108.939C-116.069 79.3093 -29.6593 69.4296 4.21387 125.578Z" fill="url(#paint6_linear)"/>
<path d="M42.1067 104.849C42.1656 112.695 48.4324 119.009 56.1039 118.951C63.7755 118.894 69.9468 112.486 69.8879 104.641C69.829 96.7947 63.5622 90.481 55.8907 90.5386C48.2191 90.5961 42.0478 97.0032 42.1067 104.849Z" fill="url(#paint7_linear)"/>
<path d="M33.6776 170.839C41.2312 172.18 48.4667 167.005 49.8386 159.28C51.2105 151.555 46.1993 144.205 38.6457 142.863C31.0921 141.522 23.8566 146.697 22.4847 154.422C21.1128 162.147 26.124 169.497 33.6776 170.839Z" fill="url(#paint8_linear)"/>
<path d="M20.3077 268.124C25.4483 269.037 30.3725 265.515 31.3061 260.258C32.2398 255 28.8294 249.998 23.6888 249.085C18.5481 248.173 13.624 251.694 12.6903 256.952C11.7567 262.209 15.1671 267.211 20.3077 268.124Z" fill="url(#paint9_linear)"/>
<path d="M69.9028 200.767C72.6101 201.06 75.0424 199.103 75.3355 196.396C75.6287 193.689 73.6716 191.256 70.9644 190.963C68.2572 190.67 65.8249 192.627 65.5317 195.334C65.2386 198.042 67.1956 200.474 69.9028 200.767Z" fill="url(#paint10_linear)"/>
</g>
<defs>
<linearGradient id="paint0_linear" x1="-13.5975" y1="211.462" x2="-39.0133" y2="33.5491" gradientUnits="userSpaceOnUse">
<stop stop-color="#7FDFFD"/>
<stop offset="0.39" stop-color="#72C4FC"/>
<stop offset="0.74" stop-color="#6AB3FB"/>
<stop offset="1" stop-color="#67ADFB"/>
</linearGradient>
<linearGradient id="paint1_linear" x1="-37861.3" y1="-33147.4" x2="-47845.3" y2="-10020.5" gradientUnits="userSpaceOnUse">
<stop stop-color="#7FDFFD"/>
<stop offset="0.39" stop-color="#72C4FC"/>
<stop offset="0.74" stop-color="#6AB3FB"/>
<stop offset="1" stop-color="#67ADFB"/>
</linearGradient>
<linearGradient id="paint2_linear" x1="41211.5" y1="-28788.7" x2="21045.5" y2="-43883.9" gradientUnits="userSpaceOnUse">
<stop stop-color="#7FDFFD"/>
<stop offset="0.39" stop-color="#72C4FC"/>
<stop offset="0.74" stop-color="#6AB3FB"/>
<stop offset="1" stop-color="#67ADFB"/>
</linearGradient>
<linearGradient id="paint3_linear" x1="-167855" y1="98855.3" x2="-147147" y2="51755.3" gradientUnits="userSpaceOnUse">
<stop offset="0.038674" stop-color="#7FDFFD"/>
<stop offset="0.430939" stop-color="#72C4FC"/>
<stop offset="0.839779" stop-color="#61FFFF"/>
<stop offset="1" stop-color="#AEE9FC"/>
</linearGradient>
<linearGradient id="paint4_linear" x1="-87.1184" y1="26.6792" x2="-48.1592" y2="128.151" gradientUnits="userSpaceOnUse">
<stop/>
<stop offset="0.23" stop-color="#050505"/>
<stop offset="0.48" stop-color="#131313"/>
<stop offset="0.76" stop-color="#292929"/>
<stop offset="1" stop-color="#444444"/>
</linearGradient>
<linearGradient id="paint5_linear" x1="13364.2" y1="214412" x2="356.136" y2="217000" gradientUnits="userSpaceOnUse">
<stop/>
<stop offset="0.23" stop-color="#050505"/>
<stop offset="0.48" stop-color="#131313"/>
<stop offset="0.76" stop-color="#292929"/>
<stop offset="1" stop-color="#444444"/>
</linearGradient>
<linearGradient id="paint6_linear" x1="-108554" y1="294178" x2="-146947" y2="287271" gradientUnits="userSpaceOnUse">
<stop/>
<stop offset="0.23" stop-color="#050505"/>
<stop offset="0.48" stop-color="#131313"/>
<stop offset="0.76" stop-color="#292929"/>
<stop offset="1" stop-color="#444444"/>
</linearGradient>
<linearGradient id="paint7_linear" x1="5351.68" y1="11800.6" x2="6201.78" y2="11794.2" gradientUnits="userSpaceOnUse">
<stop stop-color="#7FDFFD"/>
<stop offset="0.39" stop-color="#72C4FC"/>
<stop offset="0.74" stop-color="#6AB3FB"/>
<stop offset="1" stop-color="#67ADFB"/>
</linearGradient>
<linearGradient id="paint8_linear" x1="10338.5" y1="-6466.56" x2="9520.08" y2="-6611.9" gradientUnits="userSpaceOnUse">
<stop stop-color="#7FDFFD"/>
<stop offset="0.39" stop-color="#72C4FC"/>
<stop offset="0.74" stop-color="#6AB3FB"/>
<stop offset="1" stop-color="#67ADFB"/>
</linearGradient>
<linearGradient id="paint9_linear" x1="7033.29" y1="-4248.97" x2="6476.31" y2="-4347.88" gradientUnits="userSpaceOnUse">
<stop stop-color="#7FDFFD"/>
<stop offset="0.39" stop-color="#72C4FC"/>
<stop offset="0.74" stop-color="#6AB3FB"/>
<stop offset="1" stop-color="#67ADFB"/>
</linearGradient>
<linearGradient id="paint10_linear" x1="-3955.38" y1="2137.93" x2="-3851.26" y2="2149.2" gradientUnits="userSpaceOnUse">
<stop stop-color="#7FDFFD"/>
<stop offset="0.39" stop-color="#72C4FC"/>
<stop offset="0.74" stop-color="#6AB3FB"/>
<stop offset="1" stop-color="#67ADFB"/>
</linearGradient>
<clipPath id="clip0">
<rect width="357.692" height="315.713" fill="white" transform="translate(131.715 0.433472) rotate(90)"/>
</clipPath>
</defs>
</svg>
