<svg width="928" height="932" viewBox="0 0 928 932" fill="none" xmlns="http://www.w3.org/2000/svg">
<mask id="mask0" mask-type="alpha" maskUnits="userSpaceOnUse" x="203" y="262" width="526" height="408">
<rect x="203.488" y="262.485" width="525" height="407" rx="30" fill="#4B9EFF" fill-opacity="0.7"/>
</mask>
<g mask="url(#mask0)">
<g opacity="0.8">
<path d="M490.953 761.173C483.107 749.782 479.838 736.016 478.793 722.29C477.747 708.564 479.216 694 486.763 682.383C504.122 655.664 537.659 655.044 564.437 645.212C579.143 639.846 580.171 624.367 581.441 610.67C582.712 596.973 583.37 582.805 586.093 569.11C588.717 556.056 593.758 540.957 604.294 532.242C615.063 523.268 630.144 525.642 641.92 530.951C647.607 533.7 653.078 536.887 658.287 540.483C693.258 570.082 714.879 614.307 718.628 660.327C720.74 686.14 717.09 713.076 706.529 736.76C694.391 763.947 670.638 783.525 643.293 793.566C617.65 802.958 589.475 803.632 562.727 799.444C535.98 795.255 507.056 784.552 490.953 761.173Z" fill="url(#paint0_linear)"/>
<path opacity="0.57" d="M683.656 697.066C684.367 708.897 680.709 720.38 675.492 730.809C670.275 741.238 662.781 751.185 652.206 756.209C627.874 767.781 603.236 753.138 579.459 748.139C566.467 745.342 558.876 756.176 551.918 765.593C544.96 775.011 538.298 784.974 530.321 793.696C522.707 802.025 512.414 810.697 500.938 812.273C489.218 813.933 479.263 805.388 473.012 796.153C470.06 791.599 467.455 786.822 465.221 781.864C452.784 744.549 456.439 702.645 473.887 667.502C483.707 647.812 498.208 629.89 516.229 617.435C536.962 603.151 562.818 599.654 587.093 604.701C609.893 609.457 630.681 621.625 648.275 636.821C665.869 652.016 682.212 672.785 683.656 697.066Z" fill="url(#paint1_linear)"/>
<path d="M611.779 676.125C612.47 660.41 620.627 643.131 637.425 631.578C641.307 628.996 645.419 626.789 649.708 624.988C654.071 623.317 658.16 620.988 661.838 618.079C669.45 611.369 667.183 602.938 665.473 596.174C657.069 563.116 628.419 534.577 636.644 496.854C639.919 481.827 650.581 465.977 667.195 456.292C684.598 446.108 703.817 447.306 719.924 451.839C728.385 454.186 736.321 457.299 744.267 460.36C753.058 463.778 761.737 467.185 770.165 471.1C778.291 474.748 786.125 479.033 793.596 483.914C800.254 488.525 806.432 493.812 812.036 499.693C816.497 504.174 821.639 508.951 829.089 510.345C838.298 512.069 846.937 507.642 855.648 503.411C859.933 501.337 864.472 499.313 869.141 499.082C872.75 498.917 876.336 499.742 879.521 501.471C886.364 505.167 889.879 511.323 892.257 517.816C894.863 524.946 896.658 532.39 900.884 538.79C900.801 539.101 900.802 539.429 900.888 539.739C900.973 540.049 901.14 540.329 901.37 540.551C913.99 553.871 925.16 568.533 934.687 584.281C939.337 591.999 943.564 599.972 947.35 608.162C950.318 614.569 953.581 621.191 953.72 628.571C953.847 635.632 949.924 642.828 940.987 646.545C931.259 650.534 920.613 649.807 911.388 648.742C891.392 646.456 872.914 641.038 853.853 636.881C844.35 634.64 834.711 633.042 825 632.095C814.761 631.096 804.473 633.397 795.596 638.672C779.519 648.159 766.635 662.309 755.277 675.307C743.92 688.304 733.347 701.782 720.717 714.137C708.481 726.109 692.865 738.294 675.172 743.407C664.576 746.463 655.593 745.15 647.913 740.634C640.412 736.037 633.755 730.152 628.237 723.243C617.689 709.917 611.035 693.53 611.779 676.125Z" fill="url(#paint2_linear)"/>
<path style="mix-blend-mode:color-dodge" d="M668.075 913.844C633.508 917.613 614.366 899.57 597.242 873.094C582.596 850.44 571.829 822.044 549.478 807.894C527.127 793.744 502.58 791.111 488.431 768.423C469.408 737.947 483.601 707.657 507.273 692.223C540.115 670.824 574.923 686.351 591.967 715.188C606.051 738.959 619.636 764.402 654.618 776.393C680.557 785.307 712.5 772.768 731.161 798.081C752.297 826.804 731.992 906.868 668.075 913.844Z" fill="url(#paint3_linear)"/>
<path style="mix-blend-mode:color-dodge" d="M543.184 728.835C537.928 693.957 554.823 673.724 580.114 655.179C601.753 639.302 629.22 627.127 642.129 603.833C655.038 580.538 656.575 555.521 678.318 540.097C707.457 519.449 737.906 532.484 754.14 555.811C776.666 588.165 762.918 624.113 735.322 642.722C712.492 658.12 688.116 672.97 677.852 709.033C670.241 735.743 684 767.577 659.874 787.58C632.604 810.372 552.906 793.37 543.184 728.835Z" fill="url(#paint4_linear)"/>
<path style="mix-blend-mode:color-dodge" d="M586.072 647.324C598.966 593.226 635.398 576.849 683.033 569.186C723.78 562.621 770.852 565.775 803.316 541.986C835.78 518.197 852.702 483.366 893.33 477.565C947.799 469.772 984.335 511.424 994.205 557.175C1007.89 620.627 966.766 662.008 915.75 667.998C873.543 672.973 829.397 675.999 793.26 720.117C766.538 752.751 767.749 808.919 720.992 819.639C667.957 831.805 562.224 747.395 586.072 647.324Z" fill="url(#paint5_linear)"/>
<path d="M561.534 663.262C570.005 654.441 569.985 640.474 561.489 632.065C552.994 623.657 539.24 623.991 530.769 632.812C522.299 641.633 522.319 655.6 530.814 664.008C539.31 672.417 553.063 672.083 561.534 663.262Z" fill="url(#paint6_linear)"/>
<path d="M570.759 565.715C563.915 555.875 550.332 553.659 540.42 560.765C530.507 567.871 528.02 581.608 534.864 591.448C541.708 601.287 555.291 603.503 565.204 596.397C575.116 589.291 577.603 575.554 570.759 565.715Z" fill="url(#paint7_linear)"/>
<path d="M582.654 544.097C579.997 540.78 575.195 540.278 571.927 542.975C568.66 545.673 568.165 550.548 570.822 553.866C573.479 557.183 578.282 557.685 581.549 554.988C584.816 552.29 585.311 547.414 582.654 544.097Z" fill="url(#paint8_linear)"/>
</g>
</g>
<defs>
<linearGradient id="paint0_linear" x1="699.086" y1="571.152" x2="530.234" y2="795.326" gradientUnits="userSpaceOnUse">
<stop stop-color="#7FDFFD"/>
<stop offset="0.39" stop-color="#72C4FC"/>
<stop offset="0.74" stop-color="#6AB3FB"/>
<stop offset="1" stop-color="#67ADFB"/>
</linearGradient>
<linearGradient id="paint1_linear" x1="6012.17" y1="79599.4" x2="42297.2" y2="65197.2" gradientUnits="userSpaceOnUse">
<stop stop-color="#7FDFFD"/>
<stop offset="0.39" stop-color="#72C4FC"/>
<stop offset="0.74" stop-color="#6AB3FB"/>
<stop offset="1" stop-color="#67ADFB"/>
</linearGradient>
<linearGradient id="paint2_linear" x1="292490" y1="75967.9" x2="218189" y2="104892" gradientUnits="userSpaceOnUse">
<stop stop-color="#7FDFFD"/>
<stop offset="0.39" stop-color="#72C4FC"/>
<stop offset="0.74" stop-color="#6AB3FB"/>
<stop offset="1" stop-color="#67ADFB"/>
</linearGradient>
<linearGradient id="paint3_linear" x1="578.881" y1="858.564" x2="648.174" y2="703.068" gradientUnits="userSpaceOnUse">
<stop/>
<stop offset="0.23" stop-color="#050505"/>
<stop offset="0.48" stop-color="#131313"/>
<stop offset="0.76" stop-color="#292929"/>
<stop offset="1" stop-color="#444444"/>
</linearGradient>
<linearGradient id="paint4_linear" x1="219019" y1="-253246" x2="236290" y2="-242007" gradientUnits="userSpaceOnUse">
<stop/>
<stop offset="0.23" stop-color="#050505"/>
<stop offset="0.48" stop-color="#131313"/>
<stop offset="0.76" stop-color="#292929"/>
<stop offset="1" stop-color="#444444"/>
</linearGradient>
<linearGradient id="paint5_linear" x1="439813" y1="-207610" x2="475206" y2="-158002" gradientUnits="userSpaceOnUse">
<stop/>
<stop offset="0.23" stop-color="#050505"/>
<stop offset="0.48" stop-color="#131313"/>
<stop offset="0.76" stop-color="#292929"/>
<stop offset="1" stop-color="#444444"/>
</linearGradient>
<linearGradient id="paint6_linear" x1="7448.7" y1="-18253" x2="6493.44" y2="-19170.3" gradientUnits="userSpaceOnUse">
<stop stop-color="#7FDFFD"/>
<stop offset="0.39" stop-color="#72C4FC"/>
<stop offset="0.74" stop-color="#6AB3FB"/>
<stop offset="1" stop-color="#67ADFB"/>
</linearGradient>
<linearGradient id="paint7_linear" x1="-17977.4" y1="-3408.28" x2="-17220.8" y2="-2352.94" gradientUnits="userSpaceOnUse">
<stop stop-color="#7FDFFD"/>
<stop offset="0.39" stop-color="#72C4FC"/>
<stop offset="0.74" stop-color="#6AB3FB"/>
<stop offset="1" stop-color="#67ADFB"/>
</linearGradient>
<linearGradient id="paint8_linear" x1="7114.78" y1="2828.01" x2="7010.73" y2="2701.98" gradientUnits="userSpaceOnUse">
<stop stop-color="#7FDFFD"/>
<stop offset="0.39" stop-color="#72C4FC"/>
<stop offset="0.74" stop-color="#6AB3FB"/>
<stop offset="1" stop-color="#67ADFB"/>
</linearGradient>
</defs>
</svg>
