<svg width="88" height="52" viewBox="0 0 88 52" fill="none" xmlns="http://www.w3.org/2000/svg">
<path d="M77.3333 23.1716L51.4297 38.403L60.3181 47.7446C67.508 37.5611 73.3014 26.4913 77.5475 14.8231C80.1919 7.59795 69.5587 3.19891 65.3916 9.35032C57.5377 21.0819 49.3636 32.9807 35.8332 38.8494L44.7231 48.1468L64.6664 12.4228C68.1765 6.11897 60.0054 -1.58748 54.3848 4.07799C42.0783 16.485 29.0173 28.1444 15.2746 38.9912L25.5546 47.3802C33.3208 34.6292 44.7653 24.2217 48.5183 9.39343C50.0433 3.36117 42.4899 -2.43682 37.531 2.60763C26.9905 13.164 15.9961 23.2204 3.65543 31.6558C-3.39501 36.4824 2.9064 48.2104 10.0496 43.2982C23.2471 34.1134 35.5179 23.6992 46.6912 12.2006L35.7038 5.4148C32.254 18.9592 21.2844 28.6295 14.1733 40.3062C10.0885 46.9906 18.5896 53.2924 24.4661 48.6514C38.2054 37.8006 51.2628 26.1374 63.5655 13.7268L53.2839 5.38197L33.3406 41.106C29.9863 47.1272 36.0286 53.1227 42.229 50.4476C57.7979 43.7453 67.7253 29.866 76.8081 16.3812L64.6522 10.9084C60.7722 21.4756 55.4872 31.4948 48.9355 40.7038C45.0975 46.1136 52.0932 53.4088 57.8239 50.0454L83.729 34.7698C91.1565 30.3966 84.8195 18.7228 77.3348 23.1274L77.3333 23.1716Z" fill="#FFE602"/>
</svg>
