<svg width="272" height="225" viewBox="0 0 272 225" fill="none" xmlns="http://www.w3.org/2000/svg">
<g clip-path="url(#clip0)">
<path opacity="0.5" d="M147.01 209.86L0 117.44L59.88 79.8601L153.09 144.8L195.38 197.51L147.01 209.86Z" fill="#0F054C"/>
<path opacity="0.5" d="M101.574 69.3119C116.602 64.0519 127.477 56.0523 125.865 51.4442C124.252 46.8361 110.761 47.3645 95.7329 52.6245C80.7045 57.8844 69.8289 65.884 71.4418 70.4921C73.0546 75.1003 86.545 74.5718 101.574 69.3119Z" fill="#0F054C"/>
<path d="M87.8105 34.6699L88.0005 29.9199L89.1105 27.1499L89.8105 29.4499L87.8105 34.6699Z" fill="#DD821F"/>
<path d="M137.59 35.5699L137.78 30.9199C137.78 30.9199 133.85 34.8499 133.84 34.9199C133.83 34.9899 137.59 35.5699 137.59 35.5699Z" fill="#FFD85A"/>
<path d="M112.36 49.37C98.6198 49 87.7098 42.06 87.9998 29.92C88.2898 17.78 99.6698 8.22004 113.41 8.55004C127.15 8.88004 138.06 19 137.77 31.12C137.48 43.24 126.1 49.7 112.36 49.37Z" fill="#FFD85A"/>
<path d="M137.578 35.8502C137.868 23.72 126.963 13.6201 113.221 13.2914C99.4781 12.9628 88.1025 22.5298 87.8124 34.6601C87.5223 46.7903 98.4276 56.8902 112.17 57.2189C125.912 57.5475 137.288 47.9805 137.578 35.8502Z" fill="#FFD85A"/>
<path d="M95.3303 19.4299C93.0696 21.291 91.2301 23.6112 89.9337 26.2368C88.6373 28.8624 87.9135 31.7335 87.8103 34.6599C87.5203 46.7999 98.4303 56.8999 112.17 57.2299C118.554 57.4451 124.802 55.3542 129.77 51.3399L95.3303 19.4299Z" fill="#DD821F"/>
<path d="M136.468 35.8238C136.745 24.2346 126.326 14.5852 113.197 14.2712C100.067 13.9572 89.1989 23.0975 88.9218 34.6867C88.6446 46.2758 99.0635 55.9252 112.193 56.2392C125.323 56.5532 136.191 47.4129 136.468 35.8238Z" fill="#F9BF30"/>
<path d="M131.779 35.7117C132.001 26.4084 123.637 18.6622 113.097 18.4101C102.557 18.158 93.8324 25.4955 93.6099 34.7989C93.3874 44.1022 101.751 51.8484 112.292 52.1005C122.832 52.3525 131.556 45.015 131.779 35.7117Z" fill="#F2B42A"/>
<path d="M131.779 35.7199C131.779 35.3299 131.779 34.9499 131.779 34.5699C130.899 43.3199 122.469 50.0599 112.369 49.8199C102.269 49.5799 94.1692 42.4499 93.7092 33.6599C93.7092 34.0399 93.6392 34.4199 93.6292 34.7999C93.4092 44.1099 101.769 51.8499 112.309 52.1099C122.849 52.3699 131.559 44.9999 131.779 35.7199Z" fill="#FFD85A"/>
<path d="M116.359 36.68L112.449 33.05C108.679 33.91 101.649 35.51 96.0391 36.82C96.8112 38.9717 98.0354 40.933 99.6292 42.5717C101.223 44.2104 103.15 45.4885 105.279 46.32L116.359 36.68Z" fill="#FFD85A"/>
<path d="M110.199 47.6199C110.819 47.6999 111.449 47.7399 112.099 47.7599C116.44 47.9123 120.694 46.5157 124.099 43.8199L117.709 37.8999L110.199 47.6199Z" fill="#FFD85A"/>
<path d="M108.25 29.1701L100.88 22.3401C98.4001 24.5101 96.1801 26.8901 95.5801 30.0901L108.25 29.1701Z" fill="#FFD85A"/>
<path d="M112.1 20.4301C122.64 20.6801 131 28.4301 130.78 37.7401C130.737 39.5843 130.354 41.4048 129.65 43.1101C130.981 40.8732 131.714 38.3319 131.78 35.7301C132 26.4201 123.64 18.6801 113.1 18.4201C104.7 18.2201 97.4502 22.8501 94.7402 29.4201C98.0002 23.9301 104.58 20.2501 112.1 20.4301Z" fill="#DD821F"/>
<path d="M87.9998 29.92C87.8334 31.5217 87.9041 33.1391 88.2098 34.72C88.7598 32.94 89.9498 27.62 89.9498 27.62L91.8398 23.39L93.4198 22.09L96.0898 20.14L96.3098 14.04C93.8295 15.9011 91.7963 18.2927 90.3586 21.0401C88.9209 23.7875 88.115 26.8213 87.9998 29.92Z" fill="#DD821F"/>
<path d="M136.16 29.3L136.26 28.05C136.26 27.9668 136.293 27.8869 136.35 27.8272C136.408 27.7674 136.487 27.7326 136.57 27.73H136.66C136.743 27.7351 136.821 27.7725 136.877 27.8341C136.933 27.8957 136.963 27.9768 136.96 28.06L136.86 29.31C136.86 29.3931 136.828 29.4731 136.77 29.5328C136.712 29.5925 136.633 29.6274 136.55 29.63H136.46C136.377 29.6248 136.299 29.5875 136.243 29.5259C136.187 29.4642 136.158 29.3832 136.16 29.3Z" fill="#DD821F"/>
<path d="M134.001 24.5099L134.131 22.2599C134.131 22.1644 134.169 22.0729 134.236 22.0053C134.304 21.9378 134.395 21.8999 134.491 21.8999H134.711C134.758 21.9025 134.804 21.9143 134.847 21.9348C134.89 21.9553 134.928 21.984 134.959 22.0193C134.991 22.0546 135.015 22.0958 135.031 22.1405C135.047 22.1852 135.053 22.2326 135.051 22.2799L134.921 24.5299C134.921 24.5772 134.911 24.624 134.893 24.6677C134.875 24.7113 134.849 24.751 134.815 24.7845C134.782 24.8179 134.742 24.8444 134.698 24.8625C134.655 24.8806 134.608 24.8899 134.561 24.8899H134.341C134.293 24.8873 134.247 24.8755 134.204 24.855C134.162 24.8345 134.123 24.8058 134.092 24.7705C134.06 24.7352 134.036 24.694 134.02 24.6493C134.005 24.6046 133.998 24.5572 134.001 24.5099Z" fill="#DD821F"/>
<path d="M130.95 20.33L131.08 18.15C131.08 18.043 131.122 17.9402 131.196 17.8636C131.271 17.7869 131.373 17.7426 131.48 17.74H131.86C131.967 17.7477 132.066 17.797 132.138 17.8774C132.209 17.9578 132.245 18.0629 132.24 18.17L132.11 20.35C132.11 20.457 132.068 20.5598 131.993 20.6364C131.918 20.713 131.817 20.7574 131.71 20.76H131.33C131.223 20.7523 131.123 20.7029 131.052 20.6226C130.981 20.5422 130.944 20.4371 130.95 20.33Z" fill="#DD821F"/>
<path d="M126.41 17L126.55 14.36C126.55 14.2529 126.592 14.1501 126.667 14.0735C126.741 13.9969 126.843 13.9526 126.95 13.95H127.33C127.437 13.9577 127.537 14.007 127.608 14.0874C127.679 14.1678 127.716 14.2728 127.71 14.38L127.57 17C127.57 17.107 127.528 17.2098 127.454 17.2864C127.379 17.363 127.277 17.4073 127.17 17.41H126.79C126.687 17.4024 126.59 17.3558 126.519 17.2798C126.449 17.2037 126.41 17.1037 126.41 17Z" fill="#DD821F"/>
<path d="M121.84 14.7401L121.99 11.7401C121.99 11.633 122.032 11.5303 122.107 11.4536C122.182 11.377 122.283 11.3327 122.39 11.3301H122.77C122.877 11.3378 122.977 11.3871 123.048 11.4675C123.119 11.5479 123.156 11.6529 123.15 11.7601L123 14.7601C123 14.8671 122.959 14.9699 122.884 15.0465C122.809 15.1231 122.707 15.1675 122.6 15.1701H122.22C122.113 15.1624 122.014 15.113 121.943 15.0326C121.872 14.9522 121.835 14.8472 121.84 14.7401Z" fill="#DD821F"/>
<path d="M117.26 13.3901L117.4 10.4701C117.4 10.363 117.442 10.2602 117.517 10.1836C117.592 10.107 117.693 10.0627 117.8 10.0601H118.18C118.287 10.0678 118.387 10.1171 118.458 10.1975C118.529 10.2779 118.566 10.3829 118.56 10.4901L118.42 13.4101C118.42 13.5171 118.379 13.6199 118.304 13.6965C118.229 13.7731 118.127 13.8174 118.02 13.8201H117.64C117.533 13.8123 117.434 13.763 117.363 13.6826C117.291 13.6022 117.255 13.4972 117.26 13.3901Z" fill="#DD821F"/>
<path d="M112.649 12.9301L112.799 9.93009C112.799 9.82306 112.841 9.72026 112.916 9.64366C112.99 9.56705 113.092 9.5227 113.199 9.52009H113.579C113.64 9.51769 113.701 9.52899 113.757 9.55317C113.814 9.57734 113.864 9.61377 113.904 9.65979C113.944 9.70581 113.974 9.76025 113.99 9.81914C114.007 9.87802 114.01 9.93985 113.999 10.0001L113.849 13.0001C113.849 13.1071 113.807 13.2099 113.733 13.2865C113.658 13.3631 113.556 13.4075 113.449 13.4101H112.999C112.944 13.4029 112.891 13.3845 112.843 13.3562C112.796 13.3278 112.754 13.29 112.721 13.2451C112.689 13.2002 112.665 13.1492 112.653 13.095C112.641 13.0409 112.639 12.9847 112.649 12.9301Z" fill="#DD821F"/>
<path d="M108.001 13.0001L108.141 10.2201C108.141 10.113 108.182 10.0102 108.257 9.93362C108.332 9.85701 108.434 9.81267 108.541 9.81006H109.001C109.108 9.81777 109.207 9.86711 109.278 9.9475C109.349 10.0279 109.386 10.1329 109.381 10.2401L109.241 13.0201C109.241 13.1271 109.199 13.2299 109.124 13.3065C109.049 13.3831 108.948 13.4274 108.841 13.4301H108.461C108.401 13.4375 108.341 13.4317 108.283 13.4132C108.226 13.3946 108.174 13.3637 108.13 13.3227C108.086 13.2817 108.052 13.2315 108.029 13.1758C108.007 13.12 107.997 13.06 108.001 13.0001Z" fill="#DD821F"/>
<path d="M103.389 13.9999L103.529 11.3099C103.529 11.2029 103.571 11.1001 103.646 11.0235C103.72 10.9469 103.822 10.9025 103.929 10.8999H104.309C104.416 10.9076 104.516 10.957 104.587 11.0373C104.658 11.1177 104.695 11.2228 104.689 11.3299L104.549 14.0199C104.549 14.1269 104.507 14.2297 104.433 14.3063C104.358 14.3829 104.256 14.4273 104.149 14.4299H103.769C103.662 14.4222 103.562 14.3729 103.491 14.2925C103.42 14.2121 103.384 14.107 103.389 13.9999Z" fill="#DD821F"/>
<path d="M98.7095 16.31L98.8495 13.39C98.8495 13.283 98.8913 13.1802 98.966 13.1035C99.0408 13.0269 99.1425 12.9826 99.2495 12.98H99.6295C99.7365 12.9877 99.8362 13.037 99.9073 13.1174C99.9783 13.1978 100.015 13.3028 100.009 13.41L99.8695 16.33C99.8695 16.437 99.8277 16.5398 99.753 16.6164C99.6782 16.693 99.5765 16.7374 99.4695 16.74H99.0995C99.0456 16.7374 98.9928 16.7243 98.944 16.7012C98.8953 16.6782 98.8515 16.6458 98.8153 16.6059C98.7791 16.5659 98.7511 16.5192 98.7329 16.4685C98.7148 16.4177 98.7068 16.3638 98.7095 16.31Z" fill="#DD821F"/>
<path d="M271 152.82V162.66C271.001 162.736 270.979 162.81 270.938 162.874C270.898 162.938 270.839 162.989 270.77 163.02L163.77 224.4C163.554 224.497 163.319 224.542 163.083 224.532C162.846 224.522 162.616 224.456 162.41 224.34L145 214.2C144.921 214.162 144.852 214.108 144.797 214.04C144.741 213.973 144.702 213.894 144.68 213.81V203.87L153.14 208.7L251.86 152C252.075 151.903 252.311 151.858 252.547 151.868C252.783 151.878 253.014 151.944 253.22 152.06L259.22 155.54L271 152.82Z" fill="url(#paint0_linear)"/>
<path d="M251.9 142.15L144.9 203.53C144.55 203.73 144.59 204.08 145 204.32L162.43 214.45C162.636 214.566 162.866 214.632 163.102 214.642C163.339 214.652 163.574 214.607 163.79 214.51L270.79 153.13C271.14 152.93 271.1 152.58 270.69 152.34L253.26 142.21C253.053 142.094 252.823 142.028 252.587 142.018C252.35 142.008 252.115 142.053 251.9 142.15Z" fill="url(#paint1_linear)"/>
<path opacity="0.6" d="M248.001 156.94L164.001 204.29C163.35 200.876 162.389 197.529 161.131 194.29L245.001 146.1C246.357 149.605 247.362 153.236 248.001 156.94Z" fill="#24126A"/>
<path d="M255.6 147.83L154.74 205.7C154.5 205.84 154.53 206.08 154.81 206.24L159.19 208.78C159.333 208.855 159.493 208.895 159.655 208.895C159.817 208.895 159.976 208.855 160.12 208.78L261 150.95C261.24 150.81 261.21 150.57 260.93 150.41L256.55 147.87C256.407 147.785 256.246 147.737 256.08 147.73C255.914 147.723 255.749 147.757 255.6 147.83Z" fill="#24126A"/>
<path d="M260.999 150.95L258.949 152.13L256.589 150.76C256.446 150.685 256.286 150.645 256.124 150.645C255.962 150.645 255.803 150.685 255.659 150.76L156.849 207.46L154.849 206.29C154.579 206.13 154.549 205.89 154.779 205.75L255.599 147.83C255.743 147.755 255.902 147.715 256.064 147.715C256.226 147.715 256.386 147.755 256.529 147.83L260.909 150.37C261.189 150.57 261.219 150.81 260.999 150.95Z" fill="#453C9E"/>
<path opacity="0.96" d="M1.34979 48.15L85.2598 0C85.2598 15 95.7298 33.34 108.73 40.89L224.36 108.06C239.64 116.94 251.99 138.46 251.94 156.13L168 204.29C168 186.62 155.7 165.1 140.42 156.22L24.8098 89C11.8098 81.45 1.29979 63.14 1.34979 48.11V48.15Z" fill="url(#paint2_linear)"/>
<path opacity="0.8" d="M251.94 156.14L168 204.29C168 203.51 168 202.73 167.93 201.94L251.83 153.8C251.91 154.58 251.94 155.36 251.94 156.14Z" fill="#453C9E"/>
<g opacity="0.32">
<path opacity="0.32" d="M130.43 120.03L111.43 130.94L113.26 132L132.26 121.09L130.43 120.03Z" fill="#453C9E"/>
<path opacity="0.32" d="M140.18 114.44L133.34 118.37L135.16 119.43L142.01 115.5L140.18 114.44Z" fill="#453C9E"/>
<path opacity="0.32" d="M147.73 110.11L143.08 112.78L144.91 113.84L149.56 111.17L147.73 110.11Z" fill="#453C9E"/>
<path opacity="0.32" d="M117.61 122.57L107.25 128.51L109.08 129.57L119.44 123.63L117.61 122.57Z" fill="#453C9E"/>
<path opacity="0.32" d="M133.2 113.62L120.51 120.9L122.34 121.97L135.03 114.68L133.2 113.62Z" fill="#453C9E"/>
<path opacity="0.32" d="M140.75 109.29L136.1 111.96L137.93 113.02L142.58 110.35L140.75 109.29Z" fill="#453C9E"/>
<path opacity="0.32" d="M147.939 105.16L143.289 107.83L145.119 108.89L149.769 106.23L147.939 105.16Z" fill="#453C9E"/>
<path opacity="0.32" d="M110.57 121.79L103.07 126.09L104.9 127.15L112.39 122.85L110.57 121.79Z" fill="#453C9E"/>
<path opacity="0.32" d="M116.031 118.65L113.471 120.12L115.301 121.18L117.861 119.71L116.031 118.65Z" fill="#453C9E"/>
<path opacity="0.32" d="M123.579 114.32L118.939 116.98L120.759 118.05L125.409 115.38L123.579 114.32Z" fill="#453C9E"/>
<path opacity="0.32" d="M126.55 107.79L98.9004 123.66L100.73 124.72L128.38 108.85L126.55 107.79Z" fill="#453C9E"/>
<path opacity="0.32" d="M136.299 102.2L129.459 106.13L131.279 107.19L138.129 103.26L136.299 102.2Z" fill="#453C9E"/>
<path opacity="0.32" d="M102.211 116.93L94.7207 121.23L96.5507 122.3L104.041 118L102.211 116.93Z" fill="#453C9E"/>
<path opacity="0.32" d="M119.799 106.84L105.119 115.27L106.949 116.33L121.629 107.91L119.799 106.84Z" fill="#453C9E"/>
<path opacity="0.32" d="M127.349 102.51L122.699 105.18L124.529 106.24L129.179 103.57L127.349 102.51Z" fill="#453C9E"/>
<path opacity="0.32" d="M105.879 110.01L90.5391 118.81L92.3691 119.87L107.699 111.07L105.879 110.01Z" fill="#453C9E"/>
<path opacity="0.32" d="M119.859 101.98L108.779 108.34L110.609 109.41L121.689 103.05L119.859 101.98Z" fill="#453C9E"/>
<path opacity="0.32" d="M130.26 96.02L122.77 100.32L124.6 101.38L132.09 97.08L130.26 96.02Z" fill="#453C9E"/>
<path opacity="0.32" d="M91.5491 113.41L86.3691 116.38L88.1991 117.44L93.3691 114.47L91.5491 113.41Z" fill="#453C9E"/>
<path opacity="0.32" d="M101.289 107.82L94.4492 111.74L96.2792 112.81L103.119 108.88L101.289 107.82Z" fill="#453C9E"/>
<path opacity="0.32" d="M115.219 99.8201L104.189 106.15L106.019 107.21L117.049 100.89L115.219 99.8201Z" fill="#453C9E"/>
<path opacity="0.32" d="M98.0495 104.85L82.1895 113.95L84.0194 115.02L99.8794 105.92L98.0495 104.85Z" fill="#453C9E"/>
<path opacity="0.32" d="M115.819 94.6602L100.949 103.19L102.779 104.25L117.639 95.7202L115.819 94.6602Z" fill="#453C9E"/>
<path opacity="0.32" d="M123.371 90.3301L118.721 92.9901L120.551 94.0601L125.201 91.3901L123.371 90.3301Z" fill="#453C9E"/>
<path opacity="0.32" d="M130.621 86.1702L125.971 88.8302L127.801 89.9002L132.451 87.2302L130.621 86.1702Z" fill="#453C9E"/>
<path opacity="0.32" d="M87.5198 106.08L78.0098 111.53L79.8398 112.59L89.3398 107.14L87.5198 106.08Z" fill="#453C9E"/>
<path opacity="0.32" d="M168.98 97.9101L182.16 90.3501L183.99 91.4101L170.81 98.9701L168.98 97.9101Z" fill="#453C9E"/>
<path opacity="0.32" d="M167.629 93.8702L177.989 87.9202L179.809 88.9902L169.459 94.9302L167.629 93.8702Z" fill="#453C9E"/>
<path opacity="0.32" d="M166.32 89.8L173.81 85.5L175.64 86.56L168.14 90.86L166.32 89.8Z" fill="#453C9E"/>
<path opacity="0.32" d="M158.73 89.3301L169.63 83.0701L171.46 84.1401L160.56 90.3901L158.73 89.3301Z" fill="#453C9E"/>
<path opacity="0.32" d="M157.959 84.9401L165.459 80.6501L167.279 81.7101L159.789 86.0101L157.959 84.9401Z" fill="#453C9E"/>
<path opacity="0.32" d="M151.779 83.67L161.279 78.22L163.109 79.28L153.599 84.73L151.779 83.67Z" fill="#453C9E"/>
<path opacity="0.32" d="M151.92 78.77L157.1 75.79L158.93 76.86L153.75 79.83L151.92 78.77Z" fill="#453C9E"/>
<path opacity="0.32" d="M142.891 79.1201L152.931 73.3701L154.751 74.4301L144.721 80.1901L142.891 79.1201Z" fill="#453C9E"/>
<path opacity="0.32" d="M139.25 76.3899L148.75 70.9399L150.58 71.9999L141.07 77.4599L139.25 76.3899Z" fill="#453C9E"/>
<path opacity="0.32" d="M94.4599 102.09L90.4199 104.41L92.2499 105.47L96.2899 103.15L94.4599 102.09Z" fill="#453C9E"/>
<path opacity="0.32" d="M106.459 95.2L97.3594 100.42L99.1894 101.49L108.289 96.27L106.459 95.2Z" fill="#453C9E"/>
<path opacity="0.32" d="M95.1 76.5901L79.75 85.4001L81.58 86.4601L96.93 77.6501L95.1 76.5901Z" fill="#453C9E"/>
<path opacity="0.32" d="M105.61 70.5601L99.5703 74.0301L101.4 75.0901L107.44 71.6201L105.61 70.5601Z" fill="#453C9E"/>
</g>
<path opacity="0.3" d="M152.552 126.234C171.901 119.462 185.903 109.158 183.825 103.221C181.747 97.2836 164.376 97.9606 145.026 104.733C125.676 111.505 111.675 121.809 113.753 127.746C115.831 133.684 133.202 133.007 152.552 126.234Z" fill="#0F054C"/>
<path d="M134.84 81.63L135.08 75.53L136.5 71.95L137.4 74.91L134.84 81.63Z" fill="#DD821F"/>
<path d="M198.92 82.8L199.16 76.8C199.16 76.8 194.09 81.86 194.09 81.98C194.09 82.1 198.92 82.8 198.92 82.8Z" fill="#FFD85A"/>
<path d="M166.439 100.56C148.749 100.14 134.709 91.1399 135.079 75.5599C135.449 59.9799 150.079 47.62 167.789 48.05C185.499 48.48 199.519 61.48 199.149 77.05C198.779 92.62 184.129 101 166.439 100.56Z" fill="#FFD85A"/>
<path d="M198.906 83.164C199.28 67.5443 185.238 54.539 167.542 54.1158C149.846 53.6926 135.198 66.0118 134.825 81.6314C134.451 97.2511 148.494 110.256 166.189 110.68C183.885 111.103 198.533 98.7836 198.906 83.164Z" fill="#FFD85A"/>
<path d="M144.509 62C141.599 64.3968 139.231 67.3844 137.563 70.7651C135.894 74.1457 134.962 77.8423 134.829 81.61C134.459 97.23 148.499 110.24 166.189 110.61C174.409 110.884 182.453 108.19 188.849 103.02L144.509 62Z" fill="#DD821F"/>
<path d="M197.478 83.1299C197.835 68.2059 184.419 55.7798 167.513 55.3755C150.607 54.9712 136.613 66.7417 136.256 81.6657C135.899 96.5897 149.314 109.016 166.221 109.42C183.127 109.824 197.121 98.0539 197.478 83.1299Z" fill="#F9BF30"/>
<path d="M190.817 82.5195C191.056 70.535 180.246 60.5994 166.671 60.3279C153.095 60.0564 141.896 69.5518 141.657 81.5363C141.417 93.5209 152.227 103.456 165.803 103.728C179.378 103.999 190.577 94.5041 190.817 82.5195Z" fill="#F2B42A"/>
<path d="M191.44 83.0001C191.44 82.5001 191.44 82.0001 191.44 81.5201C190.31 92.7901 179.44 101.46 166.44 101.15C153.44 100.84 143.01 91.6601 142.44 80.3501C142.44 80.8401 142.35 81.3501 142.34 81.8201C142.05 93.8201 152.82 103.82 166.39 104.1C179.96 104.38 191.16 95.0001 191.44 83.0001Z" fill="#FFD85A"/>
<path d="M171.591 84.2301L166.591 79.5601C161.741 80.6601 152.691 82.7201 145.471 84.4201C146.465 87.1908 148.041 89.7161 150.094 91.8259C152.147 93.9356 154.628 95.5806 157.371 96.6501L171.591 84.2301Z" fill="#FFD85A"/>
<path d="M163.66 98.3C164.46 98.4 165.27 98.46 166.1 98.48C171.672 98.6652 177.128 96.8687 181.5 93.41L173.27 85.79L163.66 98.3Z" fill="#FFD85A"/>
<path d="M161.14 74.55L151.65 65.76C148.46 68.55 145.65 71.62 144.83 75.76L161.14 74.55Z" fill="#FFD85A"/>
<path d="M166.11 63.3001C179.68 63.6301 190.45 73.6001 190.16 85.5801C190.101 87.9534 189.606 90.2957 188.7 92.4901C190.412 89.6105 191.356 86.3392 191.44 82.9901C191.73 70.9901 180.96 60.9901 167.39 60.7101C156.57 60.4501 147.24 66.4101 143.76 74.9101C147.94 67.8101 156.42 63.0701 166.11 63.3001Z" fill="#DD821F"/>
<path d="M135.08 75.5301C134.865 77.5921 134.956 79.6746 135.35 81.7101C136.06 79.4201 137.59 72.5601 137.59 72.5601L140 67.1101L142 65.4401L145.44 62.9301L145.72 55.0701C142.536 57.4739 139.928 60.558 138.088 64.0976C136.247 67.6372 135.219 71.5429 135.08 75.5301Z" fill="#DD821F"/>
<path d="M197.079 74.72L197.209 73.11C197.209 73.0029 197.251 72.9001 197.326 72.8235C197.4 72.7469 197.502 72.7026 197.609 72.7H197.729C197.836 72.7077 197.936 72.757 198.007 72.8374C198.078 72.9178 198.115 73.0228 198.109 73.13L197.999 74.75C197.999 74.857 197.957 74.9598 197.883 75.0364C197.808 75.113 197.706 75.1573 197.599 75.16H197.479C197.424 75.1588 197.369 75.1462 197.318 75.1232C197.268 75.1001 197.222 75.067 197.185 75.0258C197.147 74.9847 197.119 74.9363 197.101 74.8838C197.082 74.8312 197.075 74.7754 197.079 74.72Z" fill="#DD821F"/>
<path d="M194.27 68.56L194.44 65.67C194.438 65.6087 194.449 65.5478 194.472 65.4908C194.494 65.4339 194.528 65.382 194.571 65.3382C194.614 65.2944 194.665 65.2596 194.721 65.2359C194.778 65.2122 194.838 65.1999 194.9 65.2H195.18C195.241 65.2025 195.301 65.2173 195.357 65.2434C195.412 65.2696 195.462 65.3066 195.503 65.3522C195.544 65.3979 195.575 65.4513 195.595 65.5093C195.615 65.5673 195.624 65.6287 195.62 65.69L195.45 68.58C195.44 68.6932 195.388 68.7988 195.305 68.8763C195.222 68.9539 195.113 68.9979 195 69H194.72C194.603 68.9975 194.491 68.9507 194.408 68.869C194.324 68.7872 194.275 68.6767 194.27 68.56Z" fill="#DD821F"/>
<path d="M190.37 63.1801L190.53 60.3701C190.529 60.301 190.541 60.2323 190.567 60.168C190.592 60.1038 190.63 60.0453 190.679 59.9959C190.727 59.9466 190.785 59.9074 190.849 59.8806C190.912 59.8538 190.981 59.8401 191.05 59.8401H191.54C191.608 59.8439 191.675 59.8612 191.737 59.8909C191.799 59.9207 191.854 59.9623 191.899 60.0134C191.945 60.0645 191.98 60.124 192.002 60.1887C192.025 60.2533 192.034 60.3218 192.03 60.3901L191.87 63.2001C191.871 63.2692 191.859 63.3379 191.833 63.4022C191.808 63.4664 191.77 63.5249 191.721 63.5743C191.673 63.6236 191.615 63.6628 191.551 63.6896C191.488 63.7163 191.419 63.7301 191.35 63.7301H190.86C190.792 63.7263 190.725 63.709 190.663 63.6792C190.602 63.6495 190.546 63.6079 190.501 63.5568C190.455 63.5057 190.42 63.4461 190.398 63.3815C190.375 63.3168 190.366 63.2484 190.37 63.1801Z" fill="#DD821F"/>
<path d="M184.52 58.8299L184.7 55.4299C184.699 55.3608 184.712 55.2921 184.737 55.2278C184.763 55.1636 184.801 55.1051 184.849 55.0557C184.898 55.0064 184.955 54.9672 185.019 54.9404C185.083 54.9137 185.151 54.8999 185.22 54.8999H185.71C185.779 54.9037 185.846 54.921 185.907 54.9507C185.969 54.9805 186.024 55.0221 186.07 55.0732C186.115 55.1243 186.15 55.1839 186.173 55.2485C186.195 55.3131 186.205 55.3816 186.2 55.4499L186.02 58.8499C186.022 58.919 186.009 58.9877 185.984 59.052C185.958 59.1162 185.92 59.1747 185.872 59.2241C185.823 59.2734 185.766 59.3126 185.702 59.3394C185.638 59.3661 185.57 59.3799 185.5 59.3799H185C184.864 59.3696 184.738 59.3062 184.648 59.2033C184.558 59.1004 184.512 58.9662 184.52 58.8299Z" fill="#DD821F"/>
<path d="M178.651 56L178.841 52.0801C178.839 52.0109 178.852 51.9422 178.877 51.878C178.903 51.8137 178.941 51.7552 178.989 51.7059C179.038 51.6565 179.095 51.6173 179.159 51.5906C179.223 51.5638 179.291 51.55 179.361 51.55H179.851C179.919 51.5539 179.986 51.5712 180.047 51.6009C180.109 51.6306 180.164 51.6722 180.21 51.7233C180.255 51.7744 180.29 51.834 180.313 51.8987C180.335 51.9633 180.345 52.0317 180.341 52.1L180.151 56C180.152 56.0692 180.139 56.1379 180.114 56.2021C180.088 56.2664 180.05 56.3249 180.002 56.3742C179.953 56.4236 179.896 56.4628 179.832 56.4895C179.768 56.5163 179.7 56.5301 179.631 56.53H179.141C179.006 56.5223 178.88 56.4628 178.789 56.3639C178.697 56.2651 178.648 56.1346 178.651 56Z" fill="#DD821F"/>
<path d="M172.739 54.24L172.929 50.4799C172.928 50.4108 172.94 50.3421 172.966 50.2779C172.991 50.2136 173.029 50.1551 173.078 50.1058C173.126 50.0564 173.184 50.0172 173.248 49.9905C173.312 49.9637 173.38 49.9499 173.449 49.95H173.939C174.008 49.9538 174.074 49.9711 174.136 50.0008C174.198 50.0305 174.253 50.0721 174.298 50.1232C174.344 50.1743 174.379 50.2339 174.401 50.2985C174.424 50.3632 174.433 50.4316 174.429 50.5L174.239 54.2599C174.241 54.3291 174.228 54.3978 174.203 54.462C174.177 54.5263 174.139 54.5848 174.09 54.6341C174.042 54.6835 173.984 54.7227 173.921 54.7494C173.857 54.7762 173.788 54.79 173.719 54.79H173.229C173.161 54.7861 173.094 54.7688 173.032 54.7391C172.971 54.7094 172.916 54.6678 172.87 54.6167C172.824 54.5656 172.79 54.506 172.767 54.4413C172.745 54.3767 172.735 54.3083 172.739 54.24Z" fill="#DD821F"/>
<path d="M166.81 53.6501L167 49.8301C166.998 49.7609 167.011 49.6922 167.036 49.628C167.062 49.5637 167.1 49.5052 167.148 49.4559C167.197 49.4065 167.254 49.3673 167.318 49.3406C167.382 49.3138 167.45 49.3 167.52 49.3H168C168.068 49.3039 168.135 49.3212 168.196 49.3509C168.258 49.3806 168.313 49.4222 168.359 49.4733C168.404 49.5244 168.439 49.584 168.462 49.6487C168.484 49.7133 168.494 49.7817 168.49 49.85L168.3 53.67C168.301 53.7392 168.288 53.8079 168.263 53.8721C168.237 53.9364 168.199 53.9949 168.151 54.0442C168.102 54.0936 168.045 54.1328 167.981 54.1595C167.917 54.1863 167.849 54.2001 167.78 54.2001H167.29C167.153 54.1898 167.027 54.1263 166.937 54.0234C166.847 53.9205 166.801 53.7864 166.81 53.6501Z" fill="#DD821F"/>
<path d="M160.86 53.7699L161.04 50.1899C161.039 50.1208 161.051 50.0521 161.077 49.9878C161.103 49.9236 161.141 49.8651 161.189 49.8157C161.237 49.7664 161.295 49.7272 161.359 49.7004C161.423 49.6737 161.491 49.6599 161.56 49.6599H162.05C162.119 49.6637 162.186 49.681 162.247 49.7108C162.309 49.7405 162.364 49.7821 162.409 49.8332C162.455 49.8843 162.49 49.9439 162.512 50.0085C162.535 50.0732 162.544 50.1416 162.54 50.2099L162.36 53.7899C162.362 53.859 162.349 53.9277 162.324 53.992C162.298 54.0562 162.26 54.1147 162.212 54.1641C162.163 54.2134 162.105 54.2526 162.042 54.2794C161.978 54.3062 161.909 54.3199 161.84 54.3199H161.35C161.282 54.3161 161.215 54.2988 161.153 54.2691C161.092 54.2393 161.037 54.1977 160.991 54.1466C160.946 54.0955 160.911 54.036 160.888 53.9713C160.866 53.9067 160.856 53.8382 160.86 53.7699Z" fill="#DD821F"/>
<path d="M154.89 55.0701L155.07 51.6001C155.068 51.5309 155.081 51.4623 155.106 51.398C155.132 51.3338 155.17 51.2752 155.218 51.2259C155.267 51.1765 155.325 51.1373 155.388 51.1106C155.452 51.0838 155.52 51.0701 155.59 51.0701H156.08C156.148 51.0739 156.215 51.0912 156.276 51.1209C156.338 51.1506 156.393 51.1923 156.439 51.2433C156.484 51.2944 156.519 51.354 156.542 51.4187C156.564 51.4833 156.574 51.5518 156.57 51.6201L156.39 55.0901C156.391 55.1592 156.378 55.2279 156.353 55.2921C156.327 55.3564 156.289 55.4149 156.241 55.4642C156.192 55.5136 156.135 55.5528 156.071 55.5796C156.007 55.6063 155.939 55.6201 155.87 55.6201H155.38C155.311 55.6162 155.244 55.599 155.183 55.5692C155.121 55.5395 155.066 55.4979 155.02 55.4468C154.975 55.3957 154.94 55.3361 154.917 55.2715C154.895 55.2068 154.886 55.1384 154.89 55.0701Z" fill="#DD821F"/>
<path d="M148.869 58L149.059 54.25C149.058 54.1808 149.07 54.1121 149.096 54.0479C149.121 53.9837 149.16 53.9251 149.208 53.8758C149.256 53.8264 149.314 53.7872 149.378 53.7605C149.442 53.7337 149.51 53.72 149.579 53.72H150.069C150.138 53.7238 150.204 53.7411 150.266 53.7708C150.328 53.8005 150.383 53.8422 150.428 53.8932C150.474 53.9443 150.509 54.0039 150.531 54.0686C150.554 54.1332 150.563 54.2017 150.559 54.27L150.369 58C150.371 58.0691 150.358 58.1378 150.333 58.202C150.307 58.2663 150.269 58.3248 150.221 58.3741C150.172 58.4235 150.114 58.4627 150.051 58.4895C149.987 58.5162 149.918 58.53 149.849 58.53H149.359C149.225 58.5222 149.099 58.4627 149.007 58.3638C148.916 58.265 148.866 58.1346 148.869 58Z" fill="#DD821F"/>
<path opacity="0.5" d="M41.7814 202.16C58.7699 196.214 71.0627 187.168 69.2383 181.955C67.4138 176.742 52.1629 177.337 35.1744 183.283C18.1859 189.229 5.89309 198.275 7.71756 203.487C9.54203 208.7 24.7929 208.106 41.7814 202.16Z" fill="#0F054C"/>
<path d="M26.2109 163.01L26.4309 157.65L27.6709 154.51L28.4709 157.11L26.2109 163.01Z" fill="#DD821F"/>
<path d="M82.4705 164L82.6805 158.74C82.6805 158.74 78.2305 163.18 78.2305 163.29C78.2305 163.4 82.4705 164 82.4705 164Z" fill="#FFD85A"/>
<path d="M53.9994 179.63C38.4694 179.26 26.1394 171.36 26.4694 157.63C26.7994 143.9 39.6594 133.1 55.1894 133.47C70.7194 133.84 82.9994 145.28 82.6794 159C82.3594 172.72 69.4894 180 53.9994 179.63Z" fill="#FFD85A"/>
<path d="M82.4648 164.351C82.7928 150.637 70.468 139.217 54.9367 138.846C39.4054 138.475 26.5488 149.292 26.2208 163.006C25.8928 176.721 38.2176 188.14 53.7489 188.512C69.2802 188.883 82.1368 178.066 82.4648 164.351Z" fill="#FFD85A"/>
<path d="M34.7094 145.79C32.1567 147.894 30.08 150.517 28.6164 153.483C27.1528 156.45 26.3358 159.694 26.2194 163C25.8894 176.71 38.2194 188.13 53.7494 188.5C60.9648 188.746 68.0267 186.381 73.6394 181.84L34.7094 145.79Z" fill="#DD821F"/>
<path d="M81.2143 164.322C81.5277 151.22 69.7505 140.311 54.9094 139.956C40.0682 139.601 27.783 149.934 27.4697 163.036C27.1564 176.138 38.9335 187.047 53.7746 187.402C68.6158 187.757 80.901 177.424 81.2143 164.322Z" fill="#F9BF30"/>
<path d="M75.9156 164.195C76.1672 153.677 66.7121 144.919 54.7972 144.634C42.8823 144.349 33.0195 152.645 32.768 163.163C32.5164 173.681 41.9714 182.439 53.8863 182.723C65.8012 183.008 75.6641 174.713 75.9156 164.195Z" fill="#F2B42A"/>
<path d="M75.91 164.2C75.91 163.76 75.91 163.33 75.91 162.9C74.91 172.79 65.39 180.41 53.97 180.13C42.55 179.85 33.4 171.8 32.88 161.87C32.88 162.3 32.8 162.73 32.79 163.16C32.54 173.68 41.99 182.43 53.91 182.72C65.83 183.01 75.66 174.71 75.91 164.2Z" fill="#FFD85A"/>
<path d="M58.4795 165.29L54.0595 161.19C49.7995 162.19 41.8595 163.97 35.5195 165.46C36.3968 167.894 37.7864 170.112 39.5944 171.963C41.4024 173.814 43.5866 175.256 45.9995 176.19L58.4795 165.29Z" fill="#FFD85A"/>
<path d="M51.5195 177.64C52.2195 177.73 52.9395 177.78 53.6595 177.8C58.5508 177.963 63.3414 176.386 67.1795 173.35L59.9995 166.66L51.5195 177.64Z" fill="#FFD85A"/>
<path d="M49.31 156.79L41 149.07C38.2 151.52 35.69 154.22 35 157.83L49.31 156.79Z" fill="#FFD85A"/>
<path d="M53.6708 146.91C65.5808 147.2 75.0408 155.91 74.7908 166.47C74.7388 168.551 74.3049 170.605 73.5108 172.53C75.0152 170.002 75.8451 167.131 75.9208 164.19C76.1708 153.67 66.7208 144.92 54.8008 144.63C45.3008 144.4 37.1108 149.63 34.0508 157.09C37.7208 150.88 45.1708 146.71 53.6708 146.91Z" fill="#DD821F"/>
<path d="M26.4306 157.65C26.2428 159.462 26.3237 161.292 26.6706 163.08C27.2906 161.08 28.6706 155.08 28.6706 155.08L30.8106 150.3L32.5906 148.83L35.5906 146.63L35.8406 139.73C33.0381 141.829 30.7391 144.527 29.1112 147.627C27.4834 150.727 26.5676 154.151 26.4306 157.65Z" fill="#DD821F"/>
<path d="M80.8606 156.94L80.9806 155.53C80.9805 155.436 81.0171 155.346 81.0824 155.279C81.1478 155.212 81.2368 155.173 81.3306 155.17H81.4406C81.4879 155.173 81.5342 155.184 81.5769 155.205C81.6196 155.225 81.6578 155.254 81.6894 155.289C81.721 155.325 81.7453 155.366 81.761 155.411C81.7766 155.455 81.7833 155.503 81.7806 155.55L81.6606 157C81.6606 157.094 81.624 157.184 81.5587 157.251C81.4933 157.318 81.4043 157.357 81.3106 157.36H81.2006C81.1495 157.358 81.0994 157.345 81.0538 157.322C81.0081 157.299 80.9678 157.267 80.9357 157.227C80.9035 157.187 80.8802 157.141 80.8672 157.092C80.8543 157.042 80.852 156.99 80.8606 156.94Z" fill="#DD821F"/>
<path d="M78.3892 151.53L78.5392 148.99C78.5392 148.883 78.581 148.78 78.6557 148.704C78.7305 148.627 78.8322 148.583 78.9392 148.58H79.1892C79.2962 148.588 79.3959 148.637 79.467 148.717C79.538 148.798 79.5747 148.903 79.5692 149.01L79.4192 151.55C79.4192 151.657 79.3774 151.76 79.3027 151.836C79.2279 151.913 79.1262 151.957 79.0192 151.96H78.7692C78.6622 151.952 78.5625 151.903 78.4914 151.823C78.4204 151.742 78.3837 151.637 78.3892 151.53Z" fill="#DD821F"/>
<path d="M75.0006 146.81L75.1406 144.35C75.1406 144.23 75.1877 144.114 75.2718 144.028C75.3559 143.942 75.4704 143.893 75.5906 143.89H76.0006C76.1209 143.898 76.2333 143.952 76.3137 144.042C76.3941 144.132 76.4361 144.25 76.4306 144.37L76.2906 146.83C76.2906 146.95 76.2436 147.066 76.1594 147.152C76.0753 147.238 75.9609 147.287 75.8406 147.29H75.4006C75.2858 147.275 75.1808 147.217 75.1066 147.128C75.0325 147.039 74.9946 146.926 75.0006 146.81Z" fill="#DD821F"/>
<path d="M69.8403 143L70.0003 140C70.0003 139.88 70.0474 139.764 70.1315 139.678C70.2156 139.592 70.3301 139.543 70.4503 139.54H70.8803C71.0006 139.548 71.113 139.602 71.1934 139.692C71.2738 139.782 71.3158 139.9 71.3103 140.02L71.1503 143.02C71.1504 143.14 71.1033 143.256 71.0191 143.342C70.935 143.428 70.8206 143.477 70.7003 143.48H70.2703C70.1501 143.472 70.0376 143.418 69.9572 143.328C69.8768 143.238 69.8348 143.12 69.8403 143Z" fill="#DD821F"/>
<path d="M64.6807 140.49L64.8507 137.05C64.8507 136.93 64.8978 136.814 64.9819 136.728C65.066 136.642 65.1804 136.593 65.3007 136.59H65.7307C65.851 136.598 65.9634 136.652 66.0438 136.742C66.1242 136.832 66.1662 136.95 66.1607 137.07L66.0007 140.52C66.0007 140.64 65.9536 140.756 65.8695 140.842C65.7854 140.928 65.671 140.977 65.5507 140.98H65.1207C65.0594 140.977 64.9992 140.963 64.9437 140.937C64.8882 140.91 64.8384 140.873 64.7974 140.828C64.7564 140.782 64.725 140.729 64.7049 140.671C64.6849 140.613 64.6766 140.551 64.6807 140.49Z" fill="#DD821F"/>
<path d="M59.4907 139L59.6507 135.7C59.6507 135.58 59.6978 135.464 59.7819 135.378C59.866 135.292 59.9805 135.243 60.1007 135.24H60.5307C60.651 135.248 60.7634 135.302 60.8438 135.392C60.9242 135.482 60.9662 135.6 60.9607 135.72L60.8007 139.02C60.8007 139.14 60.7536 139.256 60.6695 139.342C60.5854 139.428 60.471 139.477 60.3507 139.48H59.9207C59.8004 139.472 59.688 139.418 59.6076 139.328C59.5272 139.238 59.4852 139.12 59.4907 139Z" fill="#DD821F"/>
<path d="M54.2895 138.44L54.4495 135.08C54.4495 134.96 54.4966 134.844 54.5807 134.758C54.6648 134.672 54.7793 134.623 54.8995 134.62H55.3295C55.4498 134.628 55.5622 134.682 55.6426 134.772C55.7231 134.862 55.765 134.98 55.7595 135.1L55.5995 138.46C55.5996 138.58 55.5525 138.696 55.4684 138.782C55.3842 138.868 55.2698 138.917 55.1495 138.92H54.7195C54.5993 138.912 54.4868 138.858 54.4064 138.768C54.326 138.678 54.2841 138.56 54.2895 138.44Z" fill="#DD821F"/>
<path d="M49.059 138.55L49.219 135.41C49.219 135.29 49.2661 135.174 49.3502 135.088C49.4343 135.002 49.5488 134.953 49.669 134.95H50.099C50.2193 134.958 50.3317 135.012 50.4121 135.102C50.4926 135.192 50.5345 135.31 50.529 135.43L50.369 138.57C50.3691 138.69 50.322 138.806 50.2379 138.892C50.1538 138.978 50.0393 139.027 49.919 139.03H49.499C49.4386 139.027 49.3793 139.013 49.3245 138.987C49.2696 138.962 49.2204 138.926 49.1795 138.881C49.1386 138.837 49.107 138.784 49.0863 138.728C49.0656 138.671 49.0564 138.61 49.059 138.55Z" fill="#DD821F"/>
<path d="M43.8208 139.69L43.9808 136.69C43.9808 136.57 44.0279 136.454 44.112 136.368C44.1961 136.282 44.3105 136.233 44.4308 136.23H44.8608C44.9811 136.238 45.0935 136.292 45.1739 136.382C45.2543 136.472 45.2963 136.59 45.2908 136.71L45.1308 139.71C45.1308 139.83 45.0837 139.946 44.9996 140.032C44.9155 140.118 44.801 140.167 44.6808 140.17H44.2508C44.1305 140.162 44.0181 140.108 43.9377 140.018C43.8573 139.928 43.8153 139.81 43.8208 139.69Z" fill="#DD821F"/>
<path d="M38.5408 142.26L38.7008 138.96C38.7008 138.84 38.7479 138.724 38.832 138.638C38.9161 138.552 39.0305 138.503 39.1508 138.5H39.5808C39.6413 138.505 39.7002 138.522 39.7541 138.55C39.808 138.578 39.8559 138.616 39.8949 138.663C39.934 138.709 39.9634 138.763 39.9816 138.821C39.9998 138.879 40.0063 138.94 40.0008 139L39.8408 142.3C39.8408 142.42 39.7937 142.536 39.7096 142.622C39.6255 142.708 39.5111 142.757 39.3908 142.76H39.0008C38.9369 142.76 38.8736 142.747 38.815 142.722C38.7564 142.696 38.7038 142.658 38.6605 142.611C38.6173 142.564 38.5843 142.509 38.5636 142.448C38.543 142.388 38.5352 142.324 38.5408 142.26Z" fill="#DD821F"/>
</g>
<defs>
<linearGradient id="paint0_linear" x1="142.385" y1="191.491" x2="258.137" y2="193.762" gradientUnits="userSpaceOnUse">
<stop stop-color="#5761D7"/>
<stop offset="0.04" stop-color="#5C66D9"/>
<stop offset="0.09" stop-color="#6A73DF"/>
<stop offset="0.14" stop-color="#8289E8"/>
<stop offset="0.19" stop-color="#A3A7F5"/>
<stop offset="0.22" stop-color="#BCBEFF"/>
</linearGradient>
<linearGradient id="paint1_linear" x1="176.777" y1="131.604" x2="221.208" y2="200.714" gradientUnits="userSpaceOnUse">
<stop stop-color="#C0BFF6"/>
<stop offset="0.29" stop-color="#C5C4F7"/>
<stop offset="0.64" stop-color="#D3D2F9"/>
<stop offset="1" stop-color="#E9E9FD"/>
</linearGradient>
<linearGradient id="paint2_linear" x1="70.9262" y1="7.0508" x2="191.59" y2="212.825" gradientUnits="userSpaceOnUse">
<stop stop-color="#C0BFF6"/>
<stop offset="0.12" stop-color="#D0CFF9"/>
<stop offset="0.26" stop-color="#E9E9FD"/>
<stop offset="0.51" stop-color="#C0BFF6"/>
<stop offset="0.62" stop-color="#D0CFF9"/>
<stop offset="0.75" stop-color="#E9E9FD"/>
<stop offset="1" stop-color="#C0BFF6"/>
</linearGradient>
<clipPath id="clip0">
<rect width="271.02" height="224.52" fill="white"/>
</clipPath>
</defs>
</svg>
