<svg width="12" height="13" viewBox="0 0 12 13" fill="none" xmlns="http://www.w3.org/2000/svg">
<g clip-path="url(#clip0)">
<path d="M2.648 12.884C2.61855 12.884 2.58873 12.8761 2.56182 12.8604C2.50291 12.8261 2.46618 12.7591 2.46618 12.6871V9.88063C0.874546 8.98403 0 7.41418 0 5.44724C0 2.4076 2.57927 0.115662 6 0.115662C9.42073 0.115662 12 2.4076 12 5.44724C12 8.48648 9.42073 10.7784 6 10.7784C5.88764 10.7784 5.77745 10.7717 5.66691 10.7654L5.65964 10.765L2.748 12.8513C2.71782 12.873 2.68291 12.884 2.648 12.884ZM6 0.509601C2.78691 0.509601 0.363636 2.63254 0.363636 5.44724C0.363636 6.7563 0.773818 8.53651 2.72836 9.58321C2.79018 9.6163 2.82945 9.68484 2.82945 9.75969V12.3207L5.50909 10.4006C5.54182 10.377 5.58145 10.3632 5.61891 10.3683L5.68655 10.3723C5.79055 10.3786 5.89418 10.3845 5.99964 10.3845C9.21273 10.3845 11.636 8.26193 11.636 5.44724C11.636 2.63254 9.21309 0.509601 6 0.509601Z" fill="#6C6C6C"/>
</g>
<defs>
<clipPath id="clip0">
<rect width="12" height="13" fill="white" transform="translate(0 -0.000244141)"/>
</clipPath>
</defs>
</svg>
