<svg width="14" height="16" viewBox="0 0 14 16" fill="none" xmlns="http://www.w3.org/2000/svg">
<circle cx="7" cy="7" r="6.5" stroke="#FFF73F"/>
<path d="M6.673 9.196C6.607 9.196 6.552 9.174 6.508 9.13C6.464 9.086 6.442 9.031 6.442 8.965V8.525C6.45667 8.13633 6.55567 7.80267 6.739 7.524C6.92233 7.24533 7.19 6.92633 7.542 6.567C7.828 6.27367 8.037 6.03167 8.169 5.841C8.301 5.65033 8.367 5.44133 8.367 5.214C8.367 4.87667 8.224 4.609 7.938 4.411C7.65933 4.213 7.333 4.114 6.959 4.114C6.08633 4.114 5.573 4.554 5.419 5.434C5.38233 5.59533 5.287 5.676 5.133 5.676H4.605C4.53167 5.676 4.473 5.654 4.429 5.61C4.385 5.566 4.363 5.50733 4.363 5.434C4.37767 5.03067 4.49133 4.66033 4.704 4.323C4.924 3.97833 5.232 3.70333 5.628 3.498C6.024 3.29267 6.47867 3.19 6.992 3.19C7.53467 3.19 7.98933 3.28533 8.356 3.476C8.73 3.65933 9.005 3.90133 9.181 4.202C9.357 4.49533 9.445 4.81067 9.445 5.148C9.445 5.522 9.36067 5.84467 9.192 6.116C9.02333 6.38733 8.77033 6.70267 8.433 7.062C8.15433 7.35533 7.94533 7.60467 7.806 7.81C7.66667 8.008 7.586 8.23167 7.564 8.481C7.54933 8.68633 7.542 8.84033 7.542 8.943C7.50533 9.11167 7.41367 9.196 7.267 9.196H6.673ZM6.585 11C6.51167 11 6.44933 10.978 6.398 10.934C6.354 10.8827 6.332 10.8203 6.332 10.747V10.076C6.332 10.0027 6.354 9.944 6.398 9.9C6.44933 9.84867 6.51167 9.823 6.585 9.823H7.3C7.37333 9.823 7.43567 9.84867 7.487 9.9C7.53833 9.944 7.564 10.0027 7.564 10.076V10.747C7.564 10.8203 7.53833 10.8827 7.487 10.934C7.43567 10.978 7.37333 11 7.3 11H6.585Z" fill="#FFF73F"/>
</svg>
