<svg width="30" height="29" viewBox="0 0 30 29" fill="none" xmlns="http://www.w3.org/2000/svg">
<path d="M24.8324 0H4.30716C1.96254 0 0.0546875 1.90587 0.0546875 4.24805V24.752C0.0546875 27.0941 1.96254 29 4.30716 29H24.8324C27.177 29 29.0849 27.0941 29.0849 24.752V4.24805C29.0849 1.90587 27.177 0 24.8324 0ZM14.6265 22.0898C10.4057 22.0898 6.97204 18.6598 6.97204 14.4434C6.97204 10.227 10.4057 6.79688 14.6265 6.79688C18.8473 6.79688 22.2809 10.227 22.2809 14.4434C22.2809 18.6598 18.8473 22.0898 14.6265 22.0898ZM23.1314 8.49609C21.7246 8.49609 20.58 7.35266 20.58 5.94727C20.58 4.54187 21.7246 3.39844 23.1314 3.39844C24.5383 3.39844 25.6829 4.54187 25.6829 5.94727C25.6829 7.35266 24.5383 8.49609 23.1314 8.49609Z" fill="#FFD84F"/>
<path d="M23.1317 5.09766C22.6624 5.09766 22.2812 5.47843 22.2812 5.94727C22.2812 6.4161 22.6624 6.79688 23.1317 6.79688C23.6011 6.79688 23.9822 6.4161 23.9822 5.94727C23.9822 5.47843 23.6011 5.09766 23.1317 5.09766Z" fill="#FFD84F"/>
<path d="M14.6253 8.49609C11.343 8.49609 8.67188 11.1644 8.67188 14.4434C8.67188 17.7223 11.343 20.3906 14.6253 20.3906C17.9077 20.3906 20.5788 17.7223 20.5788 14.4434C20.5788 11.1644 17.9077 8.49609 14.6253 8.49609Z" fill="#FFD84F"/>
</svg>
