<svg width="52" height="52" viewBox="0 0 52 52" fill="none" xmlns="http://www.w3.org/2000/svg">
<path d="M46.7988 30.3333H40.7321V0.866667C40.7321 0.38805 40.3441 0 39.8655 0H12.1321C11.6535 0 11.2655 0.38805 11.2655 0.866667V30.3333H5.1988C4.96253 30.3333 4.73643 30.4298 4.57296 30.6004C4.24178 30.946 4.25348 31.4946 4.59907 31.8257L25.3991 51.7591C25.5605 51.9137 25.7753 52 25.9988 52C26.2223 52 26.4372 51.9137 26.5985 51.7591L47.3985 31.8257C47.5692 31.6623 47.6656 31.4362 47.6656 31.1999C47.6655 30.7213 47.2774 30.3333 46.7988 30.3333ZM25.9988 49.933L7.35507 32.0667H12.1321C12.6108 32.0667 12.9988 31.6786 12.9988 31.2V1.73333H38.9988V31.2C38.9988 31.6786 39.3869 32.0667 39.8655 32.0667H44.6425L25.9988 49.933Z" fill="#F9C300"/>
<path d="M26.0008 12.9999C27.9154 12.9999 29.4674 14.552 29.4674 16.4665H31.2008C31.1961 13.9319 29.3663 11.7691 26.8674 11.3445V9.5332H25.1341V11.3445C22.3053 11.8398 20.4135 14.5345 20.9088 17.3634C21.3424 19.8403 23.4863 21.652 26.0008 21.6665C27.9154 21.6665 29.4674 23.2186 29.4674 25.1332C29.4674 27.0478 27.9154 28.5999 26.0008 28.5999C24.0862 28.5999 22.5341 27.0478 22.5341 25.1332H20.8008C20.8054 27.6679 22.6353 29.8306 25.1341 30.2552V32.0665H26.8674V30.2552C29.6962 29.7599 31.5881 27.0652 31.0928 24.2363C30.6591 21.7595 28.5153 19.9477 26.0008 19.9332C24.0862 19.9332 22.5341 18.3811 22.5341 16.4665C22.5341 14.552 24.0862 12.9999 26.0008 12.9999Z" fill="#F9C300"/>
<path d="M16.4638 3.46655H14.7305V5.19989H16.4638V3.46655Z" fill="#F9C300"/>
<path d="M19.9326 3.4668H18.1992V5.20013H19.9326V3.4668Z" fill="#F9C300"/>
<path d="M23.3974 3.4668H21.6641V5.20013H23.3974V3.4668Z" fill="#F9C300"/>
<path d="M26.8661 3.4668H25.1328V5.20013H26.8661V3.4668Z" fill="#F9C300"/>
<path d="M30.331 3.4668H28.5977V5.20013H30.331V3.4668Z" fill="#F9C300"/>
<path d="M33.7997 3.4668H32.0664V5.20013H33.7997V3.4668Z" fill="#F9C300"/>
<path d="M37.2646 3.4668H35.5312V5.20013H37.2646V3.4668Z" fill="#F9C300"/>
</svg>
