<svg width="39" height="40" viewBox="0 0 39 40" fill="none" xmlns="http://www.w3.org/2000/svg">
<rect x="0.5" y="1.47168" width="38" height="38" rx="7.5" fill="#0073DC" stroke="#008AD8"/>
<g opacity="0.95">
<path d="M23.0747 24.3033V23.849C23.1977 23.7453 23.316 23.6318 23.4296 23.5133C24.3388 22.4685 24.9113 21.1526 25.0667 19.7507C25.8838 19.6207 26.6204 19.1637 27.1202 18.4767C27.8063 17.4645 27.8678 16.0078 27.2953 14.1808C27.2616 14.0755 27.195 13.985 27.106 13.9241L26.8458 13.7414C26.8842 12.0929 26.3382 10.4876 25.3127 9.23318C24.0399 7.73704 22.0858 6.98156 19.4976 6.97168C16.9142 6.97168 14.9553 7.73704 13.6825 9.21343C12.657 10.4679 12.1111 12.0732 12.1495 13.7216L11.8893 13.9043C11.8003 13.9652 11.7337 14.0557 11.7 14.1611C11.1275 15.9979 11.189 17.4447 11.8751 18.457C12.373 19.1488 13.1095 19.611 13.9286 19.7457C14.0846 21.1499 14.6589 22.4676 15.5704 23.5133C15.6831 23.6315 15.8015 23.7436 15.9253 23.849V24.3033C14.1131 24.6687 6.87853 26.4414 7.00155 31.4779C7.00155 31.7506 7.21341 31.9717 7.47471 31.9717H31.5253C31.7866 31.9717 31.9984 31.7506 31.9984 31.4779C32.1215 26.4414 24.8869 24.6687 23.0747 24.3033ZM13.6447 18.6446C13.2426 18.5037 12.8922 18.2364 12.6416 17.8792L12.6652 17.8842C12.1921 17.1633 12.1495 16.072 12.5706 14.6302L12.916 14.3882C13.0613 14.287 13.1414 14.1105 13.1242 13.929C13.0446 12.4532 13.5046 11.0008 14.4112 9.86522C15.4805 8.60115 17.1981 7.96911 19.4976 7.95924C21.7972 7.94936 23.5147 8.60115 24.603 9.86522C25.5096 11.0008 25.9696 12.4532 25.89 13.929C25.8728 14.1105 25.9529 14.287 26.0982 14.3882L26.4436 14.6302C26.8647 16.0671 26.8363 17.1633 26.349 17.8842C26.0966 18.2416 25.7447 18.5089 25.3411 18.6495C25.9119 17.9718 26.1907 17.0792 26.1124 16.1806C26.0237 15.64 25.7537 15.15 25.3506 14.7981C25.1471 9.86028 21.8303 9.30725 20.4014 9.30725C20.0989 9.30633 19.7968 9.32947 19.4976 9.37638C19.1985 9.32941 18.8964 9.30633 18.5939 9.30725C17.1744 9.30725 13.8623 9.85041 13.6447 14.7981C13.239 15.1472 12.9656 15.6355 12.8734 16.1757C12.7945 17.0743 13.0735 17.9672 13.6447 18.6446ZM24.409 14.5956C22.4236 14.7154 20.4506 14.1984 18.7548 13.1143C18.5629 12.9736 18.3011 13.001 18.1397 13.1785C17.1934 14.2401 15.4663 14.487 14.6336 14.5413C14.8891 11.0503 16.9142 10.2899 18.6176 10.2899C18.8887 10.2878 19.1594 10.311 19.4267 10.359C19.4891 10.3723 19.5535 10.3723 19.6159 10.359C19.8831 10.3111 20.1539 10.288 20.425 10.2899C22.1142 10.2899 24.1488 11.07 24.3853 14.5907L24.409 14.5956ZM14.7992 18.7384L14.8181 18.7434C14.8191 18.6216 14.777 18.5038 14.6998 18.4125C14.0516 17.6373 13.7535 16.9312 13.8339 16.3485C13.8725 16.024 14.0261 15.7263 14.2645 15.514C14.8891 15.514 17.1035 15.3906 18.5229 14.1117C20.1216 15.0708 21.931 15.5812 23.775 15.5931C24.092 15.5931 24.4137 15.5931 24.7497 15.5387C24.9816 15.7454 25.1331 16.0334 25.1755 16.3485C25.256 16.9213 24.9579 17.6373 24.3096 18.4125C24.2325 18.5038 24.1903 18.6216 24.1914 18.7434C24.1914 18.7434 24.1914 18.8421 24.1914 19.0001L21.4376 20.5407C20.8911 20.0008 20.0286 20.0254 19.5112 20.5957C18.9938 21.166 19.0174 22.0661 19.5639 22.6061C20.1104 23.146 20.9729 23.1214 21.4903 22.5511C21.73 22.2868 21.8636 21.9366 21.8634 21.5727C21.8656 21.5283 21.8656 21.4838 21.8634 21.4394L24.0352 20.2247C23.8488 21.1984 23.4102 22.1001 22.7672 22.8318C21.9284 23.6746 20.793 24.1178 19.6301 24.0564H19.3935C18.2332 24.1165 17.1003 23.6755 16.2612 22.8368C14.7661 21.2814 14.7992 18.7631 14.7992 18.7384ZM20.9171 21.5727C20.9171 21.8154 20.7286 22.0122 20.496 22.0122C20.2634 22.0122 20.0749 21.8154 20.0749 21.5727C20.0749 21.33 20.2634 21.1332 20.496 21.1332C20.7286 21.1332 20.9171 21.33 20.9171 21.5727ZM19.0245 30.9545H7.96206C8.33585 27.2462 14.1131 25.6958 15.9206 25.2958V26.1797C15.9206 27.3005 17.2265 28.1548 19.0245 28.298V30.9545ZM16.8669 26.1797V26.1648V24.4761C17.6534 24.8568 18.5125 25.0459 19.3793 25.0292H19.6159C20.4827 25.0459 21.3419 24.8568 22.1284 24.4761V26.1797C22.1284 26.6487 21.1016 27.3252 19.4976 27.3252C17.8936 27.3252 16.8669 26.6487 16.8669 26.1797ZM19.9708 30.9693V28.293C21.7688 28.1646 23.0747 27.3055 23.0747 26.1747V25.3106C24.8964 25.7056 30.6452 27.2561 31.0332 30.9693H19.9708Z" fill="white"/>
</g>
</svg>
