<svg width="102" height="102" viewBox="0 0 102 102" fill="none" xmlns="http://www.w3.org/2000/svg">
<path d="M45 14.4641C48.7128 12.3205 53.2872 12.3205 57 14.4641L79.641 27.5359C83.3538 29.6795 85.641 33.641 85.641 37.9282V64.0718C85.641 68.359 83.3538 72.3205 79.641 74.4641L57 87.5359C53.2872 89.6795 48.7128 89.6795 45 87.5359L22.359 74.4641C18.6462 72.3205 16.359 68.359 16.359 64.0718V37.9282C16.359 33.641 18.6462 29.6795 22.359 27.5359L45 14.4641Z" fill="#6897FF"/>
<path opacity="0.5" d="M45.25 3.89711C48.8081 1.84284 53.1919 1.84284 56.75 3.89711L88.9173 22.4689C92.4754 24.5232 94.6673 28.3196 94.6673 32.4282V69.5718C94.6673 73.6804 92.4754 77.4768 88.9173 79.5311L56.75 98.1029C53.1919 100.157 48.8081 100.157 45.25 98.1029L13.0827 79.5311C9.52459 77.4768 7.3327 73.6804 7.3327 69.5718V32.4282C7.3327 28.3197 9.52459 24.5232 13.0827 22.4689L45.25 3.89711Z" stroke="#6897FF"/>
<path d="M48.9952 56.6667C48.9523 55.9379 48.0705 55.3684 46.3068 54.934C46.3662 54.8062 46.3996 54.6733 46.4 54.5353V51.5556H46.3926C46.2375 49.0733 35.8886 49 34.7 49C33.5114 49 23.1625 49.0733 23.0074 51.5556H23V51.6109V54.5366C23.0022 55.3459 24.0647 55.9792 25.6455 56.4507C25.6238 56.5214 25.6108 56.5934 25.6065 56.6667H25.6V56.722V59.6426C23.897 60.0736 23.0464 60.635 23.0043 61.3519H23V61.4072V64.3329C23.0013 64.8964 23.5183 65.3743 24.3641 65.7725C24.3321 65.859 24.3121 65.9472 24.3065 66.0375H24.3V66.0928V69.0185C24.3035 70.4351 27.5487 71.3147 31.1545 71.7253C31.1809 71.7304 31.2052 71.741 31.2333 71.741C31.2416 71.741 31.2485 71.7368 31.2567 71.7364C31.9518 71.8134 32.6581 71.8735 33.3571 71.9165C33.3718 71.9182 33.3848 71.925 33.4 71.925C33.4082 71.925 33.4147 71.9208 33.4225 71.9204C34.31 71.9732 35.1832 72 36 72C36.8168 72 37.69 71.9732 38.5775 71.9199C38.5853 71.9204 38.5922 71.9246 38.6 71.9246C38.6152 71.9246 38.6282 71.9174 38.6429 71.9161C39.3419 71.8731 40.0482 71.8134 40.7433 71.7359C40.7515 71.7359 40.7584 71.7402 40.7667 71.7402C40.7948 71.7402 40.8191 71.7295 40.8455 71.7244C44.4513 71.3138 47.6961 70.4339 47.7 69.0168V66.037H47.6931C47.6627 65.5149 47.2099 65.0791 46.3155 64.715C46.3701 64.5919 46.4 64.4641 46.4 64.3316V61.5478C47.9557 61.0776 48.9978 60.4485 49 59.6464V56.6667H48.9952ZM45.4865 64.4701L45.3388 64.5974C45.1113 64.7946 44.7321 64.9935 44.2333 65.1852V63.1544C44.7486 62.978 45.1871 62.7825 45.5333 62.5683V64.3308C45.5333 64.3746 45.5169 64.4215 45.4865 64.4701ZM35.7946 66.4493C35.7313 66.451 35.6676 66.4519 35.6039 66.4532C35.4492 66.4562 35.2906 66.457 35.1338 66.4583V64.3308C35.2529 64.3295 35.3721 64.3278 35.4913 64.3257C35.5142 64.3252 35.5372 64.3248 35.5602 64.3244C35.9965 64.3163 36.4329 64.3031 36.8671 64.2835V66.4101C36.7744 66.4148 36.6812 66.4191 36.5872 66.4229C36.3263 66.4344 36.0628 66.4429 35.7946 66.4493ZM33.9022 66.4553C33.7038 66.4519 33.5062 66.4472 33.3099 66.4412C33.2856 66.4404 33.2613 66.4395 33.2371 66.4387C33.0009 66.431 32.7665 66.4212 32.5338 66.4101V64.2839C32.968 64.3039 33.4043 64.3171 33.8407 64.3248C33.8637 64.3252 33.8866 64.3257 33.9092 64.3261C34.0283 64.3282 34.1475 64.3299 34.2667 64.3312V66.46C34.1826 66.4591 34.0985 66.4591 34.0149 66.4579C33.9768 66.457 33.9399 66.4557 33.9022 66.4553ZM26.0754 65.4842C26.0611 65.4799 26.0476 65.4761 26.0333 65.4723V63.4146C26.4381 63.5219 26.8731 63.6199 27.3333 63.7089V65.7879C26.9355 65.7048 26.5685 65.6175 26.2344 65.5281C26.1815 65.5131 26.1269 65.4991 26.0754 65.4842ZM35.2092 69.0113C35.3283 69.0134 35.4475 69.0151 35.5667 69.0164V71.1456C34.9678 71.1401 34.3897 71.123 33.8333 71.0962V68.9695C34.2675 68.9896 34.7039 69.0028 35.1403 69.0104C35.1632 69.0104 35.1862 69.0109 35.2092 69.0113ZM36.8597 69.01C37.2961 69.0019 37.7325 68.9887 38.1667 68.9691V71.0958C37.6103 71.1226 37.0322 71.1396 36.4333 71.1452V69.016C36.5525 69.0147 36.6717 69.013 36.7908 69.0109C36.8138 69.0109 36.8368 69.0104 36.8597 69.01ZM40.3333 68.8175V70.9326C39.9169 70.9756 39.4836 71.0136 39.0333 71.0446V68.9206C39.4727 68.8924 39.9069 68.8579 40.3333 68.8175ZM41.2 68.7255C41.6468 68.6727 42.0805 68.6126 42.5 68.5457V70.637C42.0918 70.7077 41.658 70.7729 41.2 70.8321V68.7255ZM43.3667 68.3937C43.8269 68.3047 44.2619 68.2067 44.6667 68.0994V70.157C44.2806 70.2665 43.8459 70.3725 43.3667 70.4726V68.3937ZM28.6333 68.3937V70.4726C28.1541 70.3725 27.7194 70.2665 27.3333 70.157V68.0994C27.7381 68.2067 28.1731 68.3051 28.6333 68.3937ZM29.5 68.5462C29.9195 68.613 30.3532 68.6731 30.8 68.7259V70.8325C30.342 70.7733 29.9082 70.7082 29.5 70.6375V68.5462ZM31.6667 68.8175C32.0931 68.8579 32.5273 68.8924 32.9667 68.921V71.0451C32.5164 71.014 32.0831 70.9761 31.6667 70.9331V68.8175ZM30.5916 66.2704C30.5474 66.2662 30.5036 66.2615 30.4598 66.2572C30.4286 66.2543 30.3979 66.2504 30.3667 66.2474V64.1327C30.7931 64.1732 31.2273 64.2077 31.6667 64.2362V66.3586C31.3027 66.3331 30.943 66.3041 30.5916 66.2704ZM29.5 64.0403V66.1469C29.042 66.0877 28.6082 66.0226 28.2 65.9519V63.8606C28.6195 63.9274 29.0532 63.9879 29.5 64.0403ZM38.0219 66.3386C37.9266 66.3458 37.8304 66.3531 37.7333 66.3599V64.2358C38.1727 64.2073 38.6069 64.1732 39.0333 64.1323V66.2474C38.7655 66.2751 38.4917 66.3011 38.2104 66.3237C38.1476 66.3292 38.0848 66.3339 38.0219 66.3386ZM39.9 66.1469V64.0403C40.3468 63.9875 40.7805 63.9274 41.2 63.8606V65.9519C40.7918 66.0226 40.358 66.0881 39.9 66.1469ZM42.0667 63.7085C42.5269 63.6195 42.9619 63.5215 43.3667 63.4142V65.4718C42.9806 65.5813 42.5459 65.6874 42.0667 65.7874V63.7085ZM36.1408 61.7629C35.815 61.7548 35.4965 61.7424 35.1836 61.7275C35.1667 61.7267 35.1498 61.7258 35.1333 61.7254V59.5987C35.5675 59.6188 36.0039 59.632 36.4403 59.6396C36.4632 59.6401 36.4862 59.6405 36.5087 59.6409C36.6279 59.643 36.7471 59.6447 36.8662 59.646V61.7727C36.6552 61.7705 36.4424 61.7697 36.2366 61.765C36.205 61.7641 36.1725 61.7637 36.1408 61.7629ZM26.0333 55.676V53.6183C26.4381 53.7256 26.8731 53.8236 27.3333 53.9126V55.9916C27.28 55.9805 27.225 55.9694 27.173 55.9584C26.9425 55.9085 26.7176 55.8566 26.5026 55.8016C26.3388 55.7603 26.1833 55.7181 26.0333 55.676ZM33.9092 54.5298C34.0283 54.5319 34.1475 54.5336 34.2667 54.5349V56.6616C33.6834 56.656 33.1036 56.6411 32.5333 56.613V54.4881C32.9675 54.5081 33.4039 54.5213 33.8403 54.5289C33.8632 54.5289 33.8862 54.5294 33.9092 54.5298ZM35.5597 54.5285C35.9961 54.5204 36.4325 54.5072 36.8667 54.4876V56.6126C36.793 56.616 36.7224 56.6211 36.6483 56.6245C36.6422 56.6249 36.6361 56.6249 36.6296 56.6254C36.3389 56.6381 36.0425 56.6475 35.7422 56.6543C35.6954 56.6556 35.6486 56.656 35.6018 56.6573C35.4475 56.6603 35.2898 56.6607 35.1333 56.6624V54.5349C35.2525 54.5336 35.3717 54.5319 35.4908 54.5298C35.5138 54.5294 35.5368 54.5289 35.5597 54.5285ZM45.4341 54.7423L45.422 54.7398L45.2642 54.8603C45.0354 55.0354 44.684 55.2126 44.2333 55.3838V53.3576C44.7486 53.1813 45.1871 52.9858 45.5333 52.7716V54.5341C45.5333 54.5988 45.4987 54.6686 45.4341 54.7423ZM39.9 56.3481V54.244C40.3468 54.1912 40.7805 54.1311 41.2 54.0643V56.1521C40.7892 56.2237 40.3567 56.2893 39.9 56.3481ZM42.0667 55.9882V53.9126C42.5269 53.8236 42.9619 53.7256 43.3667 53.6183V55.6713C42.9784 55.7824 42.5412 55.8885 42.0667 55.9882ZM39.0333 54.336V56.4486C38.6147 56.492 38.1814 56.5299 37.7333 56.5615V54.4395C38.1727 54.411 38.6069 54.3765 39.0333 54.336ZM30.3667 56.4494V54.336C30.7931 54.3765 31.2273 54.411 31.6667 54.4395V56.5598C31.2255 56.5287 30.7905 56.4933 30.3667 56.4494ZM29.5 54.244V56.3485C29.4142 56.3374 29.3249 56.3285 29.24 56.317C29.1845 56.3093 29.1317 56.3012 29.0771 56.2936C28.8266 56.2582 28.5818 56.2203 28.3417 56.1807C28.2936 56.1726 28.2472 56.1641 28.2 56.156V54.0647C28.6195 54.1311 29.0532 54.1916 29.5 54.244ZM34.1592 61.6666C34.1007 61.6624 34.0418 61.6581 33.9837 61.6538C33.7064 61.6325 33.4355 61.6091 33.1712 61.5831C33.1144 61.5776 33.0577 61.5716 33.0013 61.5661C32.9896 61.5648 32.9784 61.5631 32.9667 61.5623V59.4471C33.3931 59.4876 33.8273 59.5221 34.2667 59.5506V61.6734C34.2316 61.6709 34.1943 61.6692 34.1592 61.6666ZM31.2962 61.3484C31.1246 61.3216 30.9634 61.2926 30.8 61.2645V59.1758C31.2195 59.2427 31.6532 59.3027 32.1 59.3555V61.4622C31.8348 61.4277 31.5752 61.3919 31.3261 61.3536C31.3161 61.3514 31.3061 61.3497 31.2962 61.3484ZM29.9333 59.0233V61.0989C29.4545 60.9979 29.0203 60.8906 28.6333 60.779V58.729C29.0381 58.8363 29.4731 58.9347 29.9333 59.0233ZM27.7667 58.4688V60.4923C27.0855 60.2338 26.6461 59.9697 26.5031 59.7346L26.474 59.6869C26.4714 59.6737 26.4671 59.6596 26.4667 59.6464V57.8827C26.8129 58.0969 27.2514 58.2924 27.7667 58.4688ZM38.1597 59.6396C38.5961 59.6315 39.0325 59.6183 39.4667 59.5987V61.7233C38.8973 61.7509 38.3183 61.7663 37.7333 61.7722V59.646C37.8525 59.6447 37.9717 59.643 38.0908 59.6409C38.1138 59.6405 38.1368 59.6401 38.1597 59.6396ZM43.7597 61.2739C43.5695 61.3063 43.3775 61.3382 43.1803 61.3676C43.0672 61.3846 42.9515 61.4008 42.8354 61.417C42.7258 61.4324 42.6118 61.4456 42.5004 61.4596V59.3551C42.9472 59.3023 43.381 59.2422 43.8004 59.1754V61.2667C43.7866 61.2692 43.7731 61.2718 43.7597 61.2739ZM40.8256 61.6376C40.664 61.6509 40.4971 61.6594 40.3333 61.6709V59.5506C40.7727 59.5221 41.2069 59.488 41.6333 59.4471V61.5601C41.3816 61.5861 41.1302 61.6121 40.8715 61.6334C40.8559 61.6347 40.8412 61.6364 40.8256 61.6376ZM45.7777 60.839C45.5619 60.8982 45.3336 60.9536 45.1004 61.0077C44.9925 61.0324 44.8825 61.0571 44.7698 61.081C44.7364 61.0882 44.7009 61.0946 44.6671 61.1018V59.0237C45.1273 58.9347 45.5624 58.8368 45.9671 58.7294V60.7871C45.9047 60.8041 45.8419 60.8216 45.7777 60.839ZM48.1286 56.6944C48.0887 56.9836 47.4218 57.3682 46.2314 57.7298C44.6983 58.1953 42.2994 58.6217 39.2591 58.7537C39.1035 58.7601 38.9484 58.7665 38.7898 58.7716C38.6602 58.7759 38.5302 58.7797 38.3981 58.7831C38.0393 58.7908 37.6753 58.7963 37.3 58.7963C36.9247 58.7963 36.5607 58.7908 36.2019 58.7827C36.0702 58.7797 35.9402 58.7754 35.8102 58.7712C35.6512 58.7665 35.496 58.7597 35.3409 58.7533C32.3006 58.6212 29.9013 58.1949 28.3686 57.7294C27.1877 57.3707 26.5221 56.9891 26.4727 56.7012C26.4749 56.6931 26.4749 56.6863 26.4801 56.676C26.5096 56.6833 26.5425 56.6892 26.5724 56.6965C26.7418 56.7361 26.9156 56.7744 27.0924 56.8111C27.9534 56.9934 28.9076 57.1429 29.9242 57.257C29.9277 57.257 29.9303 57.2587 29.9333 57.2587C29.9342 57.2587 29.9351 57.2583 29.9355 57.2583C30.628 57.3358 31.3464 57.3967 32.084 57.4397C32.0896 57.4397 32.0944 57.4427 32.1 57.4427C32.103 57.4427 32.1052 57.441 32.1082 57.441C32.6391 57.4717 33.1768 57.4942 33.7211 57.5062C34.0543 57.5143 34.3815 57.5185 34.7 57.5185C34.9275 57.5185 35.1606 57.516 35.3959 57.5117C38.5445 57.464 41.4626 57.096 43.4932 56.5257C43.5868 56.4997 43.6782 56.4729 43.7684 56.446C43.8234 56.4294 43.8797 56.4132 43.933 56.3966C44.0899 56.3472 44.2403 56.2965 44.3854 56.2437C44.4106 56.2344 44.4344 56.225 44.4595 56.2156C44.5822 56.17 44.7 56.1228 44.8127 56.0746C44.8452 56.0606 44.8786 56.0469 44.9102 56.0329C45.0302 55.9796 45.1464 55.9251 45.2538 55.8685C45.3024 55.8434 45.3444 55.8174 45.3899 55.7918C45.4419 55.7624 45.4939 55.7326 45.542 55.7024C45.5693 55.6853 45.6018 55.6691 45.6278 55.6521C47.5678 56.0657 48.0792 56.518 48.1286 56.6944ZM34.7 49.8519C41.8452 49.8519 45.4592 50.9576 45.5268 51.5922C45.4744 51.8801 44.8092 52.2605 43.6314 52.6182C42.0983 53.0838 39.6994 53.5101 36.6591 53.6422C36.5035 53.6486 36.3484 53.6549 36.1898 53.6601C36.0602 53.6643 35.9302 53.6681 35.7981 53.6716C35.4393 53.6796 35.0753 53.6852 34.7 53.6852C34.3247 53.6852 33.9607 53.6796 33.6019 53.6716C33.4702 53.6686 33.3402 53.6643 33.2102 53.6601C33.0512 53.6554 32.896 53.6486 32.7409 53.6422C29.7006 53.5101 27.3013 53.0838 25.7686 52.6182C24.5903 52.2605 23.9256 51.8801 23.8732 51.5922C23.9408 50.9576 27.5548 49.8519 34.7 49.8519ZM23.8667 54.5353V52.7716C24.2129 52.9858 24.6514 53.1813 25.1667 53.3576V55.397C24.3238 55.0865 23.8675 54.7751 23.8667 54.5353ZM25.9657 60.4297C25.9722 60.4365 25.9822 60.4425 25.9887 60.4493C26.5819 61.0379 27.8104 61.5005 29.3397 61.8455C29.3748 61.8536 29.412 61.8613 29.4476 61.8694C29.5598 61.8941 29.6738 61.9183 29.789 61.9418C31.1935 62.2356 32.87 62.4482 34.6965 62.5534C34.6978 62.5534 34.6987 62.5538 34.6996 62.5538C34.7004 62.5538 34.7009 62.5534 34.7013 62.5534C35.288 62.587 35.8882 62.6105 36.5009 62.6207C36.7722 62.6262 37.0391 62.6296 37.3 62.6296C37.599 62.6296 37.9058 62.6262 38.2178 62.619C38.7846 62.6075 39.3432 62.5845 39.8939 62.553C39.8961 62.553 39.8978 62.5542 39.9 62.5542C39.9039 62.5542 39.9069 62.5521 39.9108 62.5521C41.7421 62.4461 43.4603 62.2314 44.9132 61.9226C44.5986 62.0844 44.1679 62.2518 43.6314 62.415C42.0129 62.9065 39.4281 63.3541 36.143 63.4581C36.0455 63.461 35.9493 63.4644 35.8505 63.467C35.7443 63.4696 35.6364 63.4713 35.5285 63.4734C35.256 63.4776 34.9817 63.4815 34.7 63.4815C34.3247 63.4815 33.9607 63.4759 33.6019 63.4679C33.4702 63.4649 33.3402 63.4606 33.2102 63.4564C33.0512 63.4517 32.896 63.4449 32.7409 63.4385C29.7006 63.3064 27.3013 62.8801 25.7686 62.4145C24.5769 62.0525 23.91 61.6675 23.8714 61.3783C23.9195 61.2181 24.3576 60.8173 25.9657 60.4297ZM23.8667 64.3316V62.5679C24.2129 62.7821 24.6514 62.9776 25.1667 63.1539V65.1852L24.9192 65.0906L24.914 65.0957C24.2337 64.8185 23.8675 64.5463 23.8667 64.3316ZM25.1667 69.0168V67.2531C25.5129 67.4673 25.9514 67.6628 26.4667 67.8391V69.8785C25.6238 69.568 25.1675 69.2566 25.1667 69.0168ZM45.5333 69.8785V67.8396C46.0486 67.6632 46.4871 67.4677 46.8333 67.2535V69.016C46.8329 69.2558 46.3762 69.5675 45.5333 69.8785ZM46.8277 66.0698C46.7805 66.3582 46.1149 66.7407 44.9314 67.1001C43.3983 67.5657 40.9994 67.992 37.9591 68.1241C37.8035 68.1305 37.6484 68.1369 37.4898 68.142C37.3602 68.1462 37.2302 68.1501 37.0981 68.1535C36.7393 68.1611 36.3753 68.1667 36 68.1667C35.6247 68.1667 35.2603 68.1611 34.9011 68.153C34.7706 68.1501 34.6419 68.1458 34.5132 68.1415C34.3533 68.1364 34.1973 68.13 34.0409 68.1236C31.0006 67.9916 28.6017 67.5653 27.0686 67.0997C25.9224 66.7517 25.2603 66.382 25.1771 66.0967C25.3062 66.141 25.4401 66.184 25.5775 66.2261C25.5913 66.2304 25.6052 66.2347 25.6191 66.2385C25.7361 66.2739 25.8557 66.3079 25.9783 66.3411C26.0247 66.3539 26.0715 66.3667 26.1187 66.3791C26.188 66.3974 26.2591 66.4148 26.3302 66.4327C27.9084 66.8301 29.9229 67.1116 32.0978 67.2381C32.0987 67.2381 32.0991 67.2386 32.1 67.2386C32.1004 67.2386 32.1009 67.2381 32.1013 67.2381C32.773 67.2773 33.4589 67.3016 34.1523 67.3097C34.3369 67.3131 34.5202 67.3148 34.7 67.3148C34.9388 67.3148 35.1832 67.3118 35.4306 67.3076C36.0628 67.2974 36.6868 67.2744 37.297 67.2386C37.2983 67.2386 37.2991 67.2394 37.3004 67.2394C37.3026 67.2394 37.3039 67.2381 37.3061 67.2381C38.0492 67.1943 38.7686 67.1317 39.4597 67.0537C39.4623 67.0537 39.4645 67.055 39.4671 67.055C39.4766 67.055 39.4844 67.0503 39.494 67.0495C40.2636 66.9621 40.9933 66.8548 41.6706 66.73C41.8101 66.7049 41.9475 66.6789 42.0836 66.6521C42.1139 66.6461 42.1442 66.6402 42.1746 66.6338C43.4542 66.3756 44.5618 66.0413 45.3219 65.6269C45.3635 65.6047 45.4025 65.5817 45.4419 65.5591C45.49 65.531 45.5359 65.5025 45.5806 65.4735C45.6222 65.4471 45.6703 65.4216 45.7084 65.3947C46.5638 65.6946 46.7995 65.9629 46.8277 66.0698ZM46.8333 60.5081V58.4692C47.3486 58.2929 47.7871 58.0974 48.1333 57.8831V59.6456C48.1329 59.8854 47.6762 60.1972 46.8333 60.5081Z" fill="white"/>
<path d="M77.9952 56.6667C77.9523 55.9379 77.0705 55.3684 75.3068 54.934C75.3662 54.8062 75.3996 54.6733 75.4 54.5353V51.5556H75.3926C75.2375 49.0733 64.8886 49 63.7 49C62.5114 49 52.1625 49.0733 52.0074 51.5556H52V51.6109V54.5366C52.0022 55.3459 53.0647 55.9792 54.6455 56.4507C54.6238 56.5214 54.6108 56.5934 54.6065 56.6667H54.6V56.722V59.6426C52.897 60.0736 52.0464 60.635 52.0043 61.3519H52V61.4072V64.3329C52.0013 64.8964 52.5183 65.3743 53.3641 65.7725C53.3321 65.859 53.3121 65.9472 53.3065 66.0375H53.3V66.0928V69.0185C53.3035 70.4351 56.5487 71.3147 60.1545 71.7253C60.1809 71.7304 60.2052 71.741 60.2333 71.741C60.2416 71.741 60.2485 71.7368 60.2567 71.7364C60.9518 71.8134 61.6581 71.8735 62.3571 71.9165C62.3718 71.9182 62.3848 71.925 62.4 71.925C62.4082 71.925 62.4147 71.9208 62.4225 71.9204C63.31 71.9732 64.1832 72 65 72C65.8168 72 66.69 71.9732 67.5775 71.9199C67.5853 71.9204 67.5922 71.9246 67.6 71.9246C67.6152 71.9246 67.6282 71.9174 67.6429 71.9161C68.3419 71.8731 69.0482 71.8134 69.7433 71.7359C69.7515 71.7359 69.7584 71.7402 69.7667 71.7402C69.7948 71.7402 69.8191 71.7295 69.8455 71.7244C73.4513 71.3138 76.6961 70.4339 76.7 69.0168V66.037H76.6931C76.6627 65.5149 76.2099 65.0791 75.3155 64.715C75.3701 64.5919 75.4 64.4641 75.4 64.3316V61.5478C76.9557 61.0776 77.9978 60.4485 78 59.6464V56.6667H77.9952ZM74.4865 64.4701L74.3388 64.5974C74.1113 64.7946 73.7321 64.9935 73.2333 65.1852V63.1544C73.7486 62.978 74.1871 62.7825 74.5333 62.5683V64.3308C74.5333 64.3746 74.5169 64.4215 74.4865 64.4701ZM64.7946 66.4493C64.7313 66.451 64.6676 66.4519 64.6039 66.4532C64.4492 66.4562 64.2906 66.457 64.1338 66.4583V64.3308C64.2529 64.3295 64.3721 64.3278 64.4913 64.3257C64.5142 64.3252 64.5372 64.3248 64.5602 64.3244C64.9965 64.3163 65.4329 64.3031 65.8671 64.2835V66.4101C65.7744 66.4148 65.6812 66.4191 65.5872 66.4229C65.3263 66.4344 65.0628 66.4429 64.7946 66.4493ZM62.9022 66.4553C62.7038 66.4519 62.5062 66.4472 62.3099 66.4412C62.2856 66.4404 62.2613 66.4395 62.2371 66.4387C62.0009 66.431 61.7665 66.4212 61.5338 66.4101V64.2839C61.968 64.3039 62.4043 64.3171 62.8407 64.3248C62.8637 64.3252 62.8866 64.3257 62.9092 64.3261C63.0283 64.3282 63.1475 64.3299 63.2667 64.3312V66.46C63.1826 66.4591 63.0985 66.4591 63.0149 66.4579C62.9768 66.457 62.9399 66.4557 62.9022 66.4553ZM55.0754 65.4842C55.0611 65.4799 55.0476 65.4761 55.0333 65.4723V63.4146C55.4381 63.5219 55.8731 63.6199 56.3333 63.7089V65.7879C55.9355 65.7048 55.5685 65.6175 55.2344 65.5281C55.1815 65.5131 55.1269 65.4991 55.0754 65.4842ZM64.2092 69.0113C64.3283 69.0134 64.4475 69.0151 64.5667 69.0164V71.1456C63.9678 71.1401 63.3897 71.123 62.8333 71.0962V68.9695C63.2675 68.9896 63.7039 69.0028 64.1403 69.0104C64.1632 69.0104 64.1862 69.0109 64.2092 69.0113ZM65.8597 69.01C66.2961 69.0019 66.7325 68.9887 67.1667 68.9691V71.0958C66.6103 71.1226 66.0322 71.1396 65.4333 71.1452V69.016C65.5525 69.0147 65.6717 69.013 65.7908 69.0109C65.8138 69.0109 65.8368 69.0104 65.8597 69.01ZM69.3333 68.8175V70.9326C68.9169 70.9756 68.4836 71.0136 68.0333 71.0446V68.9206C68.4727 68.8924 68.9069 68.8579 69.3333 68.8175ZM70.2 68.7255C70.6468 68.6727 71.0805 68.6126 71.5 68.5457V70.637C71.0918 70.7077 70.658 70.7729 70.2 70.8321V68.7255ZM72.3667 68.3937C72.8269 68.3047 73.2619 68.2067 73.6667 68.0994V70.157C73.2806 70.2665 72.8459 70.3725 72.3667 70.4726V68.3937ZM57.6333 68.3937V70.4726C57.1541 70.3725 56.7194 70.2665 56.3333 70.157V68.0994C56.7381 68.2067 57.1731 68.3051 57.6333 68.3937ZM58.5 68.5462C58.9195 68.613 59.3532 68.6731 59.8 68.7259V70.8325C59.342 70.7733 58.9082 70.7082 58.5 70.6375V68.5462ZM60.6667 68.8175C61.0931 68.8579 61.5273 68.8924 61.9667 68.921V71.0451C61.5164 71.014 61.0831 70.9761 60.6667 70.9331V68.8175ZM59.5916 66.2704C59.5474 66.2662 59.5036 66.2615 59.4598 66.2572C59.4286 66.2543 59.3979 66.2504 59.3667 66.2474V64.1327C59.7931 64.1732 60.2273 64.2077 60.6667 64.2362V66.3586C60.3027 66.3331 59.943 66.3041 59.5916 66.2704ZM58.5 64.0403V66.1469C58.042 66.0877 57.6082 66.0226 57.2 65.9519V63.8606C57.6195 63.9274 58.0532 63.9879 58.5 64.0403ZM67.0219 66.3386C66.9266 66.3458 66.8304 66.3531 66.7333 66.3599V64.2358C67.1727 64.2073 67.6069 64.1732 68.0333 64.1323V66.2474C67.7655 66.2751 67.4917 66.3011 67.2104 66.3237C67.1476 66.3292 67.0848 66.3339 67.0219 66.3386ZM68.9 66.1469V64.0403C69.3468 63.9875 69.7805 63.9274 70.2 63.8606V65.9519C69.7918 66.0226 69.358 66.0881 68.9 66.1469ZM71.0667 63.7085C71.5269 63.6195 71.9619 63.5215 72.3667 63.4142V65.4718C71.9806 65.5813 71.5459 65.6874 71.0667 65.7874V63.7085ZM65.1408 61.7629C64.815 61.7548 64.4965 61.7424 64.1836 61.7275C64.1667 61.7267 64.1498 61.7258 64.1333 61.7254V59.5987C64.5675 59.6188 65.0039 59.632 65.4403 59.6396C65.4632 59.6401 65.4862 59.6405 65.5087 59.6409C65.6279 59.643 65.7471 59.6447 65.8662 59.646V61.7727C65.6552 61.7705 65.4424 61.7697 65.2366 61.765C65.205 61.7641 65.1725 61.7637 65.1408 61.7629ZM55.0333 55.676V53.6183C55.4381 53.7256 55.8731 53.8236 56.3333 53.9126V55.9916C56.28 55.9805 56.225 55.9694 56.173 55.9584C55.9425 55.9085 55.7176 55.8566 55.5026 55.8016C55.3388 55.7603 55.1833 55.7181 55.0333 55.676ZM62.9092 54.5298C63.0283 54.5319 63.1475 54.5336 63.2667 54.5349V56.6616C62.6834 56.656 62.1036 56.6411 61.5333 56.613V54.4881C61.9675 54.5081 62.4039 54.5213 62.8403 54.5289C62.8632 54.5289 62.8862 54.5294 62.9092 54.5298ZM64.5597 54.5285C64.9961 54.5204 65.4325 54.5072 65.8667 54.4876V56.6126C65.793 56.616 65.7224 56.6211 65.6483 56.6245C65.6422 56.6249 65.6361 56.6249 65.6296 56.6254C65.3389 56.6381 65.0425 56.6475 64.7422 56.6543C64.6954 56.6556 64.6486 56.656 64.6018 56.6573C64.4475 56.6603 64.2898 56.6607 64.1333 56.6624V54.5349C64.2525 54.5336 64.3717 54.5319 64.4908 54.5298C64.5138 54.5294 64.5368 54.5289 64.5597 54.5285ZM74.4341 54.7423L74.422 54.7398L74.2642 54.8603C74.0354 55.0354 73.684 55.2126 73.2333 55.3838V53.3576C73.7486 53.1813 74.1871 52.9858 74.5333 52.7716V54.5341C74.5333 54.5988 74.4987 54.6686 74.4341 54.7423ZM68.9 56.3481V54.244C69.3468 54.1912 69.7805 54.1311 70.2 54.0643V56.1521C69.7892 56.2237 69.3567 56.2893 68.9 56.3481ZM71.0667 55.9882V53.9126C71.5269 53.8236 71.9619 53.7256 72.3667 53.6183V55.6713C71.9784 55.7824 71.5412 55.8885 71.0667 55.9882ZM68.0333 54.336V56.4486C67.6147 56.492 67.1814 56.5299 66.7333 56.5615V54.4395C67.1727 54.411 67.6069 54.3765 68.0333 54.336ZM59.3667 56.4494V54.336C59.7931 54.3765 60.2273 54.411 60.6667 54.4395V56.5598C60.2255 56.5287 59.7905 56.4933 59.3667 56.4494ZM58.5 54.244V56.3485C58.4142 56.3374 58.3249 56.3285 58.24 56.317C58.1845 56.3093 58.1317 56.3012 58.0771 56.2936C57.8266 56.2582 57.5818 56.2203 57.3417 56.1807C57.2936 56.1726 57.2472 56.1641 57.2 56.156V54.0647C57.6195 54.1311 58.0532 54.1916 58.5 54.244ZM63.1592 61.6666C63.1007 61.6624 63.0418 61.6581 62.9837 61.6538C62.7064 61.6325 62.4355 61.6091 62.1712 61.5831C62.1144 61.5776 62.0577 61.5716 62.0013 61.5661C61.9896 61.5648 61.9784 61.5631 61.9667 61.5623V59.4471C62.3931 59.4876 62.8273 59.5221 63.2667 59.5506V61.6734C63.2316 61.6709 63.1943 61.6692 63.1592 61.6666ZM60.2962 61.3484C60.1246 61.3216 59.9634 61.2926 59.8 61.2645V59.1758C60.2195 59.2427 60.6532 59.3027 61.1 59.3555V61.4622C60.8348 61.4277 60.5752 61.3919 60.3261 61.3536C60.3161 61.3514 60.3061 61.3497 60.2962 61.3484ZM58.9333 59.0233V61.0989C58.4545 60.9979 58.0203 60.8906 57.6333 60.779V58.729C58.0381 58.8363 58.4731 58.9347 58.9333 59.0233ZM56.7667 58.4688V60.4923C56.0855 60.2338 55.6461 59.9697 55.5031 59.7346L55.474 59.6869C55.4714 59.6737 55.4671 59.6596 55.4667 59.6464V57.8827C55.8129 58.0969 56.2514 58.2924 56.7667 58.4688ZM67.1597 59.6396C67.5961 59.6315 68.0325 59.6183 68.4667 59.5987V61.7233C67.8973 61.7509 67.3183 61.7663 66.7333 61.7722V59.646C66.8525 59.6447 66.9717 59.643 67.0908 59.6409C67.1138 59.6405 67.1368 59.6401 67.1597 59.6396ZM72.7597 61.2739C72.5695 61.3063 72.3775 61.3382 72.1803 61.3676C72.0672 61.3846 71.9515 61.4008 71.8354 61.417C71.7258 61.4324 71.6118 61.4456 71.5004 61.4596V59.3551C71.9472 59.3023 72.381 59.2422 72.8004 59.1754V61.2667C72.7866 61.2692 72.7731 61.2718 72.7597 61.2739ZM69.8256 61.6376C69.664 61.6509 69.4971 61.6594 69.3333 61.6709V59.5506C69.7727 59.5221 70.2069 59.488 70.6333 59.4471V61.5601C70.3816 61.5861 70.1302 61.6121 69.8715 61.6334C69.8559 61.6347 69.8412 61.6364 69.8256 61.6376ZM74.7777 60.839C74.5619 60.8982 74.3336 60.9536 74.1004 61.0077C73.9925 61.0324 73.8825 61.0571 73.7698 61.081C73.7364 61.0882 73.7009 61.0946 73.6671 61.1018V59.0237C74.1273 58.9347 74.5624 58.8368 74.9671 58.7294V60.7871C74.9047 60.8041 74.8419 60.8216 74.7777 60.839ZM77.1286 56.6944C77.0887 56.9836 76.4218 57.3682 75.2314 57.7298C73.6983 58.1953 71.2994 58.6217 68.2591 58.7537C68.1035 58.7601 67.9484 58.7665 67.7898 58.7716C67.6602 58.7759 67.5302 58.7797 67.3981 58.7831C67.0393 58.7908 66.6753 58.7963 66.3 58.7963C65.9247 58.7963 65.5607 58.7908 65.2019 58.7827C65.0702 58.7797 64.9402 58.7754 64.8102 58.7712C64.6512 58.7665 64.496 58.7597 64.3409 58.7533C61.3006 58.6212 58.9013 58.1949 57.3686 57.7294C56.1877 57.3707 55.5221 56.9891 55.4727 56.7012C55.4749 56.6931 55.4749 56.6863 55.4801 56.676C55.5096 56.6833 55.5425 56.6892 55.5724 56.6965C55.7418 56.7361 55.9156 56.7744 56.0924 56.8111C56.9534 56.9934 57.9076 57.1429 58.9242 57.257C58.9277 57.257 58.9303 57.2587 58.9333 57.2587C58.9342 57.2587 58.9351 57.2583 58.9355 57.2583C59.628 57.3358 60.3464 57.3967 61.084 57.4397C61.0896 57.4397 61.0944 57.4427 61.1 57.4427C61.103 57.4427 61.1052 57.441 61.1082 57.441C61.6391 57.4717 62.1768 57.4942 62.7211 57.5062C63.0543 57.5143 63.3815 57.5185 63.7 57.5185C63.9275 57.5185 64.1606 57.516 64.3959 57.5117C67.5445 57.464 70.4626 57.096 72.4932 56.5257C72.5868 56.4997 72.6782 56.4729 72.7684 56.446C72.8234 56.4294 72.8797 56.4132 72.933 56.3966C73.0899 56.3472 73.2403 56.2965 73.3854 56.2437C73.4106 56.2344 73.4344 56.225 73.4595 56.2156C73.5822 56.17 73.7 56.1228 73.8127 56.0746C73.8452 56.0606 73.8786 56.0469 73.9102 56.0329C74.0302 55.9796 74.1464 55.9251 74.2538 55.8685C74.3024 55.8434 74.3444 55.8174 74.3899 55.7918C74.4419 55.7624 74.4939 55.7326 74.542 55.7024C74.5693 55.6853 74.6018 55.6691 74.6278 55.6521C76.5678 56.0657 77.0792 56.518 77.1286 56.6944ZM63.7 49.8519C70.8452 49.8519 74.4592 50.9576 74.5268 51.5922C74.4744 51.8801 73.8092 52.2605 72.6314 52.6182C71.0983 53.0838 68.6994 53.5101 65.6591 53.6422C65.5035 53.6486 65.3484 53.6549 65.1898 53.6601C65.0602 53.6643 64.9302 53.6681 64.7981 53.6716C64.4393 53.6796 64.0753 53.6852 63.7 53.6852C63.3247 53.6852 62.9607 53.6796 62.6019 53.6716C62.4702 53.6686 62.3402 53.6643 62.2102 53.6601C62.0512 53.6554 61.896 53.6486 61.7409 53.6422C58.7006 53.5101 56.3013 53.0838 54.7686 52.6182C53.5903 52.2605 52.9256 51.8801 52.8732 51.5922C52.9408 50.9576 56.5548 49.8519 63.7 49.8519ZM52.8667 54.5353V52.7716C53.2129 52.9858 53.6514 53.1813 54.1667 53.3576V55.397C53.3238 55.0865 52.8675 54.7751 52.8667 54.5353ZM54.9657 60.4297C54.9722 60.4365 54.9822 60.4425 54.9887 60.4493C55.5819 61.0379 56.8104 61.5005 58.3397 61.8455C58.3748 61.8536 58.412 61.8613 58.4476 61.8694C58.5598 61.8941 58.6738 61.9183 58.789 61.9418C60.1935 62.2356 61.87 62.4482 63.6965 62.5534C63.6978 62.5534 63.6987 62.5538 63.6996 62.5538C63.7004 62.5538 63.7009 62.5534 63.7013 62.5534C64.288 62.587 64.8882 62.6105 65.5009 62.6207C65.7722 62.6262 66.0391 62.6296 66.3 62.6296C66.599 62.6296 66.9058 62.6262 67.2178 62.619C67.7846 62.6075 68.3432 62.5845 68.8939 62.553C68.8961 62.553 68.8978 62.5542 68.9 62.5542C68.9039 62.5542 68.9069 62.5521 68.9108 62.5521C70.7421 62.4461 72.4603 62.2314 73.9132 61.9226C73.5986 62.0844 73.1679 62.2518 72.6314 62.415C71.0129 62.9065 68.4281 63.3541 65.143 63.4581C65.0455 63.461 64.9493 63.4644 64.8505 63.467C64.7443 63.4696 64.6364 63.4713 64.5285 63.4734C64.256 63.4776 63.9817 63.4815 63.7 63.4815C63.3247 63.4815 62.9607 63.4759 62.6019 63.4679C62.4702 63.4649 62.3402 63.4606 62.2102 63.4564C62.0512 63.4517 61.896 63.4449 61.7409 63.4385C58.7006 63.3064 56.3013 62.8801 54.7686 62.4145C53.5769 62.0525 52.91 61.6675 52.8714 61.3783C52.9195 61.2181 53.3576 60.8173 54.9657 60.4297ZM52.8667 64.3316V62.5679C53.2129 62.7821 53.6514 62.9776 54.1667 63.1539V65.1852L53.9192 65.0906L53.914 65.0957C53.2337 64.8185 52.8675 64.5463 52.8667 64.3316ZM54.1667 69.0168V67.2531C54.5129 67.4673 54.9514 67.6628 55.4667 67.8391V69.8785C54.6238 69.568 54.1675 69.2566 54.1667 69.0168ZM74.5333 69.8785V67.8396C75.0486 67.6632 75.4871 67.4677 75.8333 67.2535V69.016C75.8329 69.2558 75.3762 69.5675 74.5333 69.8785ZM75.8277 66.0698C75.7805 66.3582 75.1149 66.7407 73.9314 67.1001C72.3983 67.5657 69.9994 67.992 66.9591 68.1241C66.8035 68.1305 66.6484 68.1369 66.4898 68.142C66.3602 68.1462 66.2302 68.1501 66.0981 68.1535C65.7393 68.1611 65.3753 68.1667 65 68.1667C64.6247 68.1667 64.2603 68.1611 63.9011 68.153C63.7706 68.1501 63.6419 68.1458 63.5132 68.1415C63.3533 68.1364 63.1973 68.13 63.0409 68.1236C60.0006 67.9916 57.6017 67.5653 56.0686 67.0997C54.9224 66.7517 54.2603 66.382 54.1771 66.0967C54.3062 66.141 54.4401 66.184 54.5775 66.2261C54.5913 66.2304 54.6052 66.2347 54.6191 66.2385C54.7361 66.2739 54.8557 66.3079 54.9783 66.3411C55.0247 66.3539 55.0715 66.3667 55.1187 66.3791C55.188 66.3974 55.2591 66.4148 55.3302 66.4327C56.9084 66.8301 58.9229 67.1116 61.0978 67.2381C61.0987 67.2381 61.0991 67.2386 61.1 67.2386C61.1004 67.2386 61.1009 67.2381 61.1013 67.2381C61.773 67.2773 62.4589 67.3016 63.1523 67.3097C63.3369 67.3131 63.5202 67.3148 63.7 67.3148C63.9388 67.3148 64.1832 67.3118 64.4306 67.3076C65.0628 67.2974 65.6868 67.2744 66.297 67.2386C66.2983 67.2386 66.2991 67.2394 66.3004 67.2394C66.3026 67.2394 66.3039 67.2381 66.3061 67.2381C67.0492 67.1943 67.7686 67.1317 68.4597 67.0537C68.4623 67.0537 68.4645 67.055 68.4671 67.055C68.4766 67.055 68.4844 67.0503 68.494 67.0495C69.2636 66.9621 69.9933 66.8548 70.6706 66.73C70.8101 66.7049 70.9475 66.6789 71.0836 66.6521C71.1139 66.6461 71.1442 66.6402 71.1746 66.6338C72.4542 66.3756 73.5618 66.0413 74.3219 65.6269C74.3635 65.6047 74.4025 65.5817 74.4419 65.5591C74.49 65.531 74.5359 65.5025 74.5806 65.4735C74.6222 65.4471 74.6703 65.4216 74.7084 65.3947C75.5638 65.6946 75.7995 65.9629 75.8277 66.0698ZM75.8333 60.5081V58.4692C76.3486 58.2929 76.7871 58.0974 77.1333 57.8831V59.6456C77.1329 59.8854 76.6762 60.1972 75.8333 60.5081Z" fill="white"/>
<path d="M62.9952 32.6667C62.9523 31.9379 62.0705 31.3684 60.3068 30.934C60.3662 30.8062 60.3996 30.6733 60.4 30.5353V27.5556H60.3926C60.2375 25.0733 49.8886 25 48.7 25C47.5114 25 37.1625 25.0733 37.0074 27.5556H37V27.6109V30.5366C37.0022 31.3459 38.0647 31.9792 39.6455 32.4507C39.6238 32.5214 39.6108 32.5934 39.6065 32.6667H39.6V32.722V35.6426C37.897 36.0736 37.0464 36.635 37.0043 37.3519H37V37.4072V40.3329C37.0013 40.8964 37.5183 41.3743 38.3641 41.7725C38.3321 41.859 38.3121 41.9472 38.3065 42.0375H38.3V42.0928V45.0185C38.3035 46.4351 41.5487 47.3147 45.1545 47.7253C45.1809 47.7304 45.2052 47.741 45.2333 47.741C45.2416 47.741 45.2485 47.7368 45.2567 47.7364C45.9518 47.8134 46.6581 47.8735 47.3571 47.9165C47.3718 47.9182 47.3848 47.925 47.4 47.925C47.4082 47.925 47.4147 47.9208 47.4225 47.9204C48.31 47.9732 49.1832 48 50 48C50.8168 48 51.69 47.9732 52.5775 47.9199C52.5853 47.9204 52.5922 47.9246 52.6 47.9246C52.6152 47.9246 52.6282 47.9174 52.6429 47.9161C53.3419 47.8731 54.0482 47.8134 54.7433 47.7359C54.7515 47.7359 54.7584 47.7402 54.7667 47.7402C54.7948 47.7402 54.8191 47.7295 54.8455 47.7244C58.4513 47.3138 61.6961 46.4339 61.7 45.0168V42.037H61.6931C61.6627 41.5149 61.2099 41.0791 60.3155 40.715C60.3701 40.5919 60.4 40.4641 60.4 40.3316V37.5478C61.9557 37.0776 62.9978 36.4485 63 35.6464V32.6667H62.9952ZM59.4865 40.4701L59.3388 40.5974C59.1113 40.7946 58.7321 40.9935 58.2333 41.1852V39.1544C58.7486 38.978 59.1871 38.7825 59.5333 38.5683V40.3308C59.5333 40.3746 59.5169 40.4215 59.4865 40.4701ZM49.7946 42.4493C49.7313 42.451 49.6676 42.4519 49.6039 42.4532C49.4492 42.4562 49.2906 42.457 49.1338 42.4583V40.3308C49.2529 40.3295 49.3721 40.3278 49.4913 40.3257C49.5142 40.3252 49.5372 40.3248 49.5602 40.3244C49.9965 40.3163 50.4329 40.3031 50.8671 40.2835V42.4101C50.7744 42.4148 50.6812 42.4191 50.5872 42.4229C50.3263 42.4344 50.0628 42.4429 49.7946 42.4493ZM47.9022 42.4553C47.7038 42.4519 47.5062 42.4472 47.3099 42.4412C47.2856 42.4404 47.2613 42.4395 47.2371 42.4387C47.0009 42.431 46.7665 42.4212 46.5338 42.4101V40.2839C46.968 40.3039 47.4043 40.3171 47.8407 40.3248C47.8637 40.3252 47.8866 40.3257 47.9092 40.3261C48.0283 40.3282 48.1475 40.3299 48.2667 40.3312V42.46C48.1826 42.4591 48.0985 42.4591 48.0149 42.4579C47.9768 42.457 47.9399 42.4557 47.9022 42.4553ZM40.0754 41.4842C40.0611 41.4799 40.0476 41.4761 40.0333 41.4723V39.4146C40.4381 39.5219 40.8731 39.6199 41.3333 39.7089V41.7879C40.9355 41.7048 40.5685 41.6175 40.2344 41.5281C40.1815 41.5131 40.1269 41.4991 40.0754 41.4842ZM49.2092 45.0113C49.3283 45.0134 49.4475 45.0151 49.5667 45.0164V47.1456C48.9678 47.1401 48.3897 47.123 47.8333 47.0962V44.9695C48.2675 44.9896 48.7039 45.0028 49.1403 45.0104C49.1632 45.0104 49.1862 45.0109 49.2092 45.0113ZM50.8597 45.01C51.2961 45.0019 51.7325 44.9887 52.1667 44.9691V47.0958C51.6103 47.1226 51.0322 47.1396 50.4333 47.1452V45.016C50.5525 45.0147 50.6717 45.013 50.7908 45.0109C50.8138 45.0109 50.8368 45.0104 50.8597 45.01ZM54.3333 44.8175V46.9326C53.9169 46.9756 53.4836 47.0136 53.0333 47.0446V44.9206C53.4727 44.8924 53.9069 44.8579 54.3333 44.8175ZM55.2 44.7255C55.6468 44.6727 56.0805 44.6126 56.5 44.5457V46.637C56.0918 46.7077 55.658 46.7729 55.2 46.8321V44.7255ZM57.3667 44.3937C57.8269 44.3047 58.2619 44.2067 58.6667 44.0994V46.157C58.2806 46.2665 57.8459 46.3725 57.3667 46.4726V44.3937ZM42.6333 44.3937V46.4726C42.1541 46.3725 41.7194 46.2665 41.3333 46.157V44.0994C41.7381 44.2067 42.1731 44.3051 42.6333 44.3937ZM43.5 44.5462C43.9195 44.613 44.3532 44.6731 44.8 44.7259V46.8325C44.342 46.7733 43.9082 46.7082 43.5 46.6375V44.5462ZM45.6667 44.8175C46.0931 44.8579 46.5273 44.8924 46.9667 44.921V47.0451C46.5164 47.014 46.0831 46.9761 45.6667 46.9331V44.8175ZM44.5916 42.2704C44.5474 42.2662 44.5036 42.2615 44.4598 42.2572C44.4286 42.2543 44.3979 42.2504 44.3667 42.2474V40.1327C44.7931 40.1732 45.2273 40.2077 45.6667 40.2362V42.3586C45.3027 42.3331 44.943 42.3041 44.5916 42.2704ZM43.5 40.0403V42.1469C43.042 42.0877 42.6082 42.0226 42.2 41.9519V39.8606C42.6195 39.9274 43.0532 39.9879 43.5 40.0403ZM52.0219 42.3386C51.9266 42.3458 51.8304 42.3531 51.7333 42.3599V40.2358C52.1727 40.2073 52.6069 40.1732 53.0333 40.1323V42.2474C52.7655 42.2751 52.4917 42.3011 52.2104 42.3237C52.1476 42.3292 52.0848 42.3339 52.0219 42.3386ZM53.9 42.1469V40.0403C54.3468 39.9875 54.7805 39.9274 55.2 39.8606V41.9519C54.7918 42.0226 54.358 42.0881 53.9 42.1469ZM56.0667 39.7085C56.5269 39.6195 56.9619 39.5215 57.3667 39.4142V41.4718C56.9806 41.5813 56.5459 41.6874 56.0667 41.7874V39.7085ZM50.1408 37.7629C49.815 37.7548 49.4965 37.7424 49.1836 37.7275C49.1667 37.7267 49.1498 37.7258 49.1333 37.7254V35.5987C49.5675 35.6188 50.0039 35.632 50.4403 35.6396C50.4632 35.6401 50.4862 35.6405 50.5087 35.6409C50.6279 35.643 50.7471 35.6447 50.8662 35.646V37.7727C50.6552 37.7705 50.4424 37.7697 50.2366 37.765C50.205 37.7641 50.1725 37.7637 50.1408 37.7629ZM40.0333 31.676V29.6183C40.4381 29.7256 40.8731 29.8236 41.3333 29.9126V31.9916C41.28 31.9805 41.225 31.9694 41.173 31.9584C40.9425 31.9085 40.7176 31.8566 40.5026 31.8016C40.3388 31.7603 40.1833 31.7181 40.0333 31.676ZM47.9092 30.5298C48.0283 30.5319 48.1475 30.5336 48.2667 30.5349V32.6616C47.6834 32.656 47.1036 32.6411 46.5333 32.613V30.4881C46.9675 30.5081 47.4039 30.5213 47.8403 30.5289C47.8632 30.5289 47.8862 30.5294 47.9092 30.5298ZM49.5597 30.5285C49.9961 30.5204 50.4325 30.5072 50.8667 30.4876V32.6126C50.793 32.616 50.7224 32.6211 50.6483 32.6245C50.6422 32.6249 50.6361 32.6249 50.6296 32.6254C50.3389 32.6381 50.0425 32.6475 49.7422 32.6543C49.6954 32.6556 49.6486 32.656 49.6018 32.6573C49.4475 32.6603 49.2898 32.6607 49.1333 32.6624V30.5349C49.2525 30.5336 49.3717 30.5319 49.4908 30.5298C49.5138 30.5294 49.5368 30.5289 49.5597 30.5285ZM59.4341 30.7423L59.422 30.7398L59.2642 30.8603C59.0354 31.0354 58.684 31.2126 58.2333 31.3838V29.3576C58.7486 29.1813 59.1871 28.9858 59.5333 28.7716V30.5341C59.5333 30.5988 59.4987 30.6686 59.4341 30.7423ZM53.9 32.3481V30.244C54.3468 30.1912 54.7805 30.1311 55.2 30.0643V32.1521C54.7892 32.2237 54.3567 32.2893 53.9 32.3481ZM56.0667 31.9882V29.9126C56.5269 29.8236 56.9619 29.7256 57.3667 29.6183V31.6713C56.9784 31.7824 56.5412 31.8885 56.0667 31.9882ZM53.0333 30.336V32.4486C52.6147 32.492 52.1814 32.5299 51.7333 32.5615V30.4395C52.1727 30.411 52.6069 30.3765 53.0333 30.336ZM44.3667 32.4494V30.336C44.7931 30.3765 45.2273 30.411 45.6667 30.4395V32.5598C45.2255 32.5287 44.7905 32.4933 44.3667 32.4494ZM43.5 30.244V32.3485C43.4142 32.3374 43.3249 32.3285 43.24 32.317C43.1845 32.3093 43.1317 32.3012 43.0771 32.2936C42.8266 32.2582 42.5818 32.2203 42.3417 32.1807C42.2936 32.1726 42.2472 32.1641 42.2 32.156V30.0647C42.6195 30.1311 43.0532 30.1916 43.5 30.244ZM48.1592 37.6666C48.1007 37.6624 48.0418 37.6581 47.9837 37.6538C47.7064 37.6325 47.4355 37.6091 47.1712 37.5831C47.1144 37.5776 47.0577 37.5716 47.0013 37.5661C46.9896 37.5648 46.9784 37.5631 46.9667 37.5623V35.4471C47.3931 35.4876 47.8273 35.5221 48.2667 35.5506V37.6734C48.2316 37.6709 48.1943 37.6692 48.1592 37.6666ZM45.2962 37.3484C45.1246 37.3216 44.9634 37.2926 44.8 37.2645V35.1758C45.2195 35.2427 45.6532 35.3027 46.1 35.3555V37.4622C45.8348 37.4277 45.5752 37.3919 45.3261 37.3536C45.3161 37.3514 45.3061 37.3497 45.2962 37.3484ZM43.9333 35.0233V37.0989C43.4545 36.9979 43.0203 36.8906 42.6333 36.779V34.729C43.0381 34.8363 43.4731 34.9347 43.9333 35.0233ZM41.7667 34.4688V36.4923C41.0855 36.2338 40.6461 35.9697 40.5031 35.7346L40.474 35.6869C40.4714 35.6737 40.4671 35.6596 40.4667 35.6464V33.8827C40.8129 34.0969 41.2514 34.2924 41.7667 34.4688ZM52.1597 35.6396C52.5961 35.6315 53.0325 35.6183 53.4667 35.5987V37.7233C52.8973 37.7509 52.3183 37.7663 51.7333 37.7722V35.646C51.8525 35.6447 51.9717 35.643 52.0908 35.6409C52.1138 35.6405 52.1368 35.6401 52.1597 35.6396ZM57.7597 37.2739C57.5695 37.3063 57.3775 37.3382 57.1803 37.3676C57.0672 37.3846 56.9515 37.4008 56.8354 37.417C56.7258 37.4324 56.6118 37.4456 56.5004 37.4596V35.3551C56.9472 35.3023 57.381 35.2422 57.8004 35.1754V37.2667C57.7866 37.2692 57.7731 37.2718 57.7597 37.2739ZM54.8256 37.6376C54.664 37.6509 54.4971 37.6594 54.3333 37.6709V35.5506C54.7727 35.5221 55.2069 35.488 55.6333 35.4471V37.5601C55.3816 37.5861 55.1302 37.6121 54.8715 37.6334C54.8559 37.6347 54.8412 37.6364 54.8256 37.6376ZM59.7777 36.839C59.5619 36.8982 59.3336 36.9536 59.1004 37.0077C58.9925 37.0324 58.8825 37.0571 58.7698 37.081C58.7364 37.0882 58.7009 37.0946 58.6671 37.1018V35.0237C59.1273 34.9347 59.5624 34.8368 59.9671 34.7294V36.7871C59.9047 36.8041 59.8419 36.8216 59.7777 36.839ZM62.1286 32.6944C62.0887 32.9836 61.4218 33.3682 60.2314 33.7298C58.6983 34.1953 56.2994 34.6217 53.2591 34.7537C53.1035 34.7601 52.9484 34.7665 52.7898 34.7716C52.6602 34.7759 52.5302 34.7797 52.3981 34.7831C52.0393 34.7908 51.6753 34.7963 51.3 34.7963C50.9247 34.7963 50.5607 34.7908 50.2019 34.7827C50.0702 34.7797 49.9402 34.7754 49.8102 34.7712C49.6512 34.7665 49.496 34.7597 49.3409 34.7533C46.3006 34.6212 43.9013 34.1949 42.3686 33.7294C41.1877 33.3707 40.5221 32.9891 40.4727 32.7012C40.4749 32.6931 40.4749 32.6863 40.4801 32.676C40.5096 32.6833 40.5425 32.6892 40.5724 32.6965C40.7418 32.7361 40.9156 32.7744 41.0924 32.8111C41.9534 32.9934 42.9076 33.1429 43.9242 33.257C43.9277 33.257 43.9303 33.2587 43.9333 33.2587C43.9342 33.2587 43.9351 33.2583 43.9355 33.2583C44.628 33.3358 45.3464 33.3967 46.084 33.4397C46.0896 33.4397 46.0944 33.4427 46.1 33.4427C46.103 33.4427 46.1052 33.441 46.1082 33.441C46.6391 33.4717 47.1768 33.4942 47.7211 33.5062C48.0543 33.5143 48.3815 33.5185 48.7 33.5185C48.9275 33.5185 49.1606 33.516 49.3959 33.5117C52.5445 33.464 55.4626 33.096 57.4932 32.5257C57.5868 32.4997 57.6782 32.4729 57.7684 32.446C57.8234 32.4294 57.8797 32.4132 57.933 32.3966C58.0899 32.3472 58.2403 32.2965 58.3854 32.2437C58.4106 32.2344 58.4344 32.225 58.4595 32.2156C58.5822 32.17 58.7 32.1228 58.8127 32.0746C58.8452 32.0606 58.8786 32.0469 58.9102 32.0329C59.0302 31.9796 59.1464 31.9251 59.2538 31.8685C59.3024 31.8434 59.3444 31.8174 59.3899 31.7918C59.4419 31.7624 59.4939 31.7326 59.542 31.7024C59.5693 31.6853 59.6018 31.6691 59.6278 31.6521C61.5678 32.0657 62.0792 32.518 62.1286 32.6944ZM48.7 25.8519C55.8452 25.8519 59.4592 26.9576 59.5268 27.5922C59.4744 27.8801 58.8092 28.2605 57.6314 28.6182C56.0983 29.0838 53.6994 29.5101 50.6591 29.6422C50.5035 29.6486 50.3484 29.6549 50.1898 29.6601C50.0602 29.6643 49.9302 29.6681 49.7981 29.6716C49.4393 29.6796 49.0753 29.6852 48.7 29.6852C48.3247 29.6852 47.9607 29.6796 47.6019 29.6716C47.4702 29.6686 47.3402 29.6643 47.2102 29.6601C47.0512 29.6554 46.896 29.6486 46.7409 29.6422C43.7006 29.5101 41.3013 29.0838 39.7686 28.6182C38.5903 28.2605 37.9256 27.8801 37.8732 27.5922C37.9408 26.9576 41.5548 25.8519 48.7 25.8519ZM37.8667 30.5353V28.7716C38.2129 28.9858 38.6514 29.1813 39.1667 29.3576V31.397C38.3238 31.0865 37.8675 30.7751 37.8667 30.5353ZM39.9657 36.4297C39.9722 36.4365 39.9822 36.4425 39.9887 36.4493C40.5819 37.0379 41.8104 37.5005 43.3397 37.8455C43.3748 37.8536 43.412 37.8613 43.4476 37.8694C43.5598 37.8941 43.6738 37.9183 43.789 37.9418C45.1935 38.2356 46.87 38.4482 48.6965 38.5534C48.6978 38.5534 48.6987 38.5538 48.6996 38.5538C48.7004 38.5538 48.7009 38.5534 48.7013 38.5534C49.288 38.587 49.8882 38.6105 50.5009 38.6207C50.7722 38.6262 51.0391 38.6296 51.3 38.6296C51.599 38.6296 51.9058 38.6262 52.2178 38.619C52.7846 38.6075 53.3432 38.5845 53.8939 38.553C53.8961 38.553 53.8978 38.5542 53.9 38.5542C53.9039 38.5542 53.9069 38.5521 53.9108 38.5521C55.7421 38.4461 57.4603 38.2314 58.9132 37.9226C58.5986 38.0844 58.1679 38.2518 57.6314 38.415C56.0129 38.9065 53.4281 39.3541 50.143 39.4581C50.0455 39.461 49.9493 39.4644 49.8505 39.467C49.7443 39.4696 49.6364 39.4713 49.5285 39.4734C49.256 39.4776 48.9817 39.4815 48.7 39.4815C48.3247 39.4815 47.9607 39.4759 47.6019 39.4679C47.4702 39.4649 47.3402 39.4606 47.2102 39.4564C47.0512 39.4517 46.896 39.4449 46.7409 39.4385C43.7006 39.3064 41.3013 38.8801 39.7686 38.4145C38.5769 38.0525 37.91 37.6675 37.8714 37.3783C37.9195 37.2181 38.3576 36.8173 39.9657 36.4297ZM37.8667 40.3316V38.5679C38.2129 38.7821 38.6514 38.9776 39.1667 39.1539V41.1852L38.9192 41.0906L38.914 41.0957C38.2337 40.8185 37.8675 40.5463 37.8667 40.3316ZM39.1667 45.0168V43.2531C39.5129 43.4673 39.9514 43.6628 40.4667 43.8391V45.8785C39.6238 45.568 39.1675 45.2566 39.1667 45.0168ZM59.5333 45.8785V43.8396C60.0486 43.6632 60.4871 43.4677 60.8333 43.2535V45.016C60.8329 45.2558 60.3762 45.5675 59.5333 45.8785ZM60.8277 42.0698C60.7805 42.3582 60.1149 42.7407 58.9314 43.1001C57.3983 43.5657 54.9994 43.992 51.9591 44.1241C51.8035 44.1305 51.6484 44.1369 51.4898 44.142C51.3602 44.1462 51.2302 44.1501 51.0981 44.1535C50.7393 44.1611 50.3753 44.1667 50 44.1667C49.6247 44.1667 49.2603 44.1611 48.9011 44.153C48.7706 44.1501 48.6419 44.1458 48.5132 44.1415C48.3533 44.1364 48.1973 44.13 48.0409 44.1236C45.0006 43.9916 42.6017 43.5653 41.0686 43.0997C39.9224 42.7517 39.2603 42.382 39.1771 42.0967C39.3062 42.141 39.4401 42.184 39.5775 42.2261C39.5913 42.2304 39.6052 42.2347 39.6191 42.2385C39.7361 42.2739 39.8557 42.3079 39.9783 42.3411C40.0247 42.3539 40.0715 42.3667 40.1187 42.3791C40.188 42.3974 40.2591 42.4148 40.3302 42.4327C41.9084 42.8301 43.9229 43.1116 46.0978 43.2381C46.0987 43.2381 46.0991 43.2386 46.1 43.2386C46.1004 43.2386 46.1009 43.2381 46.1013 43.2381C46.773 43.2773 47.4589 43.3016 48.1523 43.3097C48.3369 43.3131 48.5202 43.3148 48.7 43.3148C48.9388 43.3148 49.1832 43.3118 49.4306 43.3076C50.0628 43.2974 50.6868 43.2744 51.297 43.2386C51.2983 43.2386 51.2991 43.2394 51.3004 43.2394C51.3026 43.2394 51.3039 43.2381 51.3061 43.2381C52.0492 43.1943 52.7686 43.1317 53.4597 43.0537C53.4623 43.0537 53.4645 43.055 53.4671 43.055C53.4766 43.055 53.4844 43.0503 53.494 43.0495C54.2636 42.9621 54.9933 42.8548 55.6706 42.73C55.8101 42.7049 55.9475 42.6789 56.0836 42.6521C56.1139 42.6461 56.1442 42.6402 56.1746 42.6338C57.4542 42.3756 58.5618 42.0413 59.3219 41.6269C59.3635 41.6047 59.4025 41.5817 59.4419 41.5591C59.49 41.531 59.5359 41.5025 59.5806 41.4735C59.6222 41.4471 59.6703 41.4216 59.7084 41.3947C60.5638 41.6946 60.7995 41.9629 60.8277 42.0698ZM60.8333 36.5081V34.4692C61.3486 34.2929 61.7871 34.0974 62.1333 33.8831V35.6456C62.1329 35.8854 61.6762 36.1972 60.8333 36.5081Z" fill="white"/>
</svg>
