<svg width="102" height="102" viewBox="0 0 102 102" fill="none" xmlns="http://www.w3.org/2000/svg">
<path opacity="0.5" d="M45.25 3.89711C48.8081 1.84284 53.1919 1.84284 56.75 3.89711L88.9173 22.4689C92.4754 24.5232 94.6673 28.3196 94.6673 32.4282V69.5718C94.6673 73.6804 92.4754 77.4768 88.9173 79.5311L56.75 98.1029C53.1919 100.157 48.8081 100.157 45.25 98.1029L13.0827 79.5311C9.52459 77.4768 7.3327 73.6804 7.3327 69.5718V32.4282C7.3327 28.3197 9.52459 24.5232 13.0827 22.4689L45.25 3.89711Z" stroke="#6897FF"/>
<path d="M45 14.4641C48.7128 12.3205 53.2872 12.3205 57 14.4641L79.641 27.5359C83.3538 29.6795 85.641 33.641 85.641 37.9282V64.0718C85.641 68.359 83.3538 72.3205 79.641 74.4641L57 87.5359C53.2872 89.6795 48.7128 89.6795 45 87.5359L22.359 74.4641C18.6462 72.3205 16.359 68.359 16.359 64.0718V37.9282C16.359 33.641 18.6462 29.6795 22.359 27.5359L45 14.4641Z" fill="#6897FF"/>
<path d="M69.1616 66.0709H68.495V48.6878C70.0002 47.7193 71 46.0305 71 44.1114C71 44.0095 70.9734 43.9092 70.9228 43.8207L66.2734 35.6841C65.9468 35.1128 65.3352 34.7578 64.6771 34.7578H37.3229C36.6648 34.7578 36.0532 35.1127 35.7266 35.6841L31.0772 43.8207C31.0266 43.9092 31 44.0095 31 44.1114C31 46.0305 31.9998 47.7193 33.505 48.6878V66.0709H32.8384C32.5148 66.0709 32.2525 66.3332 32.2525 66.6568C32.2525 66.9804 32.5148 67.2427 32.8384 67.2427H69.1616C69.4852 67.2427 69.7475 66.9804 69.7475 66.6568C69.7475 66.3332 69.4852 66.0709 69.1616 66.0709ZM32.2123 44.6973H34.0907C34.4143 44.6973 34.6766 44.435 34.6766 44.1114C34.6766 43.7878 34.4143 43.5255 34.0907 43.5255H32.5956L36.7441 36.2655C36.8626 36.0584 37.0843 35.9297 37.3229 35.9297H64.6771C64.9157 35.9297 65.1375 36.0584 65.2559 36.2655L69.4043 43.5255H67.9089C67.5852 43.5255 67.323 43.7878 67.323 44.1114C67.323 44.435 67.5852 44.6973 67.9089 44.6973H69.7877C69.5012 46.7742 67.7148 48.379 65.5605 48.379C63.4062 48.379 61.6207 46.7741 61.3341 44.6973H65.4041C65.7278 44.6973 65.9901 44.435 65.9901 44.1114C65.9901 43.7878 65.7278 43.5255 65.4041 43.5255H36.5962C36.2726 43.5255 36.0102 43.7878 36.0102 44.1114C36.0102 44.435 36.2726 44.6973 36.5962 44.6973H40.6658C40.3792 46.7741 38.5937 48.379 36.4395 48.379C34.2851 48.379 32.4987 46.7742 32.2123 44.6973ZM60.0798 44.6973C59.7933 46.7741 58.0077 48.379 55.8535 48.379C53.6992 48.379 51.9138 46.7741 51.6272 44.6973H60.0798ZM50.3728 44.6973C50.0863 46.7741 48.3007 48.379 46.1465 48.379C43.9923 48.379 42.2067 46.7741 41.9202 44.6973H50.3728ZM64.1917 66.0709H57.8485V64.1115H64.1917V66.0709ZM64.1917 62.9396H57.8485V52.2125H64.1917V62.9396ZM67.3231 66.0709H65.3637V51.6266C65.3637 51.303 65.1014 51.0406 64.7777 51.0406H57.2627C56.939 51.0406 56.6767 51.303 56.6767 51.6266V66.0709H34.6769V49.2561C35.2301 49.4462 35.8226 49.5509 36.4395 49.5509C38.5563 49.5509 40.3945 48.3355 41.293 46.5659C42.1915 48.3355 44.0297 49.5509 46.1465 49.5509C48.2633 49.5509 50.1015 48.3355 51 46.5659C51.8985 48.3355 53.7367 49.5509 55.8535 49.5509C57.9703 49.5509 59.8085 48.3355 60.707 46.5659C61.6055 48.3355 63.4437 49.5509 65.5605 49.5509C66.1774 49.5509 66.7699 49.4462 67.3231 49.2562V66.0709Z" fill="white"/>
<path d="M54.1307 51.041H37.2217C36.8981 51.041 36.6357 51.3034 36.6357 51.627V63.5259C36.6357 63.8495 36.8981 64.1119 37.2217 64.1119H54.1307C54.4544 64.1119 54.7167 63.8495 54.7167 63.5259V51.627C54.7167 51.3033 54.4544 51.041 54.1307 51.041ZM53.5448 62.94H37.8076V52.2129H53.5448V62.94Z" fill="white"/>
</svg>
