<svg width="102" height="102" viewBox="0 0 102 102" fill="none" xmlns="http://www.w3.org/2000/svg">
<path opacity="0.5" d="M45.25 3.89711C48.8081 1.84284 53.1919 1.84284 56.75 3.89711L88.9173 22.4689C92.4754 24.5232 94.6673 28.3196 94.6673 32.4282V69.5718C94.6673 73.6804 92.4754 77.4768 88.9173 79.5311L56.75 98.1029C53.1919 100.157 48.8081 100.157 45.25 98.1029L13.0827 79.5311C9.52459 77.4768 7.3327 73.6804 7.3327 69.5718V32.4282C7.3327 28.3197 9.52459 24.5232 13.0827 22.4689L45.25 3.89711Z" stroke="#6897FF"/>
<path d="M45 14.4641C48.7128 12.3205 53.2872 12.3205 57 14.4641L79.641 27.5359C83.3538 29.6795 85.641 33.641 85.641 37.9282V64.0718C85.641 68.359 83.3538 72.3205 79.641 74.4641L57 87.5359C53.2872 89.6795 48.7128 89.6795 45 87.5359L22.359 74.4641C18.6462 72.3205 16.359 68.359 16.359 64.0718V37.9282C16.359 33.641 18.6462 29.6795 22.359 27.5359L45 14.4641Z" fill="#6897FF"/>
<path d="M68.9939 46.5504C68.9395 45.6093 67.8203 44.874 65.5818 44.313C65.6571 44.148 65.6995 43.9764 65.7 43.7982V39.9504H65.6907C65.4938 36.745 52.3587 36.6504 50.85 36.6504C49.3414 36.6504 36.2063 36.745 36.0094 39.9504H36V40.0219V43.7998C36.0027 44.8448 37.3514 45.6627 39.3578 46.2715C39.3303 46.3628 39.3138 46.4558 39.3082 46.5504H39.3V46.6219V50.3932C37.1385 50.9498 36.0589 51.6747 36.0055 52.6004H36V52.6719V56.4498C36.0017 57.1775 36.6578 57.7946 37.7314 58.3088C37.6907 58.4205 37.6654 58.5343 37.6583 58.6509H37.65V58.7224V62.5004C37.6544 64.3297 41.7734 65.4654 46.3499 65.9956C46.3835 66.0022 46.4143 66.016 46.45 66.016C46.4605 66.016 46.4693 66.0105 46.4797 66.0099C47.3619 66.1095 48.2584 66.187 49.1455 66.2426C49.1642 66.2448 49.1807 66.2536 49.2 66.2536C49.2105 66.2536 49.2187 66.2481 49.2286 66.2475C50.355 66.3157 51.4633 66.3504 52.5 66.3504C53.5368 66.3504 54.645 66.3157 55.7714 66.247C55.7813 66.2475 55.7901 66.253 55.8 66.253C55.8193 66.253 55.8358 66.2437 55.8545 66.242C56.7416 66.1865 57.6381 66.1095 58.5203 66.0094C58.5308 66.0094 58.5396 66.0149 58.55 66.0149C58.5858 66.0149 58.6166 66.0011 58.6501 65.9945C63.2267 65.4643 67.3451 64.328 67.35 62.4982V58.6504H67.3412C67.3027 57.9761 66.728 57.4134 65.5928 56.9432C65.6621 56.7842 65.7 56.6192 65.7 56.4482V52.8534C67.6745 52.2462 68.9972 51.4338 69 50.3982V46.5504H68.9939ZM64.5406 56.6269L64.3531 56.7914C64.0643 57.046 63.583 57.3029 62.95 57.5504V54.928C63.604 54.7003 64.1606 54.4478 64.6 54.1712V56.4471C64.6 56.5037 64.5791 56.5642 64.5406 56.6269ZM52.2393 59.1828C52.159 59.185 52.0781 59.1861 51.9973 59.1877C51.801 59.1916 51.5997 59.1927 51.4005 59.1943V56.4471C51.5518 56.4454 51.7031 56.4432 51.8543 56.4405C51.8835 56.4399 51.9126 56.4394 51.9418 56.4388C52.4956 56.4284 53.0494 56.4113 53.6005 56.386V59.1322C53.4829 59.1382 53.3646 59.1437 53.2453 59.1487C52.9142 59.1635 52.5798 59.1745 52.2393 59.1828ZM49.8375 59.1905C49.5856 59.1861 49.3348 59.18 49.0856 59.1723C49.0548 59.1712 49.024 59.1701 48.9932 59.169C48.6935 59.1591 48.3959 59.1465 48.1005 59.1322V56.3866C48.6517 56.4124 49.2055 56.4295 49.7594 56.4394C49.7885 56.4399 49.8176 56.4405 49.8462 56.441C49.9975 56.4438 50.1488 56.446 50.3 56.4476V59.1965C50.1933 59.1954 50.0866 59.1954 49.9805 59.1938C49.9321 59.1927 49.8853 59.191 49.8375 59.1905ZM39.9034 57.9365C39.8852 57.931 39.8681 57.926 39.85 57.9211V55.264C40.3637 55.4026 40.9159 55.5291 41.5 55.6441V58.3286C40.9951 58.2214 40.5293 58.1086 40.1052 57.9931C40.0381 57.9739 39.9688 57.9557 39.9034 57.9365ZM51.4963 62.491C51.6475 62.4938 51.7987 62.496 51.95 62.4976V65.2471C51.1899 65.2399 50.4562 65.2179 49.75 65.1833V62.4371C50.3011 62.463 50.855 62.48 51.4088 62.4899C51.438 62.4899 51.4671 62.4905 51.4963 62.491ZM53.5912 62.4894C54.1451 62.4789 54.6989 62.4619 55.25 62.4366V65.1827C54.5438 65.2174 53.8101 65.2394 53.05 65.2465V62.4971C53.2013 62.4954 53.3525 62.4932 53.5037 62.4905C53.5329 62.4905 53.562 62.4899 53.5912 62.4894ZM58 62.2408V64.9721C57.4715 65.0276 56.9214 65.0766 56.35 65.1167V62.3739C56.9077 62.3376 57.4588 62.293 58 62.2408ZM59.1 62.122C59.6671 62.0538 60.2176 61.9762 60.75 61.8899V64.5904C60.2319 64.6817 59.6814 64.7658 59.1 64.8423V62.122ZM61.85 61.6935C62.4341 61.5786 62.9863 61.4521 63.5 61.3135V63.9705C63.01 64.1119 62.4583 64.2488 61.85 64.3781V61.6935ZM43.15 61.6935V64.3781C42.5417 64.2488 41.9901 64.1119 41.5 63.9705V61.3135C42.0137 61.4521 42.5659 61.5791 43.15 61.6935ZM44.25 61.8904C44.7824 61.9768 45.333 62.0543 45.9 62.1225V64.8428C45.3187 64.7664 44.7681 64.6822 44.25 64.5909V61.8904ZM47 62.2408C47.5412 62.293 48.0923 62.3376 48.65 62.3744V65.1173C48.0786 65.0771 47.5286 65.0282 47 64.9726V62.2408ZM45.6354 58.9518C45.5793 58.9463 45.5238 58.9402 45.4683 58.9347C45.4286 58.9309 45.3896 58.9259 45.35 58.9221V56.1913C45.8912 56.2436 46.4423 56.2881 47 56.325V59.0656C46.538 59.0326 46.0815 58.9952 45.6354 58.9518ZM44.25 56.072V58.7923C43.6687 58.7158 43.1181 58.6317 42.6 58.5404V55.8399C43.1324 55.9262 43.683 56.0043 44.25 56.072ZM55.0663 59.0398C54.9453 59.0491 54.8232 59.0585 54.7 59.0673V56.3244C55.2577 56.2876 55.8088 56.2436 56.35 56.1908V58.9221C56.0101 58.9578 55.6625 58.9914 55.3056 59.0205C55.2258 59.0277 55.1461 59.0337 55.0663 59.0398ZM57.45 58.7923V56.072C58.017 56.0038 58.5676 55.9262 59.1 55.8399V58.5404C58.5819 58.6317 58.0314 58.7164 57.45 58.7923ZM60.2 55.6435C60.7841 55.5286 61.3363 55.4021 61.85 55.2635V57.9205C61.36 58.0619 60.8083 58.1988 60.2 58.3281V55.6435ZM52.6788 53.1311C52.2652 53.1207 51.8609 53.1047 51.4638 53.0855C51.4423 53.0844 51.4209 53.0833 51.4 53.0827V50.3366C51.9511 50.3624 52.505 50.3795 53.0588 50.3894C53.088 50.3899 53.1171 50.3905 53.1457 50.391C53.2969 50.3938 53.4482 50.396 53.5995 50.3976V53.1438C53.3316 53.141 53.0616 53.1399 52.8003 53.1339C52.7602 53.1328 52.7189 53.1322 52.6788 53.1311ZM39.85 45.2711V42.614C40.3637 42.7526 40.9159 42.8791 41.5 42.9941V45.6786C41.4324 45.6643 41.3625 45.65 41.2965 45.6357C41.0039 45.5714 40.7185 45.5043 40.4457 45.4333C40.2378 45.38 40.0403 45.3255 39.85 45.2711ZM49.8462 43.791C49.9975 43.7938 50.1488 43.796 50.3 43.7976V46.5438C49.5597 46.5366 48.8238 46.5174 48.1 46.4811V43.7371C48.6511 43.763 49.205 43.78 49.7588 43.7899C49.788 43.7899 49.8171 43.7905 49.8462 43.791ZM51.9412 43.7894C52.4951 43.7789 53.0489 43.7619 53.6 43.7366V46.4805C53.5065 46.4849 53.4169 46.4915 53.3228 46.4959C53.3151 46.4965 53.3074 46.4965 53.2992 46.497C52.9301 46.5135 52.5539 46.5256 52.1728 46.5344C52.1133 46.5361 52.0539 46.5366 51.9945 46.5383C51.7987 46.5421 51.5986 46.5427 51.4 46.5449V43.7976C51.5513 43.796 51.7025 43.7938 51.8538 43.791C51.8829 43.7905 51.9121 43.7899 51.9412 43.7894ZM64.4741 44.0655L64.4587 44.0622L64.2585 44.2178C63.9681 44.4439 63.522 44.6727 62.95 44.8938V42.2774C63.604 42.0497 64.1606 41.7973 64.6 41.5206V43.7965C64.6 43.8801 64.556 43.9703 64.4741 44.0655ZM57.45 46.139V43.422C58.017 43.3538 58.5676 43.2762 59.1 43.1899V45.886C58.5786 45.9784 58.0297 46.0631 57.45 46.139ZM60.2 45.6742V42.9941C60.7841 42.8791 61.3363 42.7526 61.85 42.614V45.265C61.3572 45.4086 60.8022 45.5455 60.2 45.6742ZM56.35 43.5408V46.2688C55.8187 46.3249 55.2687 46.3738 54.7 46.4145V43.6744C55.2577 43.6376 55.8088 43.593 56.35 43.5408ZM45.35 46.2699V43.5408C45.8912 43.593 46.4423 43.6376 47 43.6744V46.4123C46.4401 46.3722 45.8879 46.3265 45.35 46.2699ZM44.25 43.422V46.1395C44.1411 46.1252 44.0278 46.1137 43.92 46.0988C43.8496 46.0889 43.7825 46.0785 43.7132 46.0686C43.3953 46.0229 43.0845 45.974 42.7799 45.9228C42.7188 45.9124 42.66 45.9014 42.6 45.8909V43.1904C43.1324 43.2762 43.683 43.3543 44.25 43.422ZM50.1636 53.0068C50.0894 53.0013 50.0146 52.9958 49.9409 52.9903C49.5889 52.9628 49.2451 52.9326 48.9096 52.899C48.8376 52.8919 48.7655 52.8842 48.694 52.877C48.6792 52.8754 48.6649 52.8732 48.65 52.8721V50.1408C49.1912 50.193 49.7423 50.2376 50.3 50.2744V53.0156C50.2555 53.0123 50.2082 53.0101 50.1636 53.0068ZM46.5298 52.596C46.312 52.5613 46.1074 52.5239 45.9 52.4876V49.7904C46.4324 49.8768 46.983 49.9543 47.55 50.0225V52.7428C47.2134 52.6983 46.884 52.6521 46.5677 52.6026C46.5551 52.5998 46.5424 52.5976 46.5298 52.596ZM44.8 49.5935V52.2737C44.1923 52.1433 43.6411 52.0047 43.15 51.8606V49.2135C43.6637 49.3521 44.2159 49.4791 44.8 49.5935ZM42.05 48.8774V51.4905C41.1854 51.1566 40.6277 50.8156 40.4462 50.512L40.4094 50.4504C40.4061 50.4334 40.4005 50.4152 40.4 50.3982V48.1206C40.8394 48.3973 41.396 48.6497 42.05 48.8774ZM55.2412 50.3894C55.7951 50.3789 56.3489 50.3619 56.9 50.3366V53.08C56.1773 53.1157 55.4425 53.1355 54.7 53.1432V50.3976C54.8512 50.396 55.0025 50.3938 55.1538 50.391C55.1829 50.3905 55.2121 50.3899 55.2412 50.3894ZM62.3489 52.4997C62.1074 52.5415 61.8638 52.5828 61.6135 52.6207C61.4699 52.6427 61.3231 52.6636 61.1757 52.6845C61.0366 52.7043 60.8919 52.7214 60.7505 52.7395V50.022C61.3176 49.9538 61.8682 49.8762 62.4006 49.7899V52.4904C62.3829 52.4937 62.3659 52.497 62.3489 52.4997ZM58.6248 52.9694C58.4197 52.9865 58.2079 52.9975 58 53.0123V50.2744C58.5577 50.2376 59.1088 50.1936 59.65 50.1408V52.8693C59.3305 52.9029 59.0115 52.9364 58.6831 52.9639C58.6633 52.9656 58.6446 52.9678 58.6248 52.9694ZM64.9102 51.9382C64.6363 52.0146 64.3465 52.0861 64.0506 52.156C63.9136 52.1879 63.7739 52.2198 63.6309 52.2506C63.5886 52.2599 63.5434 52.2682 63.5006 52.2775V49.5941C64.0847 49.4791 64.6369 49.3526 65.1506 49.214V51.8711C65.0714 51.8931 64.9916 51.9156 64.9102 51.9382ZM67.8939 46.5861C67.8433 46.9596 66.9969 47.4562 65.4861 47.9232C63.5401 48.5243 60.4953 49.0749 56.6366 49.2454C56.4391 49.2536 56.2422 49.2619 56.0409 49.2685C55.8764 49.274 55.7115 49.2789 55.5437 49.2833C55.0883 49.2932 54.6263 49.3004 54.15 49.3004C53.6737 49.3004 53.2117 49.2932 52.7563 49.2828C52.5891 49.2789 52.4241 49.2734 52.2591 49.2679C52.0573 49.2619 51.8604 49.2531 51.6635 49.2448C47.8047 49.0743 44.7593 48.5238 42.814 47.9226C41.3152 47.4595 40.4704 46.9667 40.4077 46.5949C40.4104 46.5845 40.4104 46.5757 40.4171 46.5625C40.4545 46.5718 40.4963 46.5795 40.5342 46.5889C40.7493 46.64 40.9698 46.6895 41.1942 46.7368C42.2871 46.9722 43.4982 47.1653 44.7885 47.3127C44.7929 47.3127 44.7962 47.3149 44.8 47.3149C44.8011 47.3149 44.8022 47.3143 44.8027 47.3143C45.6817 47.4144 46.5935 47.4931 47.5296 47.5486C47.5368 47.5486 47.5429 47.5525 47.55 47.5525C47.5539 47.5525 47.5566 47.5503 47.5604 47.5503C48.2342 47.5899 48.9167 47.619 49.6075 47.6344C50.0305 47.6449 50.4458 47.6504 50.85 47.6504C51.1388 47.6504 51.4347 47.6471 51.7333 47.6416C55.7296 47.58 59.4333 47.1048 62.0106 46.3683C62.1294 46.3348 62.2454 46.3001 62.3598 46.2655C62.4297 46.244 62.5012 46.2231 62.5688 46.2017C62.768 46.1379 62.9588 46.0724 63.1431 46.0042C63.175 45.9921 63.2052 45.98 63.2371 45.9679C63.3927 45.9091 63.5424 45.848 63.6854 45.7859C63.7266 45.7677 63.769 45.7501 63.8091 45.732C63.9615 45.6632 64.1089 45.5928 64.2453 45.5197C64.3069 45.4872 64.3602 45.4537 64.4179 45.4207C64.4839 45.3827 64.55 45.3442 64.611 45.3052C64.6457 45.2832 64.6869 45.2623 64.7199 45.2403C67.1822 45.7743 67.8312 46.3584 67.8939 46.5861ZM50.85 37.7504C59.919 37.7504 64.506 39.1782 64.5918 39.9977C64.5252 40.3695 63.681 40.8606 62.1861 41.3226C60.2402 41.9238 57.1954 42.4743 53.3365 42.6448C53.1391 42.6531 52.9422 42.6613 52.7409 42.6679C52.5765 42.6734 52.4115 42.6784 52.2437 42.6828C51.7883 42.6932 51.3263 42.7004 50.85 42.7004C50.3737 42.7004 49.9117 42.6932 49.4563 42.6828C49.2891 42.6789 49.1241 42.6734 48.9591 42.6679C48.7573 42.6619 48.5604 42.6531 48.3635 42.6448C44.5047 42.4743 41.4593 41.9238 39.514 41.3226C38.0185 40.8606 37.1748 40.3695 37.1083 39.9977C37.1941 39.1782 41.781 37.7504 50.85 37.7504ZM37.1 43.7982V41.5206C37.5395 41.7973 38.0961 42.0497 38.75 42.2774V44.9108C37.6803 44.5099 37.1011 44.1078 37.1 43.7982ZM39.7642 51.4096C39.7724 51.4184 39.7851 51.4261 39.7933 51.4349C40.5463 52.195 42.1056 52.7923 44.0465 53.2378C44.0911 53.2483 44.1384 53.2582 44.1834 53.2686C44.3259 53.3005 44.4706 53.3319 44.6168 53.3621C46.3994 53.7416 48.5274 54.0161 50.8456 54.1519C50.8473 54.1519 50.8484 54.1525 50.8495 54.1525C50.8506 54.1525 50.8511 54.1519 50.8517 54.1519C51.5964 54.1954 52.3581 54.2256 53.1358 54.2388C53.4801 54.246 53.8189 54.2504 54.15 54.2504C54.5295 54.2504 54.9189 54.246 55.3149 54.2366C56.0343 54.2218 56.7432 54.1921 57.4423 54.1514C57.4451 54.1514 57.4473 54.153 57.45 54.153C57.455 54.153 57.4588 54.1503 57.4638 54.1503C59.7881 54.0133 61.9688 53.7361 63.813 53.3374C63.4137 53.5464 62.867 53.7625 62.1861 53.9732C60.1318 54.6079 56.851 55.1859 52.6815 55.3201C52.5578 55.324 52.4356 55.3284 52.3103 55.3317C52.1755 55.335 52.0386 55.3372 51.9016 55.3399C51.5557 55.3454 51.2075 55.3504 50.85 55.3504C50.3737 55.3504 49.9117 55.3432 49.4563 55.3328C49.2891 55.3289 49.1241 55.3234 48.9591 55.3179C48.7573 55.3119 48.5604 55.3031 48.3635 55.2948C44.5047 55.1243 41.4593 54.5738 39.514 53.9726C38.0015 53.5051 37.155 53.0079 37.1061 52.6345C37.1671 52.4277 37.7232 51.9101 39.7642 51.4096ZM37.1 56.4482V54.1706C37.5395 54.4473 38.0961 54.6997 38.75 54.9274V57.5504L38.436 57.4283L38.4293 57.4349C37.5658 57.0768 37.1011 56.7254 37.1 56.4482ZM38.75 62.4982V60.2206C39.1895 60.4973 39.7461 60.7497 40.4 60.9774V63.6108C39.3303 63.2099 38.7511 62.8078 38.75 62.4982ZM64.6 63.6108V60.978C65.254 60.7503 65.8106 60.4978 66.25 60.2212V62.4971C66.2495 62.8067 65.6698 63.2093 64.6 63.6108ZM66.2429 58.6927C66.1829 59.0651 65.3381 59.559 63.8361 60.0232C61.8902 60.6243 58.8454 61.1749 54.9866 61.3454C54.7891 61.3536 54.5922 61.3619 54.3909 61.3685C54.2264 61.374 54.0615 61.3789 53.8937 61.3833C53.4383 61.3932 52.9763 61.4004 52.5 61.4004C52.0237 61.4004 51.5612 61.3932 51.1052 61.3828C50.9397 61.3789 50.7763 61.3734 50.613 61.3679C50.41 61.3613 50.212 61.3531 50.0135 61.3448C46.1547 61.1743 43.1099 60.6238 41.1639 60.0226C39.7092 59.5733 38.8688 59.0959 38.7632 58.7274C38.9271 58.7846 39.097 58.8401 39.2714 58.8946C39.289 58.9001 39.3066 58.9056 39.3242 58.9105C39.4727 58.9562 39.6245 59.0002 39.7802 59.0431C39.839 59.0596 39.8984 59.0761 39.9584 59.092C40.0464 59.1157 40.1365 59.1382 40.2267 59.1613C42.2299 59.6745 44.7868 60.038 47.5473 60.2014C47.5484 60.2014 47.5489 60.2019 47.55 60.2019C47.5506 60.2019 47.5511 60.2014 47.5517 60.2014C48.4042 60.252 49.2748 60.2833 50.1548 60.2938C50.3891 60.2982 50.6217 60.3004 50.85 60.3004C51.1531 60.3004 51.4633 60.2965 51.7773 60.291C52.5798 60.2778 53.3717 60.2481 54.1462 60.2019C54.1478 60.2019 54.1489 60.203 54.1506 60.203C54.1533 60.203 54.155 60.2014 54.1577 60.2014C55.101 60.1447 56.014 60.0639 56.8912 59.9632C56.8945 59.9632 56.8972 59.9649 56.9006 59.9649C56.9127 59.9649 56.9226 59.9588 56.9347 59.9577C57.9114 59.845 58.8377 59.7064 59.6973 59.5452C59.8744 59.5128 60.0488 59.4792 60.2215 59.4446C60.26 59.4369 60.2985 59.4292 60.337 59.4209C61.9611 59.0876 63.3669 58.6559 64.3316 58.1207C64.3844 58.0921 64.4339 58.0624 64.484 58.0333C64.545 57.997 64.6033 57.9601 64.66 57.9227C64.7128 57.8886 64.7738 57.8556 64.8222 57.821C65.9079 58.2082 66.2071 58.5547 66.2429 58.6927ZM66.25 51.5108V48.878C66.9039 48.6503 67.4606 48.3978 67.9 48.1212V50.3971C67.8995 50.7067 67.3197 51.1093 66.25 51.5108Z" fill="white"/>
</svg>
