<svg width="56" height="36" viewBox="0 0 56 36" fill="none" xmlns="http://www.w3.org/2000/svg">
<rect x="0.582031" width="54.5806" height="36" rx="4" fill="white"/>
<rect x="1.08203" y="0.5" width="53.5806" height="35" rx="3.5" stroke="#808080" stroke-opacity="0.4"/>
<g clip-path="url(#clip0)">
<path d="M0.666624 41.3941C0.924451 41.3824 1.33035 41.3825 1.56861 41.3943C1.80688 41.4061 1.59593 41.4156 1.09984 41.4155C0.603745 41.4155 0.408796 41.4058 0.666624 41.3941V41.3941ZM27.032 41.3942C27.2718 41.3825 27.6642 41.3825 27.9039 41.3942C28.1437 41.406 27.9475 41.4157 27.468 41.4157C26.9884 41.4157 26.7922 41.406 27.032 41.3942ZM31.0579 41.3942C31.3292 41.3827 31.7892 41.3826 32.0802 41.3941C32.3712 41.4055 32.1493 41.4149 31.5871 41.4149C31.0248 41.415 30.7867 41.4057 31.0579 41.3942V41.3942ZM4.40023 32.7469C4.40023 32.32 4.40985 32.1453 4.42158 32.3588C4.43333 32.5722 4.43333 32.9215 4.42158 33.135C4.40983 33.3484 4.40023 33.1738 4.40023 32.7469ZM27.651 25.5159C27.5045 25.3336 27.0718 25.2332 26.2052 25.1804C25.1622 25.1169 24.8493 25.0053 24.4369 24.5499C23.9602 24.0237 23.9572 24.0084 23.9331 21.9887L23.9119 20.2035H27.7679H31.6239L31.6055 21.9887C31.5847 24.0002 31.5647 24.1033 31.1038 24.5793C30.9026 24.7871 30.2617 25.1583 30.2051 25.0998C30.1934 25.0878 30.2083 24.9382 30.2382 24.7675C30.3427 24.1701 30.3388 24.1775 30.5271 24.2164C30.7251 24.2573 31.0421 24.1106 31.1325 23.9361C31.1815 23.8416 31.1174 23.7071 30.7863 23.2093C30.2172 22.3536 30.2298 22.3593 28.8776 22.3496C27.8231 22.3421 27.5837 22.3086 27.7635 22.1938C27.959 22.069 27.5683 21.4235 27.1404 21.1645C26.9955 21.0769 26.8334 20.9365 26.7802 20.8527C26.6617 20.6659 26.5474 20.6585 26.4368 20.8305C26.3531 20.9606 26.3522 20.9604 25.7656 20.7083C25.4425 20.5694 25.1979 20.4899 25.222 20.5315C25.2461 20.573 25.4128 20.7961 25.5926 21.0271L25.9194 21.4471L25.7616 21.6933C25.6749 21.8287 25.6039 21.9928 25.6039 22.0579C25.6039 22.2329 25.875 22.3934 26.0888 22.3449C26.2406 22.3105 26.2653 22.3232 26.2653 22.4361C26.2653 22.5574 26.2429 22.5643 25.9706 22.527C25.7175 22.4923 25.6316 22.5114 25.3637 22.662C24.9649 22.8862 24.8221 23.0745 24.8221 23.3766C24.8221 23.6901 24.994 24.0645 25.1191 24.0238C25.1927 23.9998 25.2136 24.0445 25.2156 24.231C25.2175 24.4053 25.2729 24.5402 25.4229 24.7358L25.6277 25.0027L25.8024 24.792C26.022 24.5271 26.1512 24.2291 26.0832 24.1445C26.0549 24.1092 26.0528 24.0449 26.0787 24.0017C26.1161 23.9392 26.2156 23.9443 26.5678 24.027C26.9999 24.1285 27.012 24.1281 27.1073 24.0066C27.1957 23.8938 27.238 23.8878 27.5619 23.9421C27.7583 23.9749 28.0728 23.9861 28.2607 23.9669C28.6019 23.932 28.6028 23.9324 28.7918 24.1788L28.9812 24.4257L28.8535 24.8219C28.728 25.2114 28.7214 25.2189 28.4727 25.2595C28.3335 25.2822 28.1187 25.3694 27.9954 25.4533C27.7317 25.6327 27.7432 25.6306 27.651 25.5159ZM33.361 22.8501C33.361 22.8373 33.4083 22.7883 33.4662 22.7415C33.5616 22.6642 33.5637 22.6664 33.4889 22.7649C33.4103 22.8684 33.361 22.9012 33.361 22.8501ZM23.9194 18.0456C23.9189 16.5595 23.899 16.0604 23.8299 15.7946C23.7811 15.6068 23.7409 15.4321 23.7405 15.4065C23.74 15.3809 24.3313 15.36 25.0544 15.36H26.369L26.6028 15.5523C26.7314 15.6581 26.9075 15.7827 26.9941 15.8291C27.1158 15.8944 27.1451 15.9485 27.1232 16.0668C27.078 16.3113 27.2168 16.6415 27.4561 16.8584C27.5778 16.9688 27.7215 17.1608 27.7754 17.2851C27.8293 17.4094 27.9713 17.5945 28.0911 17.6964L28.3088 17.8817L28.0728 18.1197L27.8368 18.3577L26.9458 18.3131C26.4558 18.2885 26.0278 18.2393 25.9947 18.2036C25.9533 18.1589 25.986 18.1481 26.0996 18.1689C26.3171 18.2086 26.4429 18.0661 26.2732 17.9723C26.207 17.9358 26.0971 17.9059 26.0287 17.9059C25.9604 17.9059 25.905 17.8989 25.9056 17.8904C25.9062 17.8818 25.9869 17.5954 26.0849 17.2539C26.183 16.9124 26.2637 16.5691 26.2643 16.4912C26.2651 16.376 26.0178 15.7779 25.9267 15.6749C25.9137 15.6603 25.7694 15.8 25.6059 15.9854L25.3087 16.3225L25.3059 17.0559L25.3032 17.7893L25.0326 17.7474C24.7844 17.709 24.762 17.7164 24.762 17.8368C24.762 17.9089 24.8002 17.968 24.847 17.968C24.9159 17.968 24.9194 18.0022 24.8659 18.1487C24.7883 18.361 24.8751 18.7374 25.0466 18.9327C25.1055 18.9998 25.1871 19.1323 25.2279 19.2272C25.3225 19.447 25.4587 19.5009 25.5958 19.3727C25.7394 19.2385 25.7491 19.2392 27.1167 19.4911L28.3062 19.7102L28.8839 19.2762C29.5661 18.7637 29.6667 18.766 29.6678 19.2942C29.6682 19.4979 29.7081 19.6754 29.7778 19.7843L29.8871 19.9551H26.9036H23.9202L23.9194 18.0456L23.9194 18.0456ZM26.9719 18.5478C27.0132 18.5306 27.0809 18.5306 27.1222 18.5478C27.1635 18.5651 27.1297 18.5792 27.047 18.5792C26.9644 18.5792 26.9305 18.565 26.9719 18.5478ZM37.6399 17.4712C37.6399 17.3858 37.6535 17.3509 37.6702 17.3936C37.6869 17.4363 37.6869 17.5062 37.6702 17.5488C37.6535 17.5915 37.6399 17.5566 37.6399 17.4712ZM19.2899 14.0946C19.2899 14.0817 19.3373 14.0328 19.3952 13.9859C19.4905 13.9087 19.4927 13.9109 19.4179 14.0094C19.3393 14.1128 19.2899 14.1457 19.2899 14.0946V14.0946ZM20.5527 14.0946C20.5527 14.0817 20.6001 14.0328 20.658 13.9859C20.7533 13.9087 20.7555 13.9109 20.6807 14.0094C20.6021 14.1128 20.5527 14.1457 20.5527 14.0946L20.5527 14.0946Z" fill="#FAE316"/>
<path d="M26.9332 28.8879C26.4259 28.8332 25.8401 28.7028 25.5246 28.5745C25.38 28.5157 25.3611 28.4817 25.3964 28.3441C25.4735 28.0432 25.4585 28.0221 25.0628 27.8768C24.8478 27.7979 24.3918 27.5986 24.0495 27.4339L23.4271 27.1344L23.8841 26.9547C24.1355 26.8559 24.3412 26.7419 24.3412 26.7013C24.3412 26.6608 24.2907 26.4396 24.229 26.2098C24.1673 25.98 24.1233 25.792 24.1313 25.792C24.1393 25.792 24.347 25.8867 24.593 26.0025C25.0572 26.2209 26.3151 26.6614 26.4748 26.6614C26.5357 26.6614 26.5661 26.722 26.5661 26.8438C26.5661 27.0137 26.5859 27.0295 26.8517 27.0725C27.229 27.1335 28.326 27.1345 28.6858 27.0741C28.9512 27.0297 28.9714 27.0134 28.9714 26.8438C28.9714 26.722 29.0018 26.6613 29.0627 26.6613C29.2256 26.6613 30.4926 26.2189 30.9492 26.0025C31.1937 25.8867 31.4013 25.792 31.4107 25.792C31.42 25.792 31.3722 26.0027 31.3044 26.2602C31.2366 26.5178 31.1913 26.7389 31.2038 26.7516C31.2162 26.7644 31.4244 26.8559 31.6665 26.955L32.1066 27.1353L31.4975 27.4312C31.1624 27.5939 30.7073 27.7931 30.4861 27.8738C30.1308 28.0034 30.0864 28.0373 30.1059 28.1637C30.1659 28.5545 30.1745 28.5448 29.643 28.6898C29.147 28.8251 28.068 28.9665 27.6531 28.9506C27.5348 28.9461 27.2108 28.9178 26.9332 28.8879V28.8879ZM28.9113 28.582C29.6633 28.4667 29.8849 28.3958 29.8413 28.2843C29.8195 28.2284 29.7211 27.9569 29.6227 27.6809L29.4438 27.179L29.0122 27.2695C28.4463 27.3881 27.028 27.3841 26.506 27.2624C26.291 27.2123 26.1101 27.1758 26.1041 27.1813C26.098 27.1868 25.9987 27.4605 25.8833 27.7895L25.6736 28.3878L25.9244 28.4517C26.181 28.517 26.9469 28.6319 27.3779 28.6697C27.6985 28.6978 28.4286 28.6561 28.9113 28.5821V28.582ZM25.7534 27.3104C25.8445 27.0526 25.901 26.8232 25.8791 26.8005C25.8571 26.7779 25.6442 26.6845 25.4059 26.5929C25.1676 26.5014 24.8711 26.3811 24.7471 26.3257C24.4931 26.2123 24.4893 26.2202 24.6056 26.6193L24.6896 26.9075L24.365 27.0131C24.1866 27.0712 24.0405 27.1381 24.0405 27.1618C24.0405 27.2346 25.3314 27.7599 25.5508 27.7763C25.5712 27.778 25.6624 27.5682 25.7534 27.3104ZM30.2984 27.6801C30.7369 27.5471 31.497 27.2196 31.497 27.1637C31.497 27.139 31.3497 27.0708 31.1696 27.0122L30.8423 26.9056L30.9291 26.6515C31.0682 26.2443 31.053 26.2085 30.7904 26.3257C30.6664 26.3811 30.3699 26.5014 30.1316 26.5929C29.8933 26.6845 29.6832 26.7749 29.6648 26.794C29.6388 26.8208 29.9296 27.7791 29.9638 27.7791C29.9682 27.7791 30.1188 27.7345 30.2984 27.6801ZM27.5915 26.0129C27.3532 25.7508 27.1214 25.6854 26.2871 25.6446C24.8217 25.5729 24.1001 25.1751 23.6634 24.198C23.5303 23.9 23.5292 23.872 23.4993 19.8929L23.4693 15.8877L23.2991 15.4841C23.2055 15.2621 23.1147 15.0455 23.0972 15.0028C23.0724 14.9419 23.3854 14.9252 24.5491 14.9252H26.0326L25.7889 14.5681C25.4732 14.1055 25.202 13.9174 24.8034 13.8843C24.4284 13.8533 24.1454 14.0184 23.9467 14.3842C23.8021 14.6504 23.7399 14.6272 23.7399 14.3071C23.7399 13.957 23.97 13.7477 25.0778 13.09C25.7435 12.6947 26.085 12.4571 26.0849 12.389C26.0848 12.3324 25.9901 11.7412 25.8746 11.0752C25.759 10.4093 25.6646 9.78054 25.6647 9.67809C25.6651 9.30902 26.025 8.94439 26.623 8.70704C27.0918 8.52102 28.0781 8.4767 28.6111 8.6177C29.3701 8.81849 29.8734 9.23882 29.8734 9.67187C29.8734 9.77789 29.7789 10.4234 29.6633 11.1064C29.5477 11.7894 29.453 12.3796 29.4528 12.4179C29.4526 12.4562 29.892 12.7496 30.4293 13.0699C30.9666 13.3902 31.4812 13.7221 31.5729 13.8075C31.776 13.9964 31.8627 14.2796 31.7822 14.4911L31.7233 14.6458L31.6455 14.4595C31.3781 13.82 30.6284 13.6764 30.1053 14.1645C29.9721 14.2887 29.783 14.5106 29.685 14.6577L29.5068 14.9252H30.9894C32.3784 14.9252 32.4691 14.9321 32.427 15.0339C32.4023 15.0936 32.3115 15.3242 32.2253 15.5462L32.0685 15.9498L32.0383 19.9239L32.0081 23.8981L31.8496 24.2471C31.6448 24.6983 31.3404 25.042 30.953 25.2598C30.5102 25.5086 30.1203 25.6 29.3322 25.6396C28.3689 25.6881 28.3006 25.7042 28.0245 25.9482C27.8899 26.0672 27.7684 26.1646 27.7546 26.1646C27.7409 26.1646 27.6675 26.0963 27.5915 26.0129ZM27.9955 25.4532C28.1189 25.3693 28.3336 25.2821 28.4728 25.2594C28.7216 25.2188 28.7281 25.2113 28.8536 24.8219L28.9813 24.4256L28.792 24.1788C28.6029 23.9323 28.6021 23.932 28.2609 23.9668C28.0729 23.9861 27.7584 23.9749 27.562 23.942C27.2381 23.8877 27.1959 23.8937 27.1074 24.0065C27.0122 24.128 27 24.1284 26.5679 24.0269C26.2158 23.9442 26.1163 23.9391 26.0788 24.0017C26.0529 24.0449 26.055 24.1091 26.0834 24.1444C26.1514 24.229 26.0221 24.527 25.8025 24.7919L25.6278 25.0027L25.4231 24.7357C25.273 24.5401 25.2176 24.4052 25.2157 24.231C25.2137 24.0445 25.1929 23.9997 25.1192 24.0237C24.9941 24.0644 24.8223 23.69 24.8223 23.3765C24.8223 23.0744 24.965 22.8861 25.3638 22.6619C25.6318 22.5114 25.7176 22.4923 25.9707 22.5269C26.243 22.5642 26.2654 22.5573 26.2654 22.436C26.2654 22.3231 26.2408 22.3104 26.0889 22.3448C25.8751 22.3933 25.604 22.2328 25.604 22.0578C25.604 21.9927 25.675 21.8286 25.7618 21.6932L25.9195 21.447L25.5927 21.027C25.413 20.796 25.2462 20.573 25.2221 20.5314C25.198 20.4898 25.4427 20.5693 25.7657 20.7082C26.3524 20.9603 26.3533 20.9605 26.4369 20.8304C26.5475 20.6584 26.6618 20.6658 26.7803 20.8526C26.8335 20.9364 26.9956 21.0768 27.1405 21.1645C27.5684 21.4234 27.9592 22.0689 27.7636 22.1937C27.5838 22.3085 27.8232 22.342 28.8777 22.3495C30.2299 22.3592 30.2173 22.3535 30.7865 23.2092C31.1175 23.707 31.1816 23.8415 31.1326 23.9361C31.0422 24.1105 30.7253 24.2572 30.5273 24.2163C30.339 24.1774 30.3428 24.17 30.2383 24.7674C30.2084 24.9381 30.1936 25.0877 30.2052 25.0998C30.2619 25.1582 30.9027 24.787 31.1039 24.5793C31.5649 24.1033 31.5848 24.0002 31.6056 21.9886L31.624 20.2034H27.768H23.912L23.9333 21.9886C23.9573 24.0083 23.9603 24.0236 24.437 24.5498C24.8495 25.0052 25.1624 25.1168 26.2053 25.1803C27.0719 25.2331 27.5046 25.3335 27.6511 25.5159C27.7433 25.6305 27.7318 25.6326 27.9955 25.4532H27.9955ZM29.4192 24.814C29.4791 24.6176 29.5388 24.4279 29.552 24.3925C29.5651 24.357 29.4466 24.2632 29.2887 24.184C29.0316 24.0551 29.0125 24.0526 29.1067 24.1602C29.24 24.3125 29.2386 24.3884 29.0949 24.8198L28.9779 25.1711H29.1441C29.2937 25.1711 29.3211 25.1354 29.4192 24.814H29.4192ZM30.0242 24.6094C30.1283 24.0561 30.1281 24.0458 30.0092 23.9109C29.8334 23.7115 29.7703 23.5618 29.7222 23.2306C29.6859 22.9807 29.6944 22.9356 29.7779 22.9356C29.8422 22.9356 29.9479 23.0975 30.0818 23.401C30.3139 23.9269 30.4832 24.0638 30.7476 23.9394C30.9277 23.8546 30.9141 23.8155 30.4877 23.1955C30.1654 22.7268 30.0216 22.6195 29.7143 22.6187C29.5868 22.6185 29.0727 22.6127 28.5718 22.6061C27.526 22.5923 27.4481 22.5591 27.3812 22.0987C27.3328 21.7653 27.064 21.3691 26.8136 21.262C26.7106 21.2179 26.6248 21.1363 26.6231 21.0807C26.6206 21.0018 26.5995 21.0098 26.5269 21.1172L26.4339 21.2548L26.1392 21.1006C25.9771 21.0158 25.8445 20.9599 25.8445 20.9764C25.8445 20.9928 25.9273 21.1037 26.0286 21.2228C26.2278 21.4571 26.2182 21.55 25.9704 21.7816C25.8207 21.9214 25.8112 22.0225 25.9373 22.1305C26.0075 22.1907 26.0469 22.1926 26.0996 22.1381C26.1379 22.0986 26.2726 22.0663 26.3989 22.0663C26.6205 22.0663 26.6269 22.0722 26.5823 22.237C26.5211 22.463 26.5252 23.1245 26.5886 23.2613C26.634 23.3592 26.6108 23.3658 26.3469 23.3289C26.1864 23.3065 26.016 23.2856 25.9683 23.2826C25.8652 23.2761 25.423 24.0294 25.4249 24.2083C25.4257 24.2768 25.4758 24.3993 25.5363 24.4805L25.6464 24.6283L25.7438 24.4847C25.8001 24.4016 25.8269 24.2819 25.8072 24.201C25.7612 24.0116 25.9561 23.6805 26.113 23.6815C26.1803 23.682 26.3807 23.7222 26.5583 23.771C26.8574 23.8532 26.8929 23.8511 27.0394 23.7433C27.1784 23.6409 27.2411 23.6345 27.5583 23.6901C27.9929 23.7662 28.5089 23.7232 28.6982 23.5951C28.8267 23.5082 28.8466 23.5126 28.9778 23.6567C29.0555 23.7421 29.2649 23.8982 29.4431 24.0035L29.7672 24.1949L29.731 24.4501C29.7112 24.5905 29.6774 24.8101 29.656 24.9382C29.6196 25.156 29.6269 25.1711 29.7679 25.1711C29.9099 25.1711 29.9247 25.1385 30.0242 24.6094H30.0242ZM26.3256 21.6042C26.3256 21.551 26.3526 21.5074 26.3857 21.5074C26.4188 21.5074 26.4458 21.5337 26.4458 21.5658C26.4458 21.598 26.4188 21.6415 26.3857 21.6626C26.3526 21.6837 26.3256 21.6574 26.3256 21.6042ZM25.4415 23.4188C25.4221 23.3135 25.4633 23.2391 25.5982 23.1361C25.7554 23.0161 25.8155 23.0043 26.0234 23.0525C26.2408 23.103 26.2654 23.0966 26.2654 22.9896C26.2654 22.8559 26.0523 22.7493 25.7851 22.7493C25.5647 22.7493 25.0996 23.11 25.0728 23.3017C25.0618 23.3805 25.0692 23.5124 25.0892 23.5948C25.124 23.738 25.1332 23.7406 25.2968 23.6532C25.4271 23.5836 25.4617 23.5276 25.4415 23.4188ZM29.7779 19.7842C29.7082 19.6753 29.6683 19.4978 29.6679 19.2941C29.6668 18.7659 29.5662 18.7636 28.884 19.2761L28.3063 19.7101L27.1168 19.491C25.7492 19.2391 25.7396 19.2384 25.5959 19.3726C25.4588 19.5008 25.3226 19.4469 25.2281 19.2271C25.1872 19.1322 25.1057 18.9997 25.0467 18.9326C24.8752 18.7373 24.7884 18.3608 24.866 18.1486C24.9196 18.0021 24.916 17.9679 24.8471 17.9679C24.8004 17.9679 24.7621 17.9088 24.7621 17.8367C24.7621 17.7163 24.7846 17.7089 25.0327 17.7473L25.3033 17.7892L25.3061 17.0558L25.3088 16.3224L25.606 15.9853C25.7695 15.7999 25.9139 15.6602 25.9268 15.6748C26.0179 15.7778 26.2652 16.3759 26.2644 16.4911C26.2638 16.569 26.1831 16.9123 26.085 17.2538C25.987 17.5953 25.9063 17.8817 25.9057 17.8903C25.9051 17.8988 25.9605 17.9058 26.0289 17.9058C26.0972 17.9058 26.2072 17.9357 26.2733 17.9722C26.443 18.066 26.3172 18.2085 26.0997 18.1688C25.9861 18.148 25.9534 18.1588 25.9948 18.2035C26.0279 18.2392 26.4559 18.2884 26.9459 18.313L27.8369 18.3576L28.0729 18.1196L28.3089 17.8816L28.0912 17.6963C27.9715 17.5944 27.8294 17.4093 27.7755 17.285C27.7216 17.1607 27.5779 16.9687 27.4562 16.8583C27.217 16.6414 27.0781 16.3112 27.1234 16.0667C27.1453 15.9484 27.1159 15.8943 26.9942 15.829C26.9076 15.7826 26.7315 15.658 26.6029 15.5522L26.3692 15.3599H25.0545C24.3315 15.3599 23.7402 15.3808 23.7406 15.4064C23.741 15.432 23.7812 15.6067 23.8301 15.7945C23.8992 16.0603 23.919 16.5594 23.9196 18.0455L23.9203 19.955H26.9037H29.8872L29.7779 19.7842ZM31.6172 19.4256C31.6172 18.9052 31.6144 18.8952 31.4519 18.8316C31.2377 18.7478 31.0426 18.5568 30.9595 18.3498C30.9232 18.2591 30.7936 18.1292 30.6717 18.0609C30.3744 17.8946 30.2105 17.5989 30.2679 17.3324L30.3116 17.1296L30.4153 17.378C30.5375 17.6709 30.6987 17.8333 30.9309 17.8974C31.0464 17.9293 31.1135 17.999 31.1447 18.1193C31.1971 18.3215 31.4207 18.5889 31.5375 18.5889C31.601 18.5889 31.6172 18.3444 31.6172 17.391C31.6172 16.5266 31.6423 16.0937 31.7074 15.8356C31.757 15.6389 31.7976 15.4514 31.7976 15.4189C31.7976 15.3834 31.2798 15.3599 30.4978 15.3599H29.198L28.9108 15.5776C28.4928 15.8944 28.2485 15.9808 27.7707 15.9808C27.3494 15.9808 27.3478 15.9815 27.3481 16.1516C27.3483 16.3943 27.5422 16.6912 27.7616 16.785C27.8799 16.8356 27.9492 16.9095 27.9492 16.985C27.9492 17.1888 28.1228 17.4644 28.3164 17.5678C28.4873 17.659 28.51 17.6583 28.6161 17.5592C28.697 17.4836 28.7312 17.3676 28.7318 17.1666C28.7331 16.7742 28.8226 16.6425 28.8786 16.9506C28.9395 17.2863 29.0648 17.5098 29.2579 17.6276C29.4036 17.7165 29.4218 17.7604 29.402 17.9748C29.3709 18.3116 29.4859 18.5625 29.7452 18.7233C29.8653 18.7978 29.9711 18.8641 29.9803 18.8705C29.9895 18.8769 29.9674 18.9626 29.9312 19.0609C29.8409 19.3062 29.9058 19.599 30.0935 19.7928C30.2444 19.9486 30.2774 19.955 30.9339 19.955H31.6172V19.4256ZM28.797 19.0397C29.1893 18.7475 29.2704 18.6593 29.2401 18.5578C29.2197 18.4895 29.1882 18.3021 29.17 18.1414C29.1503 17.9669 29.0906 17.8058 29.0219 17.7415C28.911 17.6379 28.8896 17.6515 28.4382 18.1149L27.9697 18.5959L27.0725 18.5769L26.1752 18.5578L26.1573 18.8097L26.1394 19.0616L27.1495 19.2533C27.7051 19.3587 28.195 19.4343 28.2382 19.4212C28.2814 19.408 28.5329 19.2364 28.797 19.0397L28.797 19.0397ZM25.892 18.7441C25.906 18.5453 25.8747 18.4528 25.7352 18.2808C25.5692 18.0761 25.5498 18.0687 25.3269 18.1256C25.043 18.198 24.9953 18.387 25.1822 18.6997C25.3166 18.9247 25.4949 19.0252 25.7242 19.0055C25.8541 18.9943 25.877 18.9587 25.892 18.7441ZM25.86 17.1665C26.0273 16.5558 26.0362 16.3722 25.9083 16.1688C25.8597 16.0914 25.8271 16.1003 25.6973 16.2262C25.5494 16.3696 25.5439 16.402 25.5439 17.1146C25.5439 18.0368 25.6184 18.049 25.86 17.1665ZM28.3002 15.5076C28.6528 15.3603 28.9747 15.0431 29.3184 14.5041C29.6305 14.0148 29.9711 13.6764 30.2403 13.5881C30.3031 13.5676 30.3539 13.5316 30.3532 13.5083C30.3525 13.485 30.0962 13.3169 29.7836 13.1346L29.2153 12.8033L28.4951 13.2123L27.775 13.6213L27.0504 13.2143L26.3258 12.8073L25.7557 13.1366C25.4422 13.3178 25.1855 13.4799 25.1852 13.497C25.185 13.5141 25.3198 13.6049 25.4848 13.6989C25.6894 13.8155 25.8701 13.9931 26.0532 14.2578C26.2008 14.4712 26.3996 14.7579 26.495 14.8949C26.717 15.2135 27.0956 15.4839 27.4556 15.5808C27.7569 15.662 27.9761 15.643 28.3002 15.5076ZM27.5775 14.7322L27.6037 14.1667L27.4607 14.2129C27.3821 14.2384 27.2839 14.2723 27.2426 14.2884C27.1925 14.3078 27.1674 14.2531 27.1674 14.1246V13.9317H27.7988H28.4302V14.1246C28.4302 14.2531 28.4051 14.3078 28.3551 14.2884C28.3137 14.2723 28.2156 14.2384 28.1369 14.2129L27.994 14.1667L28.0201 14.7322L28.0463 15.2978H27.7988H27.5513L27.5775 14.7322ZM27.6485 11.8042V10.5462L26.8948 10.2747C26.4803 10.1253 26.1298 10.0148 26.1161 10.0289C26.0815 10.0646 26.472 12.3343 26.5291 12.4297C26.5631 12.4867 27.5295 13.0374 27.6335 13.0592C27.6417 13.0608 27.6485 12.4962 27.6485 11.8042H27.6485ZM26.9992 11.3877C26.7613 11.2097 26.5855 10.9724 26.6456 10.9104C26.6616 10.8938 26.8126 10.9416 26.9812 11.0165C27.2632 11.1418 27.2877 11.1694 27.2877 11.3623C27.2877 11.4777 27.2782 11.572 27.2667 11.572C27.2551 11.572 27.1347 11.4891 26.9992 11.3877H26.9992ZM29.0242 12.4677C29.0613 12.4326 29.4517 10.0602 29.4249 10.0326C29.4114 10.0186 29.0604 10.1287 28.6451 10.2773L27.8899 10.5474L27.8895 11.8055L27.889 13.0636L28.4453 12.7763C28.7512 12.6184 29.0117 12.4795 29.0242 12.4677H29.0242ZM28.2498 11.3636C28.2498 11.1413 28.2332 11.1542 28.8361 10.9066C28.8775 10.8896 28.9113 10.9151 28.9113 10.9633C28.9113 11.0636 28.5862 11.398 28.3851 11.5047C28.2576 11.5723 28.2498 11.5641 28.2498 11.3636ZM28.6557 9.89631C29.0939 9.71936 29.4525 9.55146 29.4525 9.52319C29.4525 9.41684 29.0839 9.15742 28.7778 9.04838C28.3393 8.89213 27.273 8.88965 26.7902 9.04375C26.463 9.14822 26.0145 9.47075 26.0893 9.54791C26.1562 9.617 27.7397 10.255 27.7988 10.2367C27.8319 10.2264 28.2175 10.0733 28.6557 9.89631V9.89631ZM22.3707 25.8451C21.467 25.7112 20.8305 25.271 20.4535 24.5191C20.3679 24.3483 20.289 24.1984 20.2782 24.1859C20.2673 24.1735 20.1384 24.2233 19.9916 24.2967C19.6373 24.4738 19.1966 24.5215 18.8006 24.4256C18.6233 24.3826 18.4582 24.3356 18.4336 24.3212C18.4091 24.3068 18.4458 24.18 18.5152 24.0395C18.7362 23.5922 18.7363 22.9698 18.5156 22.1232C18.4124 21.7276 18.328 21.3434 18.328 21.2694C18.328 21.1111 18.3122 21.109 17.9973 21.2262C17.2596 21.5006 16.3552 21.1847 15.9976 20.5276L15.8623 20.2791L16.117 20.1738C16.879 19.859 17.3901 19.0945 17.5251 18.0679L17.565 17.7642L17.3535 17.8051C17.2372 17.8277 17.0044 17.8156 16.8361 17.7783C16.2735 17.6537 15.8363 17.1986 15.5716 16.4621L15.4434 16.105L15.8484 16.1043C16.5665 16.1029 17.291 15.8249 17.8133 15.3502C17.9686 15.209 18.3091 14.8214 18.5699 14.4889C19.1616 13.7343 19.5686 13.361 20.08 13.1035L20.4789 12.9026L20.117 12.567C19.891 12.3574 19.7019 12.1134 19.6134 11.9173C19.3406 11.3123 19.4701 10.535 19.9418 9.94616L20.1747 9.65533L20.3345 10.0128C20.5969 10.5996 21.0129 10.9511 21.4453 10.9511C21.61 10.9511 21.6222 10.9331 21.6608 10.6321C21.746 9.9687 22.2146 9.35982 22.8876 9.03814C23.1744 8.901 23.3151 8.87468 23.77 8.87294C24.0677 8.87177 24.3873 8.89279 24.4802 8.91956L24.6492 8.96826L24.4348 9.26991C24.0682 9.78559 23.951 10.2274 24.103 10.5208C24.1373 10.587 24.3335 10.7278 24.539 10.8337C25.2076 11.1784 25.4312 11.5165 25.3067 11.9943C25.2293 12.2908 24.895 12.62 24.0973 13.1852C23.4235 13.6625 22.4684 14.6335 22.1839 15.1304C21.7065 15.9643 21.5256 16.9255 21.7176 17.6076C21.8709 18.152 22.4168 18.8008 23.0114 19.1451C23.0958 19.194 23.0849 19.2271 22.9282 19.3976C22.5372 19.8229 21.92 20.0022 21.201 19.8993C20.9624 19.8652 20.7588 19.8459 20.7486 19.8565C20.7384 19.867 20.8538 20.0179 21.0051 20.1917C21.3675 20.6078 21.7959 20.8197 22.4625 20.9124L22.9883 20.9856L22.981 21.2955C22.972 21.674 22.8 22.0409 22.5068 22.3067L22.2889 22.5044L22.446 22.6972C22.7757 23.1018 22.9213 23.5261 23.0216 24.3748C23.0976 25.0177 23.1697 25.2561 23.3879 25.5859C23.4823 25.7287 23.5596 25.8614 23.5596 25.8809C23.5596 25.9325 22.8086 25.9099 22.3708 25.8451L22.3707 25.8451ZM22.9263 25.435C22.8612 25.2768 22.7368 24.6487 22.6689 24.1352C22.5678 23.3708 22.1591 22.68 21.6863 22.4748L21.5137 22.3998L21.8601 22.2872C22.269 22.1542 22.5531 21.8763 22.6395 21.5247L22.6987 21.2839L22.2421 21.209C21.6645 21.1141 21.2275 20.8941 20.857 20.5115C20.5694 20.2146 20.1921 19.5426 20.1921 19.3275C20.1921 19.2272 20.2247 19.2322 20.5366 19.3796C20.7813 19.4953 21.0155 19.5505 21.3442 19.5702C21.8955 19.6031 22.1382 19.563 22.4056 19.3945L22.6047 19.2691L22.2994 19.0199C21.895 18.6898 21.6069 18.2732 21.4495 17.7909C21.3434 17.4661 21.3256 17.2965 21.3482 16.8284C21.4206 15.3317 22.2955 14.0542 24.1415 12.7495C24.8273 12.2648 25.0027 12.0731 25.0027 11.8079C25.0027 11.5191 24.909 11.4069 24.4678 11.1675C23.8882 10.853 23.7833 10.7212 23.7515 10.2675C23.7298 9.95841 23.7519 9.84022 23.883 9.56354C23.9696 9.38066 24.0405 9.20888 24.0405 9.18181C24.0405 9.08819 23.2981 9.21313 22.9906 9.35847C22.3324 9.66965 21.985 10.1789 21.9729 10.8505L21.966 11.2305H21.4803C21.0489 11.2305 20.9662 11.2111 20.7402 11.0565C20.6003 10.9608 20.401 10.7582 20.2973 10.6063C20.1936 10.4544 20.0919 10.3301 20.0713 10.3301C19.9874 10.3301 19.8159 10.818 19.7875 11.1381C19.7478 11.5838 19.9238 11.986 20.2976 12.3044C21.052 12.9467 21.0804 13.0449 20.5679 13.2381C19.8849 13.4954 19.4535 13.8685 18.6537 14.8936C18.4136 15.2013 18.0865 15.5545 17.9268 15.6786C17.3843 16.1001 16.6248 16.4155 16.1523 16.4155C15.8716 16.4155 15.8605 16.4945 16.0941 16.8276C16.3375 17.1746 16.6139 17.3976 16.8598 17.4452C17.0779 17.4874 17.528 17.4524 17.7774 17.3738C17.9183 17.3294 17.9184 17.3296 17.878 17.7573C17.8226 18.3447 17.6935 18.8663 17.5031 19.2719C17.3214 19.6589 16.8308 20.1978 16.539 20.3309C16.4315 20.3799 16.3436 20.4359 16.3436 20.4553C16.3436 20.5372 16.6912 20.825 16.8979 20.9142C17.3141 21.0937 17.9561 20.9899 18.3505 20.6792L18.5481 20.5236L18.6191 21.0743C18.6581 21.3771 18.7455 21.8011 18.8133 22.0164C18.9693 22.5119 19.0297 23.3879 18.9347 23.7774C18.8957 23.9375 18.8751 24.0802 18.889 24.0946C18.903 24.109 19.0066 24.1362 19.1194 24.1551C19.5493 24.2271 20.0668 23.9585 20.3171 23.5334L20.4253 23.3498L20.4612 23.5308C20.6116 24.2902 20.846 24.7136 21.3243 25.0904C21.6398 25.3389 22.2189 25.5355 22.6489 25.5401C22.9333 25.5432 22.9658 25.5309 22.9263 25.435ZM21.5079 23.505C21.4215 23.3455 21.1126 22.9077 20.8215 22.532C19.6885 21.0702 19.2278 20.0884 19.0165 18.6855L18.9796 18.4406L18.781 18.8243C18.5752 19.2222 18.2962 19.5855 18.0321 19.7997C17.9134 19.8961 17.9306 19.8542 18.1084 19.6135C18.5746 18.9825 18.7666 18.4429 19.134 16.7321C19.254 16.1731 19.616 15.3577 19.973 14.8418C20.5221 14.0485 21.5642 13.1325 22.4997 12.6209L22.9132 12.3948L22.3494 12.3685C21.9031 12.3478 21.7135 12.3081 21.4398 12.1779C21.2496 12.0875 21.094 12.0024 21.094 11.9887C21.094 11.9751 21.2496 12.0185 21.4398 12.0853C21.8772 12.239 22.8105 12.249 23.3978 12.1062C23.6231 12.0515 23.8248 12.0067 23.8459 12.0067C23.867 12.0067 23.4933 12.2479 23.0153 12.5428C21.9431 13.2042 21.3824 13.6358 20.924 14.1523C19.967 15.2308 19.7659 16.4572 20.3448 17.6832C20.4829 17.9756 20.4843 17.9875 20.3643 17.8437C20.293 17.7583 20.1507 17.5069 20.048 17.2849C19.8752 16.9112 19.8613 16.832 19.8613 16.2168C19.8613 15.8514 19.8427 15.5719 19.82 15.5958C19.7022 15.7197 19.4011 16.6559 19.3146 17.1671C19.1927 17.8874 19.23 18.7783 19.4118 19.4893C19.6462 20.4064 20.2819 21.6128 21.0314 22.563C21.3167 22.9246 21.7443 23.713 21.6872 23.772C21.675 23.7846 21.5943 23.6645 21.5079 23.505V23.505ZM32.0382 25.8622C32.0382 25.8223 32.1074 25.6764 32.1919 25.538C32.3562 25.2692 32.4713 24.817 32.5754 24.0306C32.6484 23.4796 32.8012 23.0754 33.0657 22.7342L33.2459 22.5017L33.0293 22.3054C32.7849 22.0838 32.6089 21.7641 32.5486 21.4323C32.4755 21.0297 32.5299 20.9696 33.0121 20.9205C33.6744 20.8532 34.0557 20.6793 34.4683 20.2567C34.6639 20.0564 34.8119 19.88 34.7972 19.8648C34.7824 19.8496 34.5752 19.8651 34.3366 19.8993C33.8114 19.9745 33.3315 19.8977 32.9761 19.6818C32.733 19.5342 32.4147 19.2289 32.4639 19.1907C32.4778 19.1799 32.6672 19.042 32.8848 18.8844C33.9342 18.124 34.1827 16.9383 33.5782 15.5748C33.2053 14.7337 32.4009 13.8496 31.3059 13.0775C30.5975 12.578 30.4001 12.3831 30.2657 12.051C30.074 11.577 30.3069 11.1903 30.9986 10.8337C31.2041 10.7278 31.4003 10.587 31.4346 10.5208C31.5873 10.2261 31.4379 9.68413 31.0728 9.20811L30.8887 8.96814L31.0576 8.91949C31.1504 8.89273 31.4699 8.87174 31.7676 8.87284C32.2331 8.87448 32.3616 8.89976 32.6865 9.05297C33.3716 9.37604 33.9023 10.1281 33.9023 10.776C33.9023 10.9361 33.9211 10.9511 34.1225 10.9511C34.5674 10.9511 35.0186 10.5367 35.259 9.9075L35.3612 9.64014L35.5326 9.8454C35.6268 9.95829 35.7856 10.2158 35.8855 10.4176C36.0352 10.7203 36.0671 10.8591 36.0671 11.21C36.0671 11.7757 35.9148 12.1003 35.4398 12.5473L35.0685 12.8966L35.4625 13.1012C35.9767 13.3682 36.3754 13.7368 37.0039 14.5258C37.5983 15.2721 37.8632 15.521 38.3133 15.7562C38.7603 15.9897 39.2096 16.1034 39.689 16.1043L40.094 16.105L39.9524 16.5078C39.7867 16.9791 39.5748 17.2862 39.2448 17.533C38.9715 17.7375 38.4868 17.8638 38.1934 17.8069C37.9456 17.7589 37.9402 17.8039 38.1116 18.4959C38.3128 19.3083 38.6937 19.8159 39.3412 20.1347L39.6821 20.3025L39.4831 20.6081C39.198 21.0462 38.8217 21.2675 38.296 21.3064C37.9967 21.3285 37.7881 21.3073 37.5666 21.2326C37.396 21.1749 37.2506 21.1363 37.2436 21.1468C37.2365 21.1573 37.1997 21.3335 37.1618 21.5384C37.124 21.7433 37.0362 22.1206 36.9668 22.3767C36.8106 22.9531 36.8297 23.5727 37.0171 24.0092L37.1448 24.3066L36.9931 24.3661C36.5243 24.5502 35.7489 24.4829 35.4391 24.2313L35.2909 24.1109L35.1344 24.4526C34.8436 25.0872 34.263 25.5724 33.5716 25.7584C33.084 25.8895 32.0382 25.9603 32.0382 25.8622V25.8622ZM33.734 25.3613C34.3962 25.1009 34.889 24.4749 35.0495 23.6904L35.1173 23.3585L35.2229 23.5378C35.4723 23.9612 36.0243 24.2346 36.4595 24.1503C36.6689 24.1097 36.6747 24.1014 36.6273 23.91C36.6003 23.801 36.5799 23.4324 36.5821 23.0908C36.5851 22.6076 36.6208 22.3514 36.7429 21.9357C36.8292 21.6419 36.9188 21.203 36.942 20.9604L36.9841 20.5194L37.1843 20.6771C37.5974 21.0025 38.2547 21.0973 38.6828 20.8933C38.907 20.7864 39.2461 20.4775 39.1892 20.432C39.1753 20.4209 39.0376 20.3371 38.8833 20.2459C38.1883 19.8351 37.6939 18.7918 37.6915 17.7309C37.6907 17.3503 37.6947 17.3401 37.8259 17.3893C37.9003 17.4173 38.1527 17.4401 38.3867 17.4401C38.8921 17.4401 39.1512 17.2958 39.4369 16.8551C39.6754 16.4871 39.667 16.4155 39.3853 16.4155C38.9147 16.4155 38.1511 16.0993 37.6187 15.6839C37.4634 15.5628 37.0773 15.1359 36.7608 14.7355C36.0336 13.8153 35.5496 13.424 34.8494 13.1901C34.4642 13.0615 34.5326 12.9068 35.242 12.3025C35.7497 11.8699 35.8962 11.2547 35.6387 10.6366C35.5685 10.468 35.488 10.3301 35.4599 10.3301C35.4317 10.3301 35.3681 10.4111 35.3185 10.5101C35.1944 10.7579 34.7637 11.1265 34.5063 11.2051C34.3891 11.2409 34.1308 11.2613 33.9323 11.2503L33.5716 11.2305L33.5889 11.0132C33.6509 10.2375 33.106 9.50288 32.2811 9.24992C31.9873 9.15981 31.497 9.11306 31.497 9.17516C31.497 9.18884 31.5644 9.34951 31.6467 9.53221C31.7505 9.76235 31.7966 9.97258 31.7971 10.2167C31.7978 10.6671 31.6391 10.8756 31.0702 11.1714C30.6404 11.395 30.5349 11.5171 30.5349 11.7912C30.5349 12.0569 30.7428 12.288 31.3955 12.7477C32.8922 13.8018 33.674 14.7422 34.0525 15.9439C34.1976 16.4047 34.2145 16.5404 34.1935 17.0799C34.1738 17.5875 34.1419 17.7512 34.0079 18.034C33.8167 18.4377 33.4893 18.8476 33.1636 19.0913L32.929 19.2668L33.13 19.3934C33.3994 19.563 33.6411 19.6032 34.1933 19.5702C34.525 19.5504 34.7561 19.4953 35.0082 19.3762C35.2017 19.2847 35.3691 19.2098 35.3801 19.2098C35.3912 19.2098 35.3635 19.3173 35.3186 19.4487C34.9779 20.4459 34.2803 21.0573 33.3051 21.2131C32.8221 21.2903 32.7945 21.3392 32.9995 21.7541C33.1466 22.052 33.2988 22.1668 33.7123 22.2917C34.0185 22.3843 34.0268 22.3923 33.8926 22.4642C33.5709 22.6367 33.4153 22.7763 33.2404 23.0489C33.0166 23.3979 32.9042 23.7859 32.8206 24.4991C32.7859 24.7955 32.7173 25.1556 32.6682 25.2992L32.579 25.5604L32.9851 25.5283C33.2084 25.5106 33.5454 25.4355 33.734 25.3613V25.3613ZM33.8752 23.6808C33.9558 23.3864 34.1613 23.0273 34.5326 22.532C35.1045 21.7692 35.3844 21.3146 35.7091 20.6215C36.1602 19.6585 36.268 19.1736 36.2713 18.0921C36.2743 17.1121 36.176 16.6007 35.8371 15.8339L35.6762 15.4696V16.1754C35.6762 16.8369 35.6645 16.9066 35.4895 17.2849C35.3868 17.5068 35.2462 17.7583 35.1771 17.8437C35.0664 17.9804 35.0693 17.9612 35.2013 17.6829C35.5256 16.9993 35.6036 16.315 35.4338 15.6419C35.1394 14.4746 34.1767 13.4906 32.2075 12.344C31.9202 12.1768 31.693 12.0319 31.7025 12.0221C31.712 12.0123 31.9065 12.0496 32.1346 12.105C32.7271 12.249 33.6585 12.2396 34.0977 12.0853C34.2879 12.0185 34.4435 11.975 34.4435 11.9887C34.4435 12.0024 34.2884 12.0869 34.0989 12.1764C33.8428 12.2975 33.6164 12.3484 33.2161 12.3748L32.6778 12.4103L33.0044 12.591C34.3434 13.3318 35.4291 14.4237 36.0086 15.6123C36.2624 16.1329 36.3667 16.4725 36.5413 17.3469C36.7387 18.3355 37.0393 19.0841 37.4889 19.7066C37.5752 19.8261 37.4838 19.7527 37.2857 19.5433C37.0876 19.334 36.844 18.9941 36.7442 18.788L36.5629 18.4134L36.4901 18.8892C36.3026 20.1157 35.8194 21.1129 34.744 22.4936C34.4855 22.8255 34.1747 23.2633 34.0533 23.4665C33.932 23.6697 33.8518 23.7661 33.8752 23.6807V23.6808ZM16.8844 14.5567C16.6358 14.4786 16.3815 14.3249 16.2451 14.1704C16.1351 14.0458 15.8625 13.5518 15.8625 13.4771C15.8625 13.4635 16.0076 13.4368 16.185 13.4179C16.5943 13.3743 17.0188 13.1523 17.4655 12.7483C17.8833 12.3703 18.126 12.2549 18.5007 12.2557C18.7851 12.2564 19.2471 12.4465 19.5243 12.6772L19.6683 12.797L19.2941 13.003C19.0242 13.1516 18.7694 13.3774 18.3798 13.8135C17.7131 14.5595 17.3956 14.7173 16.8844 14.5567ZM17.5607 14.1686C17.6514 14.1327 17.9116 13.8761 18.139 13.5983C18.3664 13.3206 18.6636 13.0235 18.7994 12.9381C18.9352 12.8527 19.047 12.7656 19.0479 12.7444C19.0513 12.6651 18.5053 12.5523 18.3056 12.591C18.1767 12.616 17.9311 12.7756 17.6576 13.0122C17.2687 13.3485 17.0336 13.4893 16.4638 13.727L16.3135 13.7897L16.5089 13.9787C16.8155 14.2753 17.1421 14.3343 17.5607 14.1686ZM37.9011 14.4968C37.7573 14.4279 37.4517 14.1462 37.1413 13.7965C36.7663 13.3739 36.5176 13.1539 36.2456 13.0042L35.8692 12.797L36.0132 12.6817C36.3253 12.4316 36.7515 12.2551 37.0429 12.2551C37.4331 12.2551 37.6711 12.368 38.0729 12.7438C38.4982 13.1415 38.9392 13.3739 39.3525 13.4179C39.5299 13.4368 39.675 13.4633 39.675 13.4767C39.675 13.4901 39.6083 13.6371 39.5267 13.8033C39.3441 14.1755 39.0223 14.4579 38.679 14.5471C38.3222 14.6399 38.1808 14.6308 37.9011 14.4968ZM38.9186 14.0653C39.2334 13.8454 39.2436 13.7716 38.9716 13.6808C38.5779 13.5492 38.3113 13.3853 37.8683 13.0021C37.6002 12.7702 37.3605 12.6159 37.2285 12.5904C37.0144 12.5489 36.5481 12.654 36.5481 12.7438C36.5481 12.7708 36.6687 12.8823 36.8161 12.9916C36.9634 13.1009 37.2512 13.399 37.4555 13.6541C37.6599 13.9092 37.8302 14.1184 37.834 14.1189C37.8378 14.1194 37.9492 14.159 38.0815 14.2068C38.3826 14.3158 38.6168 14.2762 38.9186 14.0653ZM25.6686 8.36657C25.6301 8.20875 25.5198 7.90012 25.4234 7.68072L25.2483 7.28182L25.6026 7.32321L25.9569 7.36461L26.1385 6.95109L26.3201 6.53758L26.6918 6.73137L27.0636 6.92517L27.4162 6.56488L27.7688 6.20459L28.1213 6.56488L28.4739 6.92517L28.843 6.73275L29.2122 6.54033L29.4075 6.95087L29.6028 7.36141L29.9548 7.32059C30.1484 7.29813 30.2959 7.30244 30.2825 7.33014C30.0857 7.73809 29.9227 8.1462 29.8695 8.36435L29.8034 8.63523L29.3966 8.42566C28.3607 7.89205 26.867 7.92593 26.0112 8.50245C25.8879 8.58553 25.7761 8.65349 25.7627 8.65349C25.7494 8.65349 25.707 8.52437 25.6686 8.36656V8.36657ZM26.4637 7.97161C27.2646 7.67565 28.2729 7.67565 29.0739 7.97161C29.2656 8.04245 29.4649 8.11503 29.5169 8.1329C29.5843 8.15611 29.6388 8.09313 29.7075 7.91268L29.8036 7.65996H29.6082C29.4324 7.65996 29.3987 7.62863 29.2702 7.34541C29.1918 7.1724 29.107 7.01771 29.0818 7.00165C29.0566 6.9856 28.8961 7.04567 28.7251 7.13516L28.4142 7.29786L28.0915 6.96874L27.7688 6.63962L27.4431 6.97174L27.1174 7.30385L26.8342 7.14038C26.6784 7.05047 26.5258 6.97691 26.4951 6.97691C26.4643 6.97691 26.3711 7.13059 26.2878 7.31843C26.1482 7.63321 26.1206 7.65996 25.9351 7.65996H25.7339L25.8301 7.91268C25.8987 8.09313 25.9532 8.15611 26.0206 8.1329C26.0726 8.11504 26.272 8.04245 26.4637 7.97161Z" fill="#252122"/>
</g>
<defs>
<clipPath id="clip0">
<rect width="25" height="23" fill="white" transform="translate(15.1953 6)"/>
</clipPath>
</defs>
</svg>
