<svg width="102" height="102" viewBox="0 0 102 102" fill="none" xmlns="http://www.w3.org/2000/svg">
<path opacity="0.5" d="M45.25 3.89711C48.8081 1.84284 53.1919 1.84284 56.75 3.89711L88.9173 22.4689C92.4754 24.5232 94.6673 28.3196 94.6673 32.4282V69.5718C94.6673 73.6804 92.4754 77.4768 88.9173 79.5311L56.75 98.1029C53.1919 100.157 48.8081 100.157 45.25 98.1029L13.0827 79.5311C9.52459 77.4768 7.3327 73.6804 7.3327 69.5718V32.4282C7.3327 28.3197 9.52459 24.5232 13.0827 22.4689L45.25 3.89711Z" stroke="#6897FF"/>
<path d="M45 14.4641C48.7128 12.3205 53.2872 12.3205 57 14.4641L79.641 27.5359C83.3538 29.6795 85.641 33.641 85.641 37.9282V64.0718C85.641 68.359 83.3538 72.3205 79.641 74.4641L57 87.5359C53.2872 89.6795 48.7128 89.6795 45 87.5359L22.359 74.4641C18.6462 72.3205 16.359 68.359 16.359 64.0718V37.9282C16.359 33.641 18.6462 29.6795 22.359 27.5359L45 14.4641Z" fill="#6897FF"/>
<path d="M57.3251 54.2237C57.5788 54.2237 57.8034 54.0589 57.8807 53.8183L58.8155 50.8929L61.264 49.0875C61.4653 48.9373 61.5499 48.6792 61.474 48.44L60.5378 45.5146L61.4726 42.5906C61.5484 42.3515 61.4653 42.0919 61.264 41.9431L58.8155 40.1362L57.8807 37.2123C57.8034 36.9717 57.5788 36.8069 57.3251 36.8069H54.302L51.8563 35.0029C51.6507 34.8512 51.3707 34.8512 51.1636 35.0029L48.7151 36.8069H45.6963C45.4426 36.8069 45.218 36.9717 45.1407 37.2123L44.2074 40.1348L41.7574 41.9417C41.5561 42.0919 41.4715 42.3529 41.5488 42.5906L42.4865 45.5146L41.5488 48.4385C41.473 48.6762 41.5561 48.9373 41.7588 49.086L44.2088 50.8914L45.1436 53.8169C45.2209 54.0575 45.4455 54.2223 45.6993 54.2223H48.718L51.1665 56.0248C51.2701 56.1006 51.3911 56.1385 51.5122 56.1385C51.6332 56.1385 51.7557 56.1006 51.8578 56.0248L54.3034 54.2223H57.3251V54.2237ZM53.7653 53.1708L51.5107 54.8333L49.2532 53.1708C49.1526 53.0964 49.0315 53.0571 48.9076 53.0571H46.1222L45.2603 50.3577C45.2238 50.241 45.1495 50.1389 45.0503 50.066L42.787 48.3962L43.6532 45.6925C43.6897 45.5773 43.6897 45.4519 43.6532 45.3367L42.787 42.6329L45.0518 40.9617C45.1509 40.8873 45.2238 40.7867 45.2618 40.67L46.1236 37.9721H48.9076C49.0315 37.9721 49.1526 37.9327 49.2532 37.8583L51.5107 36.1944L53.7653 37.8583C53.8659 37.9327 53.987 37.9721 54.1109 37.9721H56.8993L57.7611 40.67C57.7976 40.7867 57.872 40.8873 57.9697 40.9617L60.2345 42.6329L59.3711 45.3367C59.3347 45.4519 59.3347 45.5773 59.3711 45.6925L60.2345 48.3962L57.9711 50.066C57.872 50.1404 57.799 50.241 57.7611 50.3577L56.8993 53.0571H54.1109C53.987 53.0556 53.8659 53.0964 53.7653 53.1708Z" fill="white"/>
<path d="M48.4529 56.7284C48.154 56.6176 47.8142 56.7649 47.7004 57.0653L44.3681 65.7934L43.2379 62.448C43.181 62.2803 43.0513 62.1461 42.8835 62.0864C42.7173 62.0236 42.5321 62.0455 42.3804 62.1374L39.3792 63.9822L42.3133 55.7324C42.4213 55.4291 42.2623 55.0951 41.959 54.9872C41.6556 54.8793 41.3217 55.0382 41.2138 55.3416L37.7254 65.1518C37.6438 65.3836 37.7167 65.6447 37.9092 65.7993C38.1017 65.9553 38.37 65.9728 38.5815 65.843L42.3673 63.5141L43.7819 67.7024C43.8606 67.9357 44.0779 68.0947 44.3229 68.0991C44.3258 68.0991 44.3302 68.0991 44.3346 68.0991C44.5767 68.0991 44.7925 67.9489 44.88 67.7228L48.7913 57.4795C48.905 57.1805 48.7533 56.8436 48.4529 56.7284Z" fill="white"/>
<path d="M65.2151 65.1518L61.7267 55.3416C61.6188 55.0382 61.282 54.8793 60.9815 54.9872C60.6782 55.0951 60.5192 55.4291 60.6272 55.7324L63.5613 63.9836L60.5601 62.1374C60.4084 62.0455 60.2247 62.0251 60.0555 62.0864C59.8892 62.1461 59.758 62.2803 59.7011 62.448L58.5709 65.7934L55.1584 56.8539C55.0432 56.5534 54.7078 56.4018 54.4059 56.517C54.104 56.6322 53.9538 56.9705 54.069 57.2709L58.059 67.7257C58.1451 67.9518 58.3624 68.102 58.6044 68.102C58.6074 68.102 58.6117 68.102 58.6161 68.102C58.8611 68.0962 59.0784 67.9387 59.1572 67.7053L60.5717 63.517L64.359 65.8459C64.5705 65.9757 64.8388 65.9582 65.0313 65.8022C65.2238 65.6447 65.2967 65.3836 65.2151 65.1518Z" fill="white"/>
</svg>
