<svg width="55" height="36" viewBox="0 0 55 36" fill="none" xmlns="http://www.w3.org/2000/svg">
<rect x="0.164062" width="54.5806" height="36" rx="4" fill="white"/>
<rect x="0.664062" y="0.5" width="53.5806" height="35" rx="3.5" stroke="#808080" stroke-opacity="0.4"/>
<g clip-path="url(#clip0)">
<path d="M19.2555 26.9512C19.1719 26.9097 19.1641 26.7999 19.1641 25.6692C19.1641 24.7668 19.181 24.4181 19.2268 24.3791C19.3179 24.3014 34.0102 24.3014 34.1013 24.3791C34.1471 24.4181 34.1641 24.7669 34.1641 25.6698C34.1641 26.8475 34.1592 26.9093 34.063 26.9532C33.9235 27.0169 19.3838 27.0149 19.2555 26.9512V26.9512ZM20.9961 19.982C20.152 19.6982 19.757 19.5438 19.727 19.4858C19.6951 19.4241 20.2915 17.9798 21.954 14.0928C24.4721 8.20517 24.4142 8.33594 24.6595 7.98569C25.1804 7.24187 26.0654 6.89015 27.0638 7.03021C27.9077 7.14861 28.397 7.4872 28.8295 8.25212C29.0788 8.69303 33.6414 19.2946 33.6414 19.433C33.6414 19.4709 33.612 19.5223 33.5761 19.5472C33.4803 19.6136 31.0741 20.4041 30.9679 20.4041C30.9182 20.4041 30.8585 20.3792 30.8353 20.3487C30.812 20.3182 30.5576 19.7416 30.2699 19.0675L29.7468 17.8418L26.6824 17.8303C23.8001 17.8195 23.6159 17.8235 23.582 17.8972C23.5621 17.9402 23.3239 18.4952 23.0527 19.1304C22.7814 19.7657 22.5335 20.3121 22.5017 20.3448C22.47 20.3774 22.3939 20.4018 22.3327 20.399C22.2716 20.3962 21.6701 20.2085 20.9961 19.982V19.982ZM28.7285 15.4243C28.7285 15.4059 28.266 14.2078 27.7007 12.7618L26.6728 10.1327L25.662 12.7172C25.106 14.1387 24.6379 15.3368 24.6218 15.3797C24.5943 15.4531 24.7147 15.4577 26.6605 15.4577C27.7979 15.4577 28.7285 15.4427 28.7285 15.4243Z" fill="#ED3323"/>
</g>
<defs>
<clipPath id="clip0">
<rect width="15" height="20" fill="white" transform="translate(19.1641 7)"/>
</clipPath>
</defs>
</svg>
