<svg width="55" height="36" viewBox="0 0 55 36" fill="none" xmlns="http://www.w3.org/2000/svg">
<rect width="54.5806" height="36" rx="4" fill="white"/>
<rect x="0.5" y="0.5" width="53.5806" height="35" rx="3.5" stroke="#808080" stroke-opacity="0.4"/>
<path d="M21.3948 17.1466C21.9662 17.0202 22.5072 17.0054 23.0863 17.0054C24.6558 16.9905 26.2178 17.6893 27.3835 18.693C30.2713 21.1613 29.6008 21.6297 29.5169 22.7226C29.5322 22.7523 29.5398 22.8193 29.5398 22.8862C29.136 23.7858 29.1055 24.9753 29.4865 24.9902C29.5931 27.8228 27.4978 28.4027 27.3835 28.5068C26.3169 29.4361 24.9454 30.068 23.513 30.1647C22.6444 30.239 22.0348 30.2242 21.3186 30.0383C19.4595 29.6294 17.8214 28.4101 16.907 26.7819C15.7032 24.6928 15.8022 21.942 17.189 19.9569C18.1414 18.5369 19.6881 17.5035 21.3948 17.1466Z" fill="#FF0004"/>
<path d="M30.1536 22.2891L35.7157 21.9397L35.5557 25.7685H30.1536C29.0183 24.9656 28.8812 23.0475 30.1536 22.2891Z" fill="white"/>
<path d="M30.3268 17.168C30.9287 17.0118 31.4697 17.0193 32.0792 17.0044C32.4297 17.0044 32.9097 17.0564 33.2526 17.1233C34.7384 17.4207 36.1174 18.2088 37.0927 19.3463C38.0451 20.4466 38.6318 21.8592 38.6775 23.309C38.7461 24.6844 38.3651 26.0672 37.588 27.2196C36.567 28.766 34.845 29.8589 32.9783 30.134C32.3154 30.1711 31.744 30.2455 30.9973 30.1488C29.6639 30.0001 28.3839 29.3979 27.3934 28.5132C27.5076 28.4091 27.6448 28.2827 27.7591 28.1712H27.0657L26.6848 27.7623L28.0867 27.7772L28.3915 27.3906L26.3724 27.3608L26.1286 27.0189L28.5896 27.0114L28.8486 26.5951L25.8847 26.6099L25.7019 26.2382C26.761 26.2159 27.9572 26.2382 29.0086 26.2308L29.1915 25.8293H25.5647L25.4047 25.4501L29.3287 25.4427L29.4887 25.0041C29.1077 24.9966 28.6963 24.9966 28.3153 25.0041C28.3382 24.8777 28.3534 24.7587 28.3762 24.6323C28.7039 24.6323 29.0239 24.6323 29.3515 24.6323C29.6715 25.2717 30.563 25.4576 31.1801 25.1453C31.2411 24.9966 31.264 24.8331 31.3097 24.6769L31.3402 24.5357C31.3402 24.8702 31.4697 25.1379 31.6906 25.2345C32.0411 25.4055 32.4526 25.3089 32.7726 25.123C32.7878 25.1676 32.8183 25.2568 32.8335 25.3015C33.024 25.3015 33.2069 25.294 33.3974 25.294C33.504 24.729 33.6259 24.164 33.725 23.6064C33.8088 23.2792 33.5345 22.9893 33.2297 22.9075C32.8183 22.8034 32.3611 22.8108 31.9573 22.9447C31.8354 23.1082 31.8125 23.3164 31.744 23.5023C32.0945 23.4428 32.4526 23.3684 32.8107 23.4279C32.9554 23.4428 32.9707 23.5989 32.9859 23.7179C32.5669 23.755 32.1859 23.703 31.8049 23.9112C31.5687 24.0301 31.4392 24.164 31.3554 24.5059C31.1344 24.5952 30.9211 24.7215 30.6773 24.6918C30.3496 24.6918 30.0068 24.4762 29.9687 24.1342C29.9306 23.7179 30.0677 23.2421 30.4182 22.9818C30.7687 22.7365 31.2182 22.8703 31.584 22.9967C31.6144 22.7885 31.6449 22.5804 31.6678 22.3648C30.9592 22.1194 29.9763 22.2309 29.5268 22.9001L29.5115 22.7291C28.0943 22.7216 26.6848 22.7291 25.2676 22.7216C25.2904 22.5878 25.3057 22.4614 25.3285 22.3276L29.481 22.3499L29.3668 21.9187L25.3362 21.9113L25.4885 21.5321L29.2753 21.5247L29.1001 21.1083C28.0486 21.1157 26.6695 21.1157 25.6181 21.1083L25.8466 20.744C26.8524 20.7291 27.9115 20.7515 28.9172 20.7366L28.6353 20.3277C27.7972 20.3202 26.8905 20.3425 26.0524 20.3202L26.3343 19.9559L28.4524 19.9485L28.102 19.5173L26.5705 19.5024L26.86 19.1158L27.8277 19.1307C27.6829 18.9746 27.5381 18.811 27.3781 18.6698C28.2086 17.9412 29.222 17.4282 30.3268 17.168Z" fill="#FFAA00"/>
<path d="M29.0012 7.31666C30.2812 6.8334 31.7365 6.87058 33.0241 7.31666C32.9251 7.91143 32.8184 8.5062 32.7117 9.10097C32.0108 8.76641 31.2107 8.61772 30.4412 8.71437C30.1059 8.75898 29.725 8.88536 29.565 9.20505C29.4659 9.41322 29.5955 9.65113 29.7707 9.78496C30.4031 10.2682 31.2184 10.4541 31.8431 10.9596C32.3384 11.3314 32.7194 11.9038 32.6889 12.5358C32.727 13.3313 32.3003 14.1119 31.6374 14.5729C30.7917 15.1676 29.725 15.3386 28.704 15.3535C27.8659 15.3089 27.0125 15.2345 26.2354 14.9149C26.3115 14.2978 26.4411 13.6881 26.5401 13.0785C27.4087 13.4874 28.384 13.7327 29.3516 13.6064C29.6488 13.5543 29.9612 13.4577 30.1669 13.2272C30.3269 13.0488 30.3574 12.7588 30.2126 12.5655C29.9917 12.2681 29.6412 12.1194 29.3135 11.9559C28.6202 11.6436 27.8964 11.2793 27.4544 10.6474C27.043 10.0675 27.0811 9.28683 27.3935 8.67719C27.7135 8.02295 28.3383 7.57687 29.0012 7.31666Z" fill="#004489"/>
<path d="M12.7744 7.12231C13.9706 7.12231 15.1669 7.12231 16.3555 7.12231C16.6603 7.12231 16.9879 7.17436 17.2088 7.38996C17.3993 7.56839 17.445 7.83604 17.4984 8.07395C17.7346 9.23375 17.9936 10.3861 18.2298 11.5459C17.6355 10.111 16.4926 8.9215 15.0983 8.1929C14.3745 7.79887 13.5821 7.50892 12.7744 7.31562C12.7744 7.26357 12.7744 7.16692 12.7744 7.12231Z" fill="#FFAA00"/>
<path d="M20.6533 7.11583C21.4609 7.1084 22.2686 7.11583 23.0762 7.11583C21.9028 9.81461 20.699 12.4985 19.5256 15.2047C18.718 15.2196 17.9103 15.2047 17.1027 15.2122C16.4398 12.8702 15.7541 10.5358 15.1064 8.19386C16.5008 8.92245 17.636 10.112 18.238 11.5469L18.2456 11.5692C18.3218 11.9112 18.3904 12.2532 18.4589 12.6026C19.198 10.7737 19.9218 8.94475 20.6533 7.11583ZM23.9677 7.1084C24.722 7.1084 25.4839 7.11583 26.2458 7.1084C25.7887 9.80717 25.3087 12.5059 24.8363 15.2047C24.0743 15.2047 23.3124 15.2047 22.5505 15.2047C23.0229 12.5059 23.4877 9.80717 23.9677 7.1084ZM36.8671 7.12327C37.5147 7.10096 38.1624 7.11583 38.81 7.11583C39.4196 9.82204 40.0443 12.5208 40.6386 15.227C39.9301 15.227 39.2291 15.227 38.5205 15.227C38.4291 14.8256 38.3376 14.4241 38.2538 14.0226C37.2938 14.0003 36.3261 14.0077 35.3661 14.0152C35.2137 14.4241 35.0537 14.8181 34.9013 15.227C34.1013 15.227 33.3013 15.227 32.5013 15.227C33.6213 12.7439 34.7489 10.2607 35.8766 7.77752C36.0214 7.37605 36.4404 7.13814 36.8671 7.12327ZM37.2024 9.37596C37.4385 10.3499 37.6443 11.3313 37.8652 12.3126C37.2557 12.3126 36.6461 12.3201 36.0366 12.3052C36.4328 11.3387 36.8214 10.3573 37.2024 9.37596Z" fill="#004489"/>
<path d="M16.7002 25.2709C16.8983 24.2896 17.0354 23.3008 17.2412 22.3194C17.5917 22.3268 17.9498 22.3268 18.3002 22.3194C18.3764 22.877 18.3764 23.442 18.3993 23.9996C18.666 23.4123 18.8946 22.8696 19.1688 22.3194C19.5422 22.3194 19.9232 22.3045 20.2965 22.3343C20.1136 23.3156 19.9536 24.297 19.7555 25.2709C19.5498 25.2635 19.3365 25.2635 19.1307 25.2709C19.2679 24.5423 19.405 23.8138 19.527 23.0852C19.1765 23.7989 18.9098 24.5498 18.5822 25.2709H17.8659L17.8507 25.0182C17.8278 24.3639 17.7821 23.7171 17.744 23.0703L17.3478 25.2709H16.7002ZM37.1047 22.3789C37.318 22.3566 37.5313 22.3714 37.7371 22.3789C37.5237 23.3379 37.3942 24.3193 37.1961 25.2858C36.9904 25.2858 36.7694 25.2858 36.5713 25.2858C36.5713 25.2263 36.6094 25.1074 36.6094 25.0479C36.4265 25.1966 36.198 25.3453 35.9465 25.3155C35.3979 25.2784 35.0932 24.8249 35.116 24.3714C35.0551 23.6948 35.5579 22.8696 36.3275 22.8993C36.5865 22.8993 36.7542 23.048 36.937 23.1818C36.998 22.9067 37.0437 22.6465 37.1047 22.3789ZM20.6241 22.929C21.127 22.8101 21.7365 22.7357 22.1861 23.0554C22.4451 23.2339 22.3689 23.5684 22.3309 23.8286C22.2318 24.3119 22.148 24.7951 22.0337 25.2784C21.8508 25.2784 21.6756 25.2784 21.4927 25.2858C21.4927 25.2338 21.4851 25.1222 21.4851 25.0702C21.1499 25.3007 20.6698 25.4196 20.3117 25.1892C19.9384 24.9215 19.9917 24.3416 20.3117 24.0591C20.6698 23.7097 21.1956 23.7691 21.6604 23.7543C21.6756 23.6353 21.6756 23.4495 21.5232 23.4197C21.1651 23.3008 20.7918 23.442 20.426 23.4718C20.487 23.2859 20.5251 23.0926 20.6241 22.929ZM23.0623 22.8844C23.4509 22.7952 23.8699 22.8026 24.2661 22.8696L24.1747 23.3825C23.8776 23.3751 23.5347 23.2562 23.2833 23.442C23.1842 23.5535 23.2833 23.7097 23.3976 23.7617C23.6261 23.8807 23.9233 23.903 24.0757 24.1334C24.2966 24.5423 24.068 25.1222 23.5957 25.2338C23.1537 25.3379 22.689 25.3081 22.247 25.204C22.2775 25.033 22.3156 24.862 22.3537 24.691C22.6585 24.758 22.9861 24.8323 23.2985 24.758C23.4204 24.7059 23.4737 24.587 23.4204 24.468C23.1918 24.2524 22.8109 24.2524 22.6204 23.9847C22.3842 23.5907 22.5899 22.9811 23.0623 22.8844ZM34.6741 23.2339C34.8417 23.0108 35.0779 22.8324 35.3751 22.8696C35.337 23.048 35.2913 23.2264 35.2608 23.3974C35.0703 23.4346 34.857 23.4569 34.7198 23.5981C34.5674 23.7245 34.537 23.9327 34.4989 24.1111C34.4227 24.4903 34.3922 24.8769 34.2779 25.2486C34.0722 25.2709 33.8588 25.2635 33.6531 25.2635C33.775 24.4606 33.9198 23.6651 34.0722 22.8696C34.2779 22.8696 34.4912 22.8696 34.697 22.8696C34.6893 23.0034 34.6817 23.1149 34.6741 23.2339Z" fill="white"/>
<path d="M36.0653 23.5836C36.1873 23.42 36.4235 23.3754 36.6063 23.4572C37.0787 23.7546 36.492 24.8475 36.1568 24.7805C35.5244 24.7657 35.7606 23.9107 36.0653 23.5836ZM25.0479 23.8958C25.0479 23.8735 25.0555 23.8363 25.0631 23.8215L25.4822 23.8289C25.4669 23.9479 25.4517 24.0743 25.4517 24.1932H25.1012L25.0479 23.8958ZM28.507 23.814C28.7584 23.8215 29.0023 23.8215 29.2537 23.8215C29.2461 23.9479 29.2461 24.0668 29.2461 24.1932C28.9794 24.1858 28.7127 24.1858 28.4384 24.1858C28.4613 24.0594 28.4765 23.9404 28.507 23.814Z" fill="#FFAA00"/>
<path d="M20.7914 24.4229C20.9667 24.1627 21.3095 24.1404 21.5991 24.1479C21.5686 24.3263 21.5457 24.527 21.3933 24.6534C21.241 24.8021 20.9133 24.8616 20.8143 24.7649C20.7457 24.7055 20.7 24.527 20.7914 24.4229Z" fill="#FF0004"/>
<path d="M32.1641 24.3772C32.347 24.1393 32.667 24.1542 32.9337 24.1467C32.9108 24.3252 32.8956 24.5333 32.7356 24.6523C32.5832 24.8084 32.2327 24.8382 32.1565 24.7712C31.9813 24.6895 32.0346 24.4887 32.1641 24.3772Z" fill="#FFAA00"/>
<path d="M28.4399 24.1853C28.7065 24.1853 28.9732 24.1853 29.2475 24.1927C29.2704 24.3414 29.3009 24.4827 29.3542 24.6314C29.0266 24.6314 28.6989 24.6314 28.3789 24.6314C28.3941 24.4753 28.417 24.334 28.4399 24.1853Z" fill="#FF0004"/>
<path d="M26.0595 22.9817C26.4786 22.7735 27.0501 22.7512 27.4234 23.0486C27.7586 23.3609 27.6672 23.8441 27.591 24.2381C27.0882 24.2381 26.5853 24.2307 26.0748 24.2381C26.1357 24.424 26.2196 24.6247 26.4177 24.7065C26.7834 24.8329 27.1796 24.7586 27.5301 24.6024C27.492 24.7957 27.4539 24.989 27.4158 25.1823C26.9205 25.3013 26.3491 25.3385 25.8919 25.0708C25.5795 24.8924 25.45 24.5207 25.4424 24.1861C25.45 24.0671 25.4576 23.9408 25.4729 23.8218C25.5643 23.4947 25.7319 23.1527 26.0595 22.9817Z" fill="white"/>
<path d="M26.1807 23.7839C26.2721 23.5683 26.4321 23.2932 26.714 23.3378C26.9502 23.3452 27.034 23.598 27.0721 23.7839C26.7826 23.7988 26.4778 23.7988 26.1807 23.7839Z" fill="#FF0004"/>
<path d="M24.7081 22.3196C24.9214 22.3196 25.1272 22.3196 25.3329 22.3344C25.31 22.4683 25.2948 22.5947 25.2719 22.7285C25.2643 22.7657 25.2567 22.84 25.2491 22.8772C25.3786 22.8846 25.5005 22.8846 25.63 22.892C25.5996 23.0482 25.5691 23.2117 25.5386 23.3753C25.4091 23.3753 25.2795 23.3679 25.15 23.3679C25.1119 23.5166 25.0814 23.6727 25.0586 23.8214C25.0586 23.8437 25.051 23.8809 25.0433 23.8957C24.99 24.1782 24.8605 24.6838 24.9138 24.7581C25.0129 24.8622 25.2491 24.773 25.4243 24.7804L25.2872 25.2042C25.0433 25.3083 24.7614 25.3009 24.5024 25.2414C24.3348 25.2117 24.1976 25.0481 24.2509 24.8845C24.3881 24.0221 24.5557 23.1746 24.7081 22.3196ZM28.0301 22.8995C28.2511 22.8772 28.4644 22.8846 28.6854 22.8846C28.6701 22.959 28.6397 23.1151 28.632 23.1969C28.8378 22.9813 29.1044 22.8474 29.4092 22.8251C29.3254 23.0407 29.2416 23.2489 29.173 23.4645C28.9063 23.4719 28.6397 23.5686 28.5101 23.8139C28.4873 23.9403 28.4644 24.0593 28.4416 24.1857C28.4187 24.3344 28.3958 24.4756 28.373 24.6243C28.3501 24.7507 28.3349 24.8697 28.312 24.996C28.2968 25.0853 28.2739 25.1745 28.2511 25.2637C28.0301 25.286 27.8092 25.2786 27.5958 25.2786C27.7482 24.4831 27.8549 23.6876 28.0301 22.8995Z" fill="white"/>
</svg>
