<svg width="30" height="29" viewBox="0 0 30 29" fill="none" xmlns="http://www.w3.org/2000/svg">
<rect x="0.492188" width="29.0302" height="29" rx="3" fill="white"/>
<path d="M22.6176 13.8899C24.5857 10.9678 24.1492 10.913 24.6332 10H20.8616C20.8616 10 20.5936 11.0206 20.5118 11.2033C19.7874 12.8191 18.1626 15.2435 17.1799 15.4912C16.2123 15.7354 16.3407 13.2276 16.4003 12.1413C16.4565 11.1344 16.4469 10.782 16.4199 10.6081C16.3805 10.3539 16.186 10.1685 15.9527 10.1362C15.4716 10.0694 14.5988 9.97486 13.6213 10.0245L12.7469 10.0563C13.0917 10.9022 13.3246 10.6429 13.4516 11.6215C13.5949 12.7672 13.5385 15.5549 12.5096 15.5549C10.8603 15.5549 9.00901 10.1224 8.95009 10H5.61328L5.91859 10.8379C8.37923 17.5935 11.4567 20.7225 15.6674 20.9827L16.2153 21L16.2545 20.4164C16.3137 19.5152 16.726 18.2179 17.4572 18.2179C18.5375 18.2179 18.8497 18.5629 19.5622 19.5284C20.2472 20.4541 20.7193 21 21.8247 21H24.6332L24.2327 20.1168C23.6072 18.7397 22.3528 17.5592 21.8629 16.8744C21.6854 16.6166 21.5107 16.209 21.6915 15.716C21.8394 15.2866 22.2796 14.3911 22.6176 13.8899Z" fill="#3A4ECC"/>
</svg>
